<?xml version="1.0" standalone="no"?>
<!DOCTYPE svg PUBLIC "-//W3C//DTD SVG 20010904//EN"
 "http://www.w3.org/TR/2001/REC-SVG-20010904/DTD/svg10.dtd">
<svg version="1.0" xmlns="http://www.w3.org/2000/svg"
 width="121.000000px" height="76.000000px" viewBox="0 0 121.000000 76.000000"
 preserveAspectRatio="xMidYMid meet">

<g transform="translate(0.000000,76.000000) scale(0.100000,-0.100000)"
fill="#000000" stroke="none">
<path d="M955 668 c-4 -18 -2 -53 3 -78 6 -25 18 -112 28 -193 17 -145 17
-149 -2 -167 -43 -41 -82 -33 -93 19 l-6 33 -24 -21 c-38 -33 -175 -72 -271
-78 -75 -4 -90 -2 -130 19 -25 13 -49 33 -55 45 -13 30 -21 29 -40 -6 -31 -62
-94 -79 -139 -38 -24 22 -25 26 -35 241 -10 211 -21 274 -37 210 -10 -38 -10
-63 6 -284 7 -102 17 -195 21 -208 11 -28 54 -45 94 -38 16 4 46 23 67 43 l37
36 31 -26 c60 -51 156 -60 283 -28 41 11 94 29 116 40 48 25 61 26 61 6 0 -8
12 -22 26 -31 38 -25 92 -9 117 34 19 32 19 37 3 185 -10 84 -20 165 -23 181
-4 24 -2 28 11 23 24 -9 20 19 -9 70 -14 23 -28 43 -30 43 -2 0 -7 -15 -10
-32z"/>
<path d="M1077 687 c-5 -13 14 -239 33 -391 5 -43 7 -90 3 -104 -4 -17 -2 -23
5 -18 22 13 24 77 8 216 -19 163 -20 224 -6 215 15 -9 12 20 -7 60 -18 37 -28
43 -36 22z"/>
<path d="M542 655 c-17 -37 -15 -84 3 -91 18 -7 45 13 45 33 0 12 -3 13 -14 4
-20 -17 -29 2 -22 45 8 40 4 44 -12 9z"/>
<path d="M360 645 c-5 -14 -10 -33 -10 -41 0 -22 -10 -17 -45 23 -22 26 -36
35 -49 30 -26 -10 -17 -50 14 -57 16 -4 31 -19 43 -43 10 -21 21 -35 26 -32 5
3 14 27 21 55 13 53 23 61 39 33 16 -29 33 -3 18 27 -18 35 -45 37 -57 5z"/>
<path d="M623 526 c-257 -115 -283 -129 -283 -151 0 -7 43 9 108 40 103 50
316 147 395 179 20 8 37 22 37 30 0 9 -1 16 -2 16 -2 -1 -117 -52 -255 -114z"/>
<path d="M851 508 c-1 -34 -18 -37 -31 -5 -8 21 -9 21 -9 -5 -1 -31 -27 -39
-34 -10 -3 9 -5 2 -6 -15 -1 -26 3 -33 17 -32 59 3 88 33 71 74 -7 17 -8 16
-8 -7z"/>
<path d="M577 375 c-21 -45 -22 -89 -1 -106 20 -17 48 -1 52 32 4 20 2 22 -13
9 -14 -12 -18 -12 -26 1 -4 8 -7 21 -4 29 11 39 17 70 13 70 -2 0 -12 -16 -21
-35z"/>
<path d="M802 398 c-18 -18 -15 -36 10 -49 18 -10 24 -8 35 7 11 15 10 20 -4
36 -19 21 -25 22 -41 6z"/>
<path d="M64 175 c-13 -20 -14 -28 -4 -40 6 -8 9 -18 6 -23 -3 -5 15 1 39 12
54 26 57 36 9 33 -24 -1 -39 3 -42 12 -3 9 1 11 17 6 15 -5 21 -2 21 9 0 25
-28 19 -46 -9z"/>
<path d="M1030 175 c-11 -13 -10 -15 3 -10 29 12 31 -18 3 -42 -15 -12 -23
-23 -18 -23 17 0 63 53 60 69 -4 22 -32 25 -48 6z"/>
<path d="M816 172 c-3 -6 2 -13 11 -16 14 -6 13 -10 -8 -33 l-24 -27 25 16
c15 9 25 25 25 38 0 24 -19 38 -29 22z"/>
<path d="M107 99 c-22 -11 -37 -23 -34 -25 5 -6 87 33 87 41 0 9 -14 4 -53
-16z"/>
<path d="M360 105 c-10 -12 -10 -18 0 -30 17 -20 37 -19 49 3 18 34 -24 57
-49 27z"/>
</g>
</svg>
