<?xml version="1.0" standalone="no"?>
<!DOCTYPE svg PUBLIC "-//W3C//DTD SVG 20010904//EN"
 "http://www.w3.org/TR/2001/REC-SVG-20010904/DTD/svg10.dtd">
<svg version="1.0" xmlns="http://www.w3.org/2000/svg"
 width="130.000000px" height="76.000000px" viewBox="0 0 130.000000 76.000000"
 preserveAspectRatio="xMidYMid meet">

<g transform="translate(0.000000,76.000000) scale(0.100000,-0.100000)"
fill="#000000" stroke="none">
<path d="M1165 618 c12 -140 46 -453 49 -463 2 -5 7 8 11 29 5 26 0 105 -14
220 -24 204 -25 220 -11 211 15 -9 12 12 -5 45 -27 52 -38 37 -30 -42z"/>
<path d="M1017 668 c-4 -12 11 -213 28 -370 l7 -66 -39 -20 c-108 -56 -265
-81 -330 -53 -57 24 -64 45 -78 255 -14 193 -29 274 -47 243 -5 -9 -4 -35 2
-63 6 -26 17 -126 24 -223 9 -120 18 -186 29 -207 41 -80 189 -79 394 4 l53
22 15 -30 c18 -35 60 -50 81 -29 7 8 16 28 20 45 8 39 -16 64 -61 64 -38 0
-38 1 -55 160 -15 144 -13 191 6 183 14 -5 14 -1 -1 33 -9 22 -19 45 -22 52
-3 6 -9 12 -13 12 -4 0 -10 -6 -13 -12z m129 -483 c19 -14 19 -14 -2 -15 -12
0 -27 7 -34 15 -17 20 9 21 36 0z"/>
<path d="M340 609 c-90 -53 -107 -66 -98 -74 7 -7 191 100 196 114 6 18 -9 12
-98 -40z"/>
<path d="M656 651 c-3 -4 6 -24 21 -44 14 -19 29 -51 33 -69 8 -33 8 -33 9 10
1 24 -6 56 -14 71 -15 29 -41 46 -49 32z"/>
<path d="M825 627 c-9 -34 8 -58 27 -39 9 9 10 15 2 20 -7 4 -14 16 -16 27 -4
17 -6 16 -13 -8z"/>
<path d="M91 613 c-8 -15 -12 -16 -36 -3 -23 12 -28 12 -35 0 -14 -22 -12 -28
11 -40 15 -8 24 -8 34 0 8 6 23 9 35 5 22 -7 53 11 44 26 -3 5 -14 13 -24 19
-15 8 -21 6 -29 -7z"/>
<path d="M858 540 c-148 -66 -198 -102 -198 -142 0 -26 18 -22 22 5 2 17 31
36 135 88 73 37 137 69 144 71 7 2 10 9 8 15 -2 7 -45 -7 -111 -37z"/>
<path d="M137 454 c-19 -31 -33 -44 -45 -42 -9 2 -16 12 -16 21 1 10 -10 24
-27 33 -28 14 -29 13 -29 -6 0 -12 13 -38 29 -58 l30 -37 -16 -57 c-19 -66 -8
-94 33 -84 13 4 24 1 27 -7 4 -9 6 -9 6 2 1 7 12 26 26 43 32 38 32 69 0 107
l-26 30 21 41 c30 59 20 69 -13 14z m4 -124 l24 -20 -24 -20 c-32 -28 -71 -27
-71 2 0 21 26 58 40 58 4 0 18 -9 31 -20z"/>
<path d="M300 463 c0 -14 11 -54 24 -87 13 -34 27 -78 31 -98 6 -34 4 -40 -31
-73 -50 -45 -115 -77 -151 -73 -20 2 -33 13 -46 38 l-18 35 5 -49 c5 -59 26
-80 71 -70 57 11 146 73 173 120 11 18 13 18 22 2 29 -49 68 -61 106 -34 28
21 27 98 -3 128 l-23 22 0 -21 c0 -12 8 -35 18 -52 15 -28 15 -33 2 -41 -22
-14 -34 -12 -63 10 -19 15 -30 39 -42 93 -15 69 -58 177 -69 177 -4 0 -6 -12
-6 -27z"/>
<path d="M441 464 c-26 -33 -26 -46 -1 -62 17 -10 27 -9 58 5 l37 17 -48 4
c-32 2 -47 7 -44 15 2 7 11 11 20 9 22 -4 30 13 13 27 -11 9 -18 6 -35 -15z"/>
<path d="M920 404 c-11 -28 -13 -77 -4 -87 10 -10 34 4 34 20 0 8 -4 12 -9 8
-15 -9 -22 30 -12 59 6 14 8 26 6 26 -3 0 -10 -12 -15 -26z"/>
<path d="M789 344 c-20 -51 -22 -98 -5 -119 16 -20 16 -20 36 4 23 27 27 49 5
31 -31 -26 -46 19 -25 76 6 15 8 29 6 32 -3 3 -11 -8 -17 -24z"/>
<path d="M240 293 c0 -35 16 -51 33 -34 8 8 9 14 1 19 -6 4 -16 16 -22 27 -10
18 -11 17 -12 -12z"/>
<path d="M495 124 c-63 -27 -82 -40 -73 -49 8 -8 138 53 138 65 0 12 6 14 -65
-16z"/>
<path d="M1006 131 c-4 -5 0 -11 6 -14 10 -3 10 -7 -1 -20 -8 -11 -9 -17 -3
-17 12 0 32 31 32 49 0 13 -27 15 -34 2z"/>
</g>
</svg>
