<?xml version="1.0" standalone="no"?>
<!DOCTYPE svg PUBLIC "-//W3C//DTD SVG 20010904//EN"
 "http://www.w3.org/TR/2001/REC-SVG-20010904/DTD/svg10.dtd">
<svg version="1.0" xmlns="http://www.w3.org/2000/svg"
 width="134.000000px" height="76.000000px" viewBox="0 0 134.000000 76.000000"
 preserveAspectRatio="xMidYMid meet">

<g transform="translate(0.000000,76.000000) scale(0.100000,-0.100000)"
fill="#000000" stroke="none">
<path d="M495 626 c-55 -23 -115 -50 -132 -59 -30 -16 -33 -16 -33 -2 0 9 5
25 11 36 9 17 13 18 26 8 13 -11 14 -10 11 11 -5 40 -34 37 -48 -5 l-12 -37
-22 21 c-28 27 -46 27 -46 0 0 -12 8 -23 20 -26 12 -3 24 -20 32 -44 11 -38
41 -58 31 -21 -3 15 16 28 104 69 59 27 123 56 141 63 17 7 32 16 32 21 0 13
-6 11 -115 -35z"/>
<path d="M722 645 c-7 -14 -12 -34 -12 -43 -1 -16 -1 -16 -11 0 -5 10 -19 22
-29 28 -17 9 -20 7 -20 -10 0 -11 7 -20 15 -20 8 0 21 -12 29 -27 l14 -28 6
25 c3 14 7 34 8 45 2 12 11 19 21 19 11 -1 17 4 15 14 -5 26 -24 24 -36 -3z"/>
<path d="M829 633 c-12 -31 3 -55 23 -35 9 9 9 12 -1 12 -9 0 -12 9 -9 25 7
33 0 32 -13 -2z"/>
<path d="M1107 646 c-6 -14 12 -239 29 -366 6 -45 5 -47 -25 -60 -28 -11 -34
-10 -51 5 -11 10 -20 29 -20 42 0 23 0 23 -37 7 -57 -24 -124 -47 -127 -43 -2
2 -6 25 -10 50 -6 44 -5 47 19 53 28 7 33 27 9 47 -11 9 -14 22 -9 48 11 65
15 72 36 66 14 -5 17 -3 13 9 -3 9 -12 16 -18 16 -14 0 -36 -42 -36 -67 0 -11
-7 -8 -26 12 -20 22 -28 25 -34 15 -11 -17 -4 -30 15 -30 15 0 31 -44 27 -67
-2 -7 2 -13 8 -13 5 0 10 -4 10 -10 0 -5 -6 -10 -14 -10 -21 0 -27 -28 -16
-71 6 -22 8 -43 6 -48 -17 -26 -234 -31 -292 -6 -75 31 -89 58 -54 102 23 30
26 71 6 98 -26 37 -66 -8 -66 -75 0 -27 -5 -30 -72 -52 -59 -19 -84 -34 -135
-81 -45 -42 -68 -58 -85 -55 -44 6 -35 78 11 98 39 16 60 70 41 105 -11 21 -9
28 19 63 43 55 39 64 -9 17 -33 -33 -44 -38 -58 -28 -9 6 -16 18 -14 26 1 10
-10 23 -28 32 -29 15 -30 15 -30 -6 0 -12 12 -38 27 -57 24 -32 25 -37 13 -66
-16 -36 -14 -184 2 -203 22 -27 61 -14 114 38 41 41 68 57 130 79 l79 28 20
-36 c32 -57 74 -76 183 -80 107 -5 187 8 289 48 l72 27 6 -29 c9 -39 43 -55
81 -36 53 25 58 51 42 227 -8 94 -10 159 -5 162 12 8 3 47 -16 73 -12 17 -14
17 -20 2z m-601 -268 c4 -15 1 -25 -12 -35 -16 -12 -19 -11 -26 7 -9 25 0 50
17 50 8 0 17 -10 21 -22z m-320 -74 c-24 -17 -56 -18 -56 -1 0 7 7 23 16 36
l16 23 22 -22 c21 -21 21 -21 2 -36z"/>
<path d="M1035 640 c-11 -5 -110 -44 -220 -87 -134 -53 -201 -84 -203 -95 -2
-12 55 7 227 76 129 51 231 97 231 104 0 14 -7 14 -35 2z"/>
<path d="M1220 576 c0 -30 7 -118 15 -197 9 -79 13 -157 9 -174 -5 -25 -4 -28
7 -17 16 15 18 121 5 261 -7 74 -6 92 4 86 9 -6 10 -1 5 16 -10 31 -34 79 -40
79 -3 0 -5 -24 -5 -54z"/>
<path d="M586 574 c-17 -45 3 -93 24 -55 9 17 8 20 -6 14 -15 -5 -16 -2 -11
25 7 34 3 42 -7 16z"/>
<path d="M136 563 c-11 -11 -6 -41 8 -46 7 -3 18 -1 24 5 8 8 15 8 25 -1 11
-9 17 -8 27 4 17 21 -6 51 -26 34 -9 -7 -19 -7 -32 0 -11 6 -22 7 -26 4z"/>
<path d="M445 540 c-9 -15 4 -50 20 -50 7 0 15 5 17 11 3 8 10 8 26 -2 19 -12
24 -12 32 1 13 20 -18 54 -36 39 -9 -7 -19 -7 -33 0 -13 8 -22 8 -26 1z"/>
<path d="M1006 534 c-13 -33 -6 -94 10 -101 9 -3 20 0 25 8 13 20 11 29 -5 23
-18 -7 -29 26 -20 60 7 28 0 36 -10 10z"/>
<path d="M355 424 c-89 -39 -111 -55 -102 -78 8 -22 25 -20 23 2 -1 12 22 28
81 57 130 64 129 77 -2 19z"/>
<path d="M706 404 c-21 -61 -21 -113 0 -121 8 -3 21 0 27 6 9 10 8 15 -5 22
-20 11 -24 62 -8 105 6 15 9 29 6 31 -2 2 -11 -17 -20 -43z"/>
<path d="M1032 385 c-22 -47 -8 -81 19 -48 8 10 9 14 2 10 -18 -11 -25 10 -13
34 7 11 10 23 7 25 -2 2 -9 -7 -15 -21z"/>
<path d="M67 383 c-4 -3 -7 -19 -7 -35 0 -30 23 -39 33 -14 4 11 1 13 -10 9
-13 -5 -15 -1 -11 20 6 29 5 31 -5 20z"/>
<path d="M591 350 c-10 -31 -6 -60 9 -60 16 0 23 22 10 30 -8 5 -10 17 -6 34
9 36 0 33 -13 -4z"/>
<path d="M350 195 c-10 -12 -10 -15 0 -15 8 0 10 -8 7 -22 -6 -22 -6 -22 8 -4
26 34 11 72 -15 41z"/>
<path d="M860 155 c-12 -15 -12 -17 -1 -10 11 6 13 2 7 -21 -5 -23 -4 -26 5
-11 5 10 9 27 7 39 -3 21 -4 21 -18 3z"/>
<path d="M964 149 c-3 -6 0 -17 7 -25 18 -17 44 -2 36 20 -7 18 -33 21 -43 5z"/>
<path d="M1134 130 c1 -27 2 -28 14 -13 16 22 15 43 -2 43 -8 0 -13 -11 -12
-30z"/>
</g>
</svg>
