<?xml version="1.0" standalone="no"?>
<!DOCTYPE svg PUBLIC "-//W3C//DTD SVG 20010904//EN"
 "http://www.w3.org/TR/2001/REC-SVG-20010904/DTD/svg10.dtd">
<svg version="1.0" xmlns="http://www.w3.org/2000/svg"
 width="146.000000px" height="76.000000px" viewBox="0 0 146.000000 76.000000"
 preserveAspectRatio="xMidYMid meet">

<g transform="translate(0.000000,76.000000) scale(0.100000,-0.100000)"
fill="#000000" stroke="none">
<path d="M835 670 c-112 -32 -192 -64 -217 -87 -9 -8 -20 -29 -23 -45 -6 -27
-1 -36 42 -82 63 -65 103 -115 103 -127 0 -9 -59 -39 -78 -39 -4 0 -16 13 -25
29 -24 41 -56 50 -79 21 -23 -29 -24 -78 -1 -87 9 -4 32 -7 50 -7 42 -1 42
-18 0 -50 -48 -36 -100 -56 -149 -56 -86 0 -113 55 -63 128 14 20 25 51 25 69
0 26 6 36 30 48 16 8 32 26 36 40 8 31 -9 80 -27 80 -14 0 -15 -13 -4 -52 9
-29 -29 -42 -56 -18 -16 16 -19 16 -25 2 -3 -9 3 -36 14 -60 l20 -45 -21 -20
c-12 -11 -87 -55 -167 -97 -80 -43 -149 -81 -153 -85 -5 -4 22 -2 60 6 56 12
108 33 226 92 4 2 7 -15 7 -38 0 -30 6 -47 25 -65 64 -65 249 1 270 95 5 21
15 32 40 40 42 14 57 32 64 78 l6 37 87 -81 c118 -112 184 -130 249 -68 l27
25 25 -25 c29 -29 44 -31 81 -15 44 20 51 56 38 202 -15 162 -15 190 -2 182
18 -11 11 22 -14 65 -15 27 -25 37 -29 27 -3 -8 1 -77 8 -155 26 -273 25 -282
-38 -282 -23 0 -31 6 -40 30 -14 37 -20 37 -42 4 -22 -33 -75 -55 -114 -48
-20 4 -80 49 -164 121 -72 62 -153 128 -180 145 -44 29 -46 33 -31 49 19 21
129 59 254 89 92 22 146 25 155 11 3 -5 -18 -36 -46 -68 -68 -78 -84 -112 -19
-43 64 69 90 109 90 138 0 21 -4 22 -62 21 -38 0 -104 -12 -163 -29z m-235
-365 c10 -13 9 -15 -8 -15 -22 0 -36 13 -25 24 10 10 20 7 33 -9z"/>
<path d="M1327 676 c-7 -17 5 -190 23 -351 6 -49 11 -117 13 -150 l2 -60 14
43 c13 37 12 63 -3 205 -9 89 -19 175 -21 191 -4 22 -2 27 10 22 22 -8 18 21
-9 73 -18 34 -24 40 -29 27z"/>
<path d="M285 660 c-20 -23 -13 -39 9 -21 16 13 69 4 60 -10 -3 -5 -20 -16
-37 -23 l-32 -14 27 -1 c28 -1 88 42 88 64 0 31 -88 35 -115 5z"/>
<path d="M540 654 c-6 -14 -10 -31 -10 -37 0 -7 -12 3 -26 21 -29 37 -54 42
-54 11 0 -13 8 -23 20 -26 12 -3 28 -20 37 -37 15 -28 17 -29 24 -11 4 11 10
33 14 49 6 27 7 28 25 11 19 -17 20 -17 20 1 0 20 -17 44 -32 44 -5 0 -13 -12
-18 -26z"/>
<path d="M1149 575 c-1 -5 0 -20 1 -32 1 -13 -3 -23 -9 -23 -6 0 -11 9 -11 19
0 11 -4 23 -10 26 -6 4 -10 -7 -10 -24 0 -40 -30 -43 -31 -3 l-1 27 -8 -28
c-14 -45 -4 -59 39 -51 45 8 61 21 61 48 0 22 -19 58 -21 41z"/>
<path d="M826 539 c-14 -17 -26 -37 -26 -45 0 -22 30 -29 48 -10 15 15 15 16
-1 16 -21 0 -22 19 -1 48 22 32 10 27 -20 -9z"/>
<path d="M211 528 c-27 -85 -22 -151 13 -172 13 -9 20 -7 32 8 21 30 17 44
-11 39 -20 -4 -25 0 -31 21 -3 15 -2 50 4 79 12 60 9 73 -7 25z"/>
<path d="M956 429 c-31 -36 -34 -69 -7 -69 10 0 25 8 32 17 12 15 12 16 -3 10
-27 -10 -31 10 -8 43 28 39 19 39 -14 -1z"/>
<path d="M1131 423 c-9 -16 -13 -16 -32 -5 -18 12 -24 12 -36 0 -12 -12 -11
-17 7 -33 19 -17 21 -17 39 -1 12 11 21 14 26 7 9 -16 42 -13 48 3 5 14 -2 24
-30 40 -6 3 -16 -2 -22 -11z"/>
<path d="M465 330 c-4 -12 -1 -27 5 -35 8 -10 8 -19 0 -35 -12 -23 -6 -40 15
-40 24 0 36 33 18 52 -13 14 -13 20 -3 33 15 18 6 45 -14 45 -8 0 -18 -9 -21
-20z"/>
<path d="M854 199 c-3 -6 0 -15 7 -20 11 -8 8 -14 -14 -34 -37 -33 -17 -32 22
1 35 29 42 64 12 64 -11 0 -23 -5 -27 -11z"/>
<path d="M1117 193 c-9 -9 -9 -23 1 -22 21 4 23 -3 6 -23 l-19 -23 23 19 c24
21 30 56 9 56 -8 0 -17 -3 -20 -7z"/>
<path d="M638 120 c-54 -28 -75 -46 -65 -56 6 -6 147 69 147 79 0 13 -24 6
-82 -23z"/>
</g>
</svg>
