<?xml version="1.0" standalone="no"?>
<!DOCTYPE svg PUBLIC "-//W3C//DTD SVG 20010904//EN"
 "http://www.w3.org/TR/2001/REC-SVG-20010904/DTD/svg10.dtd">
<svg version="1.0" xmlns="http://www.w3.org/2000/svg"
 width="173.000000px" height="76.000000px" viewBox="0 0 173.000000 76.000000"
 preserveAspectRatio="xMidYMid meet">

<g transform="translate(0.000000,76.000000) scale(0.100000,-0.100000)"
fill="#000000" stroke="none">
<path d="M1447 676 c-3 -8 1 -70 8 -138 8 -68 16 -154 17 -193 l3 -69 -65 -18
c-80 -23 -239 -48 -301 -48 -103 0 -201 51 -213 111 l-6 31 -44 -26 c-56 -33
-62 -33 -93 4 -32 39 -73 40 -102 4 -45 -57 -18 -100 61 -97 26 0 48 -3 48 -7
0 -21 -68 -62 -141 -85 -97 -30 -123 -31 -149 -5 -35 35 -26 73 29 127 61 60
69 88 46 150 -14 36 -15 48 -6 51 15 5 -26 52 -46 52 -22 0 -15 -43 18 -104
17 -31 29 -63 26 -70 -9 -22 -335 -159 -446 -186 -67 -17 -44 -21 66 -10 78 7
121 17 187 45 99 41 111 43 96 16 -5 -11 -10 -38 -10 -60 0 -36 4 -44 33 -62
44 -28 112 -19 204 26 75 37 111 71 120 115 3 17 17 31 44 44 22 10 41 17 42
15 2 -2 7 -17 13 -34 6 -20 24 -38 54 -55 39 -22 60 -25 160 -28 129 -4 277
20 355 58 37 18 44 26 50 60 6 34 -4 158 -22 275 -5 36 -4 38 11 26 24 -20 21
12 -6 60 -23 42 -33 47 -41 25z m-736 -366 c39 -21 9 -41 -35 -24 -13 5 -14 9
-5 20 14 17 15 17 40 4z"/>
<path d="M1586 664 c-3 -8 5 -106 19 -217 13 -111 26 -227 27 -257 l3 -55 14
30 c11 25 11 53 -3 180 -9 83 -19 168 -23 189 -5 35 -4 39 11 33 14 -6 16 -3
10 16 -8 27 -43 97 -48 97 -2 0 -7 -7 -10 -16z"/>
<path d="M551 617 c-7 -19 -9 -42 -5 -51 9 -23 48 -17 53 9 3 17 1 18 -13 6
-13 -11 -17 -11 -22 3 -3 9 -3 27 0 41 9 37 -1 30 -13 -8z"/>
<path d="M1226 635 c-9 -9 -16 -28 -16 -43 0 -26 0 -26 -34 11 -36 40 -60 47
-70 20 -7 -18 9 -33 36 -33 9 0 26 -16 38 -35 24 -39 40 -38 40 3 0 40 15 59
33 44 23 -19 30 12 8 33 -17 15 -20 15 -35 0z"/>
<path d="M912 618 c4 -31 -14 -36 -29 -8 -11 23 -11 23 -15 -5 -4 -36 -25 -44
-36 -14 -9 23 -9 23 -14 1 -3 -11 -1 -28 6 -37 9 -13 17 -13 46 -4 19 7 41 13
48 15 15 4 16 74 1 74 -6 0 -9 -10 -7 -22z"/>
<path d="M686 604 c-19 -18 -20 -36 -4 -52 14 -14 -10 -44 -57 -73 -16 -11
-25 -19 -19 -19 7 0 36 16 65 36 30 20 61 33 71 31 22 -6 25 18 3 27 -9 3 -15
18 -15 36 0 34 -19 40 -44 14z m34 -24 c0 -5 -4 -10 -9 -10 -6 0 -13 5 -16 10
-3 6 1 10 9 10 9 0 16 -4 16 -10z"/>
<path d="M1033 503 c21 -6 22 -17 2 -33 -8 -7 -15 -21 -15 -31 0 -21 37 -25
75 -9 15 7 10 9 -22 9 -48 1 -53 9 -23 36 27 25 25 35 -7 34 -17 -1 -21 -3
-10 -6z"/>
<path d="M839 484 c-11 -14 -10 -19 10 -35 18 -15 27 -17 37 -8 20 16 17 37
-5 49 -25 13 -26 13 -42 -6z"/>
<path d="M224 466 c-8 -21 3 -36 26 -36 12 0 26 -13 35 -30 21 -40 32 -38 40
10 7 42 13 48 33 28 9 -9 12 -8 12 4 0 19 -26 42 -38 34 -5 -3 -12 -20 -16
-37 l-6 -32 -21 27 c-29 37 -58 51 -65 32z"/>
<path d="M1219 414 c-19 -47 -17 -105 4 -118 15 -9 21 -7 33 8 18 25 18 37 1
30 -26 -10 -41 23 -29 63 14 45 7 57 -9 17z"/>
<path d="M835 170 c-3 -5 3 -10 14 -10 36 0 23 -30 -21 -50 -24 -11 -35 -20
-25 -20 24 0 93 36 99 52 3 7 3 19 1 26 -5 14 -59 16 -68 2z"/>
<path d="M1415 160 c-3 -5 3 -10 14 -10 36 0 23 -30 -21 -51 -35 -17 -38 -19
-13 -14 41 8 79 38 83 64 3 17 -2 21 -27 21 -16 0 -33 -4 -36 -10z"/>
<path d="M312 131 c-67 -30 -97 -51 -71 -51 21 0 159 62 159 72 0 13 -21 8
-88 -21z"/>
</g>
</svg>
