<?xml version="1.0" standalone="no"?>
<!DOCTYPE svg PUBLIC "-//W3C//DTD SVG 20010904//EN"
 "http://www.w3.org/TR/2001/REC-SVG-20010904/DTD/svg10.dtd">
<svg version="1.0" xmlns="http://www.w3.org/2000/svg"
 width="183.000000px" height="76.000000px" viewBox="0 0 183.000000 76.000000"
 preserveAspectRatio="xMidYMid meet">

<g transform="translate(0.000000,76.000000) scale(0.100000,-0.100000)"
fill="#000000" stroke="none">
<path d="M1470 701 c-6 -12 -7 -37 -1 -68 5 -26 12 -87 16 -134 7 -86 7 -86
-22 -108 -25 -20 -20 -22 21 -5 9 3 15 -6 19 -33 11 -63 9 -70 -24 -82 -50
-17 -66 -13 -88 22 -11 19 -33 39 -48 46 -26 12 -30 10 -55 -18 -18 -20 -28
-43 -28 -62 0 -25 6 -32 34 -44 20 -9 48 -12 65 -9 46 9 40 -16 -12 -48 -55
-34 -156 -68 -205 -68 -79 0 -113 60 -76 131 14 28 18 30 53 24 50 -8 65 10
58 70 -5 47 -29 85 -54 85 -8 0 -40 -26 -71 -59 -31 -32 -69 -61 -84 -65 -42
-10 -77 9 -84 44 -4 16 -8 30 -10 30 -3 0 -21 -11 -42 -24 -67 -45 -88 -44
-131 3 -21 22 -45 41 -54 41 -24 0 -67 -58 -67 -90 0 -37 23 -50 89 -50 71 0
59 -20 -45 -72 -126 -62 -231 -64 -264 -4 -19 36 -4 62 53 95 78 45 78 45 88
90 8 34 6 48 -11 81 -11 22 -16 40 -10 40 16 0 12 22 -8 36 -50 38 -56 -9 -12
-96 l30 -59 -48 -26 c-144 -81 -250 -102 -325 -66 -55 27 -71 58 -57 112 8 28
19 43 36 49 13 5 29 21 34 35 14 37 13 40 -9 21 -42 -38 -55 18 -21 93 23 50
24 55 9 45 -24 -15 -59 -115 -58 -167 0 -29 -3 -82 -6 -119 -7 -65 -6 -68 22
-97 43 -43 128 -51 241 -24 20 5 22 2 22 -37 0 -33 6 -48 29 -71 26 -26 36
-29 90 -29 112 0 275 81 286 143 5 27 15 36 61 58 l55 26 11 -21 c16 -30 28
-36 79 -36 31 0 55 6 72 20 23 18 47 26 47 16 0 -2 -9 -23 -20 -47 -67 -148
38 -218 223 -149 73 27 136 74 149 111 7 19 19 31 36 35 15 3 40 10 56 15 16
5 30 8 31 7 1 -2 7 -13 13 -24 14 -27 76 -57 101 -49 20 6 41 45 41 75 0 30
-47 60 -96 60 -47 0 -45 -3 -58 76 -4 25 1 37 23 58 15 15 34 26 41 24 10 -2
14 11 14 47 1 59 -22 73 -50 30 -15 -23 -16 -30 -5 -48 12 -18 11 -22 -5 -34
-10 -7 -21 -10 -25 -6 -4 5 -10 46 -14 93 -7 77 -6 83 9 71 11 -9 16 -10 16
-2 0 14 -48 111 -55 111 -2 0 -9 -9 -15 -19z m125 -181 c3 -5 1 -10 -4 -10 -6
0 -11 5 -11 10 0 6 2 10 4 10 3 0 8 -4 11 -10z m-457 -198 c14 -21 13 -22 -16
-22 -36 0 -49 15 -31 36 15 18 28 14 47 -14z m-468 -27 c11 -13 8 -15 -18 -15
-31 0 -47 11 -35 24 11 11 40 6 53 -9z m679 -19 c7 -9 8 -17 2 -20 -14 -9 -63
12 -56 24 9 15 41 12 54 -4z m296 -39 c25 -19 3 -30 -29 -16 -14 7 -26 16 -26
21 0 13 34 9 55 -5z"/>
<path d="M1680 695 c-6 -16 -8 -35 -5 -43 8 -22 55 -419 56 -477 l1 -50 15 35
c14 32 13 52 -6 230 -24 223 -25 232 -11 210 20 -32 20 1 -1 52 -30 71 -36 76
-49 43z"/>
<path d="M758 688 c-29 -45 -29 -58 -2 -85 l27 -26 -34 -29 c-19 -15 -73 -54
-121 -85 -48 -31 -86 -59 -83 -61 12 -12 161 72 210 119 51 48 57 51 81 41 33
-16 34 -15 34 8 0 10 -9 24 -19 30 -15 7 -21 23 -23 58 -3 42 -6 47 -29 50
-18 2 -30 -4 -41 -20z m50 -41 c4 -30 -5 -34 -33 -13 -17 12 -17 16 -6 30 19
23 35 15 39 -17z"/>
<path d="M188 676 c-14 -33 -4 -58 24 -54 12 2 23 9 26 16 2 7 -2 10 -12 6
-25 -10 -36 4 -26 31 12 32 3 32 -12 1z"/>
<path d="M375 646 c-168 -67 -193 -82 -208 -113 -10 -21 -8 -27 8 -39 22 -16
35 0 16 19 -18 18 -13 25 31 48 35 18 250 99 263 99 1 0 1 -18 -2 -40 -4 -31
-2 -41 11 -46 10 -4 23 -1 29 5 9 9 6 13 -11 17 -12 4 -22 11 -22 18 0 29 14
56 31 61 24 8 25 25 2 24 -10 0 -76 -24 -148 -53z"/>
<path d="M997 671 c-19 -32 -23 -86 -7 -96 6 -3 19 -3 30 0 26 8 27 35 1 28
-28 -7 -34 11 -16 53 19 46 15 53 -8 15z"/>
<path d="M1149 651 c-13 -11 -21 -23 -17 -27 4 -4 14 -1 22 5 10 8 27 10 48 6
l32 -7 -44 -24 c-44 -23 -44 -23 -15 -24 62 0 125 66 79 84 -31 12 -82 6 -105
-13z"/>
<path d="M1334 636 c-10 -40 -1 -71 20 -71 11 0 21 6 24 13 3 9 -3 12 -14 10
-16 -2 -19 3 -18 35 1 43 -3 48 -12 13z"/>
<path d="M1070 510 c-6 -12 -9 -26 -6 -33 2 -7 5 -3 5 8 1 15 4 16 13 7 7 -7
16 -12 20 -12 13 0 9 27 -6 39 -12 10 -17 8 -26 -9z"/>
<path d="M970 505 c0 -8 8 -19 18 -22 22 -9 41 -34 42 -55 0 -22 16 -23 24 -2
8 20 8 39 0 31 -4 -3 -16 8 -28 26 -24 35 -56 48 -56 22z"/>
<path d="M797 473 c-15 -15 -5 -41 20 -52 24 -11 29 -10 41 6 11 16 10 20 -9
36 -22 18 -41 22 -52 10z"/>
<path d="M1242 457 c-23 -25 -29 -47 -12 -47 6 0 10 -7 10 -15 0 -13 4 -13 33
-1 17 8 40 17 50 20 36 11 16 26 -28 19 -33 -4 -45 -2 -45 7 0 7 8 10 20 7 20
-5 45 15 33 26 -13 14 -40 6 -61 -16z"/>
<path d="M231 407 c-17 -17 -13 -35 8 -47 27 -14 34 -13 49 10 10 17 8 21 -17
34 -21 11 -31 12 -40 3z"/>
<path d="M856 151 c-3 -5 3 -11 14 -14 31 -8 24 -23 -22 -52 -28 -17 -34 -24
-18 -19 53 15 99 61 85 84 -8 12 -52 13 -59 1z"/>
<path d="M1486 151 c-3 -5 3 -11 14 -14 28 -7 17 -30 -25 -53 -48 -26 -36 -30
14 -5 41 22 67 54 56 71 -8 12 -52 13 -59 1z"/>
<path d="M232 141 c-10 -6 -9 -10 7 -14 31 -8 25 -23 -16 -41 l-38 -17 35 6
c41 7 75 37 67 59 -7 17 -34 21 -55 7z"/>
</g>
</svg>
