<?xml version="1.0" standalone="no"?>
<!DOCTYPE svg PUBLIC "-//W3C//DTD SVG 20010904//EN"
 "http://www.w3.org/TR/2001/REC-SVG-20010904/DTD/svg10.dtd">
<svg version="1.0" xmlns="http://www.w3.org/2000/svg"
 width="117.000000px" height="76.000000px" viewBox="0 0 117.000000 76.000000"
 preserveAspectRatio="xMidYMid meet">

<g transform="translate(0.000000,76.000000) scale(0.100000,-0.100000)"
fill="#000000" stroke="none">
<path d="M512 657 c-23 -24 -32 -51 -10 -29 14 14 64 16 73 2 3 -5 -9 -19 -27
-30 -29 -17 -30 -20 -11 -20 35 0 70 20 82 47 15 32 16 31 -26 42 -52 15 -57
14 -81 -12z"/>
<path d="M731 619 c-135 -60 -161 -74 -161 -90 0 -4 46 14 103 40 56 26 128
58 159 71 31 13 55 27 52 32 -8 12 -10 12 -153 -53z"/>
<path d="M941 661 c-7 -13 -6 -62 4 -157 8 -77 15 -158 15 -180 l0 -41 -64 -7
c-90 -9 -119 -21 -216 -88 -90 -63 -120 -69 -131 -28 -6 22 -7 21 -8 -11 -2
-80 50 -80 157 1 91 68 105 75 185 84 96 12 101 23 93 175 -3 69 -9 139 -13
155 -5 25 -3 28 12 23 14 -6 16 -3 11 17 -9 37 -25 76 -30 76 -3 0 -10 -9 -15
-19z"/>
<path d="M177 663 c-15 -14 -6 -34 18 -43 16 -6 32 -25 41 -47 18 -42 27 -35
38 30 7 38 8 38 27 21 18 -16 19 -16 19 2 0 20 -17 44 -31 44 -4 0 -13 -16
-19 -36 l-12 -36 -30 36 c-30 36 -39 42 -51 29z"/>
<path d="M1047 647 c-3 -8 1 -115 9 -238 8 -123 12 -240 8 -259 -4 -28 -3 -33
7 -22 19 18 22 117 10 281 -11 143 -9 169 9 141 14 -22 12 -3 -7 57 -17 53
-27 64 -36 40z"/>
<path d="M398 628 c-3 -7 6 -28 19 -47 13 -19 23 -50 24 -70 l1 -36 9 30 c16
56 -36 176 -53 123z"/>
<path d="M871 543 c-1 -27 -16 -30 -30 -5 -9 15 -10 15 -11 -5 0 -13 -4 -23
-9 -23 -5 0 -12 10 -14 23 -3 15 -5 12 -6 -11 -1 -33 0 -33 32 -27 42 9 50 17
44 46 -4 24 -4 24 -6 2z"/>
<path d="M86 505 c-9 -26 -7 -32 5 -12 6 10 9 21 6 23 -2 3 -7 -2 -11 -11z"/>
<path d="M245 449 c-9 -50 3 -64 33 -43 38 26 26 84 -18 84 -5 0 -11 -18 -15
-41z m45 -9 c0 -5 -5 -12 -11 -16 -14 -8 -33 11 -25 25 7 11 36 4 36 -9z"/>
<path d="M542 467 c-12 -13 -22 -26 -22 -30 0 -11 30 -8 66 5 28 10 39 9 73
-7 22 -10 38 -21 36 -25 -3 -4 -33 -11 -67 -14 -48 -6 -69 -14 -95 -37 -26
-22 -43 -29 -77 -29 -36 0 -45 4 -54 26 -16 34 -36 20 -27 -20 4 -17 7 -51 8
-75 2 -45 2 -45 -53 -74 -50 -26 -62 -28 -136 -25 -90 3 -114 16 -139 73 l-13
30 -1 -40 c-2 -79 49 -115 161 -115 118 1 189 45 203 128 5 34 10 39 48 48 23
6 48 13 56 15 9 2 17 -8 23 -28 5 -18 13 -33 19 -33 7 0 9 -11 5 -27 -5 -26
-5 -27 6 -5 6 12 17 22 25 22 23 0 46 67 34 101 -5 16 -9 30 -8 30 1 1 60 4
132 8 108 5 130 9 133 22 2 13 -13 20 -64 33 -36 9 -88 28 -115 41 -64 33
-127 34 -157 2z m53 -157 c14 -16 16 -23 7 -32 -9 -9 -16 -7 -32 7 -23 21 -26
45 -7 45 8 0 22 -9 32 -20z"/>
<path d="M67 440 c-4 -19 -7 -51 -6 -70 1 -19 -1 -51 -5 -70 l-6 -35 10 32 c6
17 23 41 39 52 16 11 31 30 34 41 4 17 3 19 -9 9 -23 -19 -42 -3 -46 38 l-4
38 -7 -35z"/>
<path d="M210 314 c-11 -12 -10 -18 3 -32 16 -15 18 -15 34 0 13 14 14 20 3
32 -7 9 -16 16 -20 16 -4 0 -13 -7 -20 -16z"/>
<path d="M445 200 c-3 -5 1 -10 9 -10 27 0 17 -29 -16 -50 -18 -11 -28 -20
-23 -20 6 0 25 9 43 20 38 23 46 70 13 70 -11 0 -23 -4 -26 -10z"/>
<path d="M947 183 c-3 -5 8 -20 23 -35 l28 -27 6 25 c4 14 11 22 16 19 6 -3
10 -2 10 4 0 21 -21 21 -29 -1 l-8 -22 -14 22 c-14 23 -25 27 -32 15z"/>
<path d="M855 170 c-4 -6 -3 -10 2 -9 42 7 43 -15 1 -41 -18 -11 -27 -20 -21
-20 21 0 77 56 69 68 -9 15 -43 16 -51 2z"/>
</g>
</svg>
