<?xml version="1.0" standalone="no"?>
<!DOCTYPE svg PUBLIC "-//W3C//DTD SVG 20010904//EN"
 "http://www.w3.org/TR/2001/REC-SVG-20010904/DTD/svg10.dtd">
<svg version="1.0" xmlns="http://www.w3.org/2000/svg"
 width="141.000000px" height="76.000000px" viewBox="0 0 141.000000 76.000000"
 preserveAspectRatio="xMidYMid meet">

<g transform="translate(0.000000,76.000000) scale(0.100000,-0.100000)"
fill="#000000" stroke="none">
<path d="M910 655 c-200 -78 -257 -104 -264 -121 -8 -20 3 -18 85 20 41 18
138 58 216 87 79 30 143 60 143 67 0 17 6 18 -180 -53z"/>
<path d="M1156 704 c-6 -15 2 -102 34 -344 4 -36 4 -69 0 -74 -12 -12 -110
-21 -110 -10 1 5 7 20 15 34 8 14 14 34 15 45 0 29 -37 86 -52 80 -25 -10 -58
-74 -58 -114 0 -35 -3 -40 -31 -50 -40 -14 -144 -14 -169 -1 -48 26 -47 80 0
80 29 0 60 22 60 42 0 7 -18 9 -54 4 -41 -4 -72 0 -136 19 -107 32 -144 32
-175 0 -14 -13 -25 -29 -25 -35 0 -13 49 -13 88 1 32 11 102 -3 102 -21 0 -12
-94 -49 -155 -62 -72 -14 -97 -6 -130 42 -39 56 -53 32 -25 -40 11 -28 18 -56
14 -61 -8 -13 -101 -59 -224 -110 -100 -42 -103 -44 -67 -47 84 -7 269 78 299
136 16 32 18 33 85 36 51 2 95 13 177 44 60 23 110 42 112 42 2 0 4 -16 4 -35
0 -69 72 -103 176 -84 32 6 67 15 77 21 13 6 31 4 61 -7 62 -24 120 -7 143 40
15 30 14 44 -1 163 -19 150 -20 186 -6 177 18 -11 10 29 -14 69 -19 32 -24 35
-30 20z m-73 -355 c7 -27 -40 -60 -54 -38 -13 21 -11 40 8 61 18 20 37 11 46
-23z"/>
<path d="M1271 679 c-4 -13 -5 -39 0 -59 7 -33 36 -359 42 -465 l2 -50 14 30
c10 24 11 57 1 170 -24 292 -24 288 -12 281 16 -10 15 2 -4 57 -19 56 -31 66
-43 36z"/>
<path d="M571 661 c-16 -28 -14 -81 3 -87 38 -15 82 49 59 85 -15 24 -50 25
-62 2z m39 -26 c10 -12 10 -19 2 -27 -15 -15 -48 14 -38 31 10 15 21 14 36 -4z"/>
<path d="M327 663 c-3 -5 -8 -23 -12 -41 l-7 -33 -32 37 c-23 27 -37 36 -50
31 -24 -9 -16 -39 14 -54 13 -6 31 -26 41 -44 15 -30 17 -31 27 -13 5 10 13
34 17 52 7 34 14 39 33 20 18 -18 27 -1 14 27 -11 24 -36 33 -45 18z"/>
<path d="M453 614 c-3 -9 -6 -32 -7 -52 -1 -28 3 -37 18 -40 10 -2 22 2 27 10
13 20 11 34 -3 20 -26 -26 -42 0 -28 47 9 32 4 43 -7 15z"/>
<path d="M879 573 c-21 -57 15 -101 42 -51 11 21 11 22 -5 9 -26 -22 -41 -1
-28 38 13 38 5 41 -9 4z"/>
<path d="M1029 534 c-12 -14 -10 -19 11 -36 21 -17 25 -17 39 -3 12 12 13 19
5 33 -15 23 -38 26 -55 6z"/>
<path d="M196 440 c-19 -47 -21 -121 -4 -138 30 -30 68 -1 68 50 -1 20 -2 21
-11 6 -5 -10 -19 -18 -29 -18 -17 0 -20 7 -20 39 0 22 5 52 10 67 6 15 9 29 7
31 -3 2 -12 -14 -21 -37z"/>
<path d="M629 224 c-16 -20 -1 -48 29 -52 29 -4 41 37 16 55 -23 17 -29 16
-45 -3z"/>
<path d="M482 208 c-16 -16 -15 -31 2 -25 27 10 26 -7 -1 -35 -34 -36 -18 -37
19 -1 32 31 38 73 10 73 -10 0 -23 -5 -30 -12z"/>
<path d="M1017 198 c-21 -11 -22 -28 -2 -28 21 0 19 -10 -7 -38 l-23 -25 22
12 c24 12 53 49 53 67 0 17 -23 24 -43 12z"/>
<path d="M1224 175 l-6 -26 -22 20 c-26 25 -36 26 -36 6 0 -8 6 -15 14 -15 8
0 18 -9 21 -20 9 -29 22 -25 30 10 6 26 9 29 22 18 13 -10 15 -9 12 6 -6 30
-28 30 -35 1z"/>
<path d="M851 163 c-1 -7 -7 -10 -15 -7 -8 3 -17 1 -20 -5 -4 -6 -19 -8 -34
-5 -21 4 -41 -3 -81 -30 -61 -42 -58 -48 6 -10 26 15 64 27 95 30 57 4 62 7
55 26 -4 9 -6 9 -6 1z"/>
<path d="M318 115 c-88 -45 -113 -65 -81 -65 25 1 176 82 181 98 6 18 -6 15
-100 -33z"/>
</g>
</svg>
