<?xml version="1.0" standalone="no"?>
<!DOCTYPE svg PUBLIC "-//W3C//DTD SVG 20010904//EN"
 "http://www.w3.org/TR/2001/REC-SVG-20010904/DTD/svg10.dtd">
<svg version="1.0" xmlns="http://www.w3.org/2000/svg"
 width="132.000000px" height="76.000000px" viewBox="0 0 132.000000 76.000000"
 preserveAspectRatio="xMidYMid meet">

<g transform="translate(0.000000,76.000000) scale(0.100000,-0.100000)"
fill="#000000" stroke="none">
<path d="M382 665 c-39 -19 -72 -39 -72 -44 0 -6 2 -11 4 -11 10 0 113 50 131
63 38 29 10 25 -63 -8z"/>
<path d="M945 693 c-11 -3 -82 -25 -158 -50 -109 -36 -142 -51 -162 -75 -43
-51 -35 -74 56 -161 88 -85 94 -105 39 -124 -34 -11 -36 -11 -70 28 -26 29
-40 38 -53 33 -19 -7 -47 -53 -47 -77 0 -25 35 -47 75 -47 l38 0 -19 -21 c-28
-32 -133 -79 -175 -79 -50 0 -73 27 -66 77 14 97 30 145 52 153 25 9 35 29 35
66 0 29 -16 64 -30 64 -13 0 -13 -36 0 -60 9 -17 6 -21 -16 -26 -21 -5 -31 -2
-45 17 -17 23 -18 23 -25 5 -5 -13 0 -33 14 -57 12 -21 22 -47 22 -58 0 -36
-149 -127 -290 -177 -57 -20 -61 -23 -32 -23 60 -2 169 30 227 65 32 19 59 34
62 34 2 0 1 -9 -2 -20 -9 -28 12 -88 35 -100 32 -17 93 -11 148 15 83 39 110
62 118 100 5 29 13 37 50 51 47 18 61 42 52 89 -3 14 -2 25 3 25 4 0 46 -32
93 -70 l86 -70 64 0 c58 0 67 3 86 28 24 29 24 26 4 266 -5 59 -4 77 4 72 7
-4 12 -2 12 5 0 18 -34 88 -43 89 -15 0 -24 -44 -16 -80 13 -58 33 -296 26
-313 -5 -13 -20 -17 -71 -17 -62 0 -67 2 -118 44 -29 25 -104 81 -165 126 -62
45 -113 85 -113 90 0 15 46 35 182 79 192 62 208 56 118 -43 -33 -37 -60 -69
-60 -71 0 -23 98 71 121 117 20 40 25 78 10 78 -5 0 -15 2 -23 4 -7 2 -22 2
-33 -1z m-326 -406 c6 -8 8 -17 5 -20 -10 -9 -45 13 -39 24 9 13 21 11 34 -4z"/>
<path d="M1186 665 c-5 -14 13 -254 33 -427 5 -42 6 -89 4 -105 -5 -23 -3 -26
8 -15 18 16 16 133 -3 320 -12 109 -12 132 -1 128 19 -8 16 22 -7 72 -21 46
-25 49 -34 27z"/>
<path d="M510 615 c-14 -42 -8 -65 18 -65 44 0 70 70 33 90 -31 16 -39 12 -51
-25z m47 -11 c6 -16 -15 -37 -29 -28 -4 3 -8 14 -8 25 0 23 28 26 37 3z"/>
<path d="M393 594 c-4 -11 1 -22 13 -31 16 -12 20 -11 31 3 9 13 10 21 2 31
-16 18 -38 16 -46 -3z"/>
<path d="M442 554 c-7 -13 -13 -14 -29 -5 -16 8 -24 7 -34 -5 -11 -14 -10 -18
6 -30 16 -12 21 -12 35 1 10 9 20 11 30 5 9 -5 19 -5 27 2 18 14 16 21 -7 35
-16 11 -21 10 -28 -3z"/>
<path d="M1015 551 c-47 -30 -151 -128 -143 -136 3 -3 35 19 71 49 l66 55 -6
-33 c-6 -37 8 -54 27 -31 10 12 9 15 -5 15 -14 0 -16 5 -10 28 3 15 14 35 22
45 23 25 12 29 -22 8z"/>
<path d="M290 521 c-5 -11 -10 -27 -10 -35 0 -23 -7 -20 -39 16 -16 18 -33 28
-39 24 -20 -12 -13 -36 13 -46 14 -5 30 -21 35 -35 14 -36 27 -31 35 12 9 51
15 57 30 36 18 -25 31 -9 17 22 -14 30 -28 32 -42 6z"/>
<path d="M550 422 c0 -17 5 -23 17 -20 9 2 18 9 21 17 3 9 0 11 -8 6 -7 -4
-16 -2 -21 6 -6 10 -9 8 -9 -9z"/>
<path d="M217 303 c-12 -11 -8 -23 8 -23 23 0 18 -16 -12 -40 l-28 -21 31 15
c31 15 44 33 44 62 0 14 -31 20 -43 7z"/>
<path d="M490 222 c0 -5 7 -9 15 -9 8 0 12 4 9 9 -3 4 -9 8 -15 8 -5 0 -9 -4
-9 -8z"/>
<path d="M852 218 c-7 -7 -12 -22 -12 -35 0 -30 -5 -29 -39 9 -16 18 -33 28
-39 24 -19 -12 -14 -37 8 -43 12 -3 27 -18 36 -34 20 -40 31 -36 39 11 7 42
13 48 33 28 18 -18 27 -1 14 27 -13 28 -22 31 -40 13z"/>
<path d="M454 199 c-3 -5 3 -9 13 -9 11 0 25 -6 32 -12 10 -11 11 -10 6 4 -7
18 -42 31 -51 17z"/>
<path d="M1090 165 c-10 -12 -10 -15 4 -15 24 0 19 -16 -11 -39 -16 -11 -22
-21 -15 -21 19 0 72 55 72 74 0 20 -34 21 -50 1z"/>
</g>
</svg>
