<?xml version="1.0" standalone="no"?>
<!DOCTYPE svg PUBLIC "-//W3C//DTD SVG 20010904//EN"
 "http://www.w3.org/TR/2001/REC-SVG-20010904/DTD/svg10.dtd">
<svg version="1.0" xmlns="http://www.w3.org/2000/svg"
 width="149.000000px" height="76.000000px" viewBox="0 0 149.000000 76.000000"
 preserveAspectRatio="xMidYMid meet">

<g transform="translate(0.000000,76.000000) scale(0.100000,-0.100000)"
fill="#000000" stroke="none">
<path d="M690 644 c-36 -18 -99 -47 -140 -65 -77 -32 -98 -45 -88 -54 3 -3 65
21 137 55 73 33 136 60 140 60 9 0 24 30 19 35 -2 2 -32 -12 -68 -31z"/>
<path d="M970 645 c0 -17 15 -43 44 -73 100 -106 219 -248 232 -277 l14 -30
-6 39 c-5 33 -25 62 -116 164 -73 81 -107 126 -99 131 7 5 -2 18 -29 40 l-40
32 0 -26z"/>
<path d="M196 652 c-6 -10 -1 -55 34 -336 6 -50 7 -83 1 -89 -16 -16 -104 -19
-131 -5 -13 7 -30 25 -37 38 l-13 25 0 -27 c0 -15 10 -39 23 -53 28 -33 94
-43 152 -23 33 11 48 11 90 0 58 -15 120 -9 186 20 l47 19 27 -26 c23 -24 32
-27 71 -22 26 3 55 13 67 26 22 20 23 20 35 1 15 -24 49 -26 80 -4 20 14 24
14 38 0 20 -21 37 -20 58 3 16 17 20 18 46 5 40 -20 74 -9 88 28 10 26 8 38
-8 76 -11 25 -18 53 -15 62 3 9 -3 24 -15 35 -33 30 -35 -5 -5 -80 14 -37 24
-73 21 -81 -11 -28 -67 -10 -79 26 -3 11 -8 7 -16 -13 -6 -15 -18 -30 -26 -33
-19 -8 -48 15 -41 33 8 21 -4 15 -30 -13 -31 -33 -76 -30 -84 5 -5 22 -6 22
-19 7 -35 -42 -110 -59 -146 -33 -17 13 -17 15 3 35 28 28 29 81 3 113 -19 23
-19 24 -40 5 -16 -15 -21 -31 -21 -71 0 -53 0 -53 -42 -70 -48 -19 -129 -31
-153 -22 -12 5 -4 17 35 55 41 40 50 54 50 83 0 40 -51 129 -74 129 -22 0 -46
-40 -46 -77 0 -34 2 -36 60 -37 50 -1 53 -35 8 -69 -57 -42 -100 -61 -108 -46
-10 15 -26 124 -41 279 -11 111 -20 143 -33 122z m179 -232 c8 -13 -20 -24
-41 -16 -20 8 -9 26 16 26 10 0 22 -5 25 -10z m219 -92 c15 -21 14 -24 -4 -43
-18 -17 -22 -18 -30 -5 -11 17 -13 54 -3 63 11 12 21 8 37 -15z"/>
<path d="M1250 623 c0 -21 7 -99 15 -173 8 -74 15 -143 15 -153 0 -20 -49 -69
-133 -133 -45 -34 -54 -44 -37 -44 11 0 33 6 48 14 42 22 129 119 136 152 4
16 2 70 -4 119 -13 116 -13 178 0 170 15 -9 12 12 -6 51 -21 44 -34 43 -34 -3z"/>
<path d="M1362 643 c-6 -11 -9 -23 -7 -25 9 -9 46 -423 40 -446 -3 -14 -2 -21
4 -18 5 4 12 19 16 35 5 26 -7 216 -22 336 -6 46 -5 49 10 36 16 -12 16 -10 2
28 -8 23 -18 49 -23 58 -9 14 -11 14 -20 -4z"/>
<path d="M860 631 c-16 -31 -12 -61 8 -61 38 0 60 61 26 74 -22 8 -22 8 -34
-13z m33 -26 c1 -5 -6 -11 -15 -13 -11 -2 -18 3 -18 13 0 17 30 18 33 0z"/>
<path d="M1132 618 c-11 -42 2 -75 24 -57 19 16 18 30 -3 22 -14 -5 -15 -1
-10 30 7 46 1 48 -11 5z"/>
<path d="M441 613 c-1 -32 11 -44 24 -23 3 6 2 10 -4 10 -5 0 -12 10 -14 23
-3 16 -5 13 -6 -10z"/>
<path d="M726 614 c-9 -24 -7 -74 3 -74 5 0 14 7 21 15 10 12 9 15 -5 15 -14
0 -16 6 -11 30 6 32 2 40 -8 14z"/>
<path d="M355 580 c-3 -6 -17 -7 -29 -4 -28 7 -42 -19 -20 -36 11 -10 17 -10
29 0 8 7 22 9 32 6 20 -8 36 14 21 31 -13 16 -25 17 -33 3z"/>
<path d="M70 498 c-19 -42 -26 -111 -14 -142 5 -14 8 -14 29 0 13 8 25 24 28
36 5 16 3 18 -6 9 -6 -6 -17 -11 -23 -11 -23 0 -25 38 -6 94 22 67 19 73 -8
14z"/>
<path d="M933 515 c-7 -20 20 -50 36 -41 17 11 13 34 -9 46 -16 9 -22 8 -27
-5z"/>
<path d="M510 481 c-8 -16 -6 -21 11 -26 12 -4 26 -2 32 4 7 7 16 7 30 -1 26
-13 43 10 22 31 -11 11 -17 12 -29 2 -11 -9 -20 -10 -35 -2 -16 9 -22 8 -31
-8z"/>
<path d="M796 474 c-6 -16 9 -44 24 -44 14 0 20 32 9 46 -15 18 -25 18 -33 -2z"/>
<path d="M773 414 c-3 -8 2 -23 11 -32 16 -16 18 -16 31 2 12 16 17 17 30 6
21 -17 51 6 34 26 -14 17 -36 18 -42 2 -3 -10 -9 -10 -26 0 -27 16 -30 15 -38
-4z"/>
<path d="M51 314 c0 -11 3 -14 6 -6 3 7 2 16 -1 19 -3 4 -6 -2 -5 -13z"/>
<path d="M1127 314 c-12 -13 -8 -24 10 -24 14 0 12 -4 -7 -25 -13 -14 -19 -25
-13 -25 15 0 41 32 45 55 3 19 -21 33 -35 19z"/>
<path d="M1307 203 c-11 -10 -8 -35 3 -28 16 10 11 -17 -7 -39 -13 -15 -10
-14 10 3 28 25 37 71 14 71 -8 0 -17 -3 -20 -7z"/>
<path d="M520 179 c-13 -9 -13 -11 -1 -16 11 -4 8 -10 -10 -25 -20 -16 -20
-17 -3 -9 11 5 27 17 34 26 17 20 1 39 -20 24z"/>
<path d="M260 152 c-44 -15 -122 -53 -118 -57 6 -6 118 34 132 47 13 10 5 16
-14 10z"/>
<path d="M828 138 c-32 -11 -58 -24 -58 -28 0 -10 110 26 124 40 14 14 0 12
-66 -12z"/>
</g>
</svg>
