<?xml version="1.0" standalone="no"?>
<!DOCTYPE svg PUBLIC "-//W3C//DTD SVG 20010904//EN"
 "http://www.w3.org/TR/2001/REC-SVG-20010904/DTD/svg10.dtd">
<svg version="1.0" xmlns="http://www.w3.org/2000/svg"
 width="165.000000px" height="76.000000px" viewBox="0 0 165.000000 76.000000"
 preserveAspectRatio="xMidYMid meet">

<g transform="translate(0.000000,76.000000) scale(0.100000,-0.100000)"
fill="#000000" stroke="none">
<path d="M1230 639 c-63 -28 -121 -53 -127 -56 -7 -3 -13 -10 -13 -17 0 -7 32
3 78 25 42 21 78 36 80 35 1 -2 -3 -17 -9 -35 -6 -17 -8 -38 -5 -46 8 -23 43
-18 49 6 4 17 3 19 -6 10 -18 -18 -27 -13 -27 17 0 39 17 58 73 81 46 20 59
31 35 31 -7 0 -65 -23 -128 -51z"/>
<path d="M1517 666 c-3 -7 3 -101 14 -207 11 -107 20 -226 21 -266 1 -40 5
-70 9 -67 19 11 20 83 5 243 -20 215 -20 217 -1 201 11 -10 10 2 -7 49 -22 62
-32 72 -41 47z"/>
<path d="M381 634 c-11 -40 0 -74 24 -74 14 0 31 37 21 47 -3 4 -6 1 -6 -5 0
-7 -7 -12 -16 -12 -14 0 -16 7 -11 40 6 50 1 51 -12 4z"/>
<path d="M665 611 c-186 -71 -240 -95 -250 -111 -12 -19 2 -23 27 -7 12 8 107
48 211 88 166 65 215 90 175 89 -7 -1 -80 -27 -163 -59z"/>
<path d="M1394 657 c-3 -9 6 -104 21 -211 16 -107 25 -201 22 -209 -8 -22 -73
-33 -103 -17 -32 18 -30 24 12 49 50 30 42 53 -24 69 -60 15 -120 4 -153 -29
-29 -29 -23 -38 19 -32 27 4 42 1 51 -10 11 -14 7 -19 -28 -36 -56 -29 -109
-28 -121 2 -5 12 -18 103 -30 202 -25 216 -28 231 -41 218 -7 -7 -2 -72 16
-204 33 -242 32 -236 55 -259 27 -27 64 -25 129 5 l54 25 19 -20 c58 -62 149
-42 164 36 5 28 -10 175 -31 308 -4 22 -2 27 10 22 23 -8 18 23 -10 68 -19 32
-25 37 -31 23z m-100 -353 c13 -5 14 -10 5 -20 -8 -10 -15 -11 -29 -2 -30 19
-11 35 24 22z"/>
<path d="M244 620 c-8 -37 -13 -37 -40 -3 -14 17 -26 24 -37 20 -23 -9 -21
-28 3 -34 12 -3 27 -18 36 -34 20 -40 31 -36 39 11 7 39 18 50 30 30 12 -19
25 0 15 21 -16 29 -40 23 -46 -11z"/>
<path d="M886 624 c-8 -31 1 -64 18 -64 17 0 36 21 36 40 0 12 -2 13 -9 1 -15
-24 -42 -5 -35 24 3 14 4 25 1 25 -3 0 -8 -12 -11 -26z"/>
<path d="M830 495 c-11 -13 -10 -18 6 -30 16 -12 21 -12 33 0 12 11 12 17 1
29 -16 20 -24 20 -40 1z"/>
<path d="M625 478 c-6 -28 -9 -57 -7 -80 4 -35 62 -14 62 21 0 12 -3 12 -12 3
-27 -27 -41 -14 -35 33 7 47 1 62 -8 23z"/>
<path d="M71 453 c-15 -53 -13 -103 4 -137 8 -15 15 -51 15 -80 0 -54 23 -112
52 -130 28 -17 51 4 73 69 11 33 30 64 43 73 21 14 24 13 61 -27 31 -34 44
-41 75 -41 38 0 86 35 86 62 0 7 13 -3 29 -22 27 -33 33 -35 84 -34 35 1 75
11 111 27 43 20 56 23 56 12 0 -38 79 -43 102 -6 11 17 12 17 30 -1 21 -21 54
-17 76 10 14 18 16 70 3 91 -13 21 -24 -4 -16 -39 6 -27 4 -30 -18 -30 -30 0
-50 21 -41 44 11 28 -5 17 -21 -14 -30 -57 -95 -63 -95 -8 0 11 -3 18 -7 16
-148 -76 -238 -77 -269 -3 l-12 30 -10 -26 c-11 -29 -57 -69 -78 -69 -27 0
-60 22 -82 55 -12 19 -28 35 -36 35 -21 0 -60 -50 -80 -103 -17 -45 -44 -66
-67 -51 -33 20 -52 137 -25 158 8 6 17 22 21 36 7 22 6 23 -8 11 -9 -7 -24
-10 -33 -7 -14 5 -16 17 -12 71 3 36 4 65 2 65 -2 0 -8 -17 -13 -37z"/>
<path d="M1206 453 c-7 -18 9 -33 37 -33 20 0 23 20 5 38 -17 17 -35 15 -42
-5z"/>
<path d="M283 444 c-4 -11 1 -22 12 -31 16 -11 21 -11 35 3 13 14 13 17 -4 30
-26 18 -35 18 -43 -2z"/>
<path d="M212 438 c-13 -13 2 -38 23 -38 21 0 36 25 23 38 -7 7 -17 12 -23 12
-6 0 -16 -5 -23 -12z"/>
<path d="M462 425 c-23 -50 -8 -91 23 -65 20 17 19 31 -2 23 -14 -5 -15 -1
-10 30 7 44 4 46 -11 12z"/>
<path d="M806 433 c-4 -9 0 -23 9 -32 13 -14 17 -14 31 1 13 13 21 14 41 5 19
-9 26 -8 34 4 5 8 9 17 9 21 0 13 -41 19 -55 8 -10 -8 -19 -8 -34 -1 -26 14
-28 14 -35 -6z"/>
<path d="M932 151 c-81 -37 -118 -61 -95 -61 19 0 183 81 183 90 0 12 9 15
-88 -29z"/>
<path d="M1472 178 c-17 -17 -15 -29 3 -22 22 9 18 -6 -7 -34 -13 -14 -16 -22
-8 -17 32 17 50 39 50 62 0 25 -19 30 -38 11z"/>
<path d="M1237 173 c-12 -11 -8 -23 8 -23 23 0 18 -16 -12 -40 l-28 -21 31 15
c31 15 44 33 44 62 0 14 -31 20 -43 7z"/>
<path d="M511 151 c-13 -23 10 -47 34 -37 21 8 19 29 -5 43 -16 11 -21 10 -29
-6z"/>
<path d="M440 145 c-10 -12 -10 -18 0 -30 16 -20 36 -19 44 1 8 22 8 22 -13
33 -14 8 -22 7 -31 -4z"/>
<path d="M263 122 c-29 -14 -55 -32 -57 -39 -4 -10 125 47 143 63 16 14 -43
-2 -86 -24z"/>
</g>
</svg>
