<?xml version="1.0" standalone="no"?>
<!DOCTYPE svg PUBLIC "-//W3C//DTD SVG 20010904//EN"
 "http://www.w3.org/TR/2001/REC-SVG-20010904/DTD/svg10.dtd">
<svg version="1.0" xmlns="http://www.w3.org/2000/svg"
 width="139.000000px" height="76.000000px" viewBox="0 0 139.000000 76.000000"
 preserveAspectRatio="xMidYMid meet">

<g transform="translate(0.000000,76.000000) scale(0.100000,-0.100000)"
fill="#000000" stroke="none">
<path d="M625 689 c-12 -6 -27 -19 -33 -30 -12 -18 -11 -19 7 -10 11 6 35 11
53 11 l33 -1 -27 -17 c-27 -16 -37 -32 -20 -32 16 0 71 40 81 58 9 17 7 21
-12 26 -31 8 -58 6 -82 -5z"/>
<path d="M1075 681 c-3 -11 6 -93 20 -182 32 -207 32 -205 -6 -225 -39 -20
-75 -7 -85 31 -3 14 -7 25 -9 25 -1 0 -28 -12 -60 -26 l-57 -26 -30 36 c-36
44 -68 47 -97 10 -23 -30 -27 -64 -9 -82 7 -7 33 -12 59 -12 26 0 50 -4 54 -9
17 -28 -128 -100 -216 -108 -52 -5 -60 -3 -83 20 -14 14 -26 35 -26 45 0 29
37 70 70 77 43 10 73 52 66 94 -5 33 -31 71 -48 71 -15 0 -8 -42 12 -70 17
-24 18 -29 5 -40 -24 -20 -105 -40 -162 -40 -68 0 -114 19 -142 59 -25 35 -39
38 -80 16 -18 -9 -36 -32 -51 -67 -24 -58 -56 -98 -77 -98 -20 0 -64 74 -70
119 -5 33 -2 43 19 63 14 13 29 34 33 48 7 22 6 23 -8 11 -49 -40 -64 43 -21
116 32 56 24 68 -10 16 -38 -58 -53 -125 -36 -160 8 -15 13 -45 11 -65 -4 -60
17 -143 44 -168 40 -37 69 -22 110 60 23 46 45 74 64 84 28 15 29 15 52 -19
30 -43 59 -56 139 -62 l65 -5 -3 -43 c-5 -55 11 -83 55 -102 43 -18 95 -11
172 24 76 33 117 67 130 106 9 26 22 37 59 53 l48 21 17 -29 c22 -39 74 -39
118 0 41 36 46 87 24 212 -10 52 -20 108 -23 124 -4 24 -2 28 12 23 21 -8 20
-2 -5 50 -23 47 -34 53 -44 24z m-255 -401 c0 -13 -37 -13 -45 0 -3 6 -3 15 0
20 7 12 45 -5 45 -20z"/>
<path d="M1244 687 c-8 -23 11 -254 31 -367 8 -47 15 -102 15 -122 0 -54 18
-56 26 -3 7 52 1 120 -27 283 -23 139 -23 135 1 127 17 -6 18 -3 9 22 -5 15
-18 39 -29 53 -17 23 -19 23 -26 7z"/>
<path d="M461 667 c-5 -12 -12 -31 -16 -42 -6 -18 -8 -17 -31 13 -28 35 -48
41 -58 17 -3 -10 1 -18 12 -22 9 -3 29 -20 44 -37 31 -36 38 -33 45 23 5 35 9
41 24 36 23 -8 27 20 4 29 -10 4 -19 -2 -24 -17z"/>
<path d="M930 656 c-41 -18 -118 -55 -170 -82 -80 -41 -95 -53 -98 -75 -2 -18
3 -29 14 -33 23 -9 30 0 15 18 -7 8 -10 20 -6 26 9 15 186 102 262 130 35 12
68 29 74 36 18 22 -6 16 -91 -20z"/>
<path d="M170 659 c-14 -25 -9 -71 7 -76 18 -6 55 36 51 59 -5 31 -45 43 -58
17z m34 -28 c3 -5 0 -11 -8 -14 -15 -6 -26 1 -26 15 0 11 27 10 34 -1z"/>
<path d="M981 558 c-1 -34 -18 -36 -31 -5 -8 21 -11 19 -14 -13 -2 -22 -33
-24 -39 -3 -3 12 -5 9 -6 -9 -1 -35 8 -39 53 -27 40 11 50 25 43 61 -4 21 -4
20 -6 -4z"/>
<path d="M535 529 c-38 -16 -89 -39 -113 -51 -43 -20 -64 -50 -55 -75 8 -21
23 -15 23 10 0 19 18 32 111 77 101 50 134 71 112 70 -4 -1 -39 -14 -78 -31z"/>
<path d="M277 503 c-12 -12 -19 -13 -36 -3 -22 11 -51 0 -51 -21 0 -16 40 -31
54 -20 7 6 30 10 52 8 32 -2 39 1 39 17 0 26 -38 39 -58 19z"/>
<path d="M936 463 c-4 -5 -22 -8 -39 -8 -25 0 -32 -4 -32 -20 0 -23 34 -33 46
-14 6 11 14 11 38 2 24 -9 33 -8 42 3 21 26 -31 61 -55 37z"/>
<path d="M490 411 c-12 -24 -12 -32 -1 -50 8 -12 12 -12 25 -2 21 18 20 32 0
24 -14 -5 -16 -1 -12 20 6 32 3 34 -12 8z"/>
<path d="M1183 203 c-18 -7 -16 -23 2 -23 22 0 18 -20 -7 -48 l-23 -25 23 12
c27 14 47 53 39 75 -7 16 -13 18 -34 9z"/>
<path d="M960 175 c-10 -12 -10 -15 4 -15 22 0 20 -9 -6 -38 -22 -23 -22 -24
-2 -14 30 16 46 38 42 58 -4 24 -22 28 -38 9z"/>
<path d="M235 151 c-46 -21 -77 -51 -53 -51 15 0 108 56 108 65 0 8 -12 5 -55
-14z"/>
<path d="M339 134 c-11 -14 -10 -18 6 -30 24 -18 30 -18 46 2 11 14 10 18 -6
30 -24 18 -30 18 -46 -2z"/>
</g>
</svg>
