<?xml version="1.0" standalone="no"?>
<!DOCTYPE svg PUBLIC "-//W3C//DTD SVG 20010904//EN"
 "http://www.w3.org/TR/2001/REC-SVG-20010904/DTD/svg10.dtd">
<svg version="1.0" xmlns="http://www.w3.org/2000/svg"
 width="186.000000px" height="76.000000px" viewBox="0 0 186.000000 76.000000"
 preserveAspectRatio="xMidYMid meet">

<g transform="translate(0.000000,76.000000) scale(0.100000,-0.100000)"
fill="#000000" stroke="none">
<path d="M764 676 c-69 -32 -99 -56 -72 -56 22 0 158 68 158 80 0 15 -8 13
-86 -24z"/>
<path d="M915 677 c-4 -19 -4 -49 -1 -65 4 -16 18 -130 31 -253 22 -206 26
-225 47 -242 42 -35 123 -8 140 45 7 20 78 -56 79 -83 l1 -24 9 25 c9 24 12
25 107 27 105 2 243 32 273 59 29 26 30 59 14 244 -18 211 -18 195 1 180 12
-10 10 -1 -6 40 -12 30 -25 61 -30 70 -20 35 -20 -23 0 -219 28 -285 29 -275
-20 -295 -56 -22 -59 -21 -47 22 6 22 7 46 4 55 -8 22 -66 57 -93 57 -32 0
-113 -59 -153 -111 -20 -26 -42 -48 -48 -48 -14 -1 -42 25 -59 55 -10 17 -12
17 -27 -12 -29 -55 -102 -71 -135 -29 -22 27 -25 51 -47 334 -14 183 -27 238
-40 168z m556 -435 l32 -29 -31 -22 c-48 -34 -212 -56 -212 -28 0 16 44 58 90
86 48 29 83 27 121 -7z"/>
<path d="M565 680 c-3 -10 -1 -45 4 -77 6 -32 19 -142 31 -246 11 -103 25
-198 30 -211 18 -49 84 -60 158 -26 44 20 62 48 62 100 0 32 -57 123 -81 128
-26 5 -69 -47 -69 -82 0 -44 16 -56 71 -56 83 0 77 -33 -11 -56 -60 -16 -97
-6 -105 28 -3 13 -16 117 -30 233 -22 189 -39 285 -50 285 -2 0 -6 -9 -10 -20z
m210 -400 c18 -20 17 -20 -12 -20 -36 0 -47 9 -32 27 15 18 23 17 44 -7z"/>
<path d="M1726 685 c-3 -9 3 -112 15 -228 11 -117 20 -240 21 -274 0 -35 4
-60 9 -58 19 12 20 82 5 252 -20 223 -20 219 -1 203 11 -9 10 1 -5 46 -23 67
-35 82 -44 59z"/>
<path d="M1030 674 c0 -9 11 -29 25 -46 14 -17 25 -42 25 -59 0 -16 5 -29 10
-29 18 0 11 84 -10 118 -21 34 -50 43 -50 16z"/>
<path d="M164 665 c-9 -23 3 -43 28 -47 15 -2 31 -18 47 -47 27 -49 34 -44 46
32 6 46 7 48 25 32 11 -10 20 -12 24 -6 8 13 -15 51 -31 51 -15 0 -33 -32 -33
-59 0 -27 -17 -27 -25 -1 -6 20 -51 60 -67 60 -5 0 -11 -7 -14 -15z"/>
<path d="M420 655 c-5 -61 9 -87 35 -65 20 17 19 32 -2 28 -13 -2 -19 6 -24
32 l-6 35 -3 -30z"/>
<path d="M1405 636 c-122 -45 -258 -102 -326 -137 -47 -23 -69 -44 -69 -64 0
-2 21 8 47 23 27 15 138 63 247 107 110 44 201 86 204 93 5 17 -1 15 -103 -22z"/>
<path d="M797 583 c-5 -7 -6 -17 -2 -22 3 -5 0 -13 -6 -16 -6 -4 -13 3 -17 16
l-6 24 -5 -23 c-3 -13 -10 -23 -16 -23 -5 0 -13 10 -16 23 -6 22 -6 22 -14 -5
-10 -38 4 -50 49 -41 40 7 50 19 44 56 -2 16 -6 19 -11 11z"/>
<path d="M86 538 c-38 -66 -48 -97 -51 -173 -2 -38 -6 -92 -10 -120 -6 -43 -4
-54 16 -79 63 -79 257 -85 413 -11 48 23 57 32 68 67 10 35 10 45 -8 76 -10
20 -25 37 -31 40 -20 6 -15 -37 8 -74 l21 -34 -55 -25 c-79 -35 -208 -59 -270
-50 -89 11 -147 57 -147 115 0 32 11 50 31 50 27 0 59 36 59 66 l0 26 -18 -23
c-13 -15 -25 -20 -37 -15 -15 5 -17 14 -11 54 3 26 17 69 31 97 30 62 25 71
-9 13z"/>
<path d="M461 522 c-6 -11 -11 -29 -11 -39 0 -13 -7 -10 -30 16 -31 34 -53 37
-58 8 -2 -11 6 -19 23 -23 16 -4 33 -20 44 -43 19 -35 19 -35 24 -11 18 85 17
82 33 69 24 -19 30 0 7 22 l-21 21 -11 -20z"/>
<path d="M1380 452 c0 -31 -4 -42 -15 -42 -10 0 -15 10 -15 33 0 24 -3 28 -10
17 -14 -22 -12 -46 5 -63 12 -13 20 -13 51 -2 43 15 54 30 47 68 -7 36 -24 35
-21 -2 4 -36 -16 -46 -20 -11 -6 45 -22 46 -22 2z"/>
<path d="M742 458 c-16 -16 -15 -23 3 -42 28 -27 69 10 44 40 -14 17 -31 18
-47 2z"/>
<path d="M1156 421 c-9 -16 -16 -46 -16 -66 0 -31 3 -35 25 -35 14 0 25 2 25
4 0 2 3 11 6 19 4 12 0 14 -14 10 -29 -7 -35 11 -17 53 19 46 12 57 -9 15z"/>
<path d="M481 392 c-41 -20 -76 -43 -79 -50 -3 -10 3 -10 29 1 76 32 129 61
133 74 7 18 0 16 -83 -25z"/>
<path d="M284 383 c-10 -16 -15 -16 -34 -5 -24 14 -50 2 -50 -24 0 -24 33 -34
53 -17 14 13 22 14 42 5 21 -10 26 -9 36 9 8 17 7 23 -8 35 -23 17 -26 17 -39
-3z"/>
<path d="M256 284 c-3 -9 -6 -29 -6 -45 0 -22 5 -29 20 -29 11 0 20 7 20 15 0
8 -7 15 -16 15 -13 0 -15 7 -10 30 6 32 2 40 -8 14z"/>
</g>
</svg>
