<?xml version="1.0" standalone="no"?>
<!DOCTYPE svg PUBLIC "-//W3C//DTD SVG 20010904//EN"
 "http://www.w3.org/TR/2001/REC-SVG-20010904/DTD/svg10.dtd">
<svg version="1.0" xmlns="http://www.w3.org/2000/svg"
 width="160.000000px" height="76.000000px" viewBox="0 0 160.000000 76.000000"
 preserveAspectRatio="xMidYMid meet">

<g transform="translate(0.000000,76.000000) scale(0.100000,-0.100000)"
fill="#000000" stroke="none">
<path d="M1062 683 c-35 -19 -61 -37 -58 -40 6 -7 126 58 126 68 0 12 4 13
-68 -28z"/>
<path d="M1060 629 c-8 -14 -8 -24 -1 -33 6 -7 7 -16 3 -21 -4 -4 12 2 36 14
23 12 42 23 42 26 0 2 -16 1 -35 -2 -23 -4 -35 -2 -35 6 0 6 7 11 15 11 8 0
15 5 15 10 0 18 -29 10 -40 -11z"/>
<path d="M475 589 c-3 -9 3 -103 14 -209 12 -105 21 -202 22 -213 0 -21 1 -21
10 2 6 16 4 72 -6 169 -18 173 -18 175 -4 166 12 -7 7 16 -17 70 -10 24 -14
27 -19 15z"/>
<path d="M1343 584 c-3 -9 6 -87 21 -173 27 -157 27 -227 0 -161 -16 38 -96
139 -153 195 -44 42 -50 55 -25 55 33 0 -17 37 -73 54 -48 15 -20 -26 112
-170 74 -81 138 -158 141 -171 8 -32 -4 -44 -97 -94 -60 -33 -68 -39 -40 -35
61 11 139 52 154 83 29 57 29 153 1 296 -5 26 -4 28 15 22 14 -4 21 -2 21 6 0
13 -59 109 -66 109 -3 0 -7 -7 -11 -16z"/>
<path d="M873 578 c-6 -7 -13 -20 -18 -28 -6 -12 -5 -13 6 -2 15 14 45 16 54
2 3 -5 -7 -16 -22 -24 l-28 -15 25 -1 c31 0 70 25 70 46 0 14 -38 34 -64 34
-8 0 -18 -6 -23 -12z"/>
<path d="M1458 578 c-3 -8 3 -63 13 -123 10 -61 24 -157 31 -215 10 -92 13
-101 20 -71 8 31 -11 250 -28 318 -7 25 5 30 25 11 27 -26 0 36 -29 65 -20 21
-29 25 -32 15z"/>
<path d="M240 564 c0 -9 8 -18 19 -21 10 -2 24 -17 32 -31 l13 -27 10 38 c7
26 14 36 24 32 8 -3 12 0 10 7 -8 22 -32 14 -38 -11 l-6 -24 -17 26 c-19 30
-47 36 -47 11z"/>
<path d="M1240 524 c0 -29 20 -46 37 -33 16 14 17 33 1 23 -6 -4 -17 1 -25 11
-12 18 -13 18 -13 -1z"/>
<path d="M621 490 c-46 -22 -82 -43 -79 -46 7 -6 147 51 174 71 37 28 -9 16
-95 -25z"/>
<path d="M142 483 c-36 -52 -53 -95 -51 -126 2 -18 -1 -49 -5 -70 -11 -49 7
-92 45 -108 58 -24 255 16 287 58 16 23 15 75 -2 99 -14 18 -15 18 -21 1 -4
-10 0 -28 10 -43 10 -15 13 -30 8 -35 -5 -5 -44 -18 -87 -29 -128 -32 -202
-24 -224 25 -14 31 -5 61 24 80 28 18 32 37 7 33 -29 -5 -26 29 6 87 33 59 35
73 3 28z"/>
<path d="M294 444 c3 -8 2 -13 -3 -10 -15 9 -21 -36 -11 -79 5 -22 12 -51 14
-65 3 -14 3 -2 1 25 -3 28 -7 60 -11 72 -5 18 -1 23 20 29 29 7 35 29 10 38
-23 9 -27 8 -20 -10z"/>
<path d="M797 443 c-12 -11 -7 -19 13 -20 11 -1 20 4 20 13 0 14 -21 19 -33 7z"/>
<path d="M991 429 c-1 -29 22 -55 39 -44 16 10 12 35 -5 29 -9 -4 -18 2 -24
17 l-10 24 0 -26z"/>
<path d="M720 430 c0 -5 9 -19 20 -30 11 -11 20 -27 20 -35 0 -15 20 -22 20
-7 0 4 3 18 6 32 4 17 3 21 -4 12 -7 -10 -13 -7 -26 12 -17 26 -36 35 -36 16z"/>
<path d="M603 384 c-8 -20 17 -36 34 -22 10 8 10 14 2 24 -15 18 -28 18 -36
-2z"/>
<path d="M883 340 c-18 -7 -43 -38 -43 -53 0 -2 22 1 50 7 42 8 56 7 87 -8
l38 -19 -35 -14 c-66 -28 -174 -46 -226 -38 -39 5 -57 15 -86 46 -20 21 -39
35 -42 31 -3 -5 3 -29 12 -55 21 -59 14 -72 -59 -110 -114 -58 -168 -45 -170
42 -1 59 -17 26 -18 -36 -1 -59 24 -83 87 -83 66 1 162 53 175 95 5 17 10 35
12 42 3 8 14 8 42 -3 56 -20 109 -17 207 12 49 14 130 31 180 37 68 10 92 17
94 28 2 13 -10 17 -60 22 -40 4 -88 17 -128 36 -69 33 -82 35 -117 21z"/>
<path d="M1045 180 c-3 -6 4 -10 16 -10 21 0 21 -1 6 -18 -10 -10 -17 -29 -17
-42 0 -20 3 -22 32 -16 18 3 37 11 43 17 7 7 -1 9 -27 4 -30 -6 -38 -4 -38 8
0 8 7 20 15 27 8 7 15 19 15 26 0 16 -36 19 -45 4z"/>
<path d="M1416 159 c-11 -16 -12 -26 -5 -35 6 -7 8 -17 5 -22 -3 -5 12 0 34
10 45 23 50 30 18 28 -37 -3 -48 -1 -48 10 0 6 6 10 13 8 14 -3 23 15 9 20 -6
2 -17 -7 -26 -19z"/>
<path d="M720 140 c13 -8 13 -13 2 -30 -12 -20 -11 -20 8 -10 28 15 27 50 -2
50 -19 0 -20 -2 -8 -10z"/>
<path d="M123 122 c-48 -20 -70 -38 -33 -27 42 12 106 43 90 44 -8 0 -34 -8
-57 -17z"/>
<path d="M233 124 c-7 -19 11 -39 26 -30 16 10 13 33 -4 40 -9 3 -18 -1 -22
-10z"/>
</g>
</svg>
