<?xml version="1.0" standalone="no"?>
<!DOCTYPE svg PUBLIC "-//W3C//DTD SVG 20010904//EN"
 "http://www.w3.org/TR/2001/REC-SVG-20010904/DTD/svg10.dtd">
<svg version="1.0" xmlns="http://www.w3.org/2000/svg"
 width="155.000000px" height="76.000000px" viewBox="0 0 155.000000 76.000000"
 preserveAspectRatio="xMidYMid meet">

<g transform="translate(0.000000,76.000000) scale(0.100000,-0.100000)"
fill="#000000" stroke="none">
<path d="M1297 695 c-26 -26 -30 -55 -12 -76 22 -24 16 -32 -77 -101 -37 -28
-68 -53 -68 -55 0 -15 128 68 153 99 24 30 33 35 48 28 24 -13 29 -13 29 4 0
8 -7 16 -15 20 -9 3 -15 18 -15 39 0 44 -21 64 -43 42z m26 -28 c9 -23 -8 -40
-22 -23 -13 15 -7 36 9 36 4 0 10 -6 13 -13z"/>
<path d="M624 675 c-8 -19 3 -34 32 -45 13 -5 30 -25 38 -45 18 -43 36 -46 36
-6 0 47 17 82 36 74 12 -4 15 -1 12 13 -6 31 -40 23 -51 -11 -14 -43 -14 -43
-48 -2 -33 40 -46 45 -55 22z"/>
<path d="M907 661 c-18 -31 -15 -56 10 -65 14 -6 13 -9 -3 -27 -10 -12 -47
-42 -81 -67 -35 -25 -61 -48 -58 -50 9 -9 101 52 137 90 32 34 39 38 57 28 17
-9 21 -8 21 4 0 8 -6 19 -14 23 -8 4 -16 26 -18 48 -4 50 -27 57 -51 16z m41
-24 c2 -10 -3 -17 -12 -17 -18 0 -29 16 -21 31 9 14 29 6 33 -14z"/>
<path d="M289 665 c-15 -8 -29 -22 -33 -31 -6 -17 3 -17 62 1 39 13 24 -13
-20 -34 -40 -18 -41 -19 -15 -20 40 -1 93 24 107 50 11 19 10 25 -6 36 -23 17
-62 16 -95 -2z"/>
<path d="M1094 644 c-8 -20 -14 -46 -12 -57 3 -25 37 -35 49 -15 14 21 11 27
-11 21 -16 -4 -20 0 -20 21 0 15 5 36 10 47 6 10 8 19 5 19 -3 0 -13 -16 -21
-36z"/>
<path d="M117 608 c-43 -92 -61 -166 -49 -207 6 -20 8 -67 5 -104 -10 -118 27
-152 167 -151 87 0 149 14 273 61 65 24 69 24 107 9 55 -22 96 -20 156 8 49
23 51 23 73 5 13 -11 38 -19 56 -19 32 0 33 -1 37 -52 4 -41 11 -57 34 -76 25
-22 35 -24 89 -20 34 3 80 15 104 28 61 30 136 108 144 148 4 18 13 32 21 32
8 0 28 12 45 26 38 31 41 80 10 130 -12 20 -18 42 -14 53 4 13 -3 25 -22 41
l-28 22 -3 -29 c-2 -19 9 -49 33 -88 19 -32 35 -65 35 -72 0 -7 -16 -21 -35
-30 l-36 -17 -30 37 c-47 57 -100 44 -115 -29 -8 -41 16 -59 72 -57 55 2 58
-15 12 -58 -83 -76 -233 -114 -277 -70 -15 15 -21 33 -21 64 0 60 9 70 48 55
70 -27 121 34 92 107 -11 27 -13 28 -20 10 -4 -11 -3 -31 2 -44 11 -29 6 -34
-33 -34 -33 0 -50 17 -42 42 2 9 -4 5 -16 -9 -44 -55 -52 -60 -87 -60 -30 0
-37 4 -46 31 l-10 30 -27 -25 c-14 -13 -39 -30 -54 -35 -30 -12 -120 -15 -130
-5 -3 4 3 19 15 34 16 23 20 38 15 75 -2 26 -12 54 -21 63 -14 14 -19 14 -42
1 -34 -18 -56 -70 -52 -123 l3 -41 -98 -33 c-168 -56 -300 -54 -347 5 -30 38
-26 123 6 123 22 0 54 38 54 63 -1 20 -2 20 -11 5 -15 -26 -48 -22 -59 7 -12
31 1 103 30 168 30 67 18 71 -13 5z m533 -263 c0 -24 -44 -60 -60 -50 -19 12
-11 63 12 79 26 19 48 5 48 -29z m614 -31 c4 -10 -3 -14 -23 -14 -34 0 -44 9
-31 26 13 15 47 7 54 -12z"/>
<path d="M591 536 c-26 -31 16 -67 44 -37 15 17 15 20 0 35 -20 20 -29 20 -44
2z"/>
<path d="M370 515 c-5 -14 -10 -36 -10 -47 0 -18 -6 -15 -39 21 -39 43 -61 47
-61 12 0 -22 22 -43 41 -39 8 2 22 -14 33 -36 22 -44 30 -37 41 38 5 36 10 45
18 37 18 -18 29 -13 25 11 -5 33 -36 35 -48 3z"/>
<path d="M924 464 c-8 -20 -14 -46 -12 -57 3 -25 37 -35 49 -15 14 21 11 27
-11 21 -16 -4 -20 0 -20 21 0 15 5 36 10 47 6 10 8 19 5 19 -3 0 -13 -16 -21
-36z"/>
<path d="M327 343 c-12 -11 -8 -23 8 -23 26 0 16 -40 -17 -71 -36 -32 -31 -38
9 -12 29 19 56 74 47 97 -6 16 -35 22 -47 9z"/>
<path d="M1425 234 c-9 -14 -14 -15 -35 -4 -20 11 -25 10 -37 -5 -9 -14 -10
-22 -2 -32 14 -16 45 -17 54 -2 4 5 19 7 35 4 34 -8 51 22 24 42 -23 17 -27
16 -39 -3z"/>
</g>
</svg>
