<?xml version="1.0" standalone="no"?>
<!DOCTYPE svg PUBLIC "-//W3C//DTD SVG 20010904//EN"
 "http://www.w3.org/TR/2001/REC-SVG-20010904/DTD/svg10.dtd">
<svg version="1.0" xmlns="http://www.w3.org/2000/svg"
 width="133.000000px" height="76.000000px" viewBox="0 0 133.000000 76.000000"
 preserveAspectRatio="xMidYMid meet">

<g transform="translate(0.000000,76.000000) scale(0.100000,-0.100000)"
fill="#000000" stroke="none">
<path d="M602 648 c1 -13 -2 -25 -7 -28 -6 -3 -11 5 -13 18 -5 33 -22 27 -22
-8 0 -40 -30 -42 -31 -2 l0 27 -10 -24 c-14 -36 -2 -64 24 -57 12 4 31 9 41
11 11 3 23 10 28 17 11 19 10 68 -3 68 -6 0 -9 -10 -7 -22z"/>
<path d="M961 652 c-6 -11 -6 -34 -1 -58 5 -21 14 -90 20 -153 14 -130 11
-135 -57 -126 -35 5 -46 2 -64 -16 -28 -28 -17 -34 75 -43 101 -10 109 -19 39
-44 -121 -44 -185 -56 -303 -56 -86 0 -124 4 -152 16 -37 17 -51 38 -25 38 34
0 122 34 143 55 30 30 32 81 4 135 -29 57 -54 67 -86 35 -20 -20 -25 -33 -22
-63 3 -33 6 -37 33 -40 50 -4 75 -12 75 -23 0 -17 -84 -49 -136 -51 l-49 -3
-18 190 c-17 174 -26 219 -43 202 -8 -8 -7 -23 12 -220 9 -92 14 -171 10 -174
-14 -15 -86 19 -116 55 -39 47 -55 39 -92 -49 -35 -85 -45 -99 -67 -99 -19 0
-44 30 -54 65 -4 11 -4 2 -1 -20 7 -49 19 -71 43 -85 28 -15 56 14 76 80 18
57 40 90 59 90 6 0 22 -16 35 -35 20 -29 33 -37 81 -47 43 -9 62 -18 71 -34
24 -45 73 -59 209 -58 140 1 242 21 370 73 104 43 110 42 110 -16 0 -58 19
-47 27 16 5 38 8 41 37 41 20 0 36 7 43 19 14 23 1 31 -51 31 l-33 0 -6 83
c-4 45 -10 111 -13 146 -5 47 -4 62 4 57 17 -10 15 17 -5 61 -23 49 -22 48
-34 36 -8 -8 -6 -64 7 -192 10 -99 15 -183 12 -187 -3 -3 -34 0 -68 7 -50 10
-60 15 -54 28 10 21 10 58 1 163 -7 77 -6 87 7 82 9 -4 16 -1 16 7 0 13 -48
99 -55 99 -2 0 -9 -8 -14 -18z m-361 -267 c0 -16 -35 -21 -44 -6 -8 12 4 21
26 21 10 0 18 -7 18 -15z"/>
<path d="M261 624 c-7 -25 -7 -43 0 -55 12 -23 35 -25 43 -3 9 22 8 24 -8 18
-17 -7 -28 20 -20 52 10 39 -4 28 -15 -12z"/>
<path d="M726 634 c-9 -22 -9 -22 23 -38 16 -9 34 -29 39 -46 6 -16 13 -30 16
-30 3 0 11 20 17 45 12 47 18 52 37 33 9 -9 12 -9 12 2 -1 51 -43 50 -54 -2
-6 -30 -8 -31 -18 -13 -14 26 -49 65 -59 65 -4 0 -10 -7 -13 -16z"/>
<path d="M106 614 c-10 -25 -7 -72 4 -79 16 -10 60 23 60 45 0 10 -10 26 -22
34 -28 20 -34 20 -42 0z m34 -34 c0 -5 -4 -10 -10 -10 -5 0 -10 5 -10 10 0 6
5 10 10 10 6 0 10 -4 10 -10z"/>
<path d="M530 534 c-11 -12 -10 -18 3 -31 13 -13 19 -14 31 -3 13 10 19 10 32
0 12 -11 18 -10 32 3 15 16 15 18 0 34 -14 14 -20 14 -33 3 -12 -10 -19 -10
-27 -2 -16 16 -23 15 -38 -4z"/>
<path d="M69 464 c-17 -42 -23 -130 -10 -138 6 -4 12 -24 12 -44 2 -33 2 -34
6 -7 3 16 13 40 24 53 23 30 27 61 4 42 -31 -26 -47 27 -25 86 14 36 4 44 -11
8z"/>
<path d="M820 449 c-79 -43 -114 -69 -92 -69 15 0 159 72 187 94 l20 15 -20 1
c-11 0 -54 -19 -95 -41z"/>
<path d="M217 442 c-16 -18 -16 -20 1 -36 17 -15 20 -15 32 -1 11 14 15 14 30
0 12 -11 19 -12 28 -3 16 16 15 33 -2 47 -10 9 -16 8 -26 -4 -12 -14 -15 -14
-30 0 -15 14 -18 13 -33 -3z"/>
<path d="M729 303 c-15 -41 -8 -78 16 -78 11 0 21 8 23 18 2 10 -2 16 -10 15
-9 -2 -13 9 -13 35 0 44 -2 46 -16 10z"/>
<path d="M1061 154 c11 -14 9 -19 -11 -35 -14 -10 -20 -19 -13 -19 7 0 24 11
39 23 29 26 26 47 -8 47 -18 0 -19 -2 -7 -16z"/>
<path d="M295 139 c-56 -23 -90 -49 -64 -49 20 0 140 47 153 60 17 17 -35 10
-89 -11z"/>
</g>
</svg>
