<?xml version="1.0" standalone="no"?>
<!DOCTYPE svg PUBLIC "-//W3C//DTD SVG 20010904//EN"
 "http://www.w3.org/TR/2001/REC-SVG-20010904/DTD/svg10.dtd">
<svg version="1.0" xmlns="http://www.w3.org/2000/svg"
 width="183.000000px" height="76.000000px" viewBox="0 0 183.000000 76.000000"
 preserveAspectRatio="xMidYMid meet">

<g transform="translate(0.000000,76.000000) scale(0.100000,-0.100000)"
fill="#000000" stroke="none">
<path d="M935 636 c-155 -40 -200 -57 -214 -84 -21 -39 -12 -67 35 -112 56
-55 99 -133 81 -147 -39 -31 -93 -19 -103 22 l-6 25 -30 -25 c-39 -33 -60 -32
-81 5 -20 34 -47 39 -69 13 -44 -52 -28 -93 38 -93 32 0 44 -4 42 -12 -8 -24
-98 -77 -153 -89 -51 -11 -58 -11 -83 8 -20 15 -28 30 -30 61 -3 38 -1 41 32
52 20 6 43 21 51 33 27 39 13 117 -20 117 -19 0 -19 -34 0 -50 26 -22 17 -37
-37 -60 -40 -18 -78 -24 -153 -27 -88 -4 -104 -2 -133 16 -31 20 -39 42 -26
75 3 9 12 16 19 16 19 0 45 35 45 61 -1 23 -1 23 -15 5 -9 -11 -20 -16 -31
-12 -20 8 -12 64 17 114 23 39 24 49 5 33 -29 -24 -57 -102 -56 -154 1 -29 -2
-73 -6 -100 -5 -38 -3 -51 10 -66 35 -38 142 -49 252 -26 l31 7 -4 -49 c-4
-38 -1 -53 15 -73 41 -51 196 -21 255 49 15 18 27 40 27 49 0 9 16 29 34 45
40 31 46 33 46 12 0 -8 11 -22 25 -31 21 -14 30 -14 56 -4 40 17 62 52 57 90
-6 40 5 38 42 -9 17 -21 51 -52 74 -69 73 -52 118 -54 176 -6 17 15 32 25 33
23 1 -2 7 -13 13 -24 18 -32 87 -32 155 1 l57 27 45 -33 c40 -29 50 -31 89
-25 94 16 103 38 85 223 -7 72 -10 132 -5 132 12 0 10 13 -8 56 -27 65 -34 20
-19 -131 21 -204 20 -231 -7 -239 -44 -11 -83 -5 -111 18 l-29 23 32 13 c17 7
35 21 41 31 8 16 6 21 -13 28 -97 36 -208 17 -208 -35 0 -8 4 -13 9 -9 10 6
61 -14 61 -25 0 -13 -71 -40 -105 -40 -28 0 -39 6 -53 30 l-19 30 -23 -25
c-28 -30 -88 -50 -124 -41 -25 6 -306 250 -313 272 -5 15 27 27 185 69 186 50
236 42 170 -26 -37 -38 -68 -80 -68 -92 0 -4 25 20 55 54 50 56 79 112 68 132
-8 15 -81 5 -208 -27z m508 -301 c-3 -17 -27 -17 -48 0 -19 15 -18 15 15 13
19 -2 34 -7 33 -13z m-853 -40 c11 -13 8 -15 -14 -15 -25 0 -33 10 -19 23 10
11 19 8 33 -8z"/>
<path d="M1711 642 c-6 -12 -9 -32 -6 -44 7 -35 25 -273 27 -360 0 -43 3 -78
5 -78 2 0 8 11 13 25 9 25 -3 296 -16 354 -4 19 -2 22 11 17 17 -6 17 -4 -10
74 -12 34 -12 34 -24 12z"/>
<path d="M240 631 c-13 -25 -13 -78 0 -86 15 -9 40 14 39 34 0 10 -2 11 -6 4
-2 -7 -11 -13 -19 -13 -16 0 -18 33 -4 61 6 10 8 19 6 19 -3 0 -10 -9 -16 -19z"/>
<path d="M600 621 c-14 -27 -13 -42 6 -56 15 -10 10 -17 -39 -55 -31 -24 -55
-46 -53 -48 8 -7 62 27 90 56 15 17 35 28 42 25 15 -6 20 22 6 31 -5 3 -7 19
-4 36 4 25 1 30 -17 30 -11 0 -25 -9 -31 -19z m40 -22 c0 -5 -7 -9 -15 -9 -15
0 -20 12 -9 23 8 8 24 -1 24 -14z"/>
<path d="M1246 624 c-13 -34 -7 -64 14 -64 28 0 56 45 40 65 -16 20 -46 19
-54 -1z m33 -17 c12 -15 5 -27 -16 -27 -7 0 -13 9 -13 20 0 23 13 26 29 7z"/>
<path d="M1480 573 c-19 -8 -84 -35 -145 -61 -60 -25 -104 -47 -97 -50 7 -2
62 17 123 42 60 26 114 44 119 41 6 -4 10 -2 10 4 0 5 9 13 20 16 11 3 20 11
20 16 0 12 -7 11 -50 -8z"/>
<path d="M870 504 c0 -14 46 -64 59 -64 16 0 23 19 15 42 l-7 23 -9 -25 -9
-25 -25 30 c-13 17 -24 25 -24 19z"/>
<path d="M1458 492 c-7 -26 16 -42 35 -23 8 8 7 11 -5 11 -9 0 -18 8 -20 18
-3 14 -5 12 -10 -6z"/>
<path d="M630 449 c-10 -34 -9 -44 3 -57 17 -16 37 -9 37 13 0 9 -6 12 -17 8
-14 -5 -15 -1 -10 35 7 54 1 54 -13 1z"/>
<path d="M200 465 c-11 -13 -10 -18 6 -30 16 -12 21 -11 36 2 14 13 20 13 33
3 18 -15 45 -6 45 14 0 20 -38 30 -56 15 -11 -9 -18 -9 -26 -1 -16 16 -23 15
-38 -3z"/>
<path d="M1131 416 c-10 -11 -7 -18 11 -30 22 -15 24 -15 32 5 7 15 6 23 -5
30 -19 12 -25 11 -38 -5z"/>
<path d="M893 223 c-18 -7 -16 -24 1 -17 30 12 29 -20 -3 -48 -40 -35 -23 -37
19 -2 45 38 32 88 -17 67z"/>
<path d="M1380 206 c-6 -8 -10 -23 -9 -33 1 -10 -1 -26 -5 -35 -11 -24 1 -38
33 -38 31 0 89 18 109 33 21 17 7 18 -31 2 -41 -17 -97 -20 -97 -5 0 5 11 17
25 26 30 20 33 34 5 27 -11 -3 -20 0 -20 6 0 6 7 11 15 11 8 0 15 5 15 10 0
15 -26 12 -40 -4z"/>
<path d="M205 168 c-73 -28 -121 -56 -112 -65 11 -10 207 74 207 89 0 12 -8
10 -95 -24z"/>
<path d="M1145 190 c-3 -5 1 -10 9 -10 25 0 19 -26 -11 -50 -16 -12 -21 -18
-13 -14 52 25 81 84 41 84 -11 0 -23 -4 -26 -10z"/>
<path d="M716 173 c-14 -14 -5 -42 15 -48 21 -7 43 11 33 27 -8 13 -41 28 -48
21z"/>
</g>
</svg>
