<?xml version="1.0" standalone="no"?>
<!DOCTYPE svg PUBLIC "-//W3C//DTD SVG 20010904//EN"
 "http://www.w3.org/TR/2001/REC-SVG-20010904/DTD/svg10.dtd">
<svg version="1.0" xmlns="http://www.w3.org/2000/svg"
 width="154.000000px" height="76.000000px" viewBox="0 0 154.000000 76.000000"
 preserveAspectRatio="xMidYMid meet">

<g transform="translate(0.000000,76.000000) scale(0.100000,-0.100000)"
fill="#000000" stroke="none">
<path d="M377 671 c-2 -11 1 -64 8 -118 7 -54 16 -137 20 -184 l7 -85 -50 -42
c-63 -53 -108 -72 -170 -72 -50 0 -80 20 -96 64 -9 25 12 96 28 96 18 0 46 33
46 55 0 18 0 18 -13 0 -34 -46 -49 28 -22 105 23 64 12 59 -19 -10 -20 -43
-26 -74 -25 -112 1 -29 -2 -78 -6 -109 -9 -65 2 -91 48 -119 56 -34 133 -22
214 34 32 21 52 44 59 66 l11 34 12 -37 c8 -24 23 -43 41 -52 49 -25 79 -19
120 24 l38 39 11 -24 c39 -86 306 -93 462 -14 l36 19 28 -29 c52 -54 141 -48
165 11 13 30 11 134 -6 303 -5 51 -4 67 4 62 20 -12 14 33 -10 75 -23 42 -38
50 -38 21 0 -16 18 -212 34 -384 6 -54 -5 -67 -61 -75 -29 -4 -44 0 -63 15
-23 19 -24 21 -8 39 41 45 41 109 1 140 -37 28 -77 -37 -71 -113 l3 -38 -65
-24 c-77 -29 -240 -41 -306 -23 -52 14 -94 46 -94 72 0 28 -12 24 -47 -16 -42
-47 -102 -51 -139 -11 -17 20 -24 53 -41 221 -20 186 -33 243 -46 196z m801
-313 c17 -17 15 -42 -6 -61 -14 -13 -21 -14 -30 -5 -16 16 -15 65 1 71 19 8
22 8 35 -5z"/>
<path d="M854 654 l-7 -36 -28 32 c-30 33 -52 35 -57 7 -2 -10 6 -19 21 -23
15 -3 30 -18 37 -35 12 -28 30 -31 30 -4 0 8 5 26 10 41 10 25 12 26 24 9 17
-24 31 -3 16 25 -17 31 -38 24 -46 -16z"/>
<path d="M277 673 c-2 -4 -7 -21 -11 -37 l-7 -29 -16 24 c-30 43 -63 53 -63
19 0 -12 9 -22 24 -26 15 -3 29 -17 35 -35 5 -16 12 -29 15 -29 3 0 11 20 17
45 6 25 15 45 20 45 5 0 9 -4 9 -10 0 -5 5 -10 11 -10 17 0 6 44 -13 48 -9 2
-18 -1 -21 -5z"/>
<path d="M556 657 c-30 -31 -36 -59 -7 -33 15 13 28 16 52 11 l33 -7 -35 -29
c-38 -32 -29 -38 16 -11 31 19 63 67 53 78 -4 3 -24 8 -46 11 -34 5 -45 1 -66
-20z"/>
<path d="M1410 659 c-7 -11 -9 -27 -6 -34 9 -24 38 -426 32 -448 -5 -22 -5
-22 11 -2 13 17 14 43 9 165 -3 80 -9 167 -12 194 -6 44 -5 49 10 43 19 -7 17
4 -10 70 -17 39 -20 40 -34 12z"/>
<path d="M1175 655 c-16 -49 -14 -49 -36 -21 -11 14 -27 26 -35 26 -23 0 -16
-30 10 -40 13 -5 27 -18 31 -30 7 -23 25 -18 25 8 0 9 5 24 10 32 8 12 11 13
19 1 6 -9 10 -10 16 -2 7 13 -11 41 -27 41 -5 0 -11 -7 -13 -15z"/>
<path d="M948 564 c-10 -46 0 -76 26 -72 11 2 22 11 24 20 2 12 -2 15 -17 11
-17 -4 -20 1 -23 34 l-3 38 -7 -31z"/>
<path d="M717 546 c-4 -10 -1 -13 9 -9 22 8 17 -10 -7 -25 -23 -14 -23 -15 2
-127 6 -30 7 -20 3 38 -4 70 -3 77 14 77 31 0 44 21 25 42 -19 22 -39 23 -46
4z"/>
<path d="M1140 509 c-9 -17 -8 -23 7 -34 22 -17 33 -15 47 9 9 13 7 20 -8 32
-26 19 -33 18 -46 -7z"/>
<path d="M240 481 c-14 -27 -13 -36 4 -22 9 8 16 8 20 2 4 -5 -3 -12 -14 -16
-30 -10 -34 -47 -14 -127 15 -57 19 -67 22 -44 2 16 -1 48 -7 72 -15 60 -14
74 8 74 53 0 69 36 29 64 -29 21 -35 20 -48 -3z"/>
<path d="M536 455 c-10 -50 1 -77 27 -73 15 2 23 11 24 28 1 14 0 19 -3 13 -7
-17 -31 -17 -37 0 -3 7 -3 25 0 40 3 15 3 27 0 27 -3 0 -8 -16 -11 -35z"/>
<path d="M921 393 c-14 -48 -14 -69 -1 -94 20 -36 70 -13 70 32 0 10 -3 10
-12 1 -7 -7 -21 -12 -31 -12 -18 0 -19 5 -14 55 6 64 2 70 -12 18z"/>
<path d="M1360 190 c0 -5 5 -10 11 -10 7 0 9 -9 6 -22 -6 -22 -6 -22 8 -4 21
28 19 46 -5 46 -11 0 -20 -4 -20 -10z"/>
<path d="M1098 128 c-61 -28 -86 -48 -58 -48 19 0 130 60 130 70 0 12 7 15
-72 -22z"/>
<path d="M384 126 c-45 -21 -77 -46 -59 -46 10 0 125 60 125 65 0 9 -15 5 -66
-19z"/>
<path d="M652 124 c-7 -13 -13 -14 -31 -4 -17 9 -26 9 -37 -1 -20 -16 -18 -26
8 -40 18 -9 24 -8 34 6 10 13 17 14 33 6 27 -15 38 -14 45 5 4 10 -1 22 -11
30 -24 18 -30 17 -41 -2z"/>
</g>
</svg>
