<?xml version="1.0" standalone="no"?>
<!DOCTYPE svg PUBLIC "-//W3C//DTD SVG 20010904//EN"
 "http://www.w3.org/TR/2001/REC-SVG-20010904/DTD/svg10.dtd">
<svg version="1.0" xmlns="http://www.w3.org/2000/svg"
 width="120.000000px" height="76.000000px" viewBox="0 0 120.000000 76.000000"
 preserveAspectRatio="xMidYMid meet">

<g transform="translate(0.000000,76.000000) scale(0.100000,-0.100000)"
fill="#000000" stroke="none">
<path d="M361 671 c-47 -21 -87 -43 -89 -50 -6 -17 16 -10 114 35 41 18 74 38
74 44 0 14 -5 13 -99 -29z"/>
<path d="M944 635 c-4 -10 2 -91 14 -179 29 -215 29 -234 -4 -247 -37 -13 -64
-2 -76 32 l-10 29 -25 -20 c-92 -72 -319 -84 -354 -18 -8 16 -58 345 -59 391
0 13 -18 7 -24 -8 -3 -8 3 -74 14 -147 10 -73 21 -165 25 -204 6 -67 5 -73
-16 -88 -13 -9 -29 -16 -36 -16 -21 0 -53 42 -53 71 0 36 -47 196 -65 222 -26
37 -30 -8 -5 -66 12 -29 24 -75 27 -103 5 -49 4 -52 -28 -76 -84 -63 -180 -87
-209 -53 -20 24 -3 83 36 121 41 42 43 53 8 46 -26 -5 -27 -4 -22 40 3 25 13
60 22 78 9 18 14 35 12 37 -2 2 -15 -20 -30 -48 -26 -54 -35 -132 -16 -144 6
-4 4 -14 -4 -28 -8 -12 -19 -41 -26 -65 -21 -81 23 -121 108 -96 57 16 139 70
156 102 l13 25 7 -37 c14 -74 93 -86 127 -19 16 32 17 32 34 13 48 -53 182
-53 292 1 37 18 71 35 74 36 4 2 9 -8 13 -21 13 -53 96 -45 129 13 20 32 20
36 3 170 -19 158 -20 174 -6 166 18 -11 10 30 -15 69 -21 34 -25 37 -31 21z"/>
<path d="M1076 631 c-8 -12 6 -198 28 -381 11 -94 13 -101 21 -67 5 24 1 95
-9 185 -20 182 -20 183 0 175 14 -5 14 -2 0 31 -24 59 -32 70 -40 57z"/>
<path d="M611 608 c-5 -13 -12 -31 -15 -41 -5 -15 -11 -11 -41 20 -34 37 -36
37 -50 19 -17 -23 -4 -46 26 -46 11 0 22 -13 30 -35 17 -46 31 -40 47 19 13
45 15 47 32 31 25 -23 36 -1 16 30 -20 31 -34 32 -45 3z"/>
<path d="M198 584 c-7 -16 -13 -30 -14 -32 -1 -2 -14 9 -28 23 -26 26 -46 26
-46 -1 0 -8 11 -19 24 -24 13 -5 27 -18 31 -29 10 -31 22 -25 29 14 7 37 15
42 34 23 9 -9 12 -7 12 9 0 11 -7 26 -15 33 -12 10 -17 7 -27 -16z"/>
<path d="M744 499 c-82 -44 -157 -88 -166 -96 -21 -18 -24 -63 -6 -81 28 -28
39 -1 12 29 -15 16 -13 19 23 42 21 13 93 52 160 87 68 34 128 68 133 75 28
34 -19 17 -156 -56z"/>
<path d="M840 425 c-13 -40 -8 -65 14 -65 14 0 31 29 21 38 -3 3 -5 0 -5 -6 0
-7 -5 -12 -11 -12 -8 0 -10 14 -6 40 6 49 2 51 -13 5z"/>
<path d="M733 343 l-10 -28 -12 23 c-13 24 -41 30 -41 8 0 -7 9 -16 20 -19 11
-3 20 -12 20 -21 0 -26 17 -18 24 10 5 18 12 24 22 20 11 -4 14 -1 12 11 -5
28 -25 26 -35 -4z"/>
<path d="M1030 180 c-13 -8 -12 -10 3 -10 25 0 21 -26 -9 -49 -15 -12 -22 -21
-17 -21 19 0 64 50 61 67 -4 21 -19 26 -38 13z"/>
<path d="M243 105 c-53 -35 -76 -68 -30 -44 45 24 97 62 97 70 0 15 -12 10
-67 -26z"/>
<path d="M480 130 c12 -7 11 -12 -5 -32 l-20 -23 23 19 c26 23 29 46 5 46 -15
0 -16 -2 -3 -10z"/>
<path d="M822 128 c-18 -18 -14 -36 9 -49 22 -11 38 0 39 28 0 19 -35 34 -48
21z"/>
</g>
</svg>
