<?xml version="1.0" standalone="no"?>
<!DOCTYPE svg PUBLIC "-//W3C//DTD SVG 20010904//EN"
 "http://www.w3.org/TR/2001/REC-SVG-20010904/DTD/svg10.dtd">
<svg version="1.0" xmlns="http://www.w3.org/2000/svg"
 width="94.000000px" height="76.000000px" viewBox="0 0 94.000000 76.000000"
 preserveAspectRatio="xMidYMid meet">

<g transform="translate(0.000000,76.000000) scale(0.100000,-0.100000)"
fill="#000000" stroke="none">
<path d="M164 695 c-9 -23 2 -43 27 -47 14 -2 30 -18 42 -42 18 -34 22 -37 28
-20 4 10 11 36 14 57 6 37 7 38 24 23 15 -14 20 -14 24 -4 6 16 -15 48 -31 48
-15 0 -32 -33 -32 -61 0 -20 -4 -17 -36 19 -38 45 -51 51 -60 27z"/>
<path d="M477 693 c-13 -12 -7 -35 17 -63 13 -16 27 -48 31 -72 l7 -43 10 33
c11 42 -4 101 -35 130 -13 12 -27 19 -30 15z"/>
<path d="M845 665 c-25 -17 -61 -20 -142 -10 l-61 7 -17 -33 c-18 -34 -18 -34
2 -16 18 16 25 16 80 3 56 -12 64 -12 101 4 22 10 45 28 52 39 13 24 12 25
-15 6z"/>
<path d="M754 555 c1 -27 6 -40 15 -40 8 0 16 6 19 13 2 6 -3 12 -12 12 -8 0
-17 12 -19 28 -3 16 -4 11 -3 -13z"/>
<path d="M395 547 c-4 -18 -5 -49 -3 -68 2 -29 7 -34 28 -34 19 0 26 6 28 25
3 20 2 22 -11 12 -24 -20 -41 10 -33 58 8 48 0 54 -9 7z"/>
<path d="M106 512 c-39 -77 -51 -136 -37 -180 10 -31 10 -43 -3 -74 -21 -50
-20 -96 4 -135 30 -51 73 -68 165 -68 71 0 89 4 146 32 80 40 109 70 116 120
l5 38 86 0 c127 1 191 39 208 123 6 29 3 33 -42 61 -80 51 -118 38 -200 -69
-21 -27 -43 -50 -48 -50 -6 0 -20 12 -32 28 -20 24 -23 25 -30 9 -3 -10 0 -35
9 -55 39 -91 33 -103 -66 -148 -53 -25 -75 -29 -149 -29 -94 0 -127 14 -157
67 -22 38 -7 96 30 116 27 16 59 65 59 93 0 7 -10 3 -24 -11 -56 -52 -73 11
-31 114 30 74 25 85 -9 18z m638 -137 l28 -19 -22 -18 c-43 -35 -210 -66 -210
-39 0 4 19 30 42 56 40 46 43 47 88 43 25 -3 58 -13 74 -23z"/>
<path d="M226 514 c-9 -22 -8 -23 14 -17 11 3 20 1 20 -5 0 -5 -9 -12 -20 -15
-30 -8 -35 -52 -15 -148 11 -54 15 -106 12 -136 l-6 -48 16 48 c15 43 15 56 3
120 -22 118 -20 129 17 139 42 11 48 23 29 53 -19 28 -61 34 -70 9z"/>
<path d="M326 297 c-6 -34 -5 -51 4 -62 16 -20 36 -19 44 1 10 26 7 32 -13 27
-17 -4 -20 1 -23 38 l-3 44 -9 -48z"/>
<path d="M720 195 c-13 -14 -31 -25 -41 -25 -10 0 -39 -19 -66 -41 -26 -23
-61 -48 -78 -55 -24 -11 -26 -13 -9 -14 12 0 48 18 80 40 47 32 65 39 89 34
39 -7 88 28 83 60 -4 30 -30 31 -58 1z m30 -14 c0 -12 -20 -25 -27 -18 -7 7 6
27 18 27 5 0 9 -4 9 -9z"/>
</g>
</svg>
