<?xml version="1.0" standalone="no"?>
<!DOCTYPE svg PUBLIC "-//W3C//DTD SVG 20010904//EN"
 "http://www.w3.org/TR/2001/REC-SVG-20010904/DTD/svg10.dtd">
<svg version="1.0" xmlns="http://www.w3.org/2000/svg"
 width="119.000000px" height="76.000000px" viewBox="0 0 119.000000 76.000000"
 preserveAspectRatio="xMidYMid meet">

<g transform="translate(0.000000,76.000000) scale(0.100000,-0.100000)"
fill="#000000" stroke="none">
<path d="M875 680 c-3 -10 6 -90 20 -176 14 -86 25 -175 23 -198 l-3 -41 -32
65 c-18 36 -66 106 -108 155 -52 62 -71 91 -60 93 22 5 18 18 -12 39 -27 18
-78 43 -89 43 -18 0 22 -60 105 -158 198 -234 210 -259 149 -305 -18 -14 -58
-37 -88 -53 -47 -24 -51 -29 -31 -32 33 -5 101 23 138 57 54 49 63 135 37 359
-6 46 -5 52 10 46 24 -9 20 21 -11 77 -31 54 -39 59 -48 29z"/>
<path d="M260 658 c0 -18 7 -87 15 -153 8 -65 15 -146 15 -180 1 -49 3 -56 12
-41 11 19 7 163 -8 285 -7 52 -7 53 14 42 28 -15 28 -2 0 39 -32 47 -48 49
-48 8z"/>
<path d="M390 685 c0 -3 11 -23 25 -43 18 -26 25 -50 25 -84 0 -45 -2 -49 -40
-68 -39 -20 -53 -40 -27 -40 19 0 200 80 217 96 23 23 -8 18 -74 -11 -31 -14
-58 -25 -61 -25 -2 0 -1 24 1 53 6 58 -18 119 -48 125 -10 2 -18 1 -18 -3z"/>
<path d="M1046 681 c-3 -5 5 -87 18 -182 14 -96 28 -208 32 -249 7 -69 8 -72
16 -41 7 24 3 85 -11 203 -26 206 -26 191 0 177 19 -10 20 -9 14 13 -7 22 -52
88 -60 88 -2 0 -6 -4 -9 -9z"/>
<path d="M120 628 c-35 -77 -20 -125 29 -98 30 16 38 56 15 81 -11 12 -18 30
-16 40 5 32 -8 21 -28 -23z m28 -56 c2 -7 -3 -12 -12 -12 -9 0 -16 7 -16 16 0
17 22 14 28 -4z"/>
<path d="M583 463 c-13 -23 -23 -55 -23 -72 0 -28 3 -31 30 -31 43 0 71 67 36
87 -8 4 -16 19 -18 32 -3 22 -5 20 -25 -16z m27 -59 c0 -16 -16 -19 -25 -4 -8
13 4 32 16 25 5 -4 9 -13 9 -21z"/>
<path d="M89 431 c-28 -28 -41 -81 -19 -81 6 0 10 -9 10 -21 0 -11 3 -19 8
-17 4 2 25 12 47 21 56 25 68 32 73 45 2 8 -13 11 -49 9 -36 -1 -53 2 -57 12
-3 9 1 11 16 7 26 -9 53 31 31 45 -22 13 -28 11 -60 -20z"/>
<path d="M726 353 c-3 -3 -6 -19 -6 -34 0 -26 -22 -45 -41 -33 -5 3 -9 17 -9
32 l-1 27 -23 -26 c-50 -58 -103 -65 -136 -19 -39 55 -111 33 -210 -65 -70
-69 -106 -89 -133 -74 -25 15 -21 69 8 109 25 34 32 60 17 60 -17 0 -62 -98
-62 -134 0 -40 35 -86 65 -86 29 0 69 27 103 69 32 40 123 101 151 101 7 0 29
-13 48 -30 39 -35 66 -37 109 -11 20 12 36 16 45 10 8 -5 28 -9 46 -9 26 0 33
5 42 31 6 18 11 42 11 55 0 24 -13 38 -24 27z"/>
<path d="M797 304 c-11 -11 -8 -36 3 -29 13 8 13 -1 -1 -28 -9 -20 -8 -20 11
2 21 25 23 52 4 58 -5 2 -13 0 -17 -3z"/>
<path d="M627 182 c-4 -6 -14 -9 -22 -5 -8 3 -15 0 -15 -6 0 -7 -9 -9 -24 -5
-16 4 -41 -3 -73 -19 -26 -14 -59 -30 -73 -35 -21 -9 -22 -11 -5 -11 11 -1 40
11 65 25 33 19 53 24 76 19 19 -3 35 -1 39 5 3 6 10 8 14 6 12 -8 34 11 29 25
-3 9 -6 10 -11 1z"/>
<path d="M923 122 c-40 -20 -73 -43 -73 -50 0 -16 -4 -18 87 33 40 22 73 43
73 48 0 12 -11 8 -87 -31z"/>
</g>
</svg>
