<?xml version="1.0" standalone="no"?>
<!DOCTYPE svg PUBLIC "-//W3C//DTD SVG 20010904//EN"
 "http://www.w3.org/TR/2001/REC-SVG-20010904/DTD/svg10.dtd">
<svg version="1.0" xmlns="http://www.w3.org/2000/svg"
 width="125.000000px" height="76.000000px" viewBox="0 0 125.000000 76.000000"
 preserveAspectRatio="xMidYMid meet">

<g transform="translate(0.000000,76.000000) scale(0.100000,-0.100000)"
fill="#000000" stroke="none">
<path d="M460 607 c-230 -104 -288 -134 -304 -159 -13 -21 -1 -35 17 -20 19
16 183 96 352 172 145 65 165 76 165 91 0 17 -27 7 -230 -84z"/>
<path d="M732 606 c-101 -52 -190 -100 -198 -106 -26 -22 -12 -90 18 -90 14 0
9 27 -8 41 -14 12 -14 14 3 27 10 7 102 56 206 108 167 84 214 115 175 114 -7
0 -95 -43 -196 -94z"/>
<path d="M1023 609 c-73 -49 -133 -94 -133 -100 0 -17 20 -6 150 81 66 44 120
87 120 95 0 8 -1 15 -2 14 -2 0 -63 -41 -135 -90z"/>
<path d="M201 658 c-5 -13 -12 -32 -16 -43 -5 -17 -8 -17 -25 10 -24 36 -48
51 -62 37 -15 -15 -2 -41 26 -52 15 -5 28 -20 32 -35 8 -33 25 -28 37 11 18
60 17 58 29 46 17 -17 28 -15 28 6 0 19 -18 42 -32 42 -5 0 -12 -10 -17 -22z"/>
<path d="M106 478 c-32 -49 -47 -101 -45 -157 1 -31 -3 -75 -10 -99 -17 -60
-1 -104 47 -134 52 -32 166 -32 237 0 67 31 94 58 107 109 10 41 12 43 47 43
20 0 47 7 60 16 21 15 23 15 37 -5 21 -29 65 -27 93 3 22 24 23 24 42 5 25
-25 77 -25 105 2 l22 20 33 -20 c49 -30 111 -27 187 9 59 28 120 76 109 86 -3
3 -29 -7 -58 -22 -79 -40 -104 -45 -129 -27 -18 13 -50 68 -50 87 0 16 72 39
122 40 32 1 58 4 58 8 0 13 -90 40 -113 34 -63 -16 -101 -79 -91 -154 l6 -37
-26 27 c-15 17 -27 46 -32 75 -4 27 -11 59 -16 73 -16 43 -29 0 -26 -87 l3
-78 -38 -3 c-32 -3 -39 1 -54 26 l-17 29 -21 -31 c-13 -20 -31 -32 -49 -34
-34 -4 -48 13 -39 48 6 25 6 24 -31 -7 -28 -26 -46 -33 -77 -33 -35 0 -42 4
-60 35 -37 61 -54 13 -23 -64 20 -52 8 -76 -54 -102 -110 -47 -216 -47 -264 2
-40 39 -37 79 7 123 40 40 47 63 14 45 -17 -9 -24 -8 -31 2 -13 20 -3 83 20
129 22 44 21 52 -2 18z"/>
<path d="M241 381 c-17 -40 -11 -76 13 -76 11 0 21 6 24 14 3 10 0 12 -12 8
-22 -9 -29 13 -16 48 14 37 6 43 -9 6z"/>
<path d="M701 187 c-1 -13 -6 -17 -20 -12 -11 3 -22 1 -26 -5 -4 -6 -20 -8
-39 -5 -23 5 -38 1 -58 -15 -15 -11 -46 -32 -70 -46 -27 -16 -34 -23 -18 -19
14 4 43 19 65 33 29 19 55 26 99 28 64 3 80 12 73 40 -4 18 -5 18 -6 1z"/>
<path d="M1040 185 c-10 -13 -9 -15 8 -15 49 0 34 -38 -27 -70 -20 -11 -30
-19 -23 -20 7 0 31 9 53 20 42 22 66 58 56 84 -8 20 -51 21 -67 1z"/>
<path d="M801 162 c-8 -15 -6 -23 10 -38 18 -17 21 -17 37 -1 13 13 14 21 6
35 -16 24 -41 26 -53 4z"/>
</g>
</svg>
