<?xml version="1.0" standalone="no"?>
<!DOCTYPE svg PUBLIC "-//W3C//DTD SVG 20010904//EN"
 "http://www.w3.org/TR/2001/REC-SVG-20010904/DTD/svg10.dtd">
<svg version="1.0" xmlns="http://www.w3.org/2000/svg"
 width="138.000000px" height="76.000000px" viewBox="0 0 138.000000 76.000000"
 preserveAspectRatio="xMidYMid meet">

<g transform="translate(0.000000,76.000000) scale(0.100000,-0.100000)"
fill="#000000" stroke="none">
<path d="M699 622 c-235 -96 -269 -113 -269 -136 0 -8 31 2 78 24 42 21 154
68 247 105 171 68 195 80 195 96 0 14 1 14 -251 -89z"/>
<path d="M1002 708 c-15 -15 -16 -40 -1 -55 7 -7 -2 -21 -33 -48 -36 -31 -38
-35 -13 -22 17 8 39 24 49 36 12 13 26 19 38 15 19 -6 24 6 9 22 -5 5 -11 20
-13 33 -4 28 -19 36 -36 19z m28 -22 c0 -3 -4 -8 -10 -11 -5 -3 -10 -1 -10 4
0 6 5 11 10 11 6 0 10 -2 10 -4z"/>
<path d="M1111 698 c-5 -13 -7 -26 -4 -31 5 -8 42 -336 43 -373 0 -25 -24 -37
-116 -58 -76 -17 -89 -24 -166 -91 -64 -56 -96 -67 -118 -40 -26 32 48 168 96
178 17 3 32 0 36 -6 5 -8 8 -6 8 5 0 9 8 19 18 22 11 4 29 17 42 31 45 47 34
170 -13 152 -24 -9 -55 -63 -62 -108 -5 -31 -12 -40 -38 -48 -84 -27 -260 -39
-350 -25 -30 5 -41 14 -59 46 -39 69 -65 20 -29 -55 38 -79 37 -80 -114 -153
-74 -36 -152 -68 -175 -71 -22 -3 -40 -10 -40 -16 0 -6 27 -8 77 -3 130 11
255 82 292 168 l21 46 37 -10 c37 -10 222 -5 271 8 22 6 22 6 -8 -57 -36 -77
-38 -108 -7 -137 41 -38 77 -25 172 60 38 34 63 48 104 57 131 28 147 54 138
220 -4 58 -10 129 -13 156 -7 46 -6 49 9 36 11 -8 17 -9 17 -3 0 16 -48 122
-55 122 -3 0 -9 -10 -14 -22z m-166 -269 c12 -18 -4 -57 -26 -64 -29 -10 -32
-2 -15 39 15 36 29 45 41 25z"/>
<path d="M386 702 c-2 -4 -7 -24 -11 -45 -9 -45 -18 -47 -35 -7 -7 17 -21 35
-31 40 -23 13 -26 13 -33 -5 -3 -10 5 -20 24 -30 19 -10 32 -27 38 -48 4 -17
12 -32 18 -32 7 0 22 42 33 94 1 2 8 -2 16 -9 13 -11 15 -9 15 13 0 23 -24 44
-34 29z"/>
<path d="M1246 685 c-3 -8 4 -133 14 -277 11 -144 17 -278 14 -298 -5 -29 -4
-33 7 -22 16 15 19 209 6 386 -8 99 -7 109 7 97 21 -18 20 -7 -5 67 -21 62
-32 75 -43 47z"/>
<path d="M511 652 c-1 -26 3 -33 16 -30 9 2 18 9 21 16 2 7 -2 10 -11 6 -11
-4 -17 2 -20 18 -3 17 -5 15 -6 -10z"/>
<path d="M1069 583 c-1 -4 0 -18 1 -30 1 -13 -3 -23 -9 -23 -6 0 -11 9 -11 19
0 31 -18 34 -22 4 -4 -35 -28 -43 -28 -9 0 14 -5 26 -11 26 -6 0 -9 -16 -7
-37 3 -38 3 -38 43 -35 50 4 65 17 65 53 0 25 -18 53 -21 32z"/>
<path d="M817 553 c-3 -5 -8 -27 -12 -51 l-7 -44 -24 35 c-24 35 -49 51 -65
41 -19 -11 -8 -32 21 -43 21 -7 36 -22 46 -47 12 -29 18 -34 25 -23 5 8 9 26
9 41 0 43 10 61 26 47 21 -17 29 -3 16 26 -11 25 -27 32 -35 18z"/>
<path d="M268 490 c-20 -67 3 -128 37 -100 20 17 19 38 -2 36 -14 -1 -19 9
-23 44 -4 39 -6 41 -12 20z"/>
<path d="M606 439 c-12 -58 -5 -84 24 -84 16 0 26 6 28 18 3 13 -2 17 -15 15
-15 -2 -19 5 -24 42 l-5 45 -8 -36z"/>
<path d="M1026 361 c-15 -16 -15 -19 3 -35 17 -15 20 -16 34 -1 17 17 13 40
-8 49 -7 2 -20 -3 -29 -13z"/>
<path d="M480 121 c-47 -27 -87 -56 -88 -66 -3 -15 3 -13 40 9 23 15 64 39 90
54 27 15 48 33 48 40 0 16 8 19 -90 -37z"/>
<path d="M646 151 c-3 -5 2 -12 11 -15 14 -6 12 -11 -13 -38 -31 -33 -15 -29
24 5 28 26 29 57 3 57 -11 0 -22 -4 -25 -9z"/>
<path d="M1118 149 c21 -23 13 -39 -30 -60 -43 -20 -43 -20 -8 -13 59 11 92
32 88 57 -2 16 -11 23 -33 25 -24 3 -28 1 -17 -9z"/>
</g>
</svg>
