<?xml version="1.0" standalone="no"?>
<!DOCTYPE svg PUBLIC "-//W3C//DTD SVG 20010904//EN"
 "http://www.w3.org/TR/2001/REC-SVG-20010904/DTD/svg10.dtd">
<svg version="1.0" xmlns="http://www.w3.org/2000/svg"
 width="180.000000px" height="76.000000px" viewBox="0 0 180.000000 76.000000"
 preserveAspectRatio="xMidYMid meet">

<g transform="translate(0.000000,76.000000) scale(0.100000,-0.100000)"
fill="#000000" stroke="none">
<path d="M1290 639 c-58 -21 -174 -64 -258 -95 -147 -54 -205 -84 -190 -99 4
-4 58 13 120 38 62 25 200 76 306 114 105 37 192 71 192 75 0 18 -71 4 -170
-33z"/>
<path d="M1548 653 c-2 -24 -1 -28 22 -215 11 -88 18 -164 15 -168 -9 -15 -63
-22 -84 -10 -12 6 -21 20 -21 32 0 20 -2 20 -33 -10 -38 -36 -92 -51 -126 -33
-28 16 -27 41 2 41 23 0 47 17 47 32 0 4 -20 8 -45 8 -24 0 -74 11 -111 25
-82 31 -132 32 -168 4 -44 -34 -33 -42 47 -35 122 11 144 -12 43 -43 -137 -42
-269 -36 -317 15 -21 23 -24 23 -30 7 -4 -10 2 -34 12 -55 11 -21 19 -41 19
-46 0 -17 -124 -66 -177 -70 -63 -5 -83 7 -83 52 0 41 23 73 58 81 15 3 42 14
60 25 28 17 32 25 32 62 0 24 -7 52 -15 62 -14 18 -15 18 -21 1 -4 -10 0 -29
10 -45 9 -16 16 -30 16 -33 0 -2 -19 -13 -42 -23 -64 -29 -166 -26 -208 5 -19
14 -35 19 -39 13 -3 -5 -22 -13 -41 -16 -65 -13 -87 -27 -149 -97 -64 -71
-100 -91 -126 -69 -29 24 -12 106 29 139 20 17 20 31 1 31 -21 0 -19 33 5 83
12 24 15 34 6 23 -28 -35 -51 -107 -39 -124 7 -12 5 -25 -9 -49 -13 -21 -18
-46 -16 -75 2 -36 7 -44 29 -52 45 -15 81 2 145 70 60 64 109 90 146 78 10 -3
18 -13 18 -23 0 -10 9 -26 21 -37 17 -16 22 -16 29 -4 6 8 10 23 10 33 0 15 6
16 42 11 24 -4 44 -8 46 -9 1 -1 -2 -14 -8 -29 -25 -65 -6 -119 45 -132 72
-18 218 50 233 108 7 30 11 32 38 28 83 -14 200 -2 306 33 l106 34 7 -33 c12
-67 99 -84 149 -29 l21 23 25 -20 c17 -14 33 -18 54 -14 71 14 82 56 61 217
-18 135 -18 162 -5 154 17 -10 11 18 -10 53 -22 36 -29 40 -32 15z"/>
<path d="M1667 657 c-6 -17 36 -547 44 -547 14 0 15 67 3 213 -7 83 -13 169
-14 191 0 34 2 37 16 25 15 -12 16 -10 9 20 -16 73 -47 126 -58 98z"/>
<path d="M767 636 c-3 -8 4 -21 18 -30 13 -8 26 -25 30 -36 9 -27 21 -18 29
21 5 28 8 30 22 18 14 -12 16 -11 13 5 -6 30 -28 30 -39 0 l-11 -28 -19 32
c-21 35 -35 40 -43 18z"/>
<path d="M200 621 c0 -11 9 -22 19 -26 11 -3 24 -19 30 -36 13 -37 27 -31 35
17 6 30 10 34 22 23 18 -15 27 -8 18 15 -10 26 -34 19 -46 -14 l-10 -31 -18
33 c-20 38 -50 50 -50 19z"/>
<path d="M573 628 c-6 -7 -13 -20 -18 -28 -6 -12 -5 -13 6 -2 16 14 48 16 69
2 12 -8 9 -12 -17 -22 -35 -13 -44 -28 -18 -28 49 0 105 61 74 81 -21 13 -85
11 -96 -3z"/>
<path d="M973 610 c2 -41 14 -45 35 -10 11 18 12 21 2 13 -20 -18 -28 -16 -33
10 -3 12 -4 6 -4 -13z"/>
<path d="M414 619 c-3 -6 0 -15 7 -20 11 -7 9 -12 -10 -25 -25 -18 -25 -28 -1
-139 8 -36 8 -33 5 20 -2 33 -6 70 -10 83 -7 19 -4 22 23 22 39 0 47 13 26 45
-18 27 -29 31 -40 14z"/>
<path d="M1460 546 c0 -32 -20 -35 -21 -3 -1 21 -1 21 -8 -2 -9 -33 -28 -38
-34 -9 -3 17 -5 15 -6 -10 -1 -33 -1 -33 37 -26 20 4 40 12 44 18 11 16 10 44
-2 51 -6 4 -10 -5 -10 -19z"/>
<path d="M715 539 c-4 -6 -5 -12 -2 -15 2 -3 7 2 10 11 7 17 1 20 -8 4z"/>
<path d="M1190 501 c-5 -11 -10 -34 -10 -51 0 -27 3 -31 22 -28 12 2 23 9 26
16 2 7 -2 10 -12 6 -21 -8 -29 16 -17 49 12 31 6 36 -9 8z"/>
<path d="M542 485 c-7 -14 -12 -40 -12 -56 0 -26 3 -30 22 -27 13 2 24 11 27
23 3 17 1 18 -13 6 -13 -11 -17 -11 -22 4 -4 9 -1 28 5 42 6 14 10 27 8 29 -2
2 -9 -7 -15 -21z"/>
<path d="M702 495 c4 -24 33 -32 41 -11 4 11 1 13 -10 9 -8 -3 -19 0 -25 8 -7
11 -8 9 -6 -6z"/>
<path d="M260 461 c-13 -25 -13 -78 0 -86 15 -9 40 14 39 34 0 10 -2 11 -6 4
-2 -7 -11 -13 -19 -13 -16 0 -18 33 -4 61 6 10 8 19 6 19 -3 0 -10 -9 -16 -19z"/>
<path d="M1386 434 c-3 -9 -6 -19 -6 -24 0 -14 32 -21 46 -9 9 7 19 7 34 -1
24 -13 40 -6 40 20 0 23 -28 34 -47 19 -10 -9 -17 -9 -25 -1 -17 17 -35 15
-42 -4z"/>
<path d="M902 396 c-18 -41 -15 -76 6 -76 37 0 58 50 28 67 -7 4 -15 14 -17
22 -3 8 -9 4 -17 -13z m23 -46 c3 -5 -1 -10 -9 -10 -9 0 -16 5 -16 10 0 6 4
10 9 10 6 0 13 -4 16 -10z"/>
<path d="M670 245 c0 -9 42 -47 47 -42 6 6 -28 47 -39 47 -5 0 -8 -2 -8 -5z"/>
<path d="M1167 203 c-11 -10 -8 -25 3 -18 18 11 10 -10 -10 -28 -48 -41 5 -65
70 -32 38 20 40 38 3 20 -74 -35 -102 -25 -52 19 16 15 27 31 24 36 -7 11 -29
13 -38 3z"/>
<path d="M1610 185 c-11 -13 -10 -14 3 -10 29 12 29 -17 1 -47 -25 -26 -26
-29 -6 -19 29 15 56 57 48 76 -7 19 -30 19 -46 0z"/>
<path d="M466 173 c-4 -5 -20 -8 -34 -8 -17 0 -27 -5 -27 -15 0 -18 81 -25 91
-8 8 13 -20 41 -30 31z"/>
<path d="M1466 171 c-4 -5 0 -12 6 -15 9 -3 6 -11 -11 -25 -29 -26 -12 -28 20
-3 14 12 20 25 16 35 -7 19 -23 22 -31 8z"/>
<path d="M890 130 c-30 -16 -48 -29 -40 -29 20 -1 96 34 104 48 11 17 -4 13
-64 -19z"/>
</g>
</svg>
