<?xml version="1.0" standalone="no"?>
<!DOCTYPE svg PUBLIC "-//W3C//DTD SVG 20010904//EN"
 "http://www.w3.org/TR/2001/REC-SVG-20010904/DTD/svg10.dtd">
<svg version="1.0" xmlns="http://www.w3.org/2000/svg"
 width="119.000000px" height="76.000000px" viewBox="0 0 119.000000 76.000000"
 preserveAspectRatio="xMidYMid meet">

<g transform="translate(0.000000,76.000000) scale(0.100000,-0.100000)"
fill="#000000" stroke="none">
<path d="M329 693 c-5 -14 -8 -34 -7 -42 4 -22 42 -20 46 1 3 13 -1 16 -14 11
-15 -5 -16 -2 -11 25 8 39 0 42 -14 5z"/>
<path d="M541 684 c-23 -51 15 -90 40 -41 11 19 11 21 -3 9 -21 -17 -32 0 -24
34 8 31 2 31 -13 -2z"/>
<path d="M1005 693 c-92 -20 -408 -124 -424 -139 -28 -26 -4 -24 82 6 47 16
154 49 237 73 145 42 205 68 150 66 -14 -1 -34 -3 -45 -6z"/>
<path d="M225 670 c-4 -11 -4 -33 -1 -48 3 -15 7 -114 8 -221 l3 -194 -54 -44
c-35 -28 -62 -43 -81 -43 -39 0 -60 31 -50 74 8 36 54 109 89 140 29 26 29 51
1 34 -41 -26 -54 41 -20 107 23 45 24 49 9 39 -34 -21 -63 -156 -39 -180 8 -8
0 -27 -25 -65 -45 -69 -49 -127 -9 -158 38 -30 74 -26 135 15 42 30 55 34 68
25 9 -6 41 -24 71 -39 52 -26 62 -27 195 -26 121 0 158 5 275 32 245 58 283
71 301 103 10 20 9 21 -7 15 -59 -24 -141 -46 -168 -46 -47 0 -105 45 -106 82
0 28 62 51 125 46 30 -3 55 -3 55 -1 0 11 -69 43 -93 43 -40 0 -84 -26 -102
-60 -19 -37 -19 -63 1 -101 8 -17 13 -33 10 -36 -2 -3 -49 -12 -103 -20 -54
-9 -105 -18 -113 -20 -8 -3 -43 -4 -78 -3 -113 3 -227 44 -220 78 3 17 76 44
172 64 72 16 101 47 99 108 -2 50 -44 117 -80 126 -21 6 -31 2 -50 -20 -25
-30 -30 -77 -10 -94 7 -6 35 -12 62 -14 42 -3 50 -6 53 -25 4 -24 2 -25 -111
-48 -44 -8 -97 -25 -119 -36 -22 -11 -43 -18 -46 -14 -3 3 -7 92 -8 198 -2
187 -8 247 -24 247 -5 0 -12 -9 -15 -20z m273 -237 c2 -8 -6 -13 -22 -13 -17
0 -26 5 -26 16 0 19 41 16 48 -3z"/>
<path d="M950 594 c-21 -55 -6 -99 25 -74 20 17 19 31 -1 23 -14 -5 -16 0 -12
35 4 48 1 52 -12 16z"/>
<path d="M406 593 c-4 -9 0 -23 9 -32 13 -14 17 -14 32 1 13 14 14 20 3 32
-16 21 -36 20 -44 -1z"/>
<path d="M1086 576 c-28 -43 -41 -111 -28 -140 15 -34 28 -33 48 7 14 26 14
30 2 20 -8 -7 -18 -10 -21 -6 -12 12 -7 78 8 107 19 37 13 45 -9 12z"/>
<path d="M690 525 c0 -9 7 -30 16 -47 9 -17 13 -42 10 -57 -4 -22 -3 -21 9 7
13 28 13 37 1 66 -16 38 -36 55 -36 31z"/>
<path d="M810 520 c-8 -15 -6 -21 11 -30 25 -14 49 -6 49 14 0 13 -28 36 -44
36 -3 0 -10 -9 -16 -20z"/>
<path d="M310 455 c-6 -16 -10 -38 -8 -49 4 -29 34 -32 49 -4 11 21 11 22 -4
10 -13 -11 -17 -10 -25 5 -7 12 -7 24 0 36 5 10 7 21 4 24 -3 3 -10 -7 -16
-22z"/>
<path d="M659 319 c-7 -17 -13 -50 -13 -73 -1 -34 2 -41 18 -41 10 0 25 10 33
22 13 20 13 21 -6 16 -18 -5 -21 -1 -21 31 0 21 5 46 10 57 6 10 7 19 2 19 -5
0 -15 -14 -23 -31z"/>
<path d="M500 218 c-55 -17 -86 -35 -77 -45 6 -6 144 41 157 53 21 20 1 18
-80 -8z"/>
<path d="M995 120 c-3 -5 1 -10 9 -10 25 0 19 -16 -16 -45 -26 -21 -28 -24 -8
-15 28 14 59 49 60 68 0 14 -36 16 -45 2z"/>
</g>
</svg>
