<?xml version="1.0" standalone="no"?>
<!DOCTYPE svg PUBLIC "-//W3C//DTD SVG 20010904//EN"
 "http://www.w3.org/TR/2001/REC-SVG-20010904/DTD/svg10.dtd">
<svg version="1.0" xmlns="http://www.w3.org/2000/svg"
 width="166.000000px" height="76.000000px" viewBox="0 0 166.000000 76.000000"
 preserveAspectRatio="xMidYMid meet">

<g transform="translate(0.000000,76.000000) scale(0.100000,-0.100000)"
fill="#000000" stroke="none">
<path d="M1003 698 c-6 -7 -15 -26 -20 -43 -10 -30 -10 -30 -22 -8 -6 13 -20
27 -31 33 -17 9 -20 8 -20 -13 0 -16 7 -26 20 -30 11 -3 25 -18 30 -33 9 -23
13 -25 20 -14 6 8 10 26 10 40 0 32 15 55 29 46 7 -5 11 1 11 13 0 24 -13 27
-27 9z"/>
<path d="M817 660 c-11 -30 -12 -39 -3 -31 17 14 26 -72 26 -244 0 -66 4 -136
10 -154 14 -48 54 -87 106 -101 67 -19 196 -8 272 22 l63 26 24 -24 c26 -26
55 -30 103 -13 51 18 67 83 52 219 -20 189 -22 236 -11 220 20 -28 13 18 -10
62 -15 30 -23 37 -29 28 -9 -15 -8 -25 15 -240 8 -74 15 -158 15 -186 0 -57
-8 -64 -77 -64 -41 0 -47 12 -22 44 32 40 36 89 10 115 -12 12 -28 21 -34 19
-20 -7 -47 -70 -47 -109 0 -34 -3 -38 -42 -54 -23 -9 -76 -21 -119 -27 -92
-14 -175 0 -206 35 -43 47 -47 67 -53 275 -4 115 -11 207 -17 213 -6 6 -15 -4
-26 -31z m533 -365 c15 -18 8 -40 -19 -55 -18 -9 -21 -7 -27 15 -12 48 18 74
46 40z"/>
<path d="M545 659 c-150 -63 -175 -79 -175 -109 0 -10 7 -21 16 -24 23 -9 29
0 14 19 -7 9 -11 17 -9 18 32 23 75 44 147 72 47 18 88 38 90 44 5 15 -4 13
-83 -20z"/>
<path d="M1096 664 c-9 -24 -7 -74 3 -74 5 0 14 6 20 14 9 11 8 15 -5 20 -11
4 -14 13 -10 31 7 28 2 34 -8 9z"/>
<path d="M1228 621 c-192 -76 -328 -141 -328 -158 0 -7 1 -13 3 -13 1 0 56 24
122 53 66 29 170 73 230 97 119 47 129 53 124 68 -2 6 -70 -15 -151 -47z"/>
<path d="M1535 667 c-4 -11 -2 -76 5 -145 7 -70 16 -179 19 -242 4 -71 9 -110
15 -101 17 26 18 137 2 256 -20 152 -20 151 0 134 15 -12 16 -11 9 11 -4 14
-15 43 -25 65 -15 34 -19 37 -25 22z"/>
<path d="M313 633 c-7 -2 -13 -10 -13 -15 0 -6 3 -8 7 -5 3 4 12 2 20 -4 10
-9 13 -7 13 10 0 21 -5 24 -27 14z"/>
<path d="M641 627 c-8 -11 -6 -18 9 -32 17 -15 22 -16 36 -4 12 10 20 10 34 1
25 -15 49 10 30 33 -15 18 -37 20 -43 3 -4 -10 -7 -10 -18 0 -17 16 -34 15
-48 -1z"/>
<path d="M226 585 c-7 -20 0 -35 19 -35 8 0 18 -8 24 -17 12 -23 21 -13 25 28
2 19 1 23 -1 10 l-5 -23 -27 26 c-25 24 -29 25 -35 11z"/>
<path d="M1336 564 c-11 -28 -6 -64 8 -64 8 0 16 7 19 14 4 11 1 13 -10 9 -13
-5 -15 -1 -10 25 7 34 3 42 -7 16z"/>
<path d="M557 563 c-11 -11 -8 -25 4 -17 6 3 15 0 20 -7 6 -10 9 -8 9 9 0 21
-19 30 -33 15z"/>
<path d="M474 536 c-7 -18 4 -38 17 -30 5 3 15 -9 23 -27 13 -31 14 -31 25
-11 6 11 11 31 10 44 0 21 -1 21 -8 4 -7 -19 -8 -19 -22 0 -21 30 -38 37 -45
20z"/>
<path d="M1157 502 c-32 -90 -16 -168 28 -132 20 17 19 38 -2 36 -23 -1 -30
63 -12 106 6 16 10 31 7 33 -2 3 -12 -17 -21 -43z"/>
<path d="M773 506 c-16 -35 -12 -71 9 -64 6 2 14 10 16 18 3 7 0 10 -7 6 -14
-9 -15 28 -1 55 6 10 8 19 5 19 -3 0 -13 -15 -22 -34z"/>
<path d="M672 509 c-57 -71 -77 -88 -135 -117 -99 -50 -97 -62 18 -78 81 -11
84 -18 22 -48 -100 -47 -192 -27 -217 48 -23 70 -91 35 -154 -78 -38 -68 -56
-82 -86 -66 -30 16 -40 43 -41 112 -1 58 -2 60 -10 28 -22 -85 15 -190 66
-190 27 0 65 44 89 101 16 39 51 74 84 84 19 5 25 1 36 -27 21 -49 58 -79 106
-85 35 -5 56 1 142 42 69 34 117 50 154 53 40 3 57 10 65 23 7 15 6 19 -5 19
-33 0 -220 22 -228 26 -10 7 92 124 108 124 14 0 24 -23 24 -51 0 -11 5 -17
10 -14 13 8 13 71 0 96 -14 25 -26 24 -48 -2z"/>
<path d="M134 474 c-6 -42 -11 -49 -55 -77 -27 -16 -47 -32 -45 -35 7 -6 89
43 106 62 7 9 23 16 36 16 20 0 24 5 24 30 0 19 -7 33 -19 40 -33 17 -40 12
-47 -36z m26 -4 c0 -5 -2 -10 -4 -10 -3 0 -8 5 -11 10 -3 6 -1 10 4 10 6 0 11
-4 11 -10z m30 -11 c0 -6 -4 -7 -10 -4 -5 3 -10 11 -10 16 0 6 5 7 10 4 6 -3
10 -11 10 -16z"/>
<path d="M256 472 c-15 -18 -15 -20 0 -32 13 -11 19 -11 36 -1 16 10 23 10 38
-4 15 -13 19 -13 29 -2 6 8 9 21 5 30 -9 23 -36 30 -47 12 -8 -15 -10 -15 -26
-1 -16 15 -19 15 -35 -2z"/>
<path d="M1290 454 c-11 -12 -10 -18 3 -32 16 -15 18 -15 34 0 13 14 14 20 3
32 -7 9 -16 16 -20 16 -4 0 -13 -7 -20 -16z"/>
<path d="M995 443 c4 -10 15 -38 24 -63 14 -41 16 -42 19 -18 4 30 -24 98 -40
98 -6 0 -7 -8 -3 -17z"/>
<path d="M410 421 c-22 -43 -5 -87 21 -54 8 9 9 14 2 10 -15 -10 -22 13 -12
41 10 27 3 29 -11 3z"/>
<path d="M160 354 c-15 -40 -13 -66 7 -62 9 2 18 9 21 17 3 8 0 11 -6 7 -17
-10 -23 10 -12 38 5 14 7 26 5 26 -3 0 -10 -12 -15 -26z"/>
<path d="M1070 311 c-5 -11 -10 -29 -10 -40 0 -26 -17 -27 -25 -2 -6 21 -31
34 -46 25 -16 -10 -10 -24 16 -34 14 -5 27 -20 31 -35 8 -33 21 -21 32 30 7
33 12 40 30 38 24 -3 28 7 10 25 -17 17 -26 15 -38 -7z"/>
<path d="M1192 305 c-23 -50 -7 -104 21 -76 8 8 6 15 -8 25 -17 12 -18 17 -7
41 7 15 11 29 9 31 -2 2 -9 -7 -15 -21z"/>
<path d="M676 241 c-4 -5 -1 -11 5 -13 9 -3 7 -12 -5 -29 -18 -28 -13 -39 18
-39 25 0 86 35 86 50 0 5 -15 1 -32 -10 -35 -21 -68 -26 -68 -11 0 6 4 13 10
16 5 3 15 15 20 26 9 16 7 19 -9 19 -11 0 -22 -4 -25 -9z"/>
<path d="M355 179 c-11 -5 -46 -20 -79 -34 -32 -14 -56 -29 -52 -32 6 -6 133
43 150 58 15 13 3 18 -19 8z"/>
<path d="M753 150 c-68 -32 -109 -60 -90 -60 17 0 177 81 177 90 0 5 -1 10 -2
9 -2 0 -40 -18 -85 -39z"/>
<path d="M834 139 c-4 -7 0 -16 9 -21 9 -5 14 -16 11 -26 -5 -14 -4 -15 5 -2
16 22 14 60 -3 60 -8 0 -18 -5 -22 -11z"/>
<path d="M1250 129 c-13 -8 -13 -10 -1 -18 9 -6 12 -18 8 -32 -6 -23 -5 -23 8
-5 27 36 15 75 -15 55z"/>
<path d="M1450 125 c-10 -12 -10 -15 0 -15 8 0 11 -9 7 -27 -5 -26 -4 -26 9
-8 26 35 11 82 -16 50z"/>
</g>
</svg>
