<?xml version="1.0" standalone="no"?>
<!DOCTYPE svg PUBLIC "-//W3C//DTD SVG 20010904//EN"
 "http://www.w3.org/TR/2001/REC-SVG-20010904/DTD/svg10.dtd">
<svg version="1.0" xmlns="http://www.w3.org/2000/svg"
 width="147.000000px" height="76.000000px" viewBox="0 0 147.000000 76.000000"
 preserveAspectRatio="xMidYMid meet">

<g transform="translate(0.000000,76.000000) scale(0.100000,-0.100000)"
fill="#000000" stroke="none">
<path d="M1316 705 c-3 -9 -1 -37 4 -63 5 -26 19 -141 31 -257 24 -235 27
-254 41 -209 7 21 4 82 -11 206 -26 216 -26 225 -6 208 24 -20 19 23 -10 80
-26 52 -39 61 -49 35z"/>
<path d="M1144 673 c-4 -16 4 -96 20 -188 14 -88 26 -182 26 -210 l-1 -50 -29
60 c-18 37 -68 104 -130 173 -78 86 -97 112 -81 112 35 0 14 24 -46 54 -109
53 -84 4 92 -184 80 -85 154 -173 165 -195 l20 -39 -28 -29 c-15 -16 -64 -46
-109 -68 -46 -21 -83 -41 -83 -43 0 -11 129 28 174 52 44 23 53 34 68 77 21
62 22 132 3 255 -18 119 -19 113 5 105 31 -10 25 22 -16 88 -19 31 -37 57 -40
57 -2 0 -7 -12 -10 -27z"/>
<path d="M245 671 c-3 -12 1 -108 10 -214 9 -105 17 -210 18 -232 l2 -40 -48
-9 c-60 -12 -113 10 -123 49 -10 39 3 96 25 111 10 8 24 28 30 45 11 31 11 32
-8 15 -46 -42 -56 36 -16 124 15 32 18 47 9 35 -45 -55 -60 -116 -55 -220 1
-11 -1 -48 -5 -82 -5 -49 -3 -68 10 -88 23 -34 79 -47 149 -34 52 9 59 8 88
-13 41 -31 109 -29 185 6 31 15 58 25 59 24 1 -2 8 -13 14 -25 14 -27 40 -29
83 -7 22 11 33 13 41 5 17 -17 52 -13 71 8 17 18 19 18 47 3 26 -15 31 -16 56
-2 42 24 51 75 26 144 -11 31 -17 56 -12 56 17 0 9 27 -14 48 -47 44 -49 -4
-6 -107 30 -71 30 -75 13 -88 -26 -19 -40 -16 -63 13 l-20 25 -16 -30 c-11
-22 -23 -31 -40 -31 -21 0 -25 5 -25 31 l0 30 -34 -35 c-22 -24 -42 -36 -60
-36 -25 0 -30 7 -27 43 3 22 5 22 -70 -15 -50 -26 -77 -33 -123 -33 -63 0 -82
14 -42 33 13 6 40 25 61 43 39 35 39 33 22 166 -4 36 -24 66 -38 57 -14 -9
-10 -38 13 -94 16 -38 19 -56 11 -69 -12 -19 -114 -82 -124 -76 -10 7 -18 72
-34 280 -13 180 -25 233 -40 186z"/>
<path d="M690 654 c-21 -53 -5 -76 35 -50 27 18 32 45 13 64 -19 19 -38 14
-48 -14z m32 -19 c0 -5 -5 -11 -11 -13 -6 -2 -11 4 -11 13 0 9 5 15 11 13 6
-2 11 -8 11 -13z"/>
<path d="M1034 635 c-18 -45 -18 -69 2 -86 14 -11 19 -10 35 10 25 30 24 44
-1 29 -28 -18 -36 -3 -23 42 13 49 7 52 -13 5z"/>
<path d="M155 648 c-17 -50 -4 -69 30 -44 16 12 18 19 9 32 -14 23 -33 29 -39
12z m25 -29 c0 -5 -4 -9 -10 -9 -5 0 -10 7 -10 16 0 8 5 12 10 9 6 -3 10 -10
10 -16z"/>
<path d="M437 646 c-6 -15 6 -29 34 -39 10 -3 22 -22 29 -41 14 -45 24 -40 39
20 10 39 14 44 27 33 20 -16 28 -5 14 21 -15 28 -33 21 -45 -18 -5 -18 -12
-32 -15 -32 -3 1 -14 15 -25 33 -22 35 -49 46 -58 23z"/>
<path d="M663 522 c-145 -68 -168 -82 -162 -101 5 -12 312 139 317 157 5 18
-1 16 -155 -56z"/>
<path d="M350 545 c-18 -22 15 -61 37 -43 18 15 13 52 -8 56 -9 1 -22 -4 -29
-13z"/>
<path d="M789 484 c-11 -14 -10 -18 6 -30 24 -18 30 -18 45 1 10 12 10 18 0
30 -16 19 -34 19 -51 -1z"/>
<path d="M640 374 c-13 -33 -13 -47 1 -61 14 -14 39 -6 39 13 0 8 -6 11 -16 7
-14 -5 -16 0 -12 30 5 43 1 47 -12 11z"/>
<path d="M1010 270 c-27 -54 -24 -85 10 -85 15 0 26 6 28 17 2 12 -2 15 -17
11 -26 -7 -28 18 -6 61 9 16 13 31 11 33 -3 3 -14 -14 -26 -37z"/>
<path d="M1231 164 c-23 -30 -27 -44 -10 -44 6 0 9 -8 7 -18 -5 -16 -1 -16 40
5 60 31 63 34 19 31 -20 -1 -43 4 -49 11 -11 10 -8 12 12 9 16 -2 25 2 25 11
0 25 -22 23 -44 -5z"/>
<path d="M225 84 c-73 -31 -94 -49 -47 -41 43 9 132 47 132 58 0 14 -21 10
-85 -17z"/>
</g>
</svg>
