<?xml version="1.0" standalone="no"?>
<!DOCTYPE svg PUBLIC "-//W3C//DTD SVG 20010904//EN"
 "http://www.w3.org/TR/2001/REC-SVG-20010904/DTD/svg10.dtd">
<svg version="1.0" xmlns="http://www.w3.org/2000/svg"
 width="126.000000px" height="76.000000px" viewBox="0 0 126.000000 76.000000"
 preserveAspectRatio="xMidYMid meet">

<g transform="translate(0.000000,76.000000) scale(0.100000,-0.100000)"
fill="#000000" stroke="none">
<path d="M821 696 c-6 -14 -6 -40 0 -67 15 -65 39 -238 39 -281 l0 -38 -65 0
c-58 0 -66 -3 -81 -25 -9 -14 -15 -28 -12 -30 2 -2 37 -9 78 -15 148 -21 150
-27 28 -61 -108 -29 -227 -32 -256 -5 -18 16 -20 26 -15 80 7 75 -11 117 -57
136 -25 10 -57 10 -171 0 -77 -7 -143 -10 -147 -5 -12 12 71 78 157 125 102
56 108 60 115 86 6 19 1 22 -46 27 -81 10 -229 8 -270 -3 -49 -14 -68 -34 -68
-74 0 -27 5 -34 34 -44 18 -7 41 -21 51 -32 17 -19 17 -23 3 -54 -14 -29 -20
-33 -45 -28 l-28 5 22 -24 c19 -21 20 -32 16 -95 -6 -81 6 -130 45 -176 70
-83 221 -76 312 14 22 22 40 44 40 49 0 17 19 9 25 -11 23 -73 184 -64 413 25
128 49 130 49 134 -27 3 -63 3 -63 15 -28 6 19 14 47 17 63 5 21 12 27 33 27
23 0 52 23 53 43 0 4 -18 7 -39 7 -22 0 -43 5 -46 11 -8 12 -44 269 -45 313 0
24 2 27 15 16 12 -10 15 -10 15 1 0 19 -43 108 -53 109 -10 0 -29 -49 -22 -59
4 -7 45 -345 45 -371 0 -11 -100 -13 -148 -4 -30 6 -31 8 -26 48 3 22 -1 90
-10 149 -9 59 -16 117 -16 129 0 18 2 19 17 7 15 -13 16 -11 9 16 -7 29 -43
95 -52 95 -3 0 -9 -11 -13 -24z m-501 -126 c0 -5 -17 -18 -37 -29 -21 -11 -54
-31 -73 -46 l-35 -26 -18 26 c-11 14 -33 33 -49 41 -54 28 -16 40 125 43 51 0
87 -3 87 -9z m167 -240 c1 0 10 -14 18 -30 15 -28 14 -34 -5 -78 -41 -91 -103
-131 -205 -132 -110 0 -175 57 -175 154 0 91 1 92 83 88 40 -2 106 1 147 5 41
5 88 5 105 1 16 -4 31 -8 32 -8z"/>
<path d="M289 254 c-17 -21 0 -48 34 -52 34 -4 48 33 20 53 -24 19 -38 18 -54
-1z"/>
<path d="M352 169 c-40 -22 -72 -44 -72 -49 0 -12 135 54 145 70 14 23 -3 18
-73 -21z"/>
<path d="M636 664 c-8 -21 -8 -39 1 -31 3 4 12 2 20 -5 20 -16 28 -2 15 27
-13 29 -27 32 -36 9z"/>
<path d="M527 663 c-14 -14 -6 -33 17 -39 23 -5 46 -40 46 -69 0 -8 5 -15 10
-15 14 0 32 49 27 69 -4 13 -5 13 -6 -1 -1 -23 -18 -23 -25 0 -7 21 -43 62
-55 62 -4 0 -11 -3 -14 -7z"/>
<path d="M662 480 c-56 -27 -102 -54 -102 -60 0 -14 22 -7 124 40 81 37 125
70 94 70 -8 0 -60 -22 -116 -50z"/>
<path d="M426 498 c-9 -30 -26 -38 -26 -13 0 8 -4 15 -10 15 -15 0 -12 -50 3
-55 6 -2 28 -1 47 3 31 7 35 11 37 42 1 29 1 31 -5 11 -11 -35 -30 -37 -34 -4
l-4 28 -8 -27z"/>
<path d="M951 479 c-25 -40 -26 -62 -6 -79 16 -14 30 -7 46 22 9 18 8 19 -10
13 -24 -7 -28 13 -10 47 18 34 1 32 -20 -3z"/>
<path d="M982 143 c-17 -7 -44 -61 -37 -73 9 -14 31 -12 44 4 10 12 8 13 -8 9
-28 -7 -27 14 1 44 22 24 22 25 0 16z"/>
</g>
</svg>
