<?xml version="1.0" standalone="no"?>
<!DOCTYPE svg PUBLIC "-//W3C//DTD SVG 20010904//EN"
 "http://www.w3.org/TR/2001/REC-SVG-20010904/DTD/svg10.dtd">
<svg version="1.0" xmlns="http://www.w3.org/2000/svg"
 width="154.000000px" height="76.000000px" viewBox="0 0 154.000000 76.000000"
 preserveAspectRatio="xMidYMid meet">

<g transform="translate(0.000000,76.000000) scale(0.100000,-0.100000)"
fill="#000000" stroke="none">
<path d="M1036 673 c-6 -20 39 -432 49 -441 13 -13 -1 233 -20 340 -3 21 -1
26 10 21 22 -8 18 16 -9 61 -21 33 -25 35 -30 19z"/>
<path d="M1381 658 c-5 -13 -7 -26 -5 -30 4 -6 34 -379 34 -428 1 -23 1 -24
12 -6 11 19 7 191 -9 336 -5 56 -4 63 10 57 10 -4 17 -2 17 3 0 12 -40 90 -46
90 -3 0 -8 -10 -13 -22z"/>
<path d="M901 638 c-5 -13 -12 -32 -16 -42 -5 -18 -8 -16 -25 12 -21 34 -44
42 -54 17 -4 -11 3 -19 19 -25 14 -5 30 -21 37 -35 16 -35 24 -31 34 18 7 31
14 42 27 41 11 -1 17 4 15 14 -5 25 -27 25 -37 0z"/>
<path d="M251 636 c-7 -8 -16 -27 -20 -43 l-8 -28 -17 33 c-10 19 -24 32 -36
32 -26 0 -26 -27 1 -35 11 -4 28 -23 36 -43 11 -27 17 -32 24 -21 5 8 9 28 9
46 0 37 15 50 36 32 14 -11 15 -10 12 11 -4 29 -21 36 -37 16z"/>
<path d="M476 585 c-66 -36 -128 -72 -138 -82 -20 -18 -24 -58 -7 -68 17 -11
24 4 12 25 -15 23 -19 21 140 104 70 37 127 71 127 77 0 15 -10 11 -134 -56z"/>
<path d="M1215 608 c-65 -33 -95 -55 -95 -71 0 -6 8 -3 18 5 9 9 50 32 90 52
39 20 72 38 72 41 0 11 -28 2 -85 -27z"/>
<path d="M686 604 c-8 -21 -8 -59 1 -67 7 -8 33 11 33 24 0 5 -7 6 -17 2 -14
-5 -15 -1 -10 25 7 34 3 42 -7 16z"/>
<path d="M1249 543 c-5 -14 -8 -33 -7 -42 4 -22 34 -26 42 -6 4 10 2 14 -5 9
-17 -10 -28 16 -18 43 5 12 6 23 4 23 -3 0 -10 -12 -16 -27z"/>
<path d="M830 465 c0 -15 -7 -40 -17 -58 -9 -18 -17 -47 -18 -66 -1 -30 -5
-36 -40 -48 -22 -8 -76 -17 -121 -20 -100 -7 -162 16 -195 71 -12 20 -27 36
-34 36 -31 0 -91 -107 -71 -127 3 -3 -27 -22 -67 -42 -39 -20 -95 -51 -123
-69 -53 -34 -79 -35 -89 -2 -7 21 30 100 45 100 20 0 50 40 50 66 l0 26 -18
-22 c-42 -52 -55 9 -22 106 12 35 14 52 7 42 -8 -9 -24 -49 -38 -87 -20 -59
-22 -76 -12 -101 9 -24 8 -36 -8 -67 -56 -109 13 -161 116 -87 98 71 184 93
231 59 12 -8 24 -11 28 -8 16 16 3 43 -29 62 -19 11 -40 32 -47 46 -10 22 -9
29 10 47 l21 21 44 -46 c30 -31 59 -50 88 -58 61 -16 171 -5 256 26 62 22 76
24 124 15 62 -12 79 0 79 56 0 36 -8 47 -63 84 -20 14 -35 31 -32 37 4 12 -23
33 -44 33 -6 0 -11 -11 -11 -25z m42 -80 c9 -21 9 -29 -4 -41 -12 -13 -20 -14
-37 -5 -24 13 -26 23 -11 52 15 27 38 24 52 -6z m93 -55 c4 -6 -9 -10 -29 -10
-39 0 -50 11 -41 40 6 20 7 20 35 0 16 -12 32 -25 35 -30z"/>
<path d="M583 458 c-25 -33 -23 -36 25 -31 l47 4 -30 -25 c-33 -29 -20 -34 25
-11 33 17 49 53 29 66 -21 13 -85 11 -96 -3z"/>
<path d="M231 402 c-13 -25 -14 -79 -2 -86 5 -3 14 1 21 9 10 12 9 15 -4 15
-18 0 -21 22 -5 52 6 11 8 22 6 25 -3 2 -10 -4 -16 -15z"/>
<path d="M1295 401 c-4 -13 -2 -28 5 -36 19 -23 4 -45 -29 -45 -20 0 -34 7
-41 20 -6 11 -15 20 -20 20 -17 0 -11 -41 10 -67 28 -36 25 -57 -11 -88 -51
-42 -105 -65 -153 -65 -38 0 -48 4 -63 26 -16 25 -16 29 0 72 19 53 15 67 -6
25 -38 -74 -29 -142 23 -163 74 -31 230 59 247 141 3 16 14 31 24 34 33 11 49
35 49 74 0 20 -6 46 -14 56 -13 18 -14 18 -21 -4z"/>
<path d="M785 165 c-49 -24 -94 -46 -100 -48 -5 -2 -7 -8 -3 -12 8 -9 217 85
218 98 0 14 -25 5 -115 -38z"/>
<path d="M1273 154 c-6 -16 19 -44 39 -44 15 0 20 30 8 45 -16 20 -39 19 -47
-1z"/>
<path d="M545 150 c-4 -7 -19 -9 -36 -5 -22 5 -31 2 -35 -10 -10 -26 12 -42
37 -27 16 10 24 10 34 2 16 -13 35 -5 35 14 0 20 -27 40 -35 26z"/>
<path d="M1400 135 c-9 -11 -10 -18 -1 -28 6 -8 8 -17 4 -21 -7 -7 58 24 67
32 3 2 -8 2 -24 0 -19 -2 -31 2 -34 11 -3 8 0 11 6 7 6 -3 13 -2 17 4 10 16
-21 12 -35 -5z"/>
</g>
</svg>
