<?xml version="1.0" standalone="no"?>
<!DOCTYPE svg PUBLIC "-//W3C//DTD SVG 20010904//EN"
 "http://www.w3.org/TR/2001/REC-SVG-20010904/DTD/svg10.dtd">
<svg version="1.0" xmlns="http://www.w3.org/2000/svg"
 width="135.000000px" height="76.000000px" viewBox="0 0 135.000000 76.000000"
 preserveAspectRatio="xMidYMid meet">

<g transform="translate(0.000000,76.000000) scale(0.100000,-0.100000)"
fill="#000000" stroke="none">
<path d="M1010 705 c0 -3 8 -17 17 -32 9 -14 20 -44 24 -67 l6 -41 2 50 c1 31
-5 59 -15 73 -14 20 -34 30 -34 17z"/>
<path d="M432 658 l-8 -33 -18 28 c-20 29 -56 37 -56 12 0 -9 11 -20 24 -25
13 -5 27 -18 31 -29 10 -31 22 -25 29 14 7 38 15 42 35 23 10 -11 12 -8 9 12
-5 39 -35 38 -46 -2z"/>
<path d="M690 677 c0 -7 7 -23 16 -36 9 -12 20 -46 24 -74 l8 -52 1 57 c0 31
-4 68 -10 82 -13 27 -39 43 -39 23z"/>
<path d="M1155 590 c20 -289 20 -277 -4 -285 -32 -10 -60 3 -67 32 l-7 25 -16
-25 c-8 -15 -28 -32 -43 -38 -24 -10 -32 -9 -47 5 -9 9 -25 16 -35 16 -15 0
-15 -2 -1 -27 8 -16 22 -38 31 -50 15 -21 13 -23 -53 -62 -37 -22 -99 -52
-138 -66 -67 -25 -115 -54 -70 -42 11 3 45 11 75 17 109 25 196 82 206 135 4
24 12 35 24 35 9 0 25 9 34 19 17 19 18 19 37 0 35 -35 77 -21 107 37 10 19 5
131 -12 252 -3 19 -1 30 5 27 18 -12 9 33 -12 56 l-20 24 6 -85z"/>
<path d="M1237 653 c-3 -5 -1 -54 4 -108 5 -55 12 -140 15 -188 5 -66 10 -84
17 -71 9 15 -4 214 -19 283 -4 18 -2 22 10 18 14 -6 15 -3 1 30 -18 43 -21 47
-28 36z"/>
<path d="M846 628 c-11 -44 -7 -70 11 -66 9 2 18 9 21 16 2 7 -2 11 -10 10 -9
-2 -12 7 -10 30 2 37 -3 42 -12 10z"/>
<path d="M267 564 c-4 -4 -7 -16 -7 -26 0 -24 -12 -23 -28 2 -7 11 -19 20 -27
20 -25 0 -17 -30 10 -40 14 -5 25 -16 25 -25 0 -29 18 -15 24 20 5 26 11 33
23 28 10 -4 14 -2 11 7 -5 16 -21 23 -31 14z"/>
<path d="M541 533 c-14 -50 -14 -76 1 -91 9 -9 16 -8 30 5 22 20 26 52 4 34
-21 -17 -29 2 -21 49 9 51 -1 52 -14 3z"/>
<path d="M1051 533 c-1 -25 -16 -31 -24 -10 -3 7 -6 6 -6 -5 -1 -24 13 -30 43
-18 18 7 26 16 25 32 -1 17 -2 19 -6 6 -2 -10 -8 -18 -13 -18 -5 0 -11 8 -13
18 -4 13 -5 11 -6 -5z"/>
<path d="M321 464 c-18 -41 -14 -66 10 -62 36 5 45 32 22 61 l-20 26 -12 -25z
m29 -34 c0 -5 -7 -10 -15 -10 -8 0 -15 5 -15 10 0 6 7 10 15 10 8 0 15 -4 15
-10z"/>
<path d="M95 430 c-9 -28 -14 -62 -11 -75 3 -13 1 -44 -5 -68 -26 -95 15 -131
146 -130 98 0 200 31 245 73 l31 29 41 -21 c88 -46 198 -30 258 38 45 52 37
79 -9 30 -13 -14 -36 -30 -52 -36 -24 -10 -33 -10 -54 4 -34 23 -52 61 -37 79
16 19 89 39 112 32 25 -8 26 3 3 21 -28 21 -79 17 -109 -9 -22 -19 -28 -34
-32 -80 -4 -48 -8 -57 -24 -57 -28 0 -58 17 -100 58 -31 29 -38 33 -44 19 -3
-9 1 -26 10 -39 9 -12 16 -25 16 -29 0 -8 -89 -44 -145 -58 -59 -16 -171 -14
-205 4 -52 27 -52 88 0 117 19 11 30 25 30 39 0 21 -1 21 -19 5 -16 -15 -19
-15 -31 -1 -9 11 -10 25 -2 57 15 60 7 59 -13 -2z"/>
<path d="M1043 444 c-7 -19 11 -39 26 -30 16 10 13 33 -4 40 -9 3 -18 -1 -22
-10z"/>
<path d="M923 404 c-7 -19 11 -39 26 -30 16 10 13 33 -4 40 -9 3 -18 -1 -22
-10z"/>
<path d="M251 331 c-14 -25 -7 -28 49 -27 33 1 45 5 45 16 0 10 -9 14 -29 13
-17 -1 -35 2 -42 8 -9 7 -16 5 -23 -10z"/>
<path d="M507 213 c-11 -10 -8 -25 3 -18 12 7 14 -16 3 -31 -5 -5 0 -1 10 9 9
11 17 25 17 33 0 14 -22 19 -33 7z"/>
<path d="M378 129 c-43 -21 -78 -44 -78 -50 0 -14 19 -7 97 37 57 32 86 55 66
54 -4 -1 -43 -19 -85 -41z"/>
<path d="M955 114 c-33 -18 -64 -35 -70 -38 -5 -2 -7 -7 -3 -11 8 -9 138 62
138 75 0 12 5 15 -65 -26z"/>
</g>
</svg>
