<?xml version="1.0" standalone="no"?>
<!DOCTYPE svg PUBLIC "-//W3C//DTD SVG 20010904//EN"
 "http://www.w3.org/TR/2001/REC-SVG-20010904/DTD/svg10.dtd">
<svg version="1.0" xmlns="http://www.w3.org/2000/svg"
 width="125.000000px" height="76.000000px" viewBox="0 0 125.000000 76.000000"
 preserveAspectRatio="xMidYMid meet">

<g transform="translate(0.000000,76.000000) scale(0.100000,-0.100000)"
fill="#000000" stroke="none">
<path d="M707 666 c-3 -7 3 -90 14 -182 19 -165 19 -170 1 -194 -11 -14 -30
-26 -44 -28 -20 -2 -28 3 -38 28 -7 17 -22 35 -32 41 -16 9 -25 6 -49 -17 -31
-30 -38 -64 -16 -83 8 -6 31 -14 53 -19 l39 -8 -28 -18 c-39 -26 -152 -66
-187 -66 -33 0 -70 30 -70 57 0 44 16 66 71 104 71 48 83 67 75 128 -3 25 -7
55 -8 67 -3 23 -25 54 -39 54 -16 0 -9 -36 17 -96 l26 -59 -34 -28 c-43 -36
-124 -74 -271 -127 -64 -24 -116 -45 -113 -47 10 -10 175 22 223 42 l51 23 -5
-53 c-5 -48 -3 -56 21 -80 25 -25 33 -27 81 -23 70 6 180 59 200 97 13 27 19
29 102 35 155 12 264 36 291 63 27 27 27 22 5 242 -4 47 -3 62 5 57 17 -10 15
15 -4 60 -14 33 -17 36 -26 20 -7 -12 -6 -60 2 -149 16 -177 13 -209 -22 -221
-34 -12 -41 -6 -29 26 11 31 -1 53 -40 74 -36 18 -59 13 -122 -32 -26 -19 -49
-34 -50 -34 -2 0 -7 51 -11 113 -3 61 -9 123 -13 136 -5 20 -3 23 10 18 22 -8
21 5 -3 53 -22 44 -25 46 -33 26z m224 -335 l23 -18 -30 -16 c-26 -14 -128
-37 -161 -37 -24 0 -13 17 34 54 53 41 97 47 134 17z m-323 -58 c2 -8 -5 -13
-17 -13 -21 0 -35 13 -24 24 10 10 36 3 41 -11z"/>
<path d="M879 636 c-10 -22 -9 -29 5 -45 17 -19 16 -21 -31 -58 -27 -21 -60
-46 -73 -56 -19 -13 -14 -12 20 4 25 12 62 37 82 56 23 23 42 33 52 30 10 -4
16 -1 16 8 0 8 -4 15 -9 15 -6 0 -11 15 -13 32 -4 42 -33 50 -49 14z m39 -14
c2 -7 -3 -12 -12 -12 -9 0 -16 7 -16 16 0 17 22 14 28 -4z"/>
<path d="M267 644 c-15 -15 -7 -44 13 -44 13 0 27 -14 41 -42 16 -31 23 -38
30 -27 5 8 9 23 9 34 0 11 4 26 9 34 8 12 12 12 25 2 13 -11 16 -11 16 1 0 8
-6 22 -13 32 -12 16 -14 16 -26 3 -7 -9 -16 -28 -19 -42 l-8 -27 -24 38 c-26
39 -41 50 -53 38z"/>
<path d="M1125 628 c-2 -7 4 -114 14 -238 12 -158 20 -216 26 -196 8 31 0 268
-11 326 -6 28 -5 32 9 27 21 -8 21 -2 0 50 -18 44 -30 53 -38 31z"/>
<path d="M911 498 c-1 -36 -19 -45 -30 -16 -8 20 -10 21 -16 6 -14 -35 1 -50
42 -42 21 4 41 9 46 11 11 6 8 51 -4 59 -7 4 -9 -2 -7 -14 4 -29 -15 -29 -24
0 -6 22 -6 22 -7 -4z"/>
<path d="M262 455 c-22 -48 -11 -115 19 -115 13 0 39 31 39 46 0 12 -3 12 -20
2 -28 -18 -40 3 -29 50 10 44 6 51 -9 17z"/>
<path d="M571 432 c-1 -39 1 -43 21 -40 13 2 24 11 27 23 3 17 1 18 -13 6 -17
-14 -19 -12 -29 34 -3 11 -5 1 -6 -23z"/>
<path d="M1028 223 c-25 -29 -38 -61 -32 -77 8 -20 28 -20 44 -1 10 13 9 15
-9 15 -26 0 -27 14 0 51 22 32 21 39 -3 12z"/>
<path d="M775 181 c-3 -6 1 -11 9 -11 30 0 16 -28 -21 -44 -34 -15 -35 -16 -8
-11 43 9 77 33 73 53 -4 19 -43 29 -53 13z"/>
<path d="M226 151 c-38 -14 -71 -31 -73 -38 -3 -9 3 -10 24 -4 67 20 127 47
131 59 5 16 0 15 -82 -17z"/>
</g>
</svg>
