<?xml version="1.0" standalone="no"?>
<!DOCTYPE svg PUBLIC "-//W3C//DTD SVG 20010904//EN"
 "http://www.w3.org/TR/2001/REC-SVG-20010904/DTD/svg10.dtd">
<svg version="1.0" xmlns="http://www.w3.org/2000/svg"
 width="134.000000px" height="76.000000px" viewBox="0 0 134.000000 76.000000"
 preserveAspectRatio="xMidYMid meet">

<g transform="translate(0.000000,76.000000) scale(0.100000,-0.100000)"
fill="#000000" stroke="none">
<path d="M602 703 c-21 -54 -18 -93 6 -93 24 0 52 31 52 56 0 11 -9 25 -20 32
-12 7 -18 17 -15 22 3 6 2 10 -3 10 -5 0 -14 -12 -20 -27z m28 -48 c0 -8 -7
-15 -15 -15 -16 0 -20 12 -8 23 11 12 23 8 23 -8z"/>
<path d="M1157 702 c-22 -24 -22 -68 1 -82 15 -9 12 -15 -28 -51 -25 -23 -67
-57 -95 -75 -27 -19 -44 -34 -36 -34 24 0 115 58 155 99 31 32 45 39 63 35 16
-4 23 -2 23 9 0 8 -6 17 -14 20 -9 4 -16 23 -18 49 -3 49 -24 60 -51 30z m36
-24 c7 -20 -3 -37 -19 -31 -18 7 -18 43 0 43 8 0 16 -6 19 -12z"/>
<path d="M298 690 c-16 -12 -28 -24 -28 -28 0 -4 22 -5 50 -4 57 4 66 -10 18
-28 -25 -10 -29 -14 -15 -17 28 -7 87 17 104 43 21 33 8 46 -54 51 -39 4 -53
1 -75 -17z"/>
<path d="M797 695 c-26 -19 -14 -57 16 -53 25 3 35 39 15 56 -9 7 -18 7 -31
-3z"/>
<path d="M975 670 c-19 -36 -19 -74 -1 -89 11 -9 18 -8 30 4 21 22 20 34 -3
28 -28 -7 -34 11 -17 52 18 43 12 46 -9 5z"/>
<path d="M93 524 c-24 -51 -28 -72 -29 -159 -1 -55 -7 -125 -13 -155 -17 -74
0 -126 49 -154 28 -17 51 -21 117 -20 76 0 89 4 167 42 92 46 132 84 142 137
5 27 11 35 28 35 11 1 38 7 58 14 32 11 39 11 49 0 17 -20 56 -17 80 7 29 29
32 20 13 -35 -43 -127 25 -219 145 -196 92 17 192 86 241 165 12 20 36 39 60
49 60 24 75 54 61 123 -8 41 -8 59 0 64 11 7 -45 79 -62 79 -17 0 -9 -58 16
-114 14 -31 25 -63 25 -71 0 -16 -21 -29 -62 -39 -22 -5 -29 -1 -47 29 -11 20
-27 38 -36 41 -27 11 -64 -6 -80 -36 -31 -61 -14 -89 60 -98 25 -2 45 -8 45
-12 0 -17 -86 -84 -137 -107 -45 -21 -66 -24 -115 -21 -51 4 -65 9 -85 32 -27
31 -29 71 -8 122 11 26 19 34 31 30 8 -3 28 -6 44 -6 27 0 28 -2 24 -37 -3
-21 -1 -44 5 -52 11 -17 36 -9 50 17 8 15 6 18 -12 18 -24 -1 -25 6 -12 120 6
48 4 72 -10 109 -16 39 -16 48 -4 55 11 7 8 15 -15 39 -55 57 -61 10 -16 -105
17 -42 29 -82 26 -89 -9 -24 -58 -28 -87 -6 l-28 21 -21 -31 c-29 -40 -66 -38
-63 4 2 30 3 30 -56 -10 -45 -31 -85 -30 -118 3 -38 38 -52 18 -30 -43 25 -70
22 -87 -20 -116 -41 -28 -127 -67 -148 -67 -11 0 -26 84 -30 165 0 5 17 14 37
20 49 14 54 20 34 50 -11 17 -25 25 -38 23 -26 -4 -37 -28 -13 -28 13 0 9 -7
-14 -29 -35 -33 -35 -35 -19 -131 14 -84 10 -90 -65 -90 -83 0 -137 43 -137
110 0 56 10 78 45 98 30 18 55 72 34 72 -5 0 -9 -4 -9 -10 0 -18 -39 -11 -50
9 -17 32 -12 77 16 146 34 83 23 97 -13 19z m985 -216 c16 -16 15 -28 0 -28
-22 0 -41 17 -34 29 9 14 19 14 34 -1z"/>
<path d="M673 543 c-8 -21 -16 -39 -18 -41 -2 -2 -19 14 -38 35 -27 29 -39 35
-47 27 -18 -18 -8 -47 19 -61 14 -6 35 -28 47 -48 25 -42 33 -36 42 33 6 42
10 47 35 50 21 3 27 8 23 19 -3 8 -6 17 -6 19 0 2 -9 4 -21 4 -14 0 -25 -11
-36 -37z"/>
<path d="M351 518 c-5 -13 -13 -34 -18 -47 l-9 -24 -22 35 c-35 57 -78 61 -70
7 2 -18 9 -23 25 -22 16 2 26 -8 43 -44 25 -54 40 -48 47 21 6 50 18 65 36 47
17 -17 27 -13 27 9 0 10 -9 24 -19 30 -27 14 -30 13 -40 -12z"/>
<path d="M671 133 c-1 -7 -7 -10 -15 -7 -8 3 -17 1 -20 -5 -4 -6 -19 -8 -34
-5 -19 4 -45 -5 -85 -26 -73 -40 -68 -51 5 -14 32 17 72 29 101 30 54 3 62 6
54 26 -4 9 -6 9 -6 1z"/>
<path d="M1141 117 c-15 -15 -14 -32 3 -46 10 -9 16 -8 26 4 12 14 15 14 30 0
16 -15 19 -14 35 1 15 15 15 18 1 33 -14 13 -20 13 -36 3 -11 -7 -20 -8 -20
-3 0 15 -27 20 -39 8z"/>
</g>
</svg>
