<?xml version="1.0" standalone="no"?>
<!DOCTYPE svg PUBLIC "-//W3C//DTD SVG 20010904//EN"
 "http://www.w3.org/TR/2001/REC-SVG-20010904/DTD/svg10.dtd">
<svg version="1.0" xmlns="http://www.w3.org/2000/svg"
 width="150.000000px" height="76.000000px" viewBox="0 0 150.000000 76.000000"
 preserveAspectRatio="xMidYMid meet">

<g transform="translate(0.000000,76.000000) scale(0.100000,-0.100000)"
fill="#000000" stroke="none">
<path d="M706 691 c-4 -7 -5 -33 -1 -59 4 -26 15 -132 25 -236 17 -187 17
-190 45 -214 29 -25 30 -25 180 -18 227 10 302 32 326 94 10 25 -1 219 -18
320 -4 27 -3 31 12 26 15 -6 15 -4 0 32 -9 22 -19 45 -22 52 -12 29 -30 1 -25
-39 20 -153 42 -375 38 -384 -5 -13 -96 -48 -104 -41 -2 2 1 13 7 24 16 30 13
67 -6 84 -43 38 -94 30 -149 -23 l-31 -30 -6 103 c-4 57 -10 132 -13 167 -5
48 -4 62 4 57 20 -12 14 24 -9 61 -36 58 -40 21 -18 -163 31 -253 20 -294 -78
-294 -90 0 -98 17 -119 260 -16 191 -25 242 -38 221z m420 -387 c41 -20 43
-39 7 -58 -33 -16 -123 -36 -161 -36 -26 1 -25 2 23 46 42 38 74 60 93 63 2 1
19 -6 38 -15z"/>
<path d="M1076 674 c-11 -28 -6 -54 8 -54 21 0 28 17 10 24 -10 4 -13 13 -9
26 7 24 0 27 -9 4z"/>
<path d="M1370 670 c-6 -11 -9 -24 -6 -28 8 -14 38 -423 32 -445 -5 -22 -5
-22 11 -2 13 17 14 43 9 170 -4 83 -9 170 -13 195 -6 41 -5 44 10 31 23 -19
22 1 -3 57 -22 48 -25 50 -40 22z"/>
<path d="M580 661 c-5 -11 -10 -28 -9 -38 0 -14 2 -13 10 5 5 13 13 20 19 17
17 -11 32 5 19 21 -16 19 -26 18 -39 -5z"/>
<path d="M800 657 c0 -7 6 -19 13 -25 6 -7 17 -32 24 -55 l11 -42 1 38 c1 21
-6 51 -14 67 -16 31 -35 40 -35 17z"/>
<path d="M490 641 c0 -10 9 -21 21 -24 11 -3 25 -19 32 -36 14 -37 27 -40 27
-6 0 14 -4 25 -8 25 -4 0 -16 14 -25 30 -20 34 -47 40 -47 11z"/>
<path d="M299 593 c-11 -13 -10 -17 6 -29 23 -17 42 -18 48 -1 3 9 9 9 26 -1
18 -10 26 -10 37 -1 20 17 17 28 -12 41 -20 10 -27 9 -34 -2 -7 -11 -14 -11
-34 -2 -20 9 -27 8 -37 -5z"/>
<path d="M1107 571 c-81 -35 -124 -61 -101 -61 21 0 194 76 198 88 7 17 1 16
-97 -27z"/>
<path d="M108 534 c-11 -26 -20 -63 -19 -83 0 -20 1 -73 0 -118 0 -101 16
-136 67 -153 74 -25 207 15 271 82 30 32 37 58 34 124 -2 33 -60 114 -82 114
-26 0 -60 -57 -57 -95 3 -29 4 -30 55 -30 72 0 82 -14 43 -58 -64 -73 -196
-114 -264 -82 -65 31 -73 88 -21 141 19 19 35 44 35 54 0 23 -15 27 -24 5 -3
-8 -12 -15 -20 -15 -24 0 -27 47 -7 105 24 67 17 72 -11 9z m288 -91 c17 -17
17 -18 -5 -21 -27 -4 -47 11 -37 27 10 16 22 14 42 -6z"/>
<path d="M1130 477 c0 -33 -15 -35 -25 -4 -8 21 -8 21 -12 -5 -5 -34 -20 -37
-26 -5 -3 20 -4 20 -11 -6 -11 -38 3 -51 45 -40 39 10 62 54 41 75 -9 9 -12 6
-12 -15z"/>
<path d="M576 443 c-4 -10 6 -41 25 -77 l32 -60 -38 -33 c-39 -34 -306 -173
-331 -173 -8 0 -14 -4 -14 -9 0 -13 132 14 186 38 82 37 165 93 185 125 22 36
24 90 5 125 -7 13 -11 32 -9 42 7 24 -32 45 -41 22z"/>
<path d="M245 410 c-31 -50 -16 -120 19 -91 22 18 20 30 -4 24 -15 -4 -20 0
-20 16 0 12 5 31 10 42 11 20 6 27 -5 9z"/>
<path d="M830 365 c0 -11 5 -27 10 -35 8 -13 11 -13 27 3 16 15 16 17 1 17
-10 0 -22 8 -27 18 -10 16 -10 15 -11 -3z"/>
<path d="M1304 208 c-4 -6 -3 -8 4 -4 20 12 24 -15 6 -37 -16 -18 -14 -18 9 2
15 14 27 30 27 38 0 16 -36 17 -46 1z"/>
<path d="M600 159 c-73 -45 -86 -56 -78 -65 10 -9 148 77 148 92 0 18 6 20
-70 -27z"/>
<path d="M165 114 c-69 -24 -94 -39 -83 -49 6 -7 138 41 152 55 19 19 0 17
-69 -6z"/>
</g>
</svg>
