<?xml version="1.0" standalone="no"?>
<!DOCTYPE svg PUBLIC "-//W3C//DTD SVG 20010904//EN"
 "http://www.w3.org/TR/2001/REC-SVG-20010904/DTD/svg10.dtd">
<svg version="1.0" xmlns="http://www.w3.org/2000/svg"
 width="138.000000px" height="76.000000px" viewBox="0 0 138.000000 76.000000"
 preserveAspectRatio="xMidYMid meet">

<g transform="translate(0.000000,76.000000) scale(0.100000,-0.100000)"
fill="#000000" stroke="none">
<path d="M479 686 c-13 -6 -25 -18 -27 -27 -2 -11 6 -14 38 -11 45 5 52 -8 18
-31 l-23 -16 23 0 c26 -1 72 40 72 63 0 9 -12 18 -27 22 -16 3 -33 7 -39 9 -6
2 -22 -2 -35 -9z"/>
<path d="M890 661 c-47 -21 -165 -70 -263 -111 -151 -62 -180 -77 -193 -102
-16 -31 -11 -68 10 -68 23 0 26 13 11 37 -16 24 -16 24 77 67 51 23 176 75
278 115 186 73 240 102 190 100 -14 0 -63 -18 -110 -38z"/>
<path d="M1116 683 c-4 -9 0 -87 9 -173 9 -87 15 -172 13 -190 -3 -31 -7 -34
-63 -50 -85 -23 -122 -44 -192 -111 -81 -78 -123 -77 -123 1 0 51 14 64 110
105 73 30 129 69 117 81 -2 2 -35 -10 -73 -26 -106 -45 -156 -37 -184 30 -18
44 2 61 87 75 l68 12 -42 12 c-54 15 -87 6 -118 -31 -32 -38 -34 -104 -5 -136
11 -12 20 -23 20 -26 0 -10 -144 -36 -203 -36 -121 0 -145 23 -191 182 -30
105 -65 188 -78 188 -15 0 -4 -66 21 -134 33 -88 38 -151 15 -178 -25 -28
-111 -82 -153 -96 -44 -15 -81 5 -81 45 0 41 22 105 39 111 19 7 31 22 31 41
0 11 -3 12 -11 4 -17 -17 -39 -4 -39 21 0 13 7 44 14 71 17 56 6 49 -17 -13
-19 -46 -22 -108 -8 -117 5 -3 1 -29 -10 -60 -23 -66 -24 -118 -3 -139 26 -26
93 -20 145 12 45 30 119 104 119 122 0 22 16 7 31 -29 9 -22 28 -47 42 -56 39
-25 130 -29 217 -11 41 9 87 19 103 23 27 5 27 5 27 -44 0 -112 76 -127 160
-30 38 44 81 68 163 92 96 28 108 83 73 343 -4 28 -3 32 9 22 24 -20 24 5 0
58 -13 29 -26 52 -28 52 -3 0 -8 -8 -11 -17z"/>
<path d="M1250 676 c-5 -15 -8 -37 -5 -49 9 -43 35 -465 30 -483 -4 -10 1 -6
11 11 17 30 17 123 -2 365 -7 79 -6 84 9 71 23 -19 21 -2 -8 60 l-24 53 -11
-28z"/>
<path d="M1037 552 c-5 -7 -6 -24 -3 -38 6 -21 3 -25 -11 -22 -9 2 -20 14 -24
28 -6 23 -6 22 -10 -10 -5 -47 -39 -56 -39 -11 0 17 -5 31 -11 31 -6 0 -8 -8
-6 -17 3 -10 8 -30 11 -45 6 -28 29 -37 41 -18 3 6 17 10 30 10 27 0 39 27 33
76 -2 20 -6 25 -11 16z"/>
<path d="M556 394 c-3 -9 -6 -29 -6 -45 0 -34 24 -40 39 -10 9 15 7 18 -7 17
-13 -1 -17 6 -15 27 2 30 -2 35 -11 11z"/>
<path d="M1100 170 c0 -5 5 -10 10 -10 17 0 11 -23 -12 -48 l-23 -25 22 12
c25 13 56 64 46 75 -10 10 -43 7 -43 -4z"/>
<path d="M288 124 c-38 -19 -68 -39 -68 -44 0 -11 135 54 145 70 10 16 -6 11
-77 -26z"/>
<path d="M624 118 c-3 -5 -16 -5 -29 -2 -14 3 -38 -2 -62 -15 -21 -11 -51 -23
-68 -27 -26 -7 -27 -8 -8 -11 12 -2 40 6 64 17 28 15 52 20 70 16 30 -6 79 8
79 22 0 10 -40 10 -46 0z"/>
</g>
</svg>
