<?xml version="1.0" standalone="no"?>
<!DOCTYPE svg PUBLIC "-//W3C//DTD SVG 20010904//EN"
 "http://www.w3.org/TR/2001/REC-SVG-20010904/DTD/svg10.dtd">
<svg version="1.0" xmlns="http://www.w3.org/2000/svg"
 width="146.000000px" height="76.000000px" viewBox="0 0 146.000000 76.000000"
 preserveAspectRatio="xMidYMid meet">

<g transform="translate(0.000000,76.000000) scale(0.100000,-0.100000)"
fill="#000000" stroke="none">
<path d="M648 624 c-52 -31 -73 -54 -50 -54 11 0 132 78 132 85 0 12 -29 1
-82 -31z"/>
<path d="M727 612 c-3 -4 0 -78 6 -164 7 -114 7 -164 -1 -180 -10 -21 -11 -20
-11 14 -1 40 -29 82 -134 201 -43 49 -57 71 -48 76 9 6 3 14 -20 29 -33 20
-49 21 -49 0 0 -6 37 -54 83 -107 158 -182 176 -216 147 -270 -12 -23 -96 -77
-133 -86 -15 -4 -26 -9 -23 -12 2 -2 32 3 66 13 71 20 123 71 135 132 l7 37
24 -47 c13 -26 32 -52 42 -57 28 -15 96 5 178 50 39 21 78 39 87 39 8 0 17 6
20 14 4 10 -23 20 -108 40 -100 24 -118 26 -142 14 -15 -7 -29 -22 -32 -33 -3
-17 -1 -18 13 -6 17 15 67 11 140 -10 l40 -11 -25 -18 c-30 -24 -125 -54 -139
-45 -6 4 -17 21 -25 38 -14 30 -15 31 -10 5 3 -16 1 -28 -4 -28 -27 0 -61 173
-61 312 0 60 -9 84 -23 60z"/>
<path d="M167 592 c-19 -21 -23 -42 -5 -24 13 13 68 17 68 4 0 -5 -15 -16 -32
-25 l-33 -18 30 6 c38 8 70 38 62 59 -9 23 -69 21 -90 -2z"/>
<path d="M1236 601 c-4 -6 -1 -87 5 -181 9 -130 9 -174 1 -182 -9 -9 -12 -5
-12 18 0 37 -11 53 -124 182 -64 74 -86 106 -77 111 9 6 5 14 -15 30 -31 24
-54 27 -54 7 0 -8 56 -79 125 -158 122 -140 147 -182 131 -223 -3 -8 -34 -34
-68 -56 -49 -32 -56 -40 -33 -35 58 14 108 50 133 96 23 43 24 50 17 184 -5
97 -3 136 4 131 18 -10 12 28 -8 58 -11 17 -21 25 -25 18z"/>
<path d="M1336 594 c-3 -9 -4 -19 -2 -23 9 -14 37 -402 31 -424 -6 -18 -5 -20
6 -9 16 15 18 82 6 261 -7 89 -6 121 2 117 14 -9 14 -8 -5 47 -17 49 -28 58
-38 31z"/>
<path d="M57 593 c-4 -3 -7 -19 -7 -35 0 -36 26 -38 42 -2 10 21 9 27 -3 35
-17 11 -24 11 -32 2z m25 -28 c0 -5 -5 -11 -11 -13 -6 -2 -11 4 -11 13 0 9 5
15 11 13 6 -2 11 -8 11 -13z"/>
<path d="M350 569 c-6 -11 -10 -30 -8 -42 3 -24 29 -30 36 -8 3 8 0 11 -7 7
-16 -11 -24 19 -11 43 6 12 8 21 6 21 -3 0 -10 -9 -16 -21z"/>
<path d="M864 558 c-4 -6 -3 -8 3 -5 6 4 16 0 22 -7 14 -17 0 -29 -23 -20 -18
7 -22 -11 -5 -22 16 -9 53 31 46 50 -7 19 -33 21 -43 4z"/>
<path d="M144 488 c-4 -6 4 -19 20 -31 15 -11 32 -32 38 -46 l10 -26 10 30 c5
17 12 36 14 44 3 11 7 11 19 1 12 -10 15 -10 15 1 0 8 -5 21 -10 29 -9 13 -12
12 -25 -4 -8 -11 -15 -27 -15 -35 0 -10 -10 -4 -26 17 -27 34 -39 39 -50 20z"/>
<path d="M41 429 c-12 -34 -14 -101 -5 -136 l6 -21 24 21 c30 26 31 44 2 43
-18 -1 -24 5 -26 27 -2 16 1 42 7 59 6 17 9 33 7 35 -2 2 -9 -10 -15 -28z"/>
<path d="M874 446 c-7 -19 3 -36 21 -36 22 0 26 29 4 40 -15 8 -21 7 -25 -4z"/>
<path d="M399 380 c-41 -41 -54 -49 -65 -39 -25 21 -28 0 -9 -53 18 -50 18
-51 -1 -65 -38 -29 -116 -64 -130 -59 -8 3 -14 0 -14 -6 0 -18 -90 -3 -112 20
-11 11 -24 35 -28 53 l-8 34 -1 -43 c-1 -38 4 -49 34 -79 35 -35 37 -35 92
-29 97 11 193 77 193 132 0 22 4 24 55 24 71 0 120 20 139 59 21 40 20 56 -6
81 -39 36 -82 27 -139 -30z m113 -1 c28 -20 28 -22 12 -40 -29 -32 -114 -49
-144 -29 -12 8 -8 17 27 50 48 46 63 48 105 19z"/>
<path d="M186 351 c-4 -5 0 -11 6 -14 9 -3 7 -10 -7 -22 -18 -15 -18 -16 -2
-11 10 3 27 6 38 6 23 0 24 13 3 34 -18 18 -30 20 -38 7z"/>
<path d="M176 235 c8 -50 14 -58 14 -19 0 16 -5 36 -11 44 -7 11 -8 4 -3 -25z"/>
<path d="M464 194 c-100 -52 -117 -64 -90 -64 24 0 186 88 186 101 0 13 3 14
-96 -37z"/>
<path d="M1266 191 c-11 -12 -15 -27 -11 -43 l6 -25 40 20 c47 23 49 29 7 25
-18 -2 -33 2 -35 10 -3 7 1 10 11 6 11 -4 16 -1 16 10 0 21 -13 20 -34 -3z"/>
<path d="M1031 184 c11 -14 10 -18 -6 -30 -10 -8 -14 -14 -8 -14 13 0 43 33
43 48 0 7 -10 12 -21 12 -19 0 -20 -2 -8 -16z"/>
</g>
</svg>
