<?xml version="1.0" standalone="no"?>
<!DOCTYPE svg PUBLIC "-//W3C//DTD SVG 20010904//EN"
 "http://www.w3.org/TR/2001/REC-SVG-20010904/DTD/svg10.dtd">
<svg version="1.0" xmlns="http://www.w3.org/2000/svg"
 width="97.000000px" height="76.000000px" viewBox="0 0 97.000000 76.000000"
 preserveAspectRatio="xMidYMid meet">

<g transform="translate(0.000000,76.000000) scale(0.100000,-0.100000)"
fill="#000000" stroke="none">
<path d="M613 688 c-42 -46 -39 -67 10 -101 17 -12 13 -18 -43 -80 -34 -37
-59 -67 -55 -67 14 0 101 79 115 104 15 30 40 35 41 9 0 -11 4 -7 11 10 8 22
7 32 -6 46 -9 10 -16 28 -16 40 0 25 -17 61 -29 61 -4 0 -17 -10 -28 -22z m35
-46 c3 -16 -1 -19 -17 -15 -21 5 -27 23 -14 37 12 11 28 0 31 -22z"/>
<path d="M480 646 c-24 -65 3 -126 36 -81 19 25 18 40 -1 25 -26 -21 -40 2
-26 41 14 39 6 53 -9 15z"/>
<path d="M150 644 c-108 -20 -130 -89 -44 -139 23 -14 46 -30 49 -35 11 -18
-26 -60 -54 -60 l-26 -1 22 -18 c19 -16 21 -23 13 -52 -23 -81 -5 -185 39
-230 59 -58 153 -59 246 -3 34 20 55 28 55 20 0 -7 11 -25 25 -40 19 -20 33
-26 68 -26 87 0 240 102 253 169 5 24 16 37 46 52 50 26 64 60 47 114 -8 22
-12 49 -11 61 3 24 -31 59 -47 49 -18 -11 -12 -39 19 -96 16 -30 30 -57 30
-61 0 -4 -19 -17 -41 -29 l-42 -21 -37 41 c-21 23 -45 41 -54 41 -21 0 -56
-57 -56 -91 0 -40 22 -53 81 -45 45 6 50 5 47 -11 -4 -25 -122 -100 -184 -119
-58 -17 -96 -8 -114 26 -9 16 -7 26 9 48 47 67 48 175 1 217 -28 25 -105 30
-188 11 -70 -16 -152 -21 -152 -10 0 18 22 42 35 38 11 -5 13 -2 9 9 -6 18 45
59 138 110 54 29 79 59 63 75 -8 8 -208 12 -245 6z m150 -53 c0 -4 -28 -30
-61 -56 -54 -42 -63 -46 -71 -32 -5 10 -27 26 -49 38 -72 36 -37 56 99 58 45
1 82 -3 82 -8z m163 -222 c12 -7 25 -17 29 -23 15 -22 7 -81 -13 -106 l-21
-25 6 39 c7 51 -4 39 -19 -21 -17 -68 -71 -106 -158 -111 -57 -4 -66 -1 -95
23 -54 45 -77 112 -66 185 l6 39 47 -5 c25 -3 66 -1 91 4 65 14 168 14 193 1z
m265 -51 c19 -19 14 -28 -18 -28 -18 0 -30 5 -30 13 0 28 27 36 48 15z"/>
<path d="M298 294 c-38 -19 -68 -39 -68 -44 0 -11 135 54 145 70 10 16 -6 11
-77 -26z"/>
<path d="M302 245 c-40 -19 -72 -39 -72 -45 0 -11 28 -1 113 41 26 12 47 27
47 31 0 13 -12 10 -88 -27z"/>
<path d="M761 622 c-8 -15 -6 -23 9 -37 22 -20 53 -13 48 11 -2 9 -13 23 -25
31 -19 13 -23 13 -32 -5z"/>
<path d="M660 478 c0 -34 14 -43 34 -22 19 18 21 28 4 18 -6 -4 -17 1 -25 11
-12 18 -13 17 -13 -7z"/>
</g>
</svg>
