<?xml version="1.0" standalone="no"?>
<!DOCTYPE svg PUBLIC "-//W3C//DTD SVG 20010904//EN"
 "http://www.w3.org/TR/2001/REC-SVG-20010904/DTD/svg10.dtd">
<svg version="1.0" xmlns="http://www.w3.org/2000/svg"
 width="125.000000px" height="76.000000px" viewBox="0 0 125.000000 76.000000"
 preserveAspectRatio="xMidYMid meet">

<g transform="translate(0.000000,76.000000) scale(0.100000,-0.100000)"
fill="#000000" stroke="none">
<path d="M871 671 c-16 -29 -13 -58 6 -65 14 -6 12 -11 -12 -37 -16 -16 -53
-46 -82 -66 -29 -20 -53 -38 -53 -39 0 -2 12 1 26 6 40 16 113 69 130 96 12
18 22 22 40 18 26 -7 33 10 10 23 -8 4 -16 24 -18 43 -4 40 -31 53 -47 21z
m36 -16 c7 -20 -2 -29 -21 -22 -9 4 -13 13 -10 22 8 19 23 19 31 0z"/>
<path d="M1122 660 c-5 -13 -5 -42 -1 -64 11 -67 32 -432 26 -457 -6 -23 -6
-24 10 -4 13 17 14 44 9 180 -3 88 -9 185 -13 215 -6 51 -5 54 10 41 21 -17
21 -16 1 45 -21 63 -31 73 -42 44z"/>
<path d="M692 658 c-15 -15 -16 -40 -2 -54 11 -11 -30 -54 -90 -97 -21 -15
-19 -14 15 2 22 10 53 33 69 50 20 21 36 29 48 25 22 -7 24 11 2 20 -8 3 -12
10 -9 16 7 12 -3 50 -14 50 -4 0 -12 -5 -19 -12z m26 -27 c3 -8 -1 -12 -9 -9
-7 2 -15 10 -17 17 -3 8 1 12 9 9 7 -2 15 -10 17 -17z"/>
<path d="M997 649 c-3 -11 -1 -49 4 -82 6 -34 11 -125 12 -201 l2 -140 -33
-10 c-30 -8 -36 -6 -65 22 -18 18 -42 32 -53 32 -20 0 -80 -37 -188 -115 -63
-46 -95 -54 -113 -30 -12 17 -13 17 -13 2 0 -9 9 -26 21 -38 31 -31 71 -19
159 50 121 93 143 100 178 51 24 -32 51 -37 95 -21 42 16 49 60 37 222 -13
195 -13 194 5 179 22 -18 19 1 -7 55 -24 50 -33 55 -41 24z"/>
<path d="M62 644 c-35 -25 -30 -68 13 -94 35 -22 36 -29 7 -63 -9 -10 -17 -25
-18 -35 -1 -9 -6 -46 -12 -82 -30 -178 75 -269 226 -194 89 44 161 150 148
219 -8 41 -57 85 -94 85 -15 0 -61 -7 -103 -16 -43 -10 -88 -14 -104 -10 l-28
7 44 45 c25 25 77 61 119 82 44 22 76 44 78 55 3 15 -8 17 -125 17 -100 0
-133 -3 -151 -16z m173 -24 c5 -8 -55 -53 -91 -67 -14 -5 -67 33 -72 52 -2 6
7 13 20 17 36 10 136 9 143 -2z m-15 -194 c94 9 129 6 158 -12 46 -30 41 -73
-14 -134 -87 -96 -234 -107 -278 -21 -18 34 -21 116 -6 155 8 23 12 25 37 15
18 -7 56 -8 103 -3z"/>
<path d="M231 351 c-11 -19 -6 -26 26 -45 18 -10 37 32 22 50 -16 20 -36 18
-48 -5z"/>
<path d="M468 630 l-11 -33 -19 26 c-22 30 -48 36 -48 12 0 -9 11 -20 24 -25
13 -5 27 -18 31 -29 10 -31 23 -25 27 12 2 24 7 31 21 29 21 -4 22 11 2 28
-13 11 -17 7 -27 -20z"/>
<path d="M546 641 c-17 -19 -16 -19 26 -14 39 6 42 5 29 -10 -7 -10 -19 -17
-27 -17 -7 0 -15 -4 -19 -9 -3 -6 7 -6 27 0 18 5 34 9 35 9 1 0 7 10 14 21 9
17 8 23 -2 30 -24 15 -65 10 -83 -10z"/>
<path d="M456 504 c-18 -46 1 -87 29 -64 17 14 20 34 4 24 -15 -9 -30 16 -23
39 7 21 -2 23 -10 1z"/>
<path d="M611 464 c-12 -15 -21 -41 -21 -60 0 -36 8 -41 80 -46 62 -5 50 -31
-37 -83 -87 -52 -347 -181 -378 -188 -16 -4 -15 -5 5 -6 44 -1 148 28 211 60
34 16 67 28 75 25 8 -3 14 0 15 7 0 7 35 35 77 62 70 46 78 54 86 93 10 50
-12 111 -52 143 -32 25 -37 24 -61 -7z m54 -44 c0 -8 -7 -16 -15 -17 -22 -4
-44 13 -35 26 10 17 50 9 50 -9z"/>
<path d="M911 409 c-17 -51 15 -93 39 -50 12 24 13 42 1 22 -15 -23 -34 -2
-27 30 7 38 1 37 -13 -2z"/>
<path d="M490 350 c0 -6 10 -15 23 -21 21 -9 21 -9 -5 -6 -20 3 -25 0 -21 -11
4 -8 -4 -23 -18 -35 l-24 -19 25 16 c14 9 33 19 42 22 24 8 30 31 12 49 -18
17 -34 20 -34 5z"/>
<path d="M829 154 c-11 -14 -10 -18 6 -30 16 -12 21 -12 33 0 17 17 9 46 -11
46 -8 0 -21 -7 -28 -16z"/>
<path d="M1060 155 c-10 -12 -10 -15 4 -15 19 0 20 -8 4 -30 -7 -9 -3 -5 10 8
23 24 25 43 5 49 -5 2 -16 -3 -23 -12z"/>
<path d="M225 131 c-38 -16 -71 -34 -73 -41 -5 -14 9 -10 95 25 31 12 59 28
61 34 5 16 -4 14 -83 -18z"/>
</g>
</svg>
