<?xml version="1.0" standalone="no"?>
<!DOCTYPE svg PUBLIC "-//W3C//DTD SVG 20010904//EN"
 "http://www.w3.org/TR/2001/REC-SVG-20010904/DTD/svg10.dtd">
<svg version="1.0" xmlns="http://www.w3.org/2000/svg"
 width="113.000000px" height="76.000000px" viewBox="0 0 113.000000 76.000000"
 preserveAspectRatio="xMidYMid meet">

<g transform="translate(0.000000,76.000000) scale(0.100000,-0.100000)"
fill="#000000" stroke="none">
<path d="M945 700 c-3 -14 3 -114 15 -222 11 -109 20 -203 20 -209 0 -12 -51
-7 -122 12 -35 9 -36 10 -31 49 3 22 0 90 -7 152 -9 82 -9 113 -1 116 16 5 13
28 -10 74 -15 29 -24 37 -32 29 -9 -9 7 -212 28 -343 5 -31 2 -32 -63 -28 -43
2 -72 -12 -72 -35 0 -8 32 -23 75 -36 41 -12 75 -25 75 -29 0 -8 -91 -30 -124
-30 -31 0 -66 28 -66 53 0 19 -3 17 -29 -13 -25 -30 -31 -33 -45 -21 -9 7 -16
20 -16 27 0 19 -5 18 -34 -11 -31 -31 -47 -31 -84 0 -32 27 -79 33 -115 13
-12 -6 -50 -35 -85 -65 -35 -29 -76 -60 -93 -68 -27 -14 -30 -14 -50 6 -17 17
-20 28 -14 57 8 46 42 102 61 102 15 0 44 49 44 76 0 13 -4 12 -18 -6 -45 -55
-56 24 -17 109 14 30 24 59 22 64 -1 5 -20 -27 -40 -70 -30 -65 -37 -91 -36
-134 1 -35 -7 -77 -21 -118 -21 -58 -22 -66 -9 -90 20 -35 56 -52 87 -40 13 5
52 33 86 63 95 83 126 93 173 56 31 -24 70 -26 101 -4 12 8 22 11 22 5 0 -6 9
-15 20 -21 16 -8 27 -7 50 7 29 17 30 17 46 -5 22 -31 76 -29 184 9 55 19 103
29 127 27 38 -3 38 -3 37 -45 -1 -48 11 -48 21 -1 4 18 18 40 31 51 30 23 30
35 2 39 -22 3 -24 11 -42 172 -15 134 -16 170 -6 176 13 8 3 50 -25 100 l-13
25 -7 -25z"/>
<path d="M271 677 c-6 -16 -11 -35 -11 -44 0 -9 -10 -2 -23 18 -25 37 -50 44
-55 17 -2 -12 6 -21 23 -28 15 -6 30 -22 36 -40 13 -37 29 -30 29 14 0 39 8
50 27 35 18 -16 18 11 -1 37 -14 18 -15 18 -25 -9z"/>
<path d="M605 660 c-26 -51 -13 -97 20 -70 19 16 19 31 1 24 -23 -9 -28 13
-11 46 8 16 13 30 11 30 -3 0 -12 -13 -21 -30z"/>
<path d="M410 649 c-6 -11 -9 -25 -6 -32 3 -9 5 -9 5 1 1 14 71 17 71 2 0 -5
-14 -17 -31 -25 -41 -22 -32 -29 17 -13 27 9 41 21 48 41 13 35 -2 47 -56 47
-27 0 -40 -5 -48 -21z"/>
<path d="M675 559 c-62 -47 -87 -70 -81 -76 7 -7 128 79 134 95 6 19 -9 13
-53 -19z"/>
<path d="M310 541 c0 -6 5 -13 11 -16 7 -5 3 -14 -11 -27 -18 -17 -21 -27 -15
-52 4 -17 11 -51 16 -76 7 -42 7 -41 4 15 -2 33 -5 69 -7 80 -2 15 3 21 25 23
29 4 33 13 17 43 -11 19 -40 27 -40 10z"/>
<path d="M510 474 c-11 -12 -10 -18 3 -32 16 -15 18 -15 34 0 13 14 14 20 3
32 -7 9 -16 16 -20 16 -4 0 -13 -7 -20 -16z"/>
<path d="M481 412 c-7 -13 -6 -23 1 -30 16 -16 35 -15 42 1 3 8 8 7 16 -6 9
-14 15 -16 26 -6 16 13 19 45 4 54 -6 4 -18 1 -26 -6 -11 -9 -18 -9 -26 -1
-17 17 -26 15 -37 -6z"/>
<path d="M295 114 c-57 -42 -77 -64 -58 -64 14 1 126 84 131 98 6 20 -10 13
-73 -34z"/>
<path d="M867 154 c-4 -4 1 -13 11 -20 16 -13 15 -16 -16 -44 -18 -16 -28 -30
-23 -30 19 0 72 60 69 77 -3 18 -29 29 -41 17z"/>
<path d="M585 140 c-3 -5 -1 -10 4 -10 16 0 13 -21 -6 -44 -10 -12 -4 -9 11 6
18 16 27 32 23 42 -7 18 -23 21 -32 6z"/>
</g>
</svg>
