<?xml version="1.0" standalone="no"?>
<!DOCTYPE svg PUBLIC "-//W3C//DTD SVG 20010904//EN"
 "http://www.w3.org/TR/2001/REC-SVG-20010904/DTD/svg10.dtd">
<svg version="1.0" xmlns="http://www.w3.org/2000/svg"
 width="108.000000px" height="76.000000px" viewBox="0 0 108.000000 76.000000"
 preserveAspectRatio="xMidYMid meet">

<g transform="translate(0.000000,76.000000) scale(0.100000,-0.100000)"
fill="#000000" stroke="none">
<path d="M590 710 c-24 -24 -24 -29 -5 -58 20 -28 9 -49 -46 -87 -22 -16 -36
-31 -29 -33 6 -2 38 16 70 41 41 32 64 44 79 40 25 -6 30 24 6 33 -8 4 -15 17
-15 29 0 56 -25 70 -60 35z m37 -36 c-9 -9 -28 6 -21 18 4 6 10 6 17 -1 6 -6
8 -13 4 -17z"/>
<path d="M416 694 c-3 -9 -6 -24 -6 -35 0 -10 -4 -19 -10 -19 -5 0 -10 4 -10
8 0 15 -40 52 -56 52 -21 0 -15 -55 6 -55 23 -1 40 -15 51 -42 12 -33 21 -23
28 30 4 28 11 42 21 42 15 0 20 6 20 25 0 16 -37 11 -44 -6z"/>
<path d="M935 677 c-18 -44 -19 -69 -3 -85 16 -16 23 -15 42 4 23 22 20 32 -9
26 -20 -3 -25 0 -25 17 0 12 5 31 11 43 6 11 8 22 5 25 -3 4 -13 -10 -21 -30z"/>
<path d="M764 606 c-4 -9 -4 -26 -1 -37 4 -14 -4 -36 -21 -61 -14 -22 -28 -59
-31 -81 -8 -56 -30 -58 -77 -8 -44 49 -66 51 -105 12 -56 -56 -31 -111 51
-111 27 0 51 -4 55 -10 11 -18 -184 -157 -330 -235 -68 -37 -69 -37 -29 -31
95 14 173 47 251 104 90 67 132 113 140 153 5 25 12 30 65 41 43 10 77 11 127
4 82 -11 113 -4 136 30 14 21 15 35 9 68 -9 39 -13 43 -88 79 -64 31 -77 41
-73 57 3 14 -1 21 -17 25 -11 4 -29 9 -39 11 -10 3 -20 -1 -23 -10z m60 -115
c39 -42 -2 -99 -51 -71 -35 20 -38 32 -13 63 25 32 41 34 64 8z m99 -34 c18
-8 38 -21 45 -30 19 -23 -16 -39 -68 -31 -41 7 -44 12 -34 52 7 26 13 27 57 9z
m-338 -66 c3 -5 1 -12 -4 -15 -13 -8 -42 4 -35 15 7 12 31 12 39 0z"/>
<path d="M180 546 c0 -34 93 -109 170 -137 71 -26 88 -42 69 -65 -21 -26 -214
-163 -250 -178 -47 -19 -76 -6 -84 36 -7 39 16 116 51 168 29 42 30 52 5 74
-11 10 -21 30 -23 45 -3 25 -4 24 -26 -16 -26 -51 -29 -108 -5 -121 15 -9 15
-13 -1 -52 -24 -60 -24 -154 -1 -180 40 -44 117 -11 290 124 123 96 114 178
-25 231 -74 28 -91 42 -69 56 10 6 4 12 -23 24 -55 23 -78 20 -78 -9z m-62
-149 c2 -10 -3 -17 -12 -17 -10 0 -16 9 -16 21 0 24 23 21 28 -4z"/>
<path d="M792 290 c2 -8 12 -41 22 -72 16 -47 17 -60 6 -72 -17 -21 -26 -20
-50 4 l-20 20 0 -23 c0 -65 72 -90 98 -34 11 23 11 36 -2 80 -14 47 -62 133
-54 97z"/>
</g>
</svg>
