<?xml version="1.0" standalone="no"?>
<!DOCTYPE svg PUBLIC "-//W3C//DTD SVG 20010904//EN"
 "http://www.w3.org/TR/2001/REC-SVG-20010904/DTD/svg10.dtd">
<svg version="1.0" xmlns="http://www.w3.org/2000/svg"
 width="140.000000px" height="76.000000px" viewBox="0 0 140.000000 76.000000"
 preserveAspectRatio="xMidYMid meet">

<g transform="translate(0.000000,76.000000) scale(0.100000,-0.100000)"
fill="#000000" stroke="none">
<path d="M491 666 c-11 -13 -12 -30 -2 -86 6 -39 14 -110 17 -158 6 -85 6 -88
-17 -103 -48 -31 -57 -30 -78 7 -29 48 -49 53 -78 20 -46 -53 -21 -106 49
-106 l41 0 -19 -21 c-44 -49 -198 -100 -257 -85 -72 18 -91 100 -37 156 16 17
30 38 29 48 0 10 -3 12 -6 5 -7 -18 -40 -16 -47 3 -7 18 9 84 31 129 l14 30
-20 -25 c-28 -34 -55 -125 -46 -158 4 -15 6 -57 5 -93 -1 -58 2 -70 25 -97 36
-43 82 -56 145 -43 98 21 190 83 190 128 0 14 10 29 28 40 15 9 37 26 50 37
21 19 22 19 22 0 0 -10 9 -33 20 -51 21 -35 92 -63 159 -63 52 0 156 27 223
57 l57 25 41 -32 c27 -21 56 -34 84 -37 38 -5 45 -2 71 28 l28 34 -7 110 c-4
60 -9 134 -13 164 -4 40 -3 52 5 47 20 -12 14 30 -10 69 -29 51 -42 27 -29
-57 5 -35 12 -103 16 -153 3 -49 8 -106 11 -126 10 -67 -55 -91 -126 -47 l-35
22 38 15 c38 16 57 45 39 63 -5 5 -38 14 -73 20 -75 12 -132 -3 -157 -40 -15
-22 -14 -23 10 -17 16 4 32 0 48 -13 l24 -19 -30 -16 c-83 -43 -243 -60 -308
-33 -51 21 -66 66 -83 243 -8 85 -18 164 -22 175 -6 18 -8 18 -20 4z m549
-331 c0 -2 -9 -9 -19 -14 -14 -8 -22 -7 -31 4 -11 13 -8 15 19 15 17 0 31 -2
31 -5z m-665 -21 c22 -22 5 -40 -24 -25 -22 12 -26 23 -14 34 10 11 20 8 38
-9z"/>
<path d="M377 663 c-11 -19 -17 -67 -12 -84 8 -25 42 -24 50 2 4 11 4 23 1 26
-3 4 -6 1 -6 -5 0 -7 -7 -12 -16 -12 -13 0 -15 8 -12 40 4 40 3 46 -5 33z"/>
<path d="M765 599 c-118 -61 -157 -89 -124 -89 13 0 237 116 253 130 4 5 7 12
5 17 -2 4 -62 -22 -134 -58z"/>
<path d="M1271 652 c-7 -12 -10 -30 -7 -40 10 -33 37 -426 32 -451 -6 -25 -6
-26 10 -6 14 17 15 41 10 175 -3 85 -9 175 -13 200 -6 41 -5 44 10 31 25 -20
22 2 -6 64 -23 48 -24 49 -36 27z"/>
<path d="M137 653 c-16 -15 -6 -43 17 -49 15 -3 31 -20 41 -40 20 -42 30 -37
39 16 7 42 14 48 34 28 16 -16 17 5 1 33 -14 26 -35 10 -45 -33 -6 -28 -7 -30
-17 -12 -12 24 -48 64 -57 64 -4 0 -10 -3 -13 -7z"/>
<path d="M850 552 c-200 -99 -215 -109 -218 -136 -4 -28 10 -46 36 -46 18 0
15 21 -5 36 -17 12 -17 14 2 28 11 8 103 54 205 101 173 81 247 125 210 125
-8 0 -112 -48 -230 -108z"/>
<path d="M1032 535 c-19 -41 -15 -75 7 -75 10 0 22 7 25 16 9 24 7 28 -9 14
-20 -17 -31 11 -15 40 6 12 10 24 7 26 -2 2 -9 -7 -15 -21z"/>
<path d="M338 483 c-13 -12 -20 -13 -38 -3 -18 10 -24 9 -31 -1 -12 -19 -11
-25 6 -39 13 -11 20 -11 41 0 18 10 27 11 36 2 8 -8 15 -9 25 -1 18 16 16 32
-6 46 -14 9 -21 8 -33 -4z"/>
<path d="M205 328 c-6 -30 -8 -49 -6 -71 1 -24 44 -19 49 5 2 13 -2 15 -19 11
-21 -6 -22 -4 -16 35 5 45 1 57 -8 20z"/>
<path d="M942 198 c-6 -7 -10 -24 -10 -38 0 -14 -3 -35 -7 -47 -7 -21 -4 -23
29 -23 35 0 126 37 126 52 0 4 -19 -2 -42 -12 -43 -20 -98 -27 -98 -12 0 4 14
19 32 35 l33 27 -30 -5 c-27 -6 -28 -5 -12 8 9 8 17 17 17 21 0 11 -27 6 -38
-6z"/>
<path d="M483 159 c-35 -23 -63 -46 -63 -51 0 -14 17 -6 83 36 31 20 57 41 57
46 0 17 -13 11 -77 -31z"/>
</g>
</svg>
