<?xml version="1.0" standalone="no"?>
<!DOCTYPE svg PUBLIC "-//W3C//DTD SVG 20010904//EN"
 "http://www.w3.org/TR/2001/REC-SVG-20010904/DTD/svg10.dtd">
<svg version="1.0" xmlns="http://www.w3.org/2000/svg"
 width="139.000000px" height="76.000000px" viewBox="0 0 139.000000 76.000000"
 preserveAspectRatio="xMidYMid meet">

<g transform="translate(0.000000,76.000000) scale(0.100000,-0.100000)"
fill="#000000" stroke="none">
<path d="M1112 686 c-7 -16 -8 -35 -2 -56 12 -43 34 -304 27 -323 -3 -9 -40
-23 -98 -37 -112 -26 -138 -39 -203 -100 -111 -102 -156 -108 -156 -20 0 24 9
33 63 64 100 57 118 75 124 127 6 54 -11 94 -57 133 -25 20 -35 24 -50 16 -48
-26 -67 -100 -31 -120 11 -5 40 -10 65 -10 52 0 66 -14 40 -40 -25 -24 -297
-160 -421 -210 -54 -22 -90 -40 -81 -40 50 0 191 37 250 66 37 19 69 34 72 34
2 0 7 -15 10 -33 10 -55 32 -77 76 -77 34 0 50 9 127 75 61 53 97 77 122 81
75 12 138 34 157 55 22 24 24 69 11 239 -7 95 -6 103 8 86 15 -20 15 -20 15 0
0 18 -33 89 -49 107 -4 4 -13 -4 -19 -17z m-328 -242 c25 -10 19 -34 -8 -34
-29 0 -44 19 -25 31 17 11 14 10 33 3z"/>
<path d="M1256 682 c-4 -10 3 -128 13 -263 11 -134 17 -257 15 -274 -5 -29 -5
-29 11 -10 15 17 16 39 11 170 -3 83 -9 182 -12 220 -7 67 -7 69 11 55 17 -13
18 -13 13 0 -35 101 -43 120 -49 120 -4 0 -10 -8 -13 -18z"/>
<path d="M996 674 c-19 -18 -21 -45 -5 -61 8 -8 -5 -24 -52 -58 -81 -60 -83
-62 -29 -35 25 12 59 36 77 52 19 19 38 28 47 25 8 -3 18 -2 21 4 4 5 -1 12
-9 15 -9 4 -16 18 -16 34 0 36 -13 45 -34 24z m23 -33 c-3 -6 -10 -7 -18 -2
-7 5 -10 14 -6 21 9 14 29 -2 24 -19z"/>
<path d="M676 653 c-7 -18 17 -43 41 -43 7 0 21 -16 30 -35 20 -42 30 -37 39
20 6 46 12 53 31 34 17 -17 23 4 8 25 -19 25 -41 14 -48 -24 l-7 -32 -34 36
c-37 40 -51 44 -60 19z"/>
<path d="M429 611 c-8 -29 -8 -43 0 -60 14 -25 46 -28 55 -5 10 27 7 37 -9 24
-23 -19 -38 -1 -32 41 7 50 1 50 -14 0z"/>
<path d="M110 456 c-40 -85 -46 -117 -26 -156 14 -30 14 -36 -5 -92 -20 -61
-19 -107 4 -126 7 -6 28 -13 48 -17 53 -10 88 13 149 94 44 61 62 76 125 107
40 20 86 37 101 37 16 1 31 4 34 7 3 3 22 13 43 22 32 15 37 22 37 50 -1 26
-9 39 -37 61 -20 15 -44 27 -54 27 -24 0 -51 -53 -47 -91 3 -28 -1 -31 -65
-59 -90 -38 -125 -66 -188 -150 -57 -77 -85 -92 -124 -66 -18 12 -25 25 -25
49 0 40 34 115 55 123 16 7 45 54 45 75 0 8 -7 5 -20 -6 -11 -10 -26 -15 -36
-11 -22 8 -15 88 13 145 11 23 17 41 12 41 -4 0 -22 -29 -39 -64z m451 -55
c27 -22 25 -27 -13 -36 -21 -5 -29 -2 -38 14 -21 41 11 55 51 22z"/>
<path d="M284 456 c-14 -59 21 -103 46 -56 11 20 10 21 -9 10 -26 -13 -37 6
-27 45 4 14 4 25 1 25 -2 0 -7 -11 -11 -24z"/>
<path d="M1038 433 l-4 -38 -13 32 c-13 33 -37 36 -27 5 7 -22 -9 -47 -24 -37
-6 4 -10 16 -7 26 3 11 1 19 -4 19 -16 0 -22 -51 -7 -66 11 -11 20 -12 48 -2
19 6 41 12 48 14 14 4 17 70 3 79 -6 3 -11 -12 -13 -32z"/>
<path d="M438 204 c-49 -24 -88 -49 -88 -54 0 -15 3 -14 89 30 72 36 99 55 90
65 -2 1 -43 -17 -91 -41z"/>
<path d="M1106 160 l-12 -30 -24 25 c-26 28 -45 32 -53 11 -7 -18 1 -26 24
-26 10 0 25 -14 34 -30 17 -33 35 -32 35 3 0 30 15 53 24 38 4 -6 11 -9 16 -6
10 6 -10 45 -23 45 -4 0 -14 -14 -21 -30z"/>
</g>
</svg>
