<?xml version="1.0" standalone="no"?>
<!DOCTYPE svg PUBLIC "-//W3C//DTD SVG 20010904//EN"
 "http://www.w3.org/TR/2001/REC-SVG-20010904/DTD/svg10.dtd">
<svg version="1.0" xmlns="http://www.w3.org/2000/svg"
 width="141.000000px" height="76.000000px" viewBox="0 0 141.000000 76.000000"
 preserveAspectRatio="xMidYMid meet">

<g transform="translate(0.000000,76.000000) scale(0.100000,-0.100000)"
fill="#000000" stroke="none">
<path d="M1267 650 c-3 -11 -1 -35 3 -53 5 -17 16 -108 25 -202 10 -93 20
-186 24 -205 l8 -35 7 32 c6 27 -11 227 -30 342 -4 28 -3 33 10 28 22 -9 20
15 -4 63 -24 48 -36 56 -43 30z"/>
<path d="M597 654 c-15 -15 -6 -35 19 -44 14 -6 31 -23 37 -40 15 -40 25 -38
33 8 9 49 13 55 30 41 11 -9 14 -8 14 2 0 8 -4 20 -9 28 -13 21 -41 -4 -41
-35 0 -32 -11 -30 -35 8 -21 33 -36 43 -48 32z"/>
<path d="M1120 623 c0 -21 9 -105 20 -188 21 -164 20 -167 -37 -192 -43 -17
-93 -17 -121 3 -27 19 -28 31 -2 39 22 7 50 32 50 44 0 7 -32 19 -97 36 -12 3
-40 1 -62 -5 -62 -16 -96 -60 -48 -60 13 0 32 -6 42 -14 18 -13 17 -14 -11
-29 -73 -37 -193 -58 -239 -41 -14 6 -11 12 17 41 27 28 32 41 31 76 -1 78
-19 127 -44 127 -16 0 -9 -40 16 -89 l24 -49 -39 -36 c-22 -20 -44 -36 -49
-36 -13 0 -19 31 -41 216 -11 92 -22 169 -25 172 -13 13 -17 -37 -7 -92 6 -33
16 -106 22 -161 6 -55 13 -112 16 -127 5 -26 0 -30 -103 -82 -59 -30 -102 -55
-95 -55 25 -1 126 31 175 55 45 23 48 24 72 8 42 -27 143 -15 249 31 l87 37
22 -20 c55 -49 97 -53 174 -17 l53 24 11 -22 c25 -47 62 -50 85 -6 21 42 12
76 -25 84 -15 3 -34 5 -42 3 -16 -4 -34 77 -45 196 -5 58 -4 77 5 72 6 -4 11
-2 11 4 0 13 -38 90 -45 90 -3 0 -5 -17 -5 -37z m-171 -302 c11 -7 9 -10 -8
-16 -22 -7 -41 0 -41 16 0 11 30 12 49 0z m301 -71 c12 -7 12 -12 2 -22 -14
-14 -42 -2 -50 20 -4 14 27 16 48 2z"/>
<path d="M103 641 c-55 -9 -75 -27 -71 -65 2 -23 13 -37 40 -55 l38 -24 -18
-31 c-10 -17 -29 -33 -42 -36 -21 -5 -22 -7 -8 -12 15 -6 16 -18 11 -91 -5
-68 -2 -90 12 -121 24 -50 67 -76 127 -76 61 0 88 11 138 56 48 44 65 73 75
130 6 37 3 46 -24 77 -47 53 -80 63 -163 49 -37 -7 -80 -12 -94 -12 -25 0 -26
1 -11 23 8 12 22 21 31 19 9 -2 15 3 14 10 -2 9 123 95 161 110 5 2 11 12 15
24 6 19 2 22 -46 27 -63 8 -127 7 -185 -2z m147 -40 c0 -10 -95 -71 -111 -71
-17 0 -89 40 -89 50 0 5 17 12 38 15 20 4 42 8 47 10 23 8 115 4 115 -4z m90
-216 c66 -34 66 -83 1 -146 -63 -60 -133 -80 -190 -52 -48 24 -81 75 -81 127
0 83 -3 81 126 84 87 2 122 -1 144 -13z"/>
<path d="M203 314 c-4 -11 1 -22 13 -31 16 -12 20 -11 31 3 9 13 10 21 2 31
-16 18 -38 16 -46 -3z"/>
<path d="M868 562 c-76 -36 -138 -71 -138 -78 0 -10 9 -9 38 3 88 36 260 121
266 132 15 24 -33 7 -166 -57z"/>
<path d="M420 561 c-26 -49 -4 -101 28 -69 17 17 15 33 -3 18 -21 -17 -32 13
-17 46 14 29 7 32 -8 5z"/>
<path d="M1005 540 c-22 -11 -93 -44 -157 -74 -116 -55 -136 -73 -122 -110 3
-9 12 -16 20 -16 17 0 18 12 2 28 -8 8 -9 15 -2 22 12 12 274 130 289 130 7 0
20 9 30 20 17 19 17 20 -1 19 -10 0 -37 -9 -59 -19z"/>
<path d="M1023 461 c2 -40 21 -51 36 -23 9 17 8 19 -8 15 -14 -4 -21 1 -24 19
-3 14 -4 10 -4 -11z"/>
<path d="M1194 465 c-3 -14 -3 -32 0 -41 8 -21 40 -14 45 11 3 16 1 17 -12 7
-19 -16 -31 0 -22 28 4 11 4 20 1 20 -3 0 -8 -11 -12 -25z"/>
<path d="M440 365 c-9 -27 -9 -39 0 -50 13 -16 40 -9 40 11 0 8 -6 11 -17 7
-14 -5 -15 -1 -10 30 7 47 2 47 -13 2z"/>
<path d="M875 190 c-4 -6 -1 -9 6 -8 28 6 19 -30 -11 -42 -17 -7 -29 -15 -26
-17 2 -3 20 3 39 12 36 17 52 39 41 56 -7 12 -41 11 -49 -1z"/>
<path d="M1143 169 c15 -9 16 -13 5 -26 -7 -8 -21 -19 -33 -23 -16 -7 -17 -9
-3 -9 24 -1 73 43 64 57 -4 7 -17 12 -29 12 -20 -1 -21 -1 -4 -11z"/>
<path d="M505 133 c-27 -14 -45 -28 -38 -30 11 -4 113 43 113 52 0 11 -28 3
-75 -22z"/>
</g>
</svg>
