<?xml version="1.0" standalone="no"?>
<!DOCTYPE svg PUBLIC "-//W3C//DTD SVG 20010904//EN"
 "http://www.w3.org/TR/2001/REC-SVG-20010904/DTD/svg10.dtd">
<svg version="1.0" xmlns="http://www.w3.org/2000/svg"
 width="150.000000px" height="76.000000px" viewBox="0 0 150.000000 76.000000"
 preserveAspectRatio="xMidYMid meet">

<g transform="translate(0.000000,76.000000) scale(0.100000,-0.100000)"
fill="#000000" stroke="none">
<path d="M1371 666 c-8 -9 -10 -27 -6 -44 5 -26 2 -32 -29 -51 l-35 -22 -20
20 c-23 23 -43 26 -72 11 -29 -16 -23 -27 11 -22 34 5 43 -17 10 -25 -23 -6
-27 -23 -6 -23 27 0 100 31 133 56 22 17 40 23 53 19 20 -6 28 9 10 20 -5 3
-9 20 -7 38 2 35 -21 48 -42 23z m29 -21 c0 -8 -4 -15 -9 -15 -13 0 -22 16
-14 24 11 11 23 6 23 -9z"/>
<path d="M135 590 c-8 -14 3 -30 21 -30 8 0 22 -16 30 -35 8 -19 16 -35 19
-35 2 0 9 18 15 41 9 31 14 38 24 30 18 -15 27 -2 15 20 -14 28 -29 23 -41
-12 l-11 -31 -24 31 c-26 32 -38 38 -48 21z"/>
<path d="M324 586 c-8 -21 -1 -59 12 -63 6 -2 14 3 17 11 4 11 1 13 -10 9 -13
-5 -15 0 -11 25 5 34 1 42 -8 18z"/>
<path d="M475 587 c-4 -9 -4 -27 0 -40 3 -12 10 -103 14 -202 4 -107 12 -189
19 -202 20 -37 56 -39 123 -6 l59 30 7 -26 c12 -53 53 -76 53 -29 0 18 4 20
32 14 115 -23 247 -14 373 25 l64 19 25 -25 c29 -29 69 -32 120 -11 59 25 64
61 39 275 -4 40 -3 52 5 47 17 -10 14 13 -7 59 -31 66 -36 19 -18 -144 10 -80
17 -154 17 -164 0 -34 -110 -63 -138 -35 -8 8 -6 17 8 36 35 43 19 132 -22
132 -25 0 -48 -46 -48 -94 0 -44 0 -44 -47 -60 -122 -40 -306 -46 -370 -12
-18 9 -40 30 -49 47 l-16 31 -31 -29 c-52 -48 -79 -63 -119 -63 -25 0 -40 6
-47 17 -5 10 -11 101 -13 203 -2 115 -8 193 -15 205 -11 19 -12 19 -18 2z
m787 -312 c10 -21 9 -29 -6 -43 -15 -15 -18 -15 -26 -2 -11 17 -13 54 -3 63
12 13 23 7 35 -18z"/>
<path d="M875 526 c-234 -95 -278 -115 -287 -129 -15 -23 -8 -27 16 -12 13 9
122 56 242 105 204 84 259 111 224 109 -8 0 -96 -33 -195 -73z"/>
<path d="M667 583 c-4 -3 -7 -10 -7 -14 0 -11 29 -19 35 -10 6 11 -20 33 -28
24z"/>
<path d="M590 565 c0 -8 7 -15 15 -15 9 0 21 -11 27 -25 15 -32 28 -32 28 1 0
14 -4 23 -9 19 -6 -3 -15 4 -21 15 -12 23 -40 27 -40 5z"/>
<path d="M303 472 c-51 -25 -95 -52 -97 -59 -3 -7 44 12 104 42 61 30 110 57
110 60 0 12 -31 1 -117 -43z"/>
<path d="M1080 475 c-13 -35 -6 -58 17 -53 24 4 28 33 9 59 l-15 22 -11 -28z
m20 -25 c0 -5 -5 -10 -11 -10 -5 0 -7 5 -4 10 3 6 8 10 11 10 2 0 4 -4 4 -10z"/>
<path d="M940 464 c-15 -37 -12 -70 6 -85 14 -11 18 -10 30 6 19 25 18 41 -1
25 -25 -21 -38 1 -27 44 12 41 6 48 -8 10z"/>
<path d="M86 432 c-30 -60 -41 -114 -27 -139 7 -14 6 -31 -4 -61 -18 -51 -10
-93 21 -123 48 -45 203 -20 292 48 46 35 54 62 37 120 -10 32 -11 49 -4 52 11
3 -18 41 -33 41 -12 0 -10 -34 6 -66 8 -16 17 -43 21 -61 6 -32 5 -33 -67 -69
-58 -29 -88 -38 -143 -42 -61 -4 -74 -1 -97 18 -17 12 -28 31 -28 45 0 36 18
75 34 75 16 0 46 37 46 57 0 11 -4 11 -21 1 -17 -11 -22 -10 -34 5 -14 20 -6
66 21 120 8 15 12 27 9 27 -2 0 -16 -22 -29 -48z"/>
<path d="M1241 423 c-8 -15 -12 -16 -22 -5 -18 17 -36 15 -43 -5 -5 -11 0 -22
11 -31 15 -11 20 -10 30 3 9 13 16 14 32 5 12 -6 26 -8 31 -5 16 10 11 34 -9
45 -16 8 -22 6 -30 -7z"/>
<path d="M750 370 c-13 -49 -5 -80 20 -80 18 0 38 36 26 47 -3 4 -6 1 -6 -5 0
-7 -7 -12 -16 -12 -14 0 -16 8 -12 45 7 56 2 57 -12 5z"/>
<path d="M1000 311 c-5 -11 -10 -28 -10 -38 0 -14 -6 -10 -26 15 -29 36 -64
43 -64 12 0 -13 7 -20 20 -20 13 0 28 -13 41 -35 25 -41 39 -37 39 10 0 35 14
54 25 35 4 -6 10 -8 15 -5 10 6 -9 45 -22 45 -4 0 -12 -9 -18 -19z"/>
<path d="M220 264 c-11 -12 -10 -18 4 -32 16 -16 18 -16 31 2 11 14 12 23 4
33 -15 17 -24 16 -39 -3z"/>
<path d="M431 170 c-9 -5 -8 -9 6 -14 17 -7 16 -9 -6 -27 -13 -10 -18 -19 -12
-19 13 0 51 36 51 49 0 13 -25 20 -39 11z"/>
<path d="M1196 135 c4 -9 -1 -22 -12 -32 -17 -14 -17 -14 6 0 27 15 33 38 12
45 -8 2 -10 -2 -6 -13z"/>
</g>
</svg>
