<?xml version="1.0" standalone="no"?>
<!DOCTYPE svg PUBLIC "-//W3C//DTD SVG 20010904//EN"
 "http://www.w3.org/TR/2001/REC-SVG-20010904/DTD/svg10.dtd">
<svg version="1.0" xmlns="http://www.w3.org/2000/svg"
 width="126.000000px" height="76.000000px" viewBox="0 0 126.000000 76.000000"
 preserveAspectRatio="xMidYMid meet">

<g transform="translate(0.000000,76.000000) scale(0.100000,-0.100000)"
fill="#000000" stroke="none">
<path d="M852 693 c-6 -11 -4 -51 4 -104 7 -48 16 -122 19 -166 l7 -80 -62 -5
c-38 -3 -65 -10 -71 -19 -18 -29 -19 -29 121 -47 l65 -8 -40 -18 c-61 -27
-222 -66 -274 -66 -96 0 -152 33 -164 96 -6 30 -5 31 96 79 100 47 117 59 117
81 0 15 -95 33 -212 41 -82 5 -101 3 -123 -11 -21 -14 -26 -24 -23 -49 2 -27
10 -35 46 -51 23 -11 42 -22 42 -25 -1 -3 -24 -17 -53 -31 -32 -15 -82 -56
-132 -106 -86 -87 -109 -101 -132 -82 -50 41 -33 120 38 189 27 26 49 55 49
66 -1 17 -1 17 -15 0 -18 -24 -49 -18 -53 10 -2 12 8 53 21 92 14 39 23 71 21
71 -8 0 -54 -101 -65 -144 -8 -35 -9 -54 -1 -71 9 -20 7 -32 -14 -70 -43 -76
-32 -167 21 -181 46 -12 79 6 150 83 63 68 159 133 195 133 5 0 10 -19 10 -43
0 -82 51 -117 173 -117 81 0 154 17 327 79 l115 41 5 -63 c4 -53 7 -59 16 -42
7 11 15 39 19 63 6 40 9 42 41 42 23 0 37 6 44 20 10 18 8 20 -27 20 -21 0
-43 4 -49 8 -7 4 -17 57 -23 117 -6 61 -14 125 -17 144 -5 30 -3 33 15 28 26
-6 26 6 2 59 -24 52 -35 59 -48 31 -7 -15 -5 -75 8 -196 10 -96 16 -177 14
-181 -4 -7 -89 -3 -134 6 -20 4 -23 9 -19 42 4 33 -3 140 -16 230 -4 29 -3 32
9 22 23 -19 19 22 -6 64 -24 41 -25 42 -37 19z m-302 -272 l35 -8 -67 -32
c-37 -17 -72 -31 -77 -31 -18 0 -110 74 -104 83 6 10 154 2 213 -12z"/>
<path d="M432 684 c-12 -8 -27 -25 -33 -37 -12 -21 -11 -21 8 -4 21 18 83 24
83 7 0 -5 -3 -10 -7 -10 -5 0 -19 -9 -33 -20 l-25 -20 30 11 c35 12 75 47 75
65 0 27 -64 32 -98 8z"/>
<path d="M281 671 c-6 -11 -11 -29 -11 -40 0 -30 -16 -34 -28 -6 -15 33 -60
61 -74 47 -18 -18 7 -65 30 -57 14 4 23 -4 38 -32 10 -21 20 -40 22 -43 7 -11
22 28 22 60 0 40 14 68 24 51 12 -19 28 -12 24 11 -4 29 -34 35 -47 9z"/>
<path d="M636 663 c-4 -9 -5 -16 -4 -17 26 -10 46 -29 60 -57 l16 -34 11 28
c6 16 11 34 11 41 0 21 12 27 28 14 11 -10 13 -8 10 12 -5 39 -31 30 -44 -15
l-11 -40 -17 32 c-21 41 -51 59 -60 36z"/>
<path d="M632 335 c-14 -31 -16 -82 -3 -89 15 -10 39 4 44 25 5 17 3 18 -9 8
-25 -21 -41 4 -26 43 14 39 10 48 -6 13z"/>
<path d="M344 185 c-7 -18 13 -45 33 -45 23 0 28 31 8 46 -24 18 -34 18 -41
-1z"/>
<path d="M905 134 c-86 -38 -91 -41 -83 -50 8 -8 154 54 169 72 16 20 5 17
-86 -22z"/>
<path d="M221 89 c-35 -16 -61 -32 -58 -35 9 -9 124 35 138 52 18 22 -8 17
-80 -17z"/>
</g>
</svg>
