<?xml version="1.0" standalone="no"?>
<!DOCTYPE svg PUBLIC "-//W3C//DTD SVG 20010904//EN"
 "http://www.w3.org/TR/2001/REC-SVG-20010904/DTD/svg10.dtd">
<svg version="1.0" xmlns="http://www.w3.org/2000/svg"
 width="130.000000px" height="76.000000px" viewBox="0 0 130.000000 76.000000"
 preserveAspectRatio="xMidYMid meet">

<g transform="translate(0.000000,76.000000) scale(0.100000,-0.100000)"
fill="#000000" stroke="none">
<path d="M968 649 c-33 -17 -51 -39 -32 -39 8 0 94 51 94 56 0 9 -27 2 -62
-17z"/>
<path d="M1062 650 c-6 -18 -2 -69 15 -175 13 -82 22 -166 21 -185 l-3 -35
-32 65 c-18 36 -62 101 -97 145 -68 83 -76 98 -51 89 34 -13 12 19 -32 47 -46
29 -48 29 -51 9 -2 -14 31 -64 106 -158 135 -170 144 -184 140 -219 -2 -22
-16 -37 -65 -68 -105 -69 -103 -66 -63 -59 137 25 184 113 162 299 -16 127
-16 146 3 139 22 -9 18 14 -15 76 -27 53 -29 54 -38 30z"/>
<path d="M226 652 c-3 -5 -2 -45 4 -88 5 -44 12 -129 15 -190 l7 -111 -48 -47
c-84 -81 -140 -97 -158 -45 -12 35 19 100 73 154 36 37 45 57 42 94 -1 11 -4
10 -15 -4 -8 -11 -19 -16 -30 -12 -23 9 -21 96 4 167 24 70 19 76 -9 11 -37
-86 -46 -145 -32 -200 12 -47 11 -51 -15 -93 -38 -59 -44 -134 -14 -166 37
-39 80 -30 145 29 30 29 57 50 59 48 2 -2 11 -19 20 -36 26 -51 65 -66 160
-61 62 4 104 14 179 43 l98 38 27 -26 c40 -38 77 -49 121 -37 58 15 75 40 67
97 -4 27 -8 60 -10 75 -3 28 -31 68 -48 68 -17 0 -7 -62 18 -112 22 -43 24
-53 12 -65 -24 -23 -84 -28 -113 -9 -33 22 -32 30 10 55 48 28 44 48 -11 73
-57 25 -132 21 -172 -9 -35 -26 -39 -43 -9 -43 14 0 35 -8 47 -18 l23 -19 -70
-25 c-142 -53 -234 -59 -286 -18 -43 34 -41 57 7 85 23 14 57 28 76 31 30 7
33 5 26 -12 -5 -10 -10 -36 -13 -56 -4 -30 -2 -39 12 -44 10 -4 21 -1 26 7 13
20 11 29 -6 29 -17 0 -20 41 -5 70 5 10 26 24 45 30 30 10 35 16 35 42 0 19
-10 39 -29 59 -50 50 -96 31 -94 -40 1 -35 -1 -37 -59 -64 -34 -15 -62 -26
-63 -25 -2 2 -8 84 -15 183 -11 168 -19 211 -34 187z m242 -285 c3 -14 -1 -18
-20 -15 -12 2 -24 11 -26 21 -3 14 1 18 20 15 12 -2 24 -11 26 -21z m272 -107
c12 -8 12 -10 -4 -16 -11 -4 -24 0 -34 10 -15 15 -15 16 3 16 11 0 27 -4 35
-10z"/>
<path d="M1165 650 c-4 -6 3 -81 15 -168 11 -86 24 -193 29 -237 7 -72 8 -76
15 -44 5 22 1 89 -8 168 -9 71 -16 147 -16 167 0 31 2 35 15 24 30 -25 13 28
-26 78 -11 14 -20 19 -24 12z"/>
<path d="M350 631 c0 -11 9 -35 20 -53 27 -45 25 -56 -14 -79 -32 -18 -52 -46
-42 -56 2 -2 33 10 67 28 35 18 124 58 198 90 74 32 139 65 143 74 15 26 -16
18 -150 -41 -169 -75 -172 -75 -172 -33 0 38 -19 80 -37 87 -8 2 -13 -5 -13
-17z"/>
<path d="M743 576 c-27 -54 -28 -72 -9 -79 35 -14 73 51 47 79 -5 5 -11 17
-13 28 -2 13 -9 5 -25 -28z m27 -37 c0 -5 -7 -9 -15 -9 -9 0 -12 6 -9 15 6 15
24 11 24 -6z"/>
<path d="M976 568 c-10 -14 -12 -26 -6 -33 5 -7 6 -15 2 -20 -4 -4 7 0 25 9
43 22 48 33 12 28 -17 -3 -29 0 -29 7 0 6 7 11 15 11 8 0 15 5 15 10 0 17 -18
11 -34 -12z"/>
<path d="M602 501 c-22 -71 -10 -141 23 -141 16 0 35 30 35 57 0 14 -2 15 -9
4 -5 -8 -16 -11 -26 -7 -15 5 -17 16 -12 66 3 33 4 60 3 60 -2 0 -8 -17 -14
-39z"/>
<path d="M807 440 c-7 -27 16 -45 33 -25 15 18 6 45 -14 45 -7 0 -16 -9 -19
-20z"/>
<path d="M1132 178 c-15 -15 -16 -32 -2 -23 13 8 13 -1 -1 -27 -8 -15 -8 -19
1 -13 16 10 32 57 22 67 -4 4 -13 3 -20 -4z"/>
<path d="M675 140 c-3 -5 -1 -10 4 -10 19 0 12 -18 -10 -25 -11 -4 -18 -9 -15
-12 9 -9 56 26 56 42 0 17 -26 20 -35 5z"/>
</g>
</svg>
