<?xml version="1.0" standalone="no"?>
<!DOCTYPE svg PUBLIC "-//W3C//DTD SVG 20010904//EN"
 "http://www.w3.org/TR/2001/REC-SVG-20010904/DTD/svg10.dtd">
<svg version="1.0" xmlns="http://www.w3.org/2000/svg"
 width="160.000000px" height="76.000000px" viewBox="0 0 160.000000 76.000000"
 preserveAspectRatio="xMidYMid meet">

<g transform="translate(0.000000,76.000000) scale(0.100000,-0.100000)"
fill="#000000" stroke="none">
<path d="M1376 671 c-3 -4 1 -80 9 -167 20 -218 20 -241 -5 -249 -26 -8 -69 2
-95 21 -20 16 -20 16 -1 27 68 42 66 67 -9 86 -53 13 -123 1 -142 -25 -18 -25
-17 -29 20 -39 17 -6 31 -14 31 -20 -3 -16 -125 -54 -175 -55 -53 0 -96 27
-101 63 -2 15 -22 32 -66 56 -37 21 -61 40 -58 47 4 11 -33 44 -49 44 -3 0 -5
-13 -5 -28 0 -35 37 -72 102 -102 72 -34 74 -41 20 -82 -73 -56 -134 -88 -169
-88 -30 0 -33 3 -33 31 0 17 5 40 11 52 9 21 9 21 -5 4 -20 -26 -30 -91 -16
-116 6 -12 21 -21 33 -21 35 0 117 43 177 91 54 44 55 44 74 26 27 -28 138
-19 229 17 l69 28 21 -20 c51 -48 116 -51 156 -8 26 28 28 47 17 221 -5 92 -4
126 3 115 21 -30 12 31 -10 66 -22 36 -25 39 -33 25z m-116 -330 c0 -16 -28
-20 -40 -5 -10 12 -8 14 14 14 14 0 26 -4 26 -9z"/>
<path d="M1475 668 c-3 -7 4 -114 14 -238 12 -157 20 -216 26 -196 8 31 -1
294 -12 335 -5 20 -3 23 10 18 21 -8 21 -2 0 50 -18 44 -30 53 -38 31z"/>
<path d="M210 644 c-6 -14 -10 -30 -10 -35 0 -5 -13 5 -28 22 -17 19 -34 29
-40 25 -20 -12 -13 -35 13 -42 15 -4 28 -16 31 -30 9 -36 22 -29 34 17 9 34
14 39 26 28 20 -16 28 -5 14 20 -14 28 -28 26 -40 -5z"/>
<path d="M993 658 c-6 -7 -14 -25 -18 -40 l-7 -27 -34 35 c-34 37 -54 38 -54
4 0 -12 9 -22 24 -26 14 -3 29 -18 36 -35 17 -40 28 -36 41 16 12 47 23 56 33
29 3 -8 10 -12 16 -9 14 9 12 20 -8 45 -15 18 -20 20 -29 8z"/>
<path d="M367 653 c-11 -20 -15 -60 -8 -72 12 -18 41 -6 40 16 0 11 -3 13 -6
6 -11 -28 -25 -12 -20 22 5 33 3 44 -6 28z"/>
<path d="M480 644 c0 -8 8 -27 17 -41 10 -14 20 -47 24 -72 l6 -46 2 57 c0 31
-4 68 -10 82 -14 29 -39 42 -39 20z"/>
<path d="M1110 650 c0 -5 9 -24 20 -42 11 -19 20 -52 21 -78 1 -43 1 -44 10
-15 11 35 3 91 -17 123 -15 23 -34 30 -34 12z"/>
<path d="M730 606 c-14 -39 -13 -96 3 -96 18 0 37 21 37 39 0 14 -1 14 -10 1
-17 -27 -31 1 -20 40 12 41 5 53 -10 16z"/>
<path d="M93 514 c-18 -41 -24 -65 -20 -91 4 -22 1 -46 -8 -64 -17 -32 -20
-92 -5 -119 12 -23 61 -40 115 -40 55 0 185 35 260 69 47 22 70 27 107 24 37
-4 50 -1 67 16 28 28 28 94 0 141 -20 32 -22 33 -35 15 -19 -26 -18 -32 9 -46
39 -21 45 -39 20 -64 -12 -12 -31 -16 -72 -14 -46 2 -68 -4 -123 -30 -80 -38
-210 -67 -262 -57 -45 9 -76 37 -76 70 0 13 16 43 35 66 40 48 43 55 16 41
-10 -6 -21 -7 -25 -4 -12 12 -6 58 14 101 10 23 17 42 14 42 -3 0 -17 -25 -31
-56z"/>
<path d="M1230 544 c-21 -53 -6 -88 24 -58 20 20 20 25 0 17 -14 -5 -16 0 -12
30 5 43 1 47 -12 11z"/>
<path d="M282 424 c-7 -13 -13 -14 -30 -5 -27 15 -30 14 -42 -9 -8 -16 -6 -21
11 -31 17 -9 24 -8 37 4 11 12 19 13 33 4 13 -8 21 -8 33 2 18 15 14 26 -14
41 -14 8 -21 6 -28 -6z"/>
<path d="M1015 430 c-14 -23 -22 -68 -15 -80 9 -14 40 -7 40 9 0 6 -7 8 -15 5
-18 -7 -21 27 -5 57 11 20 6 27 -5 9z"/>
<path d="M575 240 c-3 -5 -17 -7 -31 -4 -17 4 -26 1 -30 -11 -9 -22 10 -40 33
-29 10 4 27 8 38 8 13 1 20 8 20 20 0 22 -20 33 -30 16z"/>
<path d="M1436 231 c-4 -5 0 -11 6 -14 10 -3 8 -11 -7 -28 -17 -21 -15 -20 9
2 16 15 25 32 22 38 -9 13 -23 14 -30 2z"/>
<path d="M1195 220 c-3 -5 1 -10 9 -10 22 0 20 -9 -6 -38 l-23 -25 22 12 c26
13 47 47 38 61 -8 13 -32 13 -40 0z"/>
<path d="M843 148 c-35 -27 -63 -54 -63 -60 0 -11 10 -6 78 45 28 22 52 46 52
53 0 18 5 21 -67 -38z"/>
</g>
</svg>
