<?xml version="1.0" standalone="no"?>
<!DOCTYPE svg PUBLIC "-//W3C//DTD SVG 20010904//EN"
 "http://www.w3.org/TR/2001/REC-SVG-20010904/DTD/svg10.dtd">
<svg version="1.0" xmlns="http://www.w3.org/2000/svg"
 width="141.000000px" height="76.000000px" viewBox="0 0 141.000000 76.000000"
 preserveAspectRatio="xMidYMid meet">

<g transform="translate(0.000000,76.000000) scale(0.100000,-0.100000)"
fill="#000000" stroke="none">
<path d="M1290 653 c-51 -6 -57 -19 -7 -15 23 2 46 8 52 13 6 6 6 8 0 7 -6 0
-26 -3 -45 -5z"/>
<path d="M1049 591 c-13 -36 -20 -38 -37 -11 -14 23 -42 27 -42 5 0 -8 6 -15
14 -15 8 0 23 -12 34 -27 l20 -28 8 30 c10 43 14 47 30 34 11 -9 14 -8 14 4 0
8 -7 20 -15 27 -13 11 -17 8 -26 -19z"/>
<path d="M1165 600 c-3 -11 -2 -52 4 -92 5 -40 13 -119 17 -174 l7 -102 -47
-27 c-80 -47 -171 -47 -202 1 -14 21 -15 31 -5 63 9 33 18 41 58 56 52 19 73
33 73 46 0 5 -23 0 -50 -11 -28 -11 -64 -20 -80 -20 -32 0 -70 30 -70 56 0 21
65 46 104 39 29 -6 30 -5 12 10 -69 54 -170 -32 -121 -102 13 -19 13 -22 -1
-27 -31 -12 -79 -6 -111 14 -18 11 -33 15 -33 10 0 -6 -9 -10 -20 -10 -45 0
-98 -33 -162 -101 -56 -60 -70 -70 -95 -67 -39 4 -43 45 -8 103 14 25 22 45
17 45 -13 0 -52 -88 -52 -120 0 -20 8 -35 25 -46 36 -23 75 -5 133 63 53 62
87 83 132 83 25 0 30 -4 30 -23 0 -13 9 -32 21 -43 17 -16 22 -16 29 -4 6 8
10 23 10 33 0 9 2 17 4 17 8 0 112 21 127 25 13 4 15 -4 11 -54 -4 -54 -2 -62
23 -87 24 -24 32 -26 84 -21 89 8 170 58 183 114 3 11 0 79 -8 150 -16 155
-16 156 -4 148 15 -9 12 12 -5 45 -18 35 -22 36 -30 10z"/>
<path d="M1286 611 c-7 -10 7 -251 21 -391 5 -49 6 -52 15 -30 9 24 7 106 -8
270 -5 54 -4 71 4 66 17 -10 15 6 -7 54 -10 24 -22 37 -25 31z"/>
<path d="M345 582 c-85 -38 -162 -80 -170 -92 -10 -17 1 -12 118 46 120 60
123 62 116 68 -2 2 -31 -8 -64 -22z"/>
<path d="M476 602 c-2 -4 2 -66 10 -137 7 -72 14 -150 14 -175 1 -38 2 -42 12
-26 10 18 6 146 -9 241 -6 36 -5 39 10 26 21 -17 21 -12 1 39 -16 38 -27 49
-38 32z"/>
<path d="M680 597 c-14 -7 -26 -21 -28 -32 -3 -16 -1 -18 9 -7 7 6 24 12 38
12 l26 0 -25 -20 c-18 -14 -20 -20 -9 -20 8 0 25 9 37 20 22 21 30 50 13 50
-5 0 -15 2 -23 5 -7 3 -24 -1 -38 -8z"/>
<path d="M167 594 c-4 -4 1 -13 11 -20 9 -7 14 -16 10 -20 -4 -4 -14 -1 -23 6
-13 10 -15 9 -15 -9 0 -17 5 -22 23 -19 17 2 22 10 22 32 0 28 -14 43 -28 30z"/>
<path d="M851 542 c-1 -26 3 -33 16 -30 9 2 18 9 21 17 3 8 0 11 -7 7 -6 -4
-15 2 -20 16 -9 21 -10 20 -10 -10z"/>
<path d="M374 515 c-3 -14 -3 -32 0 -41 5 -13 9 -14 21 -4 20 17 19 31 -1 23
-14 -5 -16 -2 -10 20 3 15 4 27 1 27 -2 0 -7 -11 -11 -25z"/>
<path d="M85 476 c-10 -26 -15 -61 -13 -83 3 -21 1 -55 -4 -77 -25 -110 61
-156 196 -105 74 27 111 70 101 118 -4 20 -7 46 -7 58 0 12 -9 29 -19 39 -30
27 -34 -5 -9 -65 12 -28 20 -57 17 -65 -3 -7 -32 -27 -64 -42 -71 -36 -149
-40 -182 -10 -30 27 -28 85 4 120 14 15 25 34 25 43 0 15 -2 15 -13 -1 -12
-16 -14 -16 -26 -2 -11 13 -11 24 2 63 20 61 14 68 -8 9z"/>
<path d="M707 463 c-10 -10 -8 -25 2 -19 5 4 11 0 14 -6 2 -7 7 -10 11 -7 8 7
-3 39 -13 39 -4 0 -11 -3 -14 -7z"/>
<path d="M630 450 c0 -5 9 -14 19 -20 11 -5 23 -20 27 -32 7 -22 7 -22 15 -3
11 28 11 37 0 30 -6 -3 -15 4 -21 15 -11 20 -40 28 -40 10z"/>
<path d="M206 333 c-8 -21 14 -36 31 -21 10 8 10 14 2 24 -15 19 -25 18 -33
-3z"/>
<path d="M1072 295 c-22 -47 -7 -80 23 -55 20 17 19 31 -2 23 -14 -5 -15 -1
-10 25 8 39 4 41 -11 7z"/>
<path d="M627 204 c-3 -3 -3 -12 0 -20 3 -8 -5 -27 -18 -41 -24 -25 -24 -26
-2 -14 25 13 43 41 43 65 0 16 -12 21 -23 10z"/>
<path d="M306 191 c-4 -5 0 -11 6 -14 9 -3 6 -14 -11 -38 l-24 -34 31 29 c33
31 42 66 18 66 -8 0 -17 -4 -20 -9z"/>
<path d="M835 183 c-65 -33 -116 -65 -111 -70 6 -6 134 56 142 69 10 16 0 17
-31 1z"/>
<path d="M1200 144 c-54 -38 -59 -48 -14 -26 38 20 76 53 58 51 -5 0 -25 -12
-44 -25z"/>
</g>
</svg>
