<?xml version="1.0" standalone="no"?>
<!DOCTYPE svg PUBLIC "-//W3C//DTD SVG 20010904//EN"
 "http://www.w3.org/TR/2001/REC-SVG-20010904/DTD/svg10.dtd">
<svg version="1.0" xmlns="http://www.w3.org/2000/svg"
 width="132.000000px" height="76.000000px" viewBox="0 0 132.000000 76.000000"
 preserveAspectRatio="xMidYMid meet">

<g transform="translate(0.000000,76.000000) scale(0.100000,-0.100000)"
fill="#000000" stroke="none">
<path d="M148 680 c-10 -6 -23 -20 -29 -31 -9 -19 -9 -19 10 -10 24 13 58 14
65 2 3 -5 -9 -18 -27 -30 -36 -23 -21 -29 21 -7 26 13 60 61 51 70 -11 11 -76
15 -91 6z"/>
<path d="M477 658 c-4 -12 -4 -24 -2 -27 3 -2 5 1 5 8 0 8 7 10 21 6 17 -6 20
-3 17 11 -5 28 -34 29 -41 2z"/>
<path d="M1080 651 c0 -17 7 -82 15 -146 9 -64 13 -120 10 -126 -4 -5 -20 -9
-37 -9 -21 0 -31 6 -35 20 -7 26 -19 26 -26 0 -10 -40 -74 -36 -70 5 1 14 -4
12 -25 -8 -44 -41 -86 -40 -101 3 -5 17 -16 30 -24 30 -22 0 -56 -43 -63 -80
-8 -44 -28 -60 -73 -60 -40 0 -72 24 -64 48 8 24 -16 1 -31 -30 -7 -15 -20
-23 -36 -23 -20 0 -25 5 -25 27 l1 26 -29 -24 c-43 -36 -91 -32 -115 11 -19
35 -26 -9 -9 -58 18 -55 11 -69 -53 -96 -139 -60 -240 -37 -240 54 0 36 10 53
40 68 13 7 27 23 32 36 7 20 6 22 -7 11 -21 -17 -45 -5 -45 22 0 13 11 47 25
77 15 31 19 49 11 42 -28 -24 -58 -113 -53 -158 2 -24 1 -45 -3 -48 -19 -11
-19 -80 0 -122 31 -71 103 -80 219 -27 71 32 89 49 97 90 5 28 11 34 31 34 13
0 33 5 44 11 16 8 25 7 38 -5 23 -21 44 -20 66 4 16 17 20 18 38 5 24 -17 74
-19 111 -6 21 9 28 6 51 -25 14 -18 35 -34 45 -34 26 0 50 37 50 77 0 27 -5
34 -25 39 -14 3 -37 4 -50 1 -34 -6 -39 6 -20 43 20 38 40 38 60 0 12 -23 22
-30 45 -30 16 0 36 8 45 17 16 16 18 16 27 0 12 -22 46 -22 70 0 14 13 21 14
30 5 17 -17 73 -15 88 4 16 18 18 93 6 188 -6 51 -6 67 3 62 16 -10 14 8 -6
49 -20 43 -33 45 -33 6z m-270 -396 c10 -12 9 -15 -8 -15 -11 0 -25 7 -32 15
-10 12 -9 15 8 15 11 0 25 -7 32 -15z"/>
<path d="M1187 667 c-5 -14 3 -109 28 -337 8 -74 12 -146 8 -159 -4 -17 -3
-22 5 -17 22 13 24 79 8 221 -19 167 -20 219 -6 210 15 -9 12 20 -7 60 -18 37
-28 43 -36 22z"/>
<path d="M640 564 c-129 -58 -249 -112 -267 -120 -18 -8 -37 -23 -43 -34 -11
-21 -1 -27 16 -11 9 9 399 191 409 191 3 0 -3 -15 -12 -34 -17 -37 -12 -66 11
-66 9 0 20 9 25 19 9 16 8 18 -9 14 -24 -6 -27 15 -6 55 10 19 30 33 65 45 51
19 87 47 60 47 -8 0 -120 -48 -249 -106z"/>
<path d="M380 640 c0 -11 6 -20 14 -20 8 0 24 -14 36 -31 25 -34 25 -34 34 6
4 19 3 25 -2 17 -7 -11 -14 -7 -31 17 -25 35 -51 41 -51 11z"/>
<path d="M916 584 c-9 -25 19 -53 36 -36 9 9 10 17 2 29 -15 24 -30 27 -38 7z"/>
<path d="M272 557 c-22 -23 -31 -77 -13 -77 5 0 17 8 27 18 16 16 16 17 1 20
-22 4 -21 11 5 39 12 13 17 23 11 23 -5 0 -19 -10 -31 -23z"/>
<path d="M899 524 c-18 -22 13 -53 35 -35 11 9 20 10 35 2 26 -14 28 -14 35 5
9 23 -24 46 -42 31 -10 -8 -19 -8 -32 1 -14 9 -21 8 -31 -4z"/>
<path d="M631 450 c-10 -31 -6 -60 10 -60 12 0 49 42 49 55 0 15 -21 35 -36
35 -7 0 -17 -14 -23 -30z m37 -13 c2 -10 -3 -17 -12 -17 -10 0 -16 9 -16 21 0
24 23 21 28 -4z"/>
<path d="M197 403 c-12 -12 -7 -23 10 -23 14 0 13 -3 -5 -16 -26 -18 -28 -50
-7 -114 l15 -45 -5 45 c-2 25 -8 55 -11 68 -5 19 -2 23 25 28 35 7 39 23 13
47 -20 19 -26 20 -35 10z"/>
<path d="M990 240 c0 -11 5 -20 10 -20 6 0 15 -12 21 -27 8 -22 12 -24 19 -13
12 19 13 43 1 36 -4 -3 -13 6 -19 19 -14 30 -32 33 -32 5z"/>
<path d="M1057 254 c-12 -13 -8 -20 14 -21 11 -1 19 3 17 9 -5 15 -22 21 -31
12z"/>
<path d="M882 198 c-16 -16 -15 -28 2 -28 30 0 25 -20 -11 -44 -21 -15 -31
-26 -23 -26 36 0 89 52 90 88 0 16 -6 22 -23 22 -13 0 -28 -5 -35 -12z"/>
<path d="M520 154 c-102 -44 -135 -62 -126 -71 5 -5 217 84 230 97 23 23 -6
15 -104 -26z"/>
<path d="M1140 185 c-11 -13 -10 -14 3 -10 26 11 30 -15 6 -42 -23 -25 -23
-25 -2 -12 27 16 48 53 39 68 -10 16 -31 14 -46 -4z"/>
</g>
</svg>
