<?xml version="1.0" standalone="no"?>
<!DOCTYPE svg PUBLIC "-//W3C//DTD SVG 20010904//EN"
 "http://www.w3.org/TR/2001/REC-SVG-20010904/DTD/svg10.dtd">
<svg version="1.0" xmlns="http://www.w3.org/2000/svg"
 width="146.000000px" height="76.000000px" viewBox="0 0 146.000000 76.000000"
 preserveAspectRatio="xMidYMid meet">

<g transform="translate(0.000000,76.000000) scale(0.100000,-0.100000)"
fill="#000000" stroke="none">
<path d="M466 648 c-9 -12 -16 -37 -16 -55 0 -28 4 -33 23 -33 47 0 61 44 28
86 l-19 25 -16 -23z m28 -47 c3 -5 -1 -11 -9 -15 -9 -3 -15 0 -15 9 0 16 16
20 24 6z"/>
<path d="M681 634 c-75 -34 -146 -82 -138 -91 8 -7 227 106 227 117 0 14 -7
12 -89 -26z"/>
<path d="M935 636 c-150 -50 -238 -85 -247 -99 -4 -7 -8 -23 -7 -37 0 -20 16
-36 80 -80 85 -59 159 -130 159 -154 0 -18 -58 -36 -118 -36 -39 0 -42 2 -32
19 15 28 12 106 -3 120 -18 14 -35 -5 -75 -85 -31 -62 -47 -74 -102 -74 -14 0
-31 4 -39 9 -11 7 -11 13 3 32 22 32 20 85 -4 109 -26 26 -36 25 -65 -5 -20
-19 -25 -34 -25 -74 l0 -50 -57 -21 c-133 -51 -234 -50 -285 0 -42 42 -34 100
14 100 19 0 38 28 38 56 0 16 -1 16 -19 0 -18 -16 -20 -16 -36 0 -14 14 -16
27 -10 67 3 28 13 66 21 85 11 28 11 32 0 23 -7 -6 -22 -37 -32 -69 -16 -52
-19 -80 -15 -152 1 -14 -1 -44 -5 -68 -17 -117 125 -158 318 -91 88 30 90 30
133 13 25 -9 60 -14 81 -12 29 3 41 -1 63 -22 14 -15 36 -32 48 -38 53 -29
109 -1 99 48 -5 26 -2 28 47 39 71 16 80 23 86 72 l6 42 61 -51 c34 -28 73
-56 88 -62 42 -16 118 -12 145 7 23 16 24 19 18 122 -4 58 -9 134 -13 169 -6
55 -5 62 10 56 9 -4 16 -1 16 7 0 17 -60 109 -71 109 -12 0 -12 -12 11 -194
30 -243 30 -246 -41 -246 -45 0 -92 23 -166 83 -38 29 -119 87 -181 127 -62
40 -111 77 -110 82 7 21 290 118 344 118 35 0 30 -17 -27 -82 -65 -75 -55 -90
12 -17 57 61 83 104 75 125 -9 24 -84 16 -191 -20z m-398 -332 c3 -8 -2 -23
-11 -32 -16 -16 -18 -16 -31 1 -7 11 -11 25 -8 33 7 19 42 18 50 -2z m213 -19
c0 -14 -8 -29 -21 -35 -28 -16 -31 -10 -12 28 18 38 33 41 33 7z m4 -121 c19
-7 22 -34 4 -34 -22 0 -41 17 -34 29 8 13 9 13 30 5z"/>
<path d="M242 630 c-30 -28 -28 -42 5 -29 14 5 33 7 42 4 12 -5 8 -10 -14 -25
-28 -19 -29 -20 -7 -20 31 0 79 26 92 50 8 15 6 21 -9 30 -32 17 -85 12 -109
-10z"/>
<path d="M1315 638 c-3 -8 3 -82 15 -164 11 -82 24 -187 28 -234 8 -80 9 -83
17 -45 6 26 3 93 -8 195 -22 195 -22 187 3 165 12 -11 20 -13 20 -6 0 19 -26
64 -49 85 -17 16 -21 16 -26 4z"/>
<path d="M916 538 c-23 -32 -21 -78 3 -78 10 0 22 7 25 16 5 12 2 15 -9 10
-23 -9 -30 20 -11 49 20 31 13 33 -8 3z"/>
<path d="M223 494 c-6 -17 4 -31 39 -48 12 -6 24 -22 26 -34 5 -31 20 -28 28
6 13 60 15 63 36 56 16 -5 19 -2 16 13 -6 32 -40 21 -53 -17 l-12 -35 -16 31
c-14 27 -35 44 -53 44 -3 0 -7 -7 -11 -16z"/>
<path d="M492 478 c-16 -16 -15 -33 4 -48 22 -19 54 12 38 37 -14 22 -27 26
-42 11z"/>
<path d="M1097 463 c-22 -44 -28 -82 -17 -103 13 -25 32 -25 53 -2 20 22 24
53 5 34 -33 -33 -55 2 -33 55 18 44 12 56 -8 16z"/>
<path d="M614 435 c1 -43 4 -50 21 -50 14 0 21 8 23 25 3 24 3 24 -11 5 -17
-22 -23 -15 -30 40 -3 17 -4 8 -3 -20z"/>
<path d="M255 320 c-22 -43 -20 -90 5 -90 10 0 24 8 29 19 9 16 7 17 -14 13
-29 -5 -31 5 -11 53 18 43 12 46 -9 5z"/>
<path d="M974 198 c-4 -7 -3 -8 5 -4 20 13 25 -24 5 -39 -11 -8 -14 -15 -8
-15 17 0 57 47 49 59 -8 15 -42 14 -51 -1z"/>
</g>
</svg>
