<?xml version="1.0" standalone="no"?>
<!DOCTYPE svg PUBLIC "-//W3C//DTD SVG 20010904//EN"
 "http://www.w3.org/TR/2001/REC-SVG-20010904/DTD/svg10.dtd">
<svg version="1.0" xmlns="http://www.w3.org/2000/svg"
 width="131.000000px" height="76.000000px" viewBox="0 0 131.000000 76.000000"
 preserveAspectRatio="xMidYMid meet">

<g transform="translate(0.000000,76.000000) scale(0.100000,-0.100000)"
fill="#000000" stroke="none">
<path d="M1093 648 c-8 -9 -5 -73 9 -222 22 -230 23 -226 -40 -226 -26 0 -35
5 -42 25 -5 14 -12 25 -15 25 -4 0 -21 -16 -39 -35 -36 -37 -66 -43 -191 -37
-88 5 -89 9 -95 247 -3 133 -9 208 -16 215 -7 7 -14 8 -17 3 -3 -4 -1 -109 4
-232 10 -242 15 -265 65 -277 14 -4 66 -4 116 -2 87 5 91 7 127 42 l37 36 14
-25 c29 -54 106 -39 126 25 8 26 8 71 -2 175 -16 173 -16 178 -4 170 16 -10
11 37 -9 73 -13 26 -20 31 -28 20z"/>
<path d="M1175 641 c-3 -11 -3 -30 0 -43 12 -50 44 -436 38 -458 -4 -16 -3
-21 5 -16 21 13 23 71 8 239 -19 198 -19 200 -6 192 14 -9 13 4 -6 58 -17 50
-29 59 -39 28z"/>
<path d="M207 632 c-19 -21 -23 -42 -5 -24 7 7 26 12 43 11 27 0 28 -1 12 -12
-10 -7 -26 -18 -35 -25 -15 -12 -13 -13 13 -7 38 8 70 38 62 59 -9 23 -69 21
-90 -2z"/>
<path d="M734 605 c-8 -30 2 -58 18 -53 19 7 21 28 3 28 -13 0 -16 6 -11 25 4
14 4 25 1 25 -2 0 -7 -11 -11 -25z"/>
<path d="M887 570 c-123 -56 -162 -78 -154 -87 4 -3 305 133 316 143 2 2 -4 4
-15 3 -10 0 -77 -27 -147 -59z"/>
<path d="M427 613 c-15 -14 -6 -34 19 -43 14 -6 31 -23 37 -40 15 -40 25 -38
33 8 9 49 13 55 30 41 20 -17 28 -5 12 20 -17 27 -31 22 -43 -17 l-11 -31 -27
34 c-28 35 -38 41 -50 28z"/>
<path d="M95 459 c-32 -63 -32 -141 -1 -147 11 -3 26 4 33 14 19 26 16 32 -12
26 -23 -4 -25 -2 -25 34 0 22 9 58 20 82 27 59 16 53 -15 -9z"/>
<path d="M351 490 c0 -14 3 -31 8 -39 11 -17 41 -7 41 13 0 10 -6 13 -15 10
-9 -4 -18 2 -24 17 l-10 24 0 -25z"/>
<path d="M961 488 c-1 -31 -27 -39 -34 -10 -3 9 -5 2 -6 -16 -1 -33 -1 -33 37
-26 20 4 40 12 44 18 12 17 9 56 -3 56 -6 0 -9 -9 -6 -20 7 -27 -11 -25 -23 3
-8 21 -9 21 -9 -5z"/>
<path d="M227 483 c-13 -13 -7 -32 8 -27 8 4 15 2 15 -4 0 -5 -9 -12 -20 -15
-29 -8 -33 -46 -11 -122 15 -56 20 -63 20 -37 1 18 -4 54 -10 79 -13 50 -5 63
39 63 27 0 30 30 4 53 -20 18 -34 21 -45 10z"/>
<path d="M795 397 c-32 -85 -3 -166 44 -123 12 11 21 28 21 39 0 19 -1 19 -19
3 -11 -10 -25 -15 -30 -11 -14 8 -14 66 -1 101 6 15 9 29 6 31 -2 2 -11 -16
-21 -40z"/>
<path d="M579 395 c-1 -5 -2 -21 -3 -35 -1 -14 -8 -26 -17 -28 -21 -4 -52 26
-45 45 3 8 1 11 -4 8 -6 -3 -10 -12 -10 -20 0 -19 -39 -45 -67 -45 -13 0 -32
9 -44 21 -30 30 -35 16 -15 -41 10 -28 16 -56 13 -64 -3 -8 -40 -31 -83 -52
-60 -30 -88 -38 -131 -38 -48 0 -59 3 -79 27 -15 18 -24 41 -25 65 l-1 37 -10
-29 c-13 -35 3 -94 32 -121 45 -41 157 -26 252 34 37 24 47 36 57 75 8 34 16
46 30 46 10 0 29 8 42 19 20 16 26 17 44 5 11 -7 30 -11 43 -7 12 3 22 6 22 7
0 1 4 15 9 31 4 17 5 39 0 50 -4 11 -9 16 -10 10z"/>
<path d="M951 367 c-9 -11 -8 -17 4 -27 19 -16 47 -5 43 17 -4 23 -31 28 -47
10z"/>
<path d="M495 197 c-54 -29 -101 -58 -103 -66 -4 -12 197 88 223 110 25 24
-30 3 -120 -44z"/>
</g>
</svg>
