<?xml version="1.0" standalone="no"?>
<!DOCTYPE svg PUBLIC "-//W3C//DTD SVG 20010904//EN"
 "http://www.w3.org/TR/2001/REC-SVG-20010904/DTD/svg10.dtd">
<svg version="1.0" xmlns="http://www.w3.org/2000/svg"
 width="147.000000px" height="76.000000px" viewBox="0 0 147.000000 76.000000"
 preserveAspectRatio="xMidYMid meet">

<g transform="translate(0.000000,76.000000) scale(0.100000,-0.100000)"
fill="#000000" stroke="none">
<path d="M1347 651 c-2 -10 -1 -54 4 -97 4 -44 11 -151 15 -239 6 -140 9 -156
20 -130 11 29 5 239 -11 349 -5 33 -3 37 11 32 11 -4 15 -2 11 8 -3 8 -11 32
-18 55 -13 44 -24 52 -32 22z"/>
<path d="M405 619 c-90 -41 -119 -58 -111 -66 2 -2 46 16 98 41 52 25 97 46
102 46 4 0 4 -10 0 -22 -7 -26 -5 -24 19 15 17 26 17 27 0 26 -10 0 -58 -18
-108 -40z"/>
<path d="M661 624 c-17 -61 9 -84 49 -44 26 26 25 45 -2 64 -32 22 -36 21 -47
-20z m49 -15 c0 -12 -29 -24 -37 -16 -3 4 -3 13 0 21 6 16 37 11 37 -5z"/>
<path d="M940 595 c-332 -103 -360 -116 -360 -174 0 -34 31 -77 48 -67 17 10
15 41 -3 56 -28 23 -15 38 58 68 71 30 252 90 285 95 9 1 22 5 27 8 6 3 39 14
75 23 36 10 76 21 89 25 33 10 39 31 9 30 -12 0 -115 -29 -228 -64z"/>
<path d="M1245 651 c-3 -5 2 -73 11 -149 9 -77 14 -147 11 -156 -9 -22 -53
-20 -70 4 -14 19 -14 19 -37 -5 -13 -14 -31 -25 -41 -25 -18 0 -33 26 -23 41
11 19 -14 8 -36 -16 -41 -44 -120 -27 -120 26 0 25 -4 24 -37 -7 -15 -15 -57
-40 -93 -57 -60 -28 -79 -42 -80 -58 0 -4 26 -9 58 -13 77 -9 96 -21 57 -36
-118 -45 -242 -51 -293 -14 -39 29 -59 75 -88 210 -26 117 -37 144 -56 144
-13 0 -6 -41 28 -164 l28 -99 -40 -34 c-48 -41 -149 -93 -180 -93 -59 0 -73
77 -25 133 45 51 48 76 12 121 -17 21 -28 43 -24 50 3 6 15 24 26 39 10 16 17
30 14 33 -2 3 -15 -11 -27 -30 -12 -20 -25 -36 -30 -36 -15 0 -21 18 -8 23 8
2 -2 13 -22 25 -26 16 -36 18 -42 9 -12 -18 -10 -21 21 -61 l29 -36 -19 -40
c-10 -21 -19 -55 -19 -74 0 -30 3 -35 27 -38 19 -2 27 -8 24 -18 -24 -99 -6
-140 62 -140 55 0 119 33 177 91 l48 48 24 -47 c15 -31 35 -53 58 -65 52 -27
157 -17 300 28 63 20 138 37 165 38 50 2 75 11 75 27 0 4 -36 11 -80 15 -44 4
-103 12 -131 19 l-51 11 46 33 45 33 6 -24 c7 -24 41 -47 72 -47 9 0 27 10 41
23 22 21 24 21 36 5 16 -22 54 -23 77 -2 16 14 19 14 42 0 18 -13 31 -14 50
-7 43 17 50 43 43 164 -5 76 -4 107 3 102 17 -10 13 23 -9 65 -22 42 -25 46
-35 31z m-1038 -273 c28 -26 29 -36 6 -54 -28 -21 -63 -18 -63 6 0 21 20 70
28 70 3 0 16 -10 29 -22z"/>
<path d="M129 624 c-10 -12 -9 -18 5 -32 14 -14 20 -15 37 -4 11 7 29 10 40 7
23 -8 38 20 20 38 -9 9 -16 8 -31 -1 -14 -9 -26 -9 -39 -2 -14 7 -22 6 -32 -6z"/>
<path d="M480 569 c0 -8 4 -20 9 -28 8 -12 12 -12 25 -2 18 15 22 36 6 26 -6
-4 -17 -1 -25 5 -12 10 -15 10 -15 -1z"/>
<path d="M955 540 c-9 -17 -15 -41 -13 -53 4 -28 34 -34 47 -9 9 17 8 19 -9
15 -16 -4 -20 0 -20 19 0 13 5 29 12 36 6 6 9 14 6 18 -4 3 -14 -8 -23 -26z"/>
<path d="M1154 499 c4 -22 2 -29 -7 -27 -6 3 -13 14 -15 26 -5 33 -22 26 -22
-9 0 -20 -4 -29 -12 -26 -7 2 -13 14 -12 26 1 29 -14 26 -22 -5 -8 -33 18 -63
39 -45 8 6 21 9 30 5 21 -8 51 38 42 66 -10 33 -28 24 -21 -11z"/>
<path d="M772 420 c3 -28 32 -39 42 -15 4 10 2 14 -6 9 -6 -4 -17 2 -25 12
-14 18 -14 18 -11 -6z"/>
<path d="M340 364 c-15 -39 -13 -84 5 -84 8 0 19 9 25 19 13 24 13 41 0 21 -7
-11 -12 -12 -21 -3 -8 8 -9 20 -1 42 13 37 6 42 -8 5z"/>
<path d="M623 260 c2 -28 6 -35 22 -35 12 0 21 8 24 20 3 17 1 18 -13 6 -13
-11 -16 -11 -20 0 -12 39 -15 41 -13 9z"/>
<path d="M85 213 c-27 -14 -44 -28 -37 -30 11 -4 102 42 102 52 0 9 -15 4 -65
-22z"/>
<path d="M1259 196 c-15 -7 -38 -11 -53 -9 -18 4 -38 -4 -68 -26 -23 -17 -48
-31 -54 -31 -7 0 -16 -5 -19 -11 -9 -14 65 18 87 37 10 10 40 18 74 20 60 3
68 6 63 23 -3 7 -13 6 -30 -3z"/>
<path d="M447 159 c9 -9 10 -16 1 -26 -8 -11 -7 -12 6 -7 20 8 17 35 -4 42
-12 4 -13 2 -3 -9z"/>
<path d="M930 145 c-25 -30 10 -61 38 -33 17 17 15 26 -7 37 -14 8 -22 7 -31
-4z"/>
</g>
</svg>
