<?xml version="1.0" standalone="no"?>
<!DOCTYPE svg PUBLIC "-//W3C//DTD SVG 20010904//EN"
 "http://www.w3.org/TR/2001/REC-SVG-20010904/DTD/svg10.dtd">
<svg version="1.0" xmlns="http://www.w3.org/2000/svg"
 width="121.000000px" height="76.000000px" viewBox="0 0 121.000000 76.000000"
 preserveAspectRatio="xMidYMid meet">

<g transform="translate(0.000000,76.000000) scale(0.100000,-0.100000)"
fill="#000000" stroke="none">
<path d="M1065 701 c-8 -13 48 -591 57 -591 17 0 19 81 4 232 -21 209 -21 239
-1 232 24 -10 18 32 -11 82 -29 49 -40 59 -49 45z"/>
<path d="M937 678 c-4 -12 3 -89 15 -172 20 -144 20 -150 2 -163 -10 -7 -32
-13 -50 -13 -26 0 -34 6 -44 29 -15 37 -34 45 -68 27 -45 -23 -62 -50 -74
-116 -11 -57 -15 -64 -45 -76 -48 -20 -119 -18 -142 5 -21 21 -26 47 -46 261
-16 173 -23 218 -36 226 -20 12 -21 -36 -5 -190 24 -238 24 -236 -29 -285 -43
-40 -110 -79 -119 -70 -3 2 -8 39 -12 82 l-7 77 29 0 c41 0 57 13 49 39 -10
33 -44 47 -64 27 -12 -13 -13 -19 -4 -24 9 -6 7 -13 -8 -26 -19 -16 -21 -26
-17 -98 4 -60 1 -83 -9 -94 -21 -21 -102 -18 -141 6 -28 17 -32 25 -32 64 0
53 8 76 25 76 19 0 55 49 55 74 -1 19 -2 19 -11 4 -11 -20 -44 -24 -55 -7 -12
20 -5 83 16 143 26 77 17 85 -15 14 -37 -81 -50 -161 -32 -198 13 -25 13 -35
1 -67 -16 -47 -17 -71 -3 -112 14 -41 54 -61 123 -61 84 0 157 32 231 102 l64
59 15 -30 c9 -16 26 -37 38 -45 29 -21 101 -20 160 1 l46 16 32 -26 c17 -15
42 -27 55 -27 30 0 55 35 55 76 0 46 -20 58 -85 50 l-55 -6 0 29 c0 32 42 81
71 81 10 0 25 -13 34 -30 13 -26 21 -30 55 -30 27 0 48 8 67 24 26 22 28 30
28 98 0 40 -3 95 -7 122 -7 45 -7 48 12 43 23 -6 24 3 6 56 -14 38 -42 77 -56
77 -4 0 -10 -10 -13 -22z m-97 -497 c0 -18 -17 -20 -36 -6 -18 14 -18 14 9 15
15 0 27 -4 27 -9z"/>
<path d="M831 673 c-1 -28 -18 -38 -36 -23 -12 10 -15 9 -15 -3 0 -23 -18 -31
-36 -16 -14 11 -15 10 -12 -11 2 -17 10 -26 26 -28 12 -2 22 1 22 7 0 6 11 11
25 11 29 0 38 16 32 57 -3 20 -4 22 -6 6z"/>
<path d="M216 664 c-25 -24 -19 -30 24 -26 45 5 51 -7 18 -32 l-23 -17 30 6
c40 8 75 32 75 50 0 33 -96 47 -124 19z"/>
<path d="M565 616 c-20 -53 -13 -86 19 -86 49 0 75 68 36 92 -11 7 -20 18 -20
25 0 28 -19 11 -35 -31z m37 -41 c0 -5 -5 -11 -11 -13 -6 -2 -11 4 -11 13 0 9
5 15 11 13 6 -2 11 -8 11 -13z"/>
<path d="M231 546 c-11 -13 -9 -19 12 -38 14 -13 32 -39 39 -58 l15 -35 14 45
c10 32 19 45 32 44 10 -1 17 5 17 17 0 29 -35 23 -50 -8 -11 -26 -13 -27 -24
-9 -6 10 -18 27 -26 38 -14 18 -17 18 -29 4z"/>
<path d="M791 506 c-27 -32 16 -67 44 -36 15 16 15 22 5 35 -16 19 -34 19 -49
1z"/>
<path d="M594 460 c-29 -11 -42 -44 -14 -35 22 7 60 -2 60 -15 0 -4 -10 -11
-22 -15 -30 -9 -5 -19 27 -11 28 7 55 32 55 51 0 8 -17 19 -37 24 -44 12 -41
12 -69 1z"/>
<path d="M976 215 c-24 -51 -18 -90 14 -90 15 0 26 6 28 17 2 12 -2 15 -17 11
-17 -4 -21 -1 -21 21 0 15 5 36 11 48 6 11 9 22 6 24 -2 3 -12 -11 -21 -31z"/>
<path d="M468 128 c9 -9 8 -16 -5 -30 -9 -10 -12 -18 -6 -18 16 0 46 38 38 49
-3 6 -14 11 -23 11 -12 0 -13 -3 -4 -12z"/>
</g>
</svg>
