<?xml version="1.0" standalone="no"?>
<!DOCTYPE svg PUBLIC "-//W3C//DTD SVG 20010904//EN"
 "http://www.w3.org/TR/2001/REC-SVG-20010904/DTD/svg10.dtd">
<svg version="1.0" xmlns="http://www.w3.org/2000/svg"
 width="115.000000px" height="76.000000px" viewBox="0 0 115.000000 76.000000"
 preserveAspectRatio="xMidYMid meet">

<g transform="translate(0.000000,76.000000) scale(0.100000,-0.100000)"
fill="#000000" stroke="none">
<path d="M710 622 c-192 -104 -200 -109 -200 -143 0 -19 5 -29 15 -29 13 0 13
3 3 21 -15 24 -29 14 171 122 148 79 177 97 151 97 -8 0 -71 -31 -140 -68z"/>
<path d="M1017 670 c-3 -11 4 -102 14 -202 11 -101 20 -219 21 -263 1 -80 1
-80 16 -45 14 35 11 116 -15 364 -5 44 -3 57 5 52 18 -11 15 16 -8 68 -22 51
-25 54 -33 26z"/>
<path d="M463 654 c-14 -14 -22 -28 -19 -31 4 -4 12 -1 18 5 14 14 78 16 78 2
0 -5 -17 -18 -37 -29 -33 -17 -35 -20 -15 -21 32 0 78 28 91 57 10 21 8 25
-15 33 -42 16 -74 11 -101 -16z"/>
<path d="M932 668 c-8 -11 -6 -50 8 -163 24 -182 25 -224 6 -231 -19 -7 -56
13 -56 31 0 24 -14 17 -32 -16 -13 -22 -24 -30 -40 -27 -18 2 -22 9 -20 28 l3
24 -29 -27 c-32 -30 -57 -34 -97 -13 -40 21 -66 7 -162 -85 -74 -70 -88 -80
-116 -77 -22 2 -35 11 -44 28 l-13 25 0 -31 c0 -36 26 -64 61 -64 36 0 80 31
137 97 66 76 95 93 120 70 21 -20 54 -22 84 -6 14 8 23 8 31 0 17 -17 52 -13
72 9 16 17 20 18 38 5 28 -20 62 -19 83 2 14 15 16 31 11 123 -4 58 -9 129
-13 158 -6 47 -5 52 11 46 15 -6 16 -3 10 17 -4 13 -15 39 -24 57 -14 27 -19
31 -29 20z"/>
<path d="M75 638 c-48 -27 -48 -70 0 -100 39 -26 43 -40 18 -66 -21 -20 -43
-118 -43 -191 0 -145 103 -200 246 -132 66 31 111 82 140 157 20 53 13 87 -26
125 -34 35 -60 36 -177 12 -61 -13 -87 -14 -105 -6 -23 11 -23 11 26 57 26 25
83 62 125 83 45 23 77 45 79 56 3 15 -8 17 -130 17 -80 0 -141 -5 -153 -12z
m170 -44 c-11 -9 -39 -27 -62 -41 l-42 -25 -40 34 c-26 22 -36 35 -28 40 7 4
52 8 102 8 83 -1 88 -2 70 -16z m11 -188 l111 7 33 -30 c28 -25 32 -34 26 -59
-10 -41 -105 -130 -153 -143 -141 -39 -228 45 -193 188 11 48 13 50 38 40 16
-6 70 -7 138 -3z"/>
<path d="M256 311 c-50 -20 -92 -43 -94 -49 -6 -18 180 57 192 77 11 17 -1 13
-98 -28z"/>
<path d="M830 595 c-9 -27 -9 -39 0 -50 13 -16 40 -9 40 11 0 8 -6 11 -17 7
-14 -5 -15 -1 -10 30 7 47 2 47 -13 2z"/>
<path d="M380 581 c-5 -11 -10 -36 -10 -56 0 -29 3 -36 17 -33 10 2 19 11 21
21 2 12 -1 15 -12 11 -19 -7 -21 12 -6 50 11 30 5 34 -10 7z"/>
<path d="M770 465 c-10 -11 -10 -19 -2 -27 15 -15 44 -2 40 19 -4 23 -22 27
-38 8z"/>
<path d="M604 437 c-9 -20 -14 -43 -10 -52 6 -16 9 -16 29 -2 27 18 33 52 13
73 -14 14 -17 12 -32 -19z m28 -22 c0 -5 -5 -11 -11 -13 -6 -2 -11 4 -11 13 0
9 5 15 11 13 6 -2 11 -8 11 -13z"/>
<path d="M739 414 c-10 -12 -9 -18 4 -31 13 -13 19 -14 31 -4 11 9 20 9 34 2
15 -8 23 -7 33 5 11 14 10 18 -6 30 -13 10 -22 11 -31 3 -9 -7 -19 -7 -32 0
-15 8 -23 7 -33 -5z"/>
<path d="M881 193 c-1 -7 -7 -10 -15 -7 -8 3 -17 1 -20 -5 -4 -6 -15 -7 -30
-1 -19 7 -34 2 -77 -26 -58 -37 -57 -48 1 -12 22 13 55 22 89 24 59 3 66 6 58
26 -4 9 -6 9 -6 1z"/>
</g>
</svg>
