<?xml version="1.0" standalone="no"?>
<!DOCTYPE svg PUBLIC "-//W3C//DTD SVG 20010904//EN"
 "http://www.w3.org/TR/2001/REC-SVG-20010904/DTD/svg10.dtd">
<svg version="1.0" xmlns="http://www.w3.org/2000/svg"
 width="131.000000px" height="76.000000px" viewBox="0 0 131.000000 76.000000"
 preserveAspectRatio="xMidYMid meet">

<g transform="translate(0.000000,76.000000) scale(0.100000,-0.100000)"
fill="#000000" stroke="none">
<path d="M1074 665 c-4 -10 1 -97 11 -193 18 -170 18 -175 0 -188 -23 -17 -79
-18 -107 -3 -20 11 -20 11 3 35 40 42 25 124 -22 124 -24 0 -42 -33 -49 -89
-5 -44 -6 -45 -55 -57 -27 -7 -92 -18 -144 -24 -140 -17 -235 1 -292 56 -22
21 -27 23 -32 10 -4 -9 -14 -16 -23 -16 -46 0 -101 -28 -160 -82 -93 -84 -134
-89 -134 -17 0 40 12 58 74 107 9 7 16 22 16 34 0 21 0 21 -14 2 -14 -17 -16
-18 -31 -3 -14 14 -15 22 -5 60 7 24 21 62 32 84 l19 40 -20 -25 c-34 -41 -63
-130 -57 -172 4 -25 0 -50 -14 -80 -27 -60 -26 -104 4 -123 36 -24 70 -10 140
55 90 84 159 103 170 48 12 -61 41 -75 58 -27 9 28 13 29 42 22 63 -16 286 -7
366 14 l75 21 28 -24 c42 -35 100 -33 138 5 34 34 36 59 18 222 -9 81 -9 103
2 109 10 7 10 15 -1 42 -18 46 -28 55 -36 33z m-94 -286 c9 -17 8 -23 -7 -34
-22 -17 -37 -14 -41 9 -9 44 28 63 48 25z"/>
<path d="M673 581 c-200 -92 -223 -105 -223 -126 0 -8 69 19 177 72 98 47 198
93 222 103 47 18 66 40 34 39 -10 0 -105 -40 -210 -88z"/>
<path d="M1186 653 c-3 -10 3 -117 13 -238 13 -154 20 -211 26 -191 8 31 0
268 -11 326 -6 29 -5 33 11 27 12 -5 16 -3 13 5 -3 7 -11 30 -19 51 -14 40
-25 47 -33 20z"/>
<path d="M156 644 c-8 -20 1 -34 20 -34 8 0 24 -17 36 -37 l22 -37 8 35 c15
61 17 63 33 49 12 -10 15 -10 15 3 0 8 -6 19 -13 26 -18 14 -37 -5 -37 -38 0
-25 -1 -24 -31 12 -34 41 -44 45 -53 21z"/>
<path d="M498 569 c-158 -80 -178 -93 -178 -115 0 -13 7 -27 15 -31 24 -9 31
5 11 20 -17 13 -17 14 5 29 13 8 99 51 192 96 92 44 167 83 167 86 0 17 -53
-4 -212 -85z"/>
<path d="M903 524 c-9 -24 13 -41 35 -27 12 7 24 8 35 1 20 -11 37 -3 37 18 0
20 -27 29 -44 15 -10 -8 -16 -9 -21 -1 -9 15 -35 12 -42 -6z"/>
<path d="M717 493 c-14 -14 -6 -33 17 -39 14 -3 29 -18 36 -35 17 -40 29 -36
36 11 7 42 13 47 32 28 13 -13 16 -1 6 26 -10 26 -34 18 -40 -14 -4 -16 -8
-30 -11 -30 -2 0 -16 14 -30 30 -25 31 -34 35 -46 23z"/>
<path d="M211 452 c-1 -26 3 -33 16 -30 9 2 18 9 21 16 2 7 -2 10 -11 6 -11
-4 -17 2 -20 18 -3 17 -5 15 -6 -10z"/>
<path d="M630 405 c-15 -44 -10 -75 13 -89 15 -9 21 -7 33 8 8 11 14 26 14 34
0 12 -4 12 -20 -3 -18 -16 -20 -16 -26 -1 -4 9 -4 32 -1 51 7 45 2 45 -13 0z"/>
<path d="M516 384 c-9 -35 2 -66 22 -62 24 5 28 36 5 34 -14 -1 -17 5 -15 27
4 34 -4 35 -12 1z"/>
<path d="M876 221 c-3 -5 4 -11 16 -14 l22 -6 -24 -28 c-18 -20 -19 -23 -5
-13 27 20 35 32 35 53 0 18 -34 24 -44 8z"/>
<path d="M1138 218 c9 -9 7 -18 -11 -37 -18 -21 -19 -23 -2 -11 38 28 48 60
18 60 -13 0 -14 -3 -5 -12z"/>
<path d="M320 205 c0 -3 9 -15 20 -27 22 -24 27 -13 6 15 -13 16 -26 23 -26
12z"/>
<path d="M360 200 c0 -5 5 -10 10 -10 6 0 10 5 10 10 0 6 -4 10 -10 10 -5 0
-10 -4 -10 -10z"/>
<path d="M213 157 c-54 -44 -71 -67 -50 -67 15 0 117 88 117 101 0 16 -14 9
-67 -34z"/>
<path d="M600 190 c13 -9 12 -12 -4 -25 -23 -17 -14 -20 15 -5 26 15 24 40 -3
40 -19 0 -20 -2 -8 -10z"/>
</g>
</svg>
