<?xml version="1.0" standalone="no"?>
<!DOCTYPE svg PUBLIC "-//W3C//DTD SVG 20010904//EN"
 "http://www.w3.org/TR/2001/REC-SVG-20010904/DTD/svg10.dtd">
<svg version="1.0" xmlns="http://www.w3.org/2000/svg"
 width="152.000000px" height="76.000000px" viewBox="0 0 152.000000 76.000000"
 preserveAspectRatio="xMidYMid meet">

<g transform="translate(0.000000,76.000000) scale(0.100000,-0.100000)"
fill="#000000" stroke="none">
<path d="M260 685 c-6 -8 -14 -32 -17 -55 -6 -42 9 -54 35 -28 17 17 15 33 -3
18 -13 -11 -15 -8 -15 14 0 15 5 36 10 47 13 23 7 25 -10 4z"/>
<path d="M360 690 c0 -6 7 -13 15 -16 8 -4 15 -16 15 -27 0 -15 3 -18 11 -10
8 8 6 18 -6 37 -18 26 -35 34 -35 16z"/>
<path d="M684 676 c-3 -14 -3 -34 1 -43 4 -10 13 -81 20 -157 l14 -140 -76
-80 c-41 -45 -91 -90 -110 -101 -34 -20 -34 -20 -48 -1 -35 46 -4 128 63 171
40 25 78 72 68 82 -2 2 -29 -12 -61 -32 -33 -19 -68 -35 -80 -35 -29 0 -75 50
-75 82 0 32 17 40 100 47 59 5 63 7 42 19 -12 7 -43 13 -69 14 -39 0 -51 -4
-70 -26 -30 -35 -39 -73 -25 -110 7 -16 10 -32 8 -34 -11 -10 -43 12 -64 43
-12 19 -26 35 -32 35 -20 0 -48 -43 -65 -101 -11 -34 -25 -63 -32 -66 -46 -18
-93 39 -93 111 0 30 5 38 25 46 15 6 27 21 33 42 11 40 7 48 -12 23 -36 -50
-49 41 -16 114 11 24 19 46 17 48 -9 9 -59 -123 -59 -156 1 -158 2 -174 21
-216 13 -30 27 -46 44 -51 50 -12 61 -3 87 76 17 51 31 76 43 78 9 2 17 -1 17
-6 0 -6 12 -25 27 -42 25 -31 29 -32 89 -28 62 4 62 4 53 -20 -14 -37 -11
-105 7 -130 11 -16 25 -22 52 -22 33 0 44 8 114 82 42 46 78 80 80 78 2 -3 9
-17 16 -33 6 -15 26 -36 44 -48 28 -17 44 -20 109 -15 41 3 112 17 158 31 l83
27 27 -26 c56 -53 146 -22 165 57 6 24 -16 252 -30 316 -4 18 -2 22 10 18 20
-8 20 -9 -5 47 -12 27 -25 44 -31 40 -12 -8 -9 -49 21 -274 13 -99 16 -149 9
-157 -6 -7 -28 -18 -50 -24 -33 -8 -44 -7 -65 6 l-25 17 21 19 c29 28 35 60
17 103 -30 72 -86 29 -86 -65 l0 -47 -80 -21 c-157 -43 -227 -36 -266 24 -18
27 -17 28 5 46 29 24 48 24 89 -1 l32 -20 0 24 c0 39 -27 58 -74 54 -23 -3
-48 -8 -58 -12 -14 -6 -17 4 -23 81 -16 223 -34 307 -51 239z m506 -352 c0
-11 -29 -34 -43 -34 -3 0 -10 13 -15 30 -9 24 -8 31 6 39 19 11 52 -12 52 -35z"/>
<path d="M940 690 c0 -6 7 -13 15 -16 8 -4 15 -16 15 -27 0 -15 3 -18 11 -10
8 8 6 18 -6 37 -18 26 -35 34 -35 16z"/>
<path d="M1015 602 c-156 -79 -191 -101 -193 -120 -4 -23 13 -52 29 -52 15 0
10 28 -7 34 -8 3 -12 11 -8 17 4 7 94 54 200 105 106 52 195 98 199 104 16 26
-45 2 -220 -88z"/>
<path d="M1387 686 c-3 -8 5 -123 17 -255 13 -132 21 -252 18 -267 -3 -18 -1
-25 6 -20 22 13 24 75 8 240 -19 197 -19 209 -6 201 16 -10 12 19 -10 69 -21
50 -25 54 -33 32z"/>
<path d="M414 678 c-4 -6 -3 -8 4 -4 5 3 13 0 15 -6 3 -8 6 -6 6 5 1 19 -14
23 -25 5z"/>
<path d="M520 634 c-69 -31 -131 -62 -139 -70 -33 -31 3 -22 106 29 60 30 124
59 141 65 18 6 32 16 32 21 0 16 -6 15 -140 -45z"/>
<path d="M814 655 c-3 -19 -3 -42 0 -51 8 -21 40 -13 44 11 3 17 1 17 -7 5
-10 -13 -12 -13 -21 0 -5 8 -7 27 -4 43 3 15 3 27 0 27 -3 0 -8 -16 -12 -35z"/>
<path d="M994 678 c-4 -6 -3 -8 4 -4 5 3 13 0 15 -6 3 -8 6 -6 6 5 1 19 -14
23 -25 5z"/>
<path d="M557 583 c-12 -11 -8 -23 8 -23 8 0 24 -14 34 -31 l20 -32 6 37 c6
27 11 36 22 32 9 -4 13 -1 11 6 -8 22 -32 14 -38 -11 l-6 -24 -17 26 c-18 27
-28 32 -40 20z"/>
<path d="M284 493 c-10 -15 -13 -16 -28 -4 -13 11 -19 11 -31 1 -21 -17 -19
-27 7 -41 18 -9 24 -8 34 6 10 13 17 14 33 6 17 -9 22 -8 31 8 8 16 6 22 -9
31 -25 13 -24 13 -37 -7z"/>
<path d="M1089 494 c-19 -23 14 -48 41 -32 14 9 22 9 35 -2 15 -12 19 -12 31
5 12 16 12 21 -1 34 -13 13 -19 14 -36 2 -15 -9 -24 -10 -32 -2 -15 15 -22 14
-38 -5z"/>
<path d="M956 438 c-18 -68 6 -124 42 -101 10 5 18 20 20 32 3 20 2 21 -18 9
-27 -17 -42 4 -34 50 7 36 0 44 -10 10z"/>
<path d="M293 185 c-62 -29 -113 -59 -113 -65 0 -14 -8 -17 133 50 107 51 137
71 105 70 -7 -1 -64 -25 -125 -55z"/>
<path d="M1325 200 c-3 -5 1 -10 9 -10 29 0 26 -20 -6 -40 -38 -23 -30 -27 11
-5 30 15 45 40 35 56 -7 12 -41 11 -49 -1z"/>
<path d="M662 147 c-29 -29 -52 -58 -52 -65 0 -19 12 -9 70 58 64 74 53 79
-18 7z"/>
<path d="M1085 190 c-3 -5 1 -10 9 -10 26 0 18 -28 -11 -44 -36 -20 -21 -21
16 -1 30 15 41 32 34 53 -6 14 -39 16 -48 2z"/>
</g>
</svg>
