<?xml version="1.0" standalone="no"?>
<!DOCTYPE svg PUBLIC "-//W3C//DTD SVG 20010904//EN"
 "http://www.w3.org/TR/2001/REC-SVG-20010904/DTD/svg10.dtd">
<svg version="1.0" xmlns="http://www.w3.org/2000/svg"
 width="148.000000px" height="76.000000px" viewBox="0 0 148.000000 76.000000"
 preserveAspectRatio="xMidYMid meet">

<g transform="translate(0.000000,76.000000) scale(0.100000,-0.100000)"
fill="#000000" stroke="none">
<path d="M1069 657 c-54 -34 -106 -71 -118 -81 -25 -22 -27 -58 -6 -76 12 -10
15 -10 15 2 0 8 -5 19 -12 26 -16 16 -14 17 116 100 97 60 136 94 109 91 -4 0
-51 -28 -104 -62z"/>
<path d="M1197 687 c-3 -7 3 -109 12 -226 l16 -213 -39 -29 c-22 -16 -48 -29
-57 -29 -21 0 -49 36 -49 62 0 28 -14 21 -29 -13 -23 -52 -99 -71 -121 -30 -4
9 -16 102 -24 206 -21 240 -26 276 -38 269 -6 -4 -8 -26 -4 -53 3 -25 13 -134
21 -241 19 -229 26 -250 87 -250 17 0 35 11 52 31 l27 31 24 -26 c30 -33 48
-33 109 0 l49 26 18 -23 c10 -13 19 -27 19 -31 0 -17 50 -7 60 11 27 51 -8
118 -55 108 -14 -2 -26 1 -29 9 -3 7 -10 82 -17 165 -9 123 -9 153 2 159 10 7
10 16 1 49 -14 44 -27 58 -35 38z m113 -482 c7 -9 10 -18 7 -21 -7 -8 -47 14
-47 26 0 15 26 12 40 -5z"/>
<path d="M1357 694 c-4 -4 -5 -40 -2 -78 2 -39 9 -147 15 -241 6 -93 13 -195
17 -225 5 -48 7 -52 14 -27 4 15 1 114 -7 220 -17 242 -17 230 2 223 13 -5 14
-1 9 27 -11 49 -39 110 -48 101z"/>
<path d="M491 664 c-10 -22 -9 -31 5 -51 16 -25 15 -26 -46 -84 -34 -33 -56
-59 -50 -59 6 0 37 26 68 57 31 32 63 56 70 55 21 -5 13 18 -15 44 -27 25 -26
47 2 24 16 -13 20 -3 9 24 -9 24 -29 19 -43 -10z"/>
<path d="M171 654 c0 -11 3 -14 6 -6 3 7 2 16 -1 19 -3 4 -6 -2 -5 -13z"/>
<path d="M335 617 c-137 -88 -145 -95 -145 -127 0 -16 5 -32 11 -35 6 -4 9 4
7 22 -3 26 5 33 92 90 114 73 151 102 130 102 -8 0 -51 -24 -95 -52z"/>
<path d="M162 613 c2 -10 11 -19 21 -21 23 -5 21 10 -4 26 -18 12 -20 11 -17
-5z"/>
<path d="M661 599 c12 -23 16 -24 28 -1 7 14 5 17 -15 18 -20 2 -22 -1 -13
-17z"/>
<path d="M1096 568 c-3 -13 -6 -40 -6 -61 0 -34 3 -38 22 -35 13 2 24 11 26
22 3 12 0 16 -8 11 -18 -11 -30 16 -24 53 7 36 0 44 -10 10z"/>
<path d="M96 538 c-27 -73 -37 -135 -26 -163 5 -14 13 -25 18 -25 14 0 39 33
46 60 6 23 6 23 -7 8 -17 -22 -33 -23 -41 -3 -7 18 9 107 25 136 6 11 8 23 6
25 -3 3 -12 -14 -21 -38z"/>
<path d="M726 534 c-9 -25 19 -53 36 -36 9 9 10 17 2 29 -15 24 -30 27 -38 7z"/>
<path d="M584 523 c-10 -16 -13 -16 -28 -4 -15 13 -19 13 -27 0 -12 -19 -11
-25 6 -39 13 -10 19 -10 33 3 17 15 19 15 35 0 15 -15 17 -15 23 2 7 18 -5 46
-22 52 -5 2 -14 -5 -20 -14z"/>
<path d="M319 465 c-3 -39 3 -70 22 -117 l18 -47 -47 -39 c-76 -63 -94 -72
-138 -72 -51 0 -80 22 -99 75 l-14 40 -1 -32 c0 -47 27 -108 55 -123 23 -12
80 -10 118 5 14 6 17 1 17 -30 0 -20 5 -45 10 -56 16 -29 82 -25 157 10 53 26
66 37 87 79 16 32 35 53 54 61 27 11 32 10 60 -18 23 -23 40 -31 67 -31 43 0
92 20 123 49 30 30 30 101 -1 156 -29 52 -60 58 -81 16 -32 -60 -10 -108 42
-94 22 5 52 -11 52 -29 0 -5 -25 -21 -56 -35 -60 -27 -103 -26 -136 4 -17 15
-17 18 -2 34 24 27 29 90 10 127 -31 59 -61 28 -62 -65 -1 -44 -5 -68 -15 -74
-27 -17 -48 -9 -65 26 -10 22 -23 35 -35 35 -28 0 -51 -42 -47 -87 3 -37 4
-38 45 -38 52 0 59 -6 30 -32 -40 -37 -120 -73 -162 -73 -82 0 -87 48 -15 125
59 62 69 98 45 164 -10 31 -12 47 -5 51 7 4 4 15 -9 31 -19 23 -20 23 -22 4z
m308 -115 c9 -17 9 -28 1 -37 -17 -21 -37 -15 -44 12 -13 54 19 72 43 25z
m137 24 c22 -8 20 -34 -2 -34 -24 0 -32 8 -25 26 6 16 6 16 27 8z m-284 -124
c0 -13 -37 -13 -45 0 -3 6 -3 15 0 20 7 12 45 -5 45 -20z"/>
<path d="M1050 385 c-14 -17 -4 -55 15 -55 21 0 35 32 24 53 -12 21 -23 22
-39 2z"/>
<path d="M194 345 c-8 -21 2 -45 20 -45 23 0 27 39 5 51 -15 7 -21 6 -25 -6z"/>
<path d="M71 324 c0 -11 3 -14 6 -6 3 7 2 16 -1 19 -3 4 -6 -2 -5 -13z"/>
<path d="M566 164 c-20 -19 -20 -25 -2 -18 27 10 27 -17 1 -54 l-27 -37 31 33
c30 31 41 75 22 87 -5 3 -17 -2 -25 -11z"/>
<path d="M795 144 c-61 -36 -108 -74 -101 -81 6 -6 166 98 166 108 0 12 2 13
-65 -27z"/>
<path d="M1195 140 c-3 -5 1 -10 9 -10 20 0 20 -9 0 -40 l-16 -25 21 24 c24
27 28 61 7 61 -8 0 -18 -4 -21 -10z"/>
<path d="M1037 133 c-4 -3 1 -11 9 -18 15 -10 13 -14 -11 -33 -32 -25 -21 -30
13 -6 24 17 31 64 9 64 -8 0 -17 -3 -20 -7z"/>
<path d="M186 98 c4 -6 -1 -17 -11 -25 -22 -15 -12 -17 16 -3 23 13 25 40 3
40 -9 0 -12 -5 -8 -12z"/>
</g>
</svg>
