<?xml version="1.0" standalone="no"?>
<!DOCTYPE svg PUBLIC "-//W3C//DTD SVG 20010904//EN"
 "http://www.w3.org/TR/2001/REC-SVG-20010904/DTD/svg10.dtd">
<svg version="1.0" xmlns="http://www.w3.org/2000/svg"
 width="164.000000px" height="76.000000px" viewBox="0 0 164.000000 76.000000"
 preserveAspectRatio="xMidYMid meet">

<g transform="translate(0.000000,76.000000) scale(0.100000,-0.100000)"
fill="#000000" stroke="none">
<path d="M706 654 c-9 -24 -7 -36 4 -29 6 4 17 1 25 -5 20 -16 32 14 15 35
-16 20 -36 19 -44 -1z"/>
<path d="M206 653 c-14 -14 -4 -44 17 -52 13 -5 30 -23 37 -40 15 -38 26 -32
35 19 7 41 19 58 30 40 11 -18 26 -10 23 12 -5 38 -35 34 -49 -6 -15 -42 -22
-44 -37 -12 -12 26 -45 49 -56 39z"/>
<path d="M1254 636 c8 -32 -11 -35 -24 -3 -8 21 -9 21 -9 -5 -1 -36 -19 -45
-30 -16 -8 21 -10 21 -16 5 -5 -12 -2 -24 7 -33 12 -13 19 -13 51 1 28 12 37
21 37 40 0 13 -5 27 -11 31 -9 5 -10 -1 -5 -20z"/>
<path d="M516 642 c-4 -7 -5 -29 -2 -50 4 -20 10 -97 15 -170 10 -146 19 -170
73 -198 41 -21 131 -14 212 16 73 28 96 50 96 93 -1 29 -19 67 -33 67 -15 0
-13 -32 4 -54 19 -25 19 -25 -3 -41 -34 -24 -144 -55 -195 -55 -50 0 -97 21
-113 50 -6 11 -15 83 -21 159 -11 152 -20 203 -33 183z"/>
<path d="M597 636 c-6 -15 11 -36 30 -36 7 0 19 -13 28 -30 9 -16 20 -30 24
-30 11 0 26 59 17 67 -3 4 -6 -2 -6 -13 0 -16 -2 -15 -17 6 -32 47 -66 63 -76
36z"/>
<path d="M861 580 c-183 -72 -224 -98 -205 -127 6 -9 16 -19 22 -21 16 -5 15
25 0 31 -23 8 4 25 99 61 51 20 95 36 98 36 3 0 1 -9 -5 -19 -16 -31 -13 -63
7 -59 9 2 18 9 21 16 2 7 -2 10 -12 6 -19 -7 -20 6 -4 40 7 17 28 32 62 45 76
29 106 43 106 53 0 13 -5 11 -189 -62z"/>
<path d="M1087 635 c-4 -8 3 -81 13 -162 11 -81 21 -170 22 -198 3 -48 4 -49
15 -23 9 21 9 56 -4 164 -12 106 -13 138 -3 144 9 5 6 18 -9 49 -24 45 -26 48
-34 26z"/>
<path d="M1511 622 c-6 -12 -10 -26 -7 -30 10 -16 46 -438 39 -461 -4 -17 -3
-22 5 -17 22 13 24 78 8 240 -19 194 -19 189 -6 181 15 -9 11 25 -9 70 -17 39
-18 39 -30 17z"/>
<path d="M1395 619 c-3 -9 5 -101 19 -205 l25 -189 -21 -17 c-46 -40 -74 -14
-98 92 -18 87 -47 160 -62 160 -13 0 -9 -32 12 -93 11 -31 20 -72 20 -92 0
-30 -6 -40 -42 -66 -69 -50 -124 -72 -149 -58 -19 9 -21 17 -16 58 l6 46 -14
-35 c-22 -56 -18 -87 10 -106 22 -14 32 -15 63 -5 69 21 116 54 138 98 l22 43
6 -34 c9 -49 38 -71 78 -60 61 18 67 55 43 249 -18 141 -18 158 -5 150 17 -10
11 18 -10 50 -15 22 -20 26 -25 14z"/>
<path d="M401 592 c-7 -16 -11 -47 -9 -68 3 -34 6 -39 28 -39 19 0 26 6 28 25
4 21 2 22 -12 10 -28 -23 -41 1 -28 52 13 50 9 60 -7 20z"/>
<path d="M103 548 c-35 -60 -46 -98 -40 -138 3 -22 0 -55 -5 -74 -40 -128 124
-167 326 -78 86 39 94 29 41 -51 -19 -28 -35 -56 -35 -62 0 -5 12 8 27 30 14
22 37 53 50 68 13 16 23 40 23 54 0 23 -3 25 -32 20 -18 -3 -71 -19 -118 -36
-134 -48 -250 -38 -266 23 -8 33 3 64 25 71 10 3 23 17 29 31 17 36 15 40 -9
18 -17 -16 -22 -16 -30 -4 -11 18 -3 60 21 118 22 50 19 54 -7 10z"/>
<path d="M1222 548 c-22 -22 -7 -48 28 -48 14 0 21 32 9 46 -14 17 -22 17 -37
2z"/>
<path d="M240 435 c-7 -8 -10 -22 -6 -30 7 -18 43 -20 49 -2 3 9 7 9 20 -2 19
-15 47 -8 47 12 0 8 -7 21 -16 28 -14 11 -18 10 -30 -6 -13 -17 -15 -17 -32
-1 -17 15 -21 15 -32 1z"/>
<path d="M978 423 c-2 -10 9 -40 24 -68 15 -27 28 -53 28 -56 0 -12 -117 -84
-230 -142 -103 -52 -110 -58 -70 -52 104 16 278 111 300 165 17 41 -9 158 -37
167 -6 2 -13 -4 -15 -14z"/>
<path d="M709 393 c-15 -40 -8 -78 15 -78 11 0 21 6 24 14 3 10 0 12 -12 8
-23 -9 -31 15 -18 53 13 37 5 40 -9 3z"/>
<path d="M1193 325 c2 -31 26 -42 35 -16 3 8 0 11 -7 7 -6 -4 -15 2 -21 16 -9
21 -10 21 -7 -7z"/>
<path d="M258 172 c-98 -37 -124 -52 -95 -52 23 0 181 58 203 75 32 25 -4 17
-108 -23z"/>
<path d="M960 158 c-87 -47 -85 -46 -77 -54 6 -6 132 58 151 77 26 24 -7 14
-74 -23z"/>
<path d="M1470 185 c-10 -12 -10 -15 4 -15 22 0 20 -19 -6 -49 -18 -20 -16
-19 10 4 20 18 32 37 30 49 -4 25 -22 31 -38 11z"/>
<path d="M572 178 c-7 -7 -12 -18 -12 -24 0 -18 41 -29 50 -14 6 9 12 9 28 -1
17 -10 23 -10 36 1 15 12 15 14 0 32 -16 16 -19 17 -34 3 -15 -14 -18 -14 -30
0 -15 18 -22 19 -38 3z"/>
</g>
</svg>
