<?xml version="1.0" standalone="no"?>
<!DOCTYPE svg PUBLIC "-//W3C//DTD SVG 20010904//EN"
 "http://www.w3.org/TR/2001/REC-SVG-20010904/DTD/svg10.dtd">
<svg version="1.0" xmlns="http://www.w3.org/2000/svg"
 width="145.000000px" height="76.000000px" viewBox="0 0 145.000000 76.000000"
 preserveAspectRatio="xMidYMid meet">

<g transform="translate(0.000000,76.000000) scale(0.100000,-0.100000)"
fill="#000000" stroke="none">
<path d="M450 640 c-12 -16 -17 -30 -11 -30 5 0 13 5 16 10 8 13 85 13 85 0 0
-5 -19 -19 -42 -31 -24 -12 -38 -24 -32 -26 20 -7 89 24 108 50 28 37 9 57
-55 57 -42 0 -50 -4 -69 -30z"/>
<path d="M1317 650 c-3 -11 4 -102 14 -202 11 -101 20 -219 21 -263 1 -79 2
-80 15 -46 14 34 11 127 -14 365 -5 44 -3 57 5 52 17 -10 15 8 -5 65 -19 53
-28 60 -36 29z"/>
<path d="M785 623 c-14 -21 -25 -48 -25 -61 0 -26 26 -40 48 -25 24 15 25 30
1 29 -32 -1 -33 15 -5 57 14 20 21 37 16 37 -5 0 -21 -17 -35 -37z"/>
<path d="M1196 635 c-4 -14 -4 -30 -1 -34 8 -14 46 -362 40 -371 -10 -17 -75
-23 -105 -10 -35 15 -37 21 -10 45 23 20 26 70 9 109 -30 65 -79 27 -79 -60 0
-50 -2 -55 -31 -69 -73 -39 -259 -57 -340 -35 -47 13 -58 31 -104 168 -21 61
-44 120 -51 129 -12 17 -13 16 -14 -8 0 -14 11 -59 25 -99 38 -111 35 -133
-22 -175 -27 -19 -67 -45 -90 -57 -51 -27 -76 -18 -81 29 -3 25 6 38 53 81 68
62 78 97 46 160 -12 23 -19 42 -16 42 3 0 1 9 -5 20 -14 26 -40 26 -40 0 0
-10 14 -41 30 -67 17 -26 30 -53 30 -60 0 -22 -168 -139 -274 -193 -55 -28
-93 -50 -84 -50 29 0 153 42 194 66 l41 23 6 -46 c5 -51 17 -63 63 -63 36 0
169 89 179 120 9 27 17 25 40 -13 29 -46 78 -60 200 -54 73 3 122 12 181 32
l81 27 26 -26 c55 -55 167 -21 167 51 0 15 -7 86 -15 158 -18 156 -18 158 -5
150 17 -10 11 23 -10 65 -11 22 -22 40 -24 40 -2 0 -7 -11 -10 -25z m-88 -287
c19 -19 14 -46 -9 -59 -31 -16 -49 14 -33 55 7 19 25 21 42 4z"/>
<path d="M301 624 c-17 -39 -14 -74 7 -74 48 0 69 75 26 91 -17 6 -24 2 -33
-17z m39 -19 c10 -12 9 -16 -5 -21 -19 -8 -40 9 -31 25 10 15 21 14 36 -4z"/>
<path d="M895 544 c-216 -98 -278 -134 -262 -150 4 -4 87 31 184 78 98 47 217
102 266 123 48 21 87 42 87 47 0 21 -61 -1 -275 -98z"/>
<path d="M640 575 c-15 -40 -9 -70 14 -70 11 0 21 6 24 13 2 7 -5 12 -17 12
-23 0 -26 12 -10 42 6 11 8 22 5 25 -3 3 -10 -7 -16 -22z"/>
<path d="M1091 503 c-9 -16 -13 -16 -32 -4 -20 12 -24 11 -36 -4 -9 -14 -10
-22 -2 -32 13 -15 45 -17 54 -3 3 6 16 8 29 4 14 -3 27 1 36 11 11 13 10 18
-6 30 -25 19 -31 18 -43 -2z"/>
<path d="M176 434 c-7 -18 8 -34 32 -34 7 0 20 -16 28 -35 18 -43 30 -38 39
15 7 40 19 52 28 28 7 -22 19 -1 12 21 -9 30 -33 26 -41 -6 -11 -44 -14 -45
-38 -11 -25 38 -50 47 -60 22z"/>
<path d="M827 404 c-12 -13 -8 -34 8 -34 8 0 24 -14 34 -31 15 -24 20 -27 25
-14 3 9 6 26 6 36 0 16 4 19 21 14 19 -6 20 -5 9 16 -12 22 -13 22 -26 4 -8
-10 -14 -25 -14 -32 0 -7 -12 1 -28 18 -15 17 -31 27 -35 23z"/>
<path d="M550 175 c-11 -13 -10 -14 3 -10 32 13 30 -19 -4 -48 l-34 -29 32 16
c36 18 58 50 49 72 -7 18 -30 18 -46 -1z"/>
<path d="M1030 175 c-11 -13 -10 -14 3 -10 26 11 30 -15 6 -43 l-24 -26 24 15
c32 20 46 42 38 63 -8 20 -31 21 -47 1z"/>
<path d="M1275 170 c-4 -6 -3 -10 2 -9 23 4 24 -4 2 -28 l-24 -27 25 16 c29
18 40 58 16 58 -8 0 -18 -5 -21 -10z"/>
<path d="M228 139 c-32 -16 -58 -34 -58 -39 0 -6 3 -10 6 -10 14 0 114 62 114
71 0 11 5 13 -62 -22z"/>
</g>
</svg>
