<?xml version="1.0" standalone="no"?>
<!DOCTYPE svg PUBLIC "-//W3C//DTD SVG 20010904//EN"
 "http://www.w3.org/TR/2001/REC-SVG-20010904/DTD/svg10.dtd">
<svg version="1.0" xmlns="http://www.w3.org/2000/svg"
 width="128.000000px" height="76.000000px" viewBox="0 0 128.000000 76.000000"
 preserveAspectRatio="xMidYMid meet">

<g transform="translate(0.000000,76.000000) scale(0.100000,-0.100000)"
fill="#000000" stroke="none">
<path d="M883 699 c-46 -21 -83 -44 -83 -50 0 -13 20 -7 105 32 38 17 65 35
65 44 0 8 -1 15 -2 14 -2 0 -40 -18 -85 -40z"/>
<path d="M473 694 c-7 -20 -4 -74 8 -179 25 -213 25 -231 -7 -251 -14 -10 -47
-19 -74 -22 -52 -5 -72 8 -111 68 -15 23 -17 24 -41 8 -13 -9 -42 -48 -62 -88
-21 -39 -45 -74 -53 -77 -10 -4 -25 4 -40 21 -19 22 -23 39 -24 94 -1 59 -2
63 -10 32 -17 -69 17 -176 58 -187 30 -7 44 7 67 67 16 42 61 100 77 100 3 0
12 -14 19 -30 15 -37 46 -60 78 -60 24 0 24 -2 17 -56 -8 -69 10 -104 55 -104
24 0 48 16 111 75 44 41 84 75 90 75 6 0 7 -19 3 -47 -8 -64 20 -103 73 -103
30 0 43 9 100 69 56 60 73 71 117 81 112 26 130 60 116 223 -6 62 -12 134 -15
160 -5 42 -4 48 12 45 23 -4 19 26 -8 64 -10 15 -19 32 -19 38 0 5 -4 10 -9
10 -17 0 -22 -37 -12 -101 15 -102 34 -347 27 -358 -4 -6 -26 -15 -49 -21 -98
-25 -126 -41 -182 -105 -57 -64 -96 -85 -121 -64 -31 25 -6 129 31 129 22 0
71 47 85 81 11 25 11 54 1 153 -6 66 -14 136 -18 154 -4 26 -2 31 10 26 14 -5
15 -1 8 24 -5 16 -15 41 -23 56 l-14 27 -12 -26 c-8 -18 -9 -38 -3 -68 15 -64
35 -321 28 -340 -7 -18 -15 -22 -101 -53 -34 -12 -75 -40 -129 -91 -63 -59
-84 -74 -105 -71 -30 3 -37 22 -27 75 5 29 13 37 50 53 33 14 49 29 65 61 21
40 21 47 11 158 -7 64 -14 136 -18 160 -4 31 -2 42 6 37 17 -11 13 34 -8 73
l-18 34 -10 -29z"/>
<path d="M604 685 c-18 -45 -18 -84 1 -91 18 -7 45 13 45 33 0 13 -3 13 -15 3
-27 -22 -37 2 -21 48 18 51 11 56 -10 7z"/>
<path d="M1110 691 c-6 -16 -9 -34 -6 -39 8 -13 36 -371 36 -467 1 -79 1 -80
17 -50 13 25 15 52 10 170 -4 77 -10 176 -13 220 -7 74 -6 79 9 66 23 -18 22
-3 -4 61 -27 70 -34 75 -49 39z"/>
<path d="M330 655 c-41 -18 -76 -41 -78 -49 -3 -12 8 -11 54 10 87 38 114 54
114 64 0 14 -7 12 -90 -25z"/>
<path d="M123 655 c-3 -9 -3 -39 -1 -66 5 -50 4 -52 -41 -96 -40 -39 -42 -43
-16 -30 17 8 46 31 64 51 25 26 40 34 54 30 23 -7 37 10 37 48 0 20 -10 34
-37 53 -44 29 -52 30 -60 10z m37 -65 c0 -5 -7 -7 -15 -4 -8 4 -12 10 -9 15 6
11 24 2 24 -11z m45 -11 c-9 -14 -34 2 -28 17 4 11 9 12 19 3 8 -6 11 -15 9
-20z"/>
<path d="M628 523 c-42 -20 -79 -42 -82 -50 -5 -11 -1 -13 17 -7 47 15 151 70
155 82 5 17 -3 15 -90 -25z"/>
<path d="M920 507 c0 -17 -5 -27 -15 -27 -8 0 -15 9 -15 21 0 11 -4 17 -10 14
-5 -3 -10 -17 -10 -31 0 -14 -4 -22 -10 -19 -5 3 -10 15 -10 26 0 11 -4 17
-10 14 -13 -8 -13 -62 0 -70 6 -4 19 -3 28 1 17 7 27 10 49 12 16 3 28 61 14
75 -8 8 -11 4 -11 -16z"/>
<path d="M258 454 c-13 -13 -19 -14 -37 -3 -18 12 -23 11 -37 -3 -32 -32 11
-75 44 -45 15 13 20 14 36 1 27 -19 35 -18 48 11 10 21 8 28 -8 40 -24 18 -26
18 -46 -1z"/>
<path d="M395 407 c-22 -58 -17 -82 15 -82 19 0 26 6 28 25 2 19 1 22 -7 10
-8 -11 -13 -12 -21 -4 -8 8 -9 22 -1 50 15 53 6 54 -14 1z"/>
<path d="M610 385 c-15 -18 -8 -40 19 -55 18 -9 23 -7 33 14 19 42 -23 76 -52
41z"/>
<path d="M862 368 c-17 -17 -15 -32 9 -54 20 -18 21 -18 35 1 17 23 18 37 2
53 -15 15 -31 15 -46 0z"/>
<path d="M249 130 c-69 -41 -102 -70 -80 -70 19 0 140 74 146 89 9 24 1 21
-66 -19z"/>
<path d="M948 149 c-22 -12 -23 -29 -3 -29 23 0 18 -18 -12 -46 l-28 -25 33
16 c36 17 58 54 49 79 -7 18 -15 19 -39 5z"/>
</g>
</svg>
