<?xml version="1.0" standalone="no"?>
<!DOCTYPE svg PUBLIC "-//W3C//DTD SVG 20010904//EN"
 "http://www.w3.org/TR/2001/REC-SVG-20010904/DTD/svg10.dtd">
<svg version="1.0" xmlns="http://www.w3.org/2000/svg"
 width="154.000000px" height="76.000000px" viewBox="0 0 154.000000 76.000000"
 preserveAspectRatio="xMidYMid meet">

<g transform="translate(0.000000,76.000000) scale(0.100000,-0.100000)"
fill="#000000" stroke="none">
<path d="M543 665 c-6 -17 -5 -26 27 -210 30 -177 25 -233 -24 -267 -21 -14
-111 -7 -152 11 -51 23 -76 74 -44 91 24 13 87 13 95 0 10 -17 25 -11 25 9 0
43 -70 68 -120 41 -16 -9 -19 -3 -24 63 -17 178 -35 267 -57 267 -12 0 -11
-16 15 -170 28 -167 30 -161 -78 -272 -72 -76 -100 -98 -120 -98 -43 0 -52 34
-26 102 11 30 29 63 40 73 11 10 20 26 20 37 0 16 -3 17 -20 6 -17 -11 -22
-10 -31 2 -9 14 -6 94 6 137 3 10 -2 2 -11 -17 -20 -42 -22 -143 -4 -165 10
-12 9 -24 -9 -64 -26 -62 -27 -91 0 -125 14 -18 30 -26 52 -26 27 0 44 13 114
87 45 48 83 85 85 83 2 -3 13 -23 24 -44 36 -68 68 -79 214 -72 149 6 223 19
307 53 l62 25 27 -21 c49 -39 157 -17 170 33 10 43 -20 126 -46 126 -16 0 -12
-28 10 -70 20 -39 20 -39 1 -50 -24 -12 -91 -13 -110 -1 -11 7 -11 16 4 54 17
44 17 47 -1 78 -25 42 -37 45 -64 17 -17 -19 -21 -33 -19 -77 3 -52 2 -54 -32
-71 -19 -10 -44 -21 -56 -24 -22 -7 -22 -6 -8 21 21 40 19 66 -8 91 -36 34
-71 28 -124 -21 l-46 -42 6 30 c5 26 -3 92 -29 254 -5 32 -4 42 4 37 19 -11
14 20 -9 58 -24 40 -27 42 -36 21z m407 -326 c9 -16 8 -25 -6 -40 -9 -10 -20
-19 -24 -19 -12 0 -30 49 -24 65 9 22 41 18 54 -6z m-200 -44 c17 -9 30 -20
30 -26 0 -5 -24 -21 -52 -34 -53 -24 -138 -47 -138 -38 0 10 64 78 89 95 32
22 35 22 71 3z"/>
<path d="M1286 655 c-4 -14 -4 -30 -1 -35 9 -14 45 -296 44 -339 l-1 -36 -7
35 c-10 50 -34 90 -76 130 -70 67 -180 194 -162 187 30 -11 15 15 -22 40 -59
40 -70 4 -18 -54 17 -21 82 -89 142 -153 77 -81 114 -128 122 -155 13 -40 13
-40 -30 -77 -23 -21 -68 -52 -100 -69 -32 -17 -56 -33 -53 -36 10 -11 131 39
159 65 15 15 39 50 53 79 l26 52 -17 128 c-9 71 -19 137 -22 147 -4 14 -1 18
11 13 9 -4 16 -1 16 5 0 11 -48 98 -54 98 -2 0 -7 -11 -10 -25z"/>
<path d="M1406 656 c-3 -13 -3 -37 0 -53 11 -58 41 -420 38 -453 l-4 -35 16
35 c15 31 15 51 5 175 -7 77 -15 164 -18 194 -5 40 -3 52 5 47 17 -10 15 11
-5 67 -19 53 -28 58 -37 23z"/>
<path d="M388 665 c-4 -4 0 -18 9 -31 9 -14 19 -39 23 -57 8 -32 8 -32 9 9 1
41 -26 93 -41 79z"/>
<path d="M695 650 c-7 -20 -8 -21 -26 -4 -11 9 -22 14 -27 10 -4 -4 0 -13 9
-19 8 -7 21 -21 27 -32 10 -19 12 -18 18 13 6 27 9 30 21 20 13 -10 15 -9 12
6 -6 28 -26 31 -34 6z"/>
<path d="M902 652 c-16 -31 -21 -67 -12 -82 8 -13 13 -13 37 0 39 22 44 72 9
88 -22 10 -27 9 -34 -6z m42 -38 c7 -18 -21 -31 -36 -16 -15 15 -2 43 16 36 8
-3 17 -12 20 -20z"/>
<path d="M1174 636 c-3 -14 -4 -33 -2 -43 5 -25 42 -24 47 2 3 16 1 17 -12 7
-20 -17 -31 0 -23 34 4 13 4 24 1 24 -2 0 -7 -11 -11 -24z"/>
<path d="M112 617 c-23 -64 16 -92 48 -35 11 21 12 32 4 45 -19 30 -39 26 -52
-10z m36 -15 c2 -7 -3 -12 -12 -12 -9 0 -16 7 -16 16 0 17 22 14 28 -4z"/>
<path d="M742 556 c-52 -30 -99 -59 -105 -65 -21 -21 16 -12 58 14 22 14 43
25 46 25 4 0 6 -15 5 -32 -1 -26 3 -33 18 -33 11 0 21 6 24 13 2 6 -3 12 -12
12 -17 0 -20 17 -10 45 4 9 24 25 45 36 22 11 39 24 39 29 0 16 -11 12 -108
-44z"/>
<path d="M460 494 c-6 -14 -10 -30 -10 -36 0 -5 -13 4 -30 22 -29 31 -50 33
-50 3 0 -8 9 -17 20 -20 12 -3 28 -19 36 -36 12 -23 18 -27 25 -16 5 8 9 24 9
36 0 27 19 41 31 22 14 -23 23 -1 11 26 -15 32 -30 32 -42 -1z"/>
<path d="M190 466 c-7 -25 -9 -49 -5 -55 9 -16 32 -13 39 5 9 23 8 24 -11 17
-14 -5 -15 -1 -9 35 8 55 2 53 -14 -2z"/>
<path d="M891 492 c-7 -13 -7 -22 1 -30 17 -17 35 -15 42 4 8 22 8 22 -14 34
-15 8 -21 6 -29 -8z"/>
<path d="M1017 463 c-13 -12 -7 -41 9 -47 21 -8 21 -8 28 10 10 25 -20 55 -37
37z"/>
<path d="M1149 342 c-6 -22 -9 -48 -5 -57 8 -21 40 -15 44 8 2 11 -1 15 -11
11 -22 -8 -29 10 -17 42 6 15 8 29 6 31 -3 3 -10 -13 -17 -35z"/>
<path d="M1168 204 c-38 -19 -68 -39 -68 -44 0 -15 9 -13 77 23 35 17 63 38
63 45 0 15 7 17 -72 -24z"/>
<path d="M1364 183 c-16 -17 -16 -18 -1 -21 23 -5 21 -19 -4 -32 -24 -13 -20
-24 5 -14 32 12 54 84 26 84 -5 0 -16 -8 -26 -17z"/>
<path d="M238 143 c-60 -31 -84 -53 -60 -53 16 0 142 72 142 81 0 14 -10 11
-82 -28z"/>
<path d="M853 143 c-54 -30 -79 -53 -57 -53 13 0 144 75 144 83 0 14 -25 5
-87 -30z"/>
</g>
</svg>
