<?xml version="1.0" standalone="no"?>
<!DOCTYPE svg PUBLIC "-//W3C//DTD SVG 20010904//EN"
 "http://www.w3.org/TR/2001/REC-SVG-20010904/DTD/svg10.dtd">
<svg version="1.0" xmlns="http://www.w3.org/2000/svg"
 width="134.000000px" height="76.000000px" viewBox="0 0 134.000000 76.000000"
 preserveAspectRatio="xMidYMid meet">

<g transform="translate(0.000000,76.000000) scale(0.100000,-0.100000)"
fill="#000000" stroke="none">
<path d="M526 660 c-4 -14 -2 -64 3 -110 6 -47 11 -113 11 -147 0 -61 -1 -64
-32 -83 -48 -29 -69 -25 -100 20 -15 22 -32 40 -38 40 -15 0 -48 -40 -55 -68
-8 -34 23 -62 69 -62 72 0 51 -35 -46 -80 -129 -60 -237 -50 -256 23 -12 46 1
93 37 126 32 30 46 66 16 41 -8 -7 -22 -9 -31 -6 -13 5 -15 15 -10 47 4 23 13
54 22 70 8 16 12 29 9 29 -2 0 -15 -19 -27 -42 -15 -30 -23 -64 -24 -113 -2
-38 -6 -97 -10 -131 -6 -55 -4 -63 19 -89 22 -26 32 -30 93 -33 58 -3 79 0
126 21 80 36 127 73 136 111 6 21 19 36 41 47 18 9 41 26 51 39 l18 24 11 -40
c6 -22 25 -53 41 -69 29 -28 37 -30 124 -33 78 -3 104 0 167 21 l74 25 25 -23
c35 -33 70 -39 114 -21 56 23 59 41 44 219 -11 129 -12 157 -1 153 7 -3 13 1
13 10 0 20 -42 94 -54 94 -5 0 -6 -24 -3 -52 4 -29 14 -123 22 -208 l16 -155
-21 -17 c-30 -24 -82 -23 -105 2 -18 20 -18 21 3 36 45 31 34 135 -15 142 -31
4 -57 -48 -50 -100 5 -35 2 -40 -23 -53 -41 -21 -147 -45 -200 -45 -67 0 -125
30 -139 72 -14 43 -28 141 -37 252 -4 49 -10 101 -14 115 l-7 26 -7 -25z m496
-305 c8 -19 8 -28 -2 -40 -19 -22 -39 -18 -46 10 -13 53 26 78 48 30z m-632
-51 c0 -15 -10 -17 -34 -8 -19 7 -21 30 -3 37 15 6 37 -11 37 -29z"/>
<path d="M848 584 c-189 -96 -215 -116 -188 -149 14 -17 40 -20 40 -5 0 6 -7
13 -15 16 -8 4 -15 10 -15 15 0 5 88 53 195 106 178 89 218 114 183 113 -7 -1
-97 -44 -200 -96z"/>
<path d="M426 650 c-51 -20 -80 -40 -58 -40 16 0 115 40 127 51 15 15 -15 10
-69 -11z"/>
<path d="M695 655 c-16 -51 -15 -51 -39 -20 -15 19 -28 26 -39 22 -23 -9 -21
-28 3 -34 12 -3 28 -19 36 -35 18 -35 30 -30 38 17 7 35 20 46 29 23 7 -22 19
-1 12 21 -7 24 -33 28 -40 6z"/>
<path d="M1206 646 c-3 -14 -4 -30 -1 -38 10 -29 44 -445 38 -467 -4 -16 -3
-22 5 -18 20 13 23 84 7 250 -18 198 -18 200 -5 192 14 -9 13 3 -7 58 -19 53
-28 58 -37 23z"/>
<path d="M241 633 c-6 -12 -11 -30 -11 -40 0 -13 -7 -10 -30 15 -30 33 -50 35
-50 5 0 -8 9 -17 19 -20 11 -3 25 -18 31 -34 15 -35 26 -30 35 14 10 45 15 51
29 31 8 -11 15 -13 19 -7 4 6 -1 21 -12 34 l-18 23 -12 -21z"/>
<path d="M970 525 c-18 -21 16 -61 37 -44 19 16 16 37 -6 48 -14 8 -22 7 -31
-4z"/>
<path d="M343 465 c-4 -12 -13 -15 -30 -10 -16 4 -25 1 -30 -10 -9 -26 12 -41
39 -27 13 6 32 12 42 14 27 4 31 25 6 38 -16 9 -22 8 -27 -5z"/>
<path d="M756 400 c-20 -50 -20 -74 -1 -90 16 -14 30 -7 45 21 10 18 9 19 -14
13 -23 -5 -26 -3 -26 21 0 14 5 35 11 47 6 11 9 22 6 24 -2 3 -12 -13 -21 -36z"/>
<path d="M206 294 c-3 -9 -6 -31 -6 -51 0 -30 3 -34 22 -31 13 2 24 11 27 23
3 17 1 18 -13 6 -13 -11 -17 -11 -22 3 -3 9 -3 27 0 41 7 28 2 34 -8 9z"/>
<path d="M924 185 c-14 -11 -15 -14 -3 -9 31 10 34 -18 5 -43 -15 -12 -23 -23
-18 -23 18 0 65 59 59 74 -8 20 -18 20 -43 1z"/>
<path d="M443 148 c-66 -38 -88 -58 -64 -58 11 0 140 75 155 90 24 24 -23 8
-91 -32z"/>
<path d="M1157 183 c-9 -9 -9 -23 1 -22 21 4 23 -3 6 -23 l-19 -23 23 19 c24
21 30 56 9 56 -8 0 -17 -3 -20 -7z"/>
</g>
</svg>
