<?xml version="1.0" standalone="no"?>
<!DOCTYPE svg PUBLIC "-//W3C//DTD SVG 20010904//EN"
 "http://www.w3.org/TR/2001/REC-SVG-20010904/DTD/svg10.dtd">
<svg version="1.0" xmlns="http://www.w3.org/2000/svg"
 width="114.000000px" height="76.000000px" viewBox="0 0 114.000000 76.000000"
 preserveAspectRatio="xMidYMid meet">

<g transform="translate(0.000000,76.000000) scale(0.100000,-0.100000)"
fill="#000000" stroke="none">
<path d="M502 629 c-83 -44 -157 -89 -162 -100 -8 -13 -7 -25 0 -39 13 -24 30
-26 30 -5 0 8 -4 15 -10 15 -5 0 -10 6 -10 13 0 7 74 49 164 95 91 45 167 86
171 92 16 26 -42 3 -183 -71z"/>
<path d="M783 670 c-46 -21 -83 -44 -83 -50 0 -6 3 -10 8 -8 4 2 44 21 90 42
45 22 82 43 82 47 0 14 -9 11 -97 -31z"/>
<path d="M840 608 c0 -34 -17 -37 -23 -5 -4 19 -4 19 -6 -5 -1 -36 -19 -45
-30 -16 -9 21 -10 21 -10 -9 -1 -32 20 -46 34 -23 3 5 12 7 20 4 21 -8 41 38
26 62 -9 17 -10 16 -11 -8z"/>
<path d="M684 555 c-8 -42 10 -72 32 -54 19 16 17 27 -3 25 -14 -1 -17 6 -15
32 3 43 -5 41 -14 -3z"/>
<path d="M987 558 c-2 -7 2 -69 9 -138 7 -69 13 -161 14 -204 0 -64 3 -78 13
-68 14 15 15 86 3 231 -6 76 -5 102 3 97 16 -10 14 18 -6 59 -18 37 -28 43
-36 23z"/>
<path d="M900 518 c0 -18 7 -87 15 -153 8 -65 15 -123 15 -127 0 -12 -58 -9
-66 3 -3 6 -11 70 -16 143 -13 182 -30 189 -22 9 l7 -142 -27 -11 c-15 -5 -45
-10 -66 -10 l-39 0 15 28 c15 30 19 99 5 120 -9 15 -62 -61 -82 -116 -10 -30
-14 -32 -57 -32 -36 0 -52 6 -74 27 -15 15 -28 32 -28 38 0 7 -8 20 -19 29
-17 15 -19 15 -25 1 -3 -9 1 -27 10 -41 23 -34 9 -47 -79 -72 -103 -29 -162
-35 -218 -22 -84 20 -102 71 -44 123 19 17 35 40 35 50 0 19 -1 19 -19 3 -18
-17 -20 -17 -29 1 -6 12 -5 34 3 65 16 65 2 52 -20 -18 -12 -39 -15 -62 -8
-77 7 -15 5 -30 -4 -47 -7 -14 -13 -41 -13 -62 0 -29 7 -42 32 -63 31 -26 35
-27 133 -23 103 5 212 33 247 65 15 13 19 13 40 -1 12 -9 37 -16 55 -16 36 0
73 -26 73 -51 0 -9 9 -28 21 -43 24 -31 64 -34 79 -7 13 25 13 68 0 76 -21 13
-8 22 36 29 26 3 52 11 59 16 9 7 16 6 25 -5 7 -8 27 -15 45 -15 49 0 58 31
45 150 -12 120 -12 133 0 125 16 -10 12 24 -7 56 -23 38 -33 37 -33 -3z m-190
-215 c0 -21 -29 -53 -47 -53 -10 0 -8 10 9 39 22 39 38 45 38 14z m-10 -158
c28 -30 20 -42 -18 -29 -16 6 -28 18 -30 32 -5 30 18 28 48 -3z"/>
<path d="M545 520 c-3 -5 -1 -10 4 -10 6 0 11 -4 11 -10 0 -5 -8 -7 -17 -3
-15 5 -16 3 -6 -7 10 -11 9 -19 -10 -38 l-22 -25 23 12 c12 6 22 16 22 22 0 6
9 8 23 4 18 -6 20 -5 10 6 -7 7 -13 23 -13 36 0 24 -14 31 -25 13z"/>
<path d="M571 428 c-1 -29 12 -37 25 -16 4 6 3 8 -4 4 -6 -3 -12 3 -15 16 -4
20 -4 19 -6 -4z"/>
<path d="M280 402 l-10 -40 -31 31 c-28 27 -32 29 -41 14 -11 -21 -2 -37 22
-37 11 0 23 -12 30 -32 l13 -33 14 50 c18 59 21 64 33 45 5 -8 12 -11 17 -7 8
9 -8 39 -25 45 -6 2 -16 -15 -22 -36z"/>
<path d="M489 146 c9 -11 6 -18 -15 -35 -31 -25 -24 -28 11 -5 28 18 34 54 9
54 -13 0 -14 -3 -5 -14z"/>
<path d="M835 150 c-3 -5 1 -10 9 -10 22 0 20 -9 -6 -38 -23 -26 -8 -21 25 6
23 21 22 52 -2 52 -11 0 -23 -4 -26 -10z"/>
<path d="M301 107 c-16 -16 -13 -35 8 -46 14 -8 22 -7 30 3 22 26 -14 67 -38
43z"/>
</g>
</svg>
