<?xml version="1.0" standalone="no"?>
<!DOCTYPE svg PUBLIC "-//W3C//DTD SVG 20010904//EN"
 "http://www.w3.org/TR/2001/REC-SVG-20010904/DTD/svg10.dtd">
<svg version="1.0" xmlns="http://www.w3.org/2000/svg"
 width="140.000000px" height="76.000000px" viewBox="0 0 140.000000 76.000000"
 preserveAspectRatio="xMidYMid meet">

<g transform="translate(0.000000,76.000000) scale(0.100000,-0.100000)"
fill="#000000" stroke="none">
<path d="M524 655 c-4 -10 -2 -52 5 -94 6 -42 14 -119 18 -172 6 -93 5 -96
-18 -112 -39 -28 -96 -18 -126 22 -7 9 -13 11 -13 5 0 -7 -17 -15 -37 -19 -43
-8 -71 -26 -162 -107 -66 -59 -87 -68 -109 -46 -24 24 -1 128 29 128 16 0 59
48 59 66 0 16 -1 16 -14 -1 -17 -24 -46 -13 -46 18 0 13 13 50 28 80 16 31 23
52 16 46 -29 -24 -65 -116 -63 -160 1 -26 -5 -57 -14 -76 -25 -47 -22 -108 5
-127 38 -27 64 -19 125 37 87 80 113 97 144 97 24 0 29 -4 29 -23 0 -25 28
-57 49 -57 6 0 14 14 18 30 5 25 10 30 35 30 19 0 39 10 57 28 l27 27 24 -29
c13 -16 40 -35 59 -43 53 -22 194 -12 298 21 l82 26 37 -25 c51 -34 89 -33
125 6 35 37 35 51 9 223 -11 71 -20 130 -20 132 0 2 7 1 15 -2 21 -8 19 5 -9
51 -38 63 -41 28 -13 -177 17 -124 22 -186 16 -195 -18 -21 -68 -26 -95 -8
l-25 16 21 26 c24 31 26 80 4 111 -21 31 -41 28 -65 -10 -14 -24 -19 -44 -15
-71 4 -35 2 -39 -28 -51 -62 -26 -169 -47 -240 -48 -124 -1 -159 32 -176 169
-5 43 -14 121 -20 173 -12 101 -16 113 -26 85z m561 -295 c7 -23 -10 -50 -31
-50 -15 0 -29 43 -19 59 11 18 43 12 50 -9z"/>
<path d="M732 658 c-7 -7 -12 -23 -12 -37 -1 -26 -1 -26 -29 8 -19 23 -33 32
-45 28 -23 -9 -20 -26 9 -37 13 -5 32 -24 41 -42 16 -30 18 -31 25 -13 4 11 8
30 8 43 1 19 5 22 21 17 14 -4 20 -2 20 8 0 23 -24 39 -38 25z"/>
<path d="M885 589 c-209 -94 -245 -117 -245 -159 0 -26 22 -50 44 -50 12 0 5
24 -11 43 -17 18 -17 19 1 32 10 8 102 51 205 96 188 83 211 94 211 110 0 17
-26 8 -205 -72z"/>
<path d="M1257 650 c-3 -11 -1 -35 3 -53 5 -17 16 -111 26 -207 10 -96 21
-186 24 -200 l7 -25 7 26 c6 22 -12 227 -30 338 -4 28 -3 33 10 28 22 -9 20
15 -4 63 -24 48 -36 56 -43 30z"/>
<path d="M336 644 c-9 -8 -16 -21 -16 -27 0 -8 4 -7 12 1 14 14 58 16 58 4 0
-5 -10 -14 -22 -20 l-23 -11 22 0 c28 -1 79 42 69 57 -11 18 -82 15 -100 -4z"/>
<path d="M170 610 c-23 -56 14 -84 46 -35 16 24 16 27 -1 45 -24 27 -30 25
-45 -10z m38 -18 c2 -7 -3 -12 -12 -12 -9 0 -16 7 -16 16 0 17 22 14 28 -4z"/>
<path d="M1036 525 c-5 -13 -10 -14 -27 -4 -17 9 -25 8 -38 -6 -15 -15 -15
-17 3 -31 17 -12 22 -12 35 0 12 11 21 12 34 5 13 -8 22 -7 33 2 13 10 12 14
-2 30 -21 23 -30 24 -38 4z"/>
<path d="M326 494 c-8 -21 1 -34 23 -34 12 0 26 -14 37 -37 l18 -38 9 35 c17
65 16 63 32 50 12 -10 15 -10 15 1 0 8 -4 20 -9 28 -14 21 -41 -4 -41 -38 0
-25 0 -25 -31 12 -34 41 -44 45 -53 21z"/>
<path d="M841 419 c-15 -44 -14 -75 5 -93 12 -12 20 -13 35 -6 24 13 27 52 3
43 -22 -8 -35 16 -28 55 8 41 -1 41 -15 1z"/>
<path d="M530 210 c-10 -6 -11 -10 -2 -10 19 0 14 -21 -10 -48 l-23 -25 33 19
c33 19 48 46 37 64 -8 12 -16 12 -35 0z"/>
<path d="M1000 201 c0 -5 6 -11 13 -14 8 -3 4 -13 -12 -31 -14 -14 -20 -26
-14 -26 15 0 53 45 53 63 0 10 -8 17 -20 17 -11 0 -20 -4 -20 -9z"/>
</g>
</svg>
