<?xml version="1.0" standalone="no"?>
<!DOCTYPE svg PUBLIC "-//W3C//DTD SVG 20010904//EN"
 "http://www.w3.org/TR/2001/REC-SVG-20010904/DTD/svg10.dtd">
<svg version="1.0" xmlns="http://www.w3.org/2000/svg"
 width="144.000000px" height="76.000000px" viewBox="0 0 144.000000 76.000000"
 preserveAspectRatio="xMidYMid meet">

<g transform="translate(0.000000,76.000000) scale(0.100000,-0.100000)"
fill="#000000" stroke="none">
<path d="M167 690 c-27 -22 -36 -50 -16 -50 6 0 8 -8 4 -19 -6 -19 -5 -19 32
0 20 10 45 19 55 19 9 0 20 5 23 10 4 6 -13 10 -44 10 -54 0 -79 17 -34 22 16
2 27 7 26 13 -3 18 -19 16 -46 -5z"/>
<path d="M622 550 c-284 -98 -324 -121 -277 -160 20 -16 32 -5 16 14 -7 8 -10
19 -7 25 4 5 104 42 224 81 239 80 312 108 312 121 0 13 10 16 -268 -81z"/>
<path d="M399 591 c-7 -23 -15 -41 -18 -41 -4 0 -15 13 -24 29 -18 31 -49 47
-67 36 -18 -11 -11 -23 21 -34 20 -7 35 -21 42 -41 15 -39 29 -34 46 19 10 31
16 40 24 32 18 -18 29 -13 25 11 -6 41 -36 34 -49 -11z"/>
<path d="M965 610 c-17 -19 -15 -50 4 -50 18 0 21 18 5 24 -15 6 -15 8 1 26
10 11 16 20 13 20 -3 0 -13 -9 -23 -20z"/>
<path d="M1115 579 c-265 -81 -555 -181 -578 -200 -36 -28 -14 -31 44 -5 30
13 191 67 359 121 274 87 353 117 339 129 -2 2 -76 -19 -164 -45z"/>
<path d="M184 598 c-10 -17 -5 -385 6 -414 11 -28 74 -49 122 -40 19 3 47 20
63 36 l28 29 29 -24 c77 -65 269 -77 490 -31 70 14 130 26 133 26 3 0 5 -8 5
-18 0 -29 21 -42 67 -42 29 0 48 6 61 20 18 19 18 19 59 -1 46 -23 80 -16 107
23 18 26 21 74 5 83 -16 10 -24 -3 -24 -38 0 -28 -4 -32 -28 -35 -37 -4 -67
22 -59 51 4 17 -4 12 -35 -21 -30 -31 -48 -42 -69 -42 -36 0 -54 16 -54 48 0
21 -4 23 -22 18 -170 -50 -329 -69 -449 -56 -108 12 -161 37 -178 84 -7 16
-12 14 -56 -24 -47 -41 -51 -42 -99 -36 -27 3 -55 11 -62 18 -8 9 -13 72 -16
205 -1 106 -6 193 -10 193 -4 0 -10 -5 -14 -12z"/>
<path d="M1277 500 c-44 -52 -47 -122 -6 -135 27 -9 69 20 69 47 0 20 -1 20
-20 3 -23 -21 -50 -13 -50 15 0 11 9 39 20 60 24 48 21 50 -13 10z"/>
<path d="M65 467 c-9 -18 -16 -42 -14 -52 5 -24 48 -33 60 -13 14 22 10 29
-11 18 -27 -14 -37 11 -21 47 17 38 7 38 -14 0z"/>
<path d="M1062 379 l-18 -41 -27 36 c-29 38 -61 47 -71 21 -4 -11 3 -17 24
-21 20 -5 34 -16 45 -40 21 -44 31 -43 45 4 13 39 30 65 30 44 0 -7 7 -12 15
-12 18 0 20 21 3 38 -20 20 -28 14 -46 -29z"/>
<path d="M735 356 c-25 -38 -30 -90 -10 -109 22 -23 52 -21 65 2 16 30 13 46
-5 31 -36 -30 -57 16 -35 74 12 33 5 33 -15 2z"/>
<path d="M377 112 c-13 -14 -14 -21 -5 -30 17 -17 43 -15 58 3 11 13 10 18 -6
30 -25 19 -28 18 -47 -3z"/>
<path d="M965 120 c-3 -5 1 -10 10 -10 27 0 11 -24 -26 -38 l-34 -13 39 5 c48
6 81 33 65 53 -13 15 -45 17 -54 3z"/>
</g>
</svg>
