<?xml version="1.0" standalone="no"?>
<!DOCTYPE svg PUBLIC "-//W3C//DTD SVG 20010904//EN"
 "http://www.w3.org/TR/2001/REC-SVG-20010904/DTD/svg10.dtd">
<svg version="1.0" xmlns="http://www.w3.org/2000/svg"
 width="139.000000px" height="76.000000px" viewBox="0 0 139.000000 76.000000"
 preserveAspectRatio="xMidYMid meet">

<g transform="translate(0.000000,76.000000) scale(0.100000,-0.100000)"
fill="#000000" stroke="none">
<path d="M610 624 c-167 -88 -237 -131 -244 -150 -10 -27 -7 -51 9 -64 21 -18
32 -4 17 21 -10 16 -10 24 -2 35 7 7 89 55 184 105 94 50 178 97 186 105 35
34 -31 11 -150 -52z"/>
<path d="M1037 683 c-11 -11 -8 -97 8 -230 18 -144 17 -147 -52 -139 -29 4
-45 1 -54 -10 -17 -20 -5 -29 66 -44 33 -7 66 -16 74 -20 24 -13 -25 -32 -94
-38 -58 -4 -64 -3 -88 23 l-25 28 -48 -32 c-63 -41 -85 -46 -122 -27 -46 24
-47 33 -2 56 77 39 37 80 -77 80 -63 0 -117 -20 -132 -49 -11 -19 -9 -20 17
-15 19 4 35 0 52 -14 l25 -20 -30 -12 c-16 -6 -54 -16 -82 -22 -70 -14 -105 1
-150 64 -32 45 -37 48 -55 36 -11 -8 -40 -45 -63 -83 -23 -39 -49 -71 -57 -73
-19 -4 -39 20 -48 61 -7 27 -8 28 -9 7 0 -14 8 -44 19 -68 30 -65 55 -56 105
38 22 41 48 76 57 78 11 2 26 -11 42 -35 38 -57 77 -77 134 -68 26 4 74 17
107 30 l61 23 45 -34 c36 -29 50 -34 81 -30 20 2 51 14 68 26 l30 21 0 -30 c0
-29 29 -71 49 -71 5 0 14 13 19 28 8 25 17 30 55 35 24 4 92 22 150 42 136 45
137 45 137 -6 0 -46 14 -45 24 2 3 17 16 39 28 49 l23 19 -22 1 c-13 0 -23 3
-23 8 0 4 -7 72 -15 152 -17 176 -17 173 -5 165 16 -10 12 19 -9 66 -16 34
-21 40 -27 26 -5 -15 5 -180 23 -351 l6 -59 -75 6 c-41 4 -81 9 -89 12 -10 4
-14 26 -14 88 0 45 -4 118 -9 162 -8 76 -8 79 9 65 17 -14 17 -13 10 10 -8 28
-34 80 -39 80 -1 0 -6 -3 -9 -7z m-379 -393 c18 0 15 -18 -6 -29 -14 -7 -25
-6 -41 5 -26 18 -17 38 13 30 11 -3 27 -6 34 -6z"/>
<path d="M185 658 c-8 -21 1 -38 20 -38 8 0 22 -14 30 -30 19 -38 35 -30 35
16 0 36 8 42 28 22 13 -13 16 -1 6 26 -14 36 -44 11 -44 -36 0 -18 -5 -15 -34
18 -29 33 -35 36 -41 22z"/>
<path d="M384 625 c1 -29 6 -41 19 -43 10 -2 17 3 17 12 0 9 -6 13 -14 10 -11
-4 -16 4 -19 28 -4 28 -4 27 -3 -7z"/>
<path d="M913 605 c2 -20 37 -35 37 -16 0 6 -6 11 -14 11 -8 0 -17 6 -20 13
-3 6 -5 3 -3 -8z"/>
<path d="M798 534 c-9 -19 -9 -30 0 -44 9 -16 8 -24 -11 -47 -48 -59 -49 -66
-6 -25 25 23 51 42 58 42 8 0 11 6 7 16 -3 9 -6 31 -6 50 0 42 -25 47 -42 8z
m32 -20 c0 -17 -22 -14 -28 4 -2 7 3 12 12 12 9 0 16 -7 16 -16z"/>
<path d="M919 513 c-7 -20 -7 -33 0 -45 17 -27 14 -35 -31 -85 -25 -26 -34
-41 -22 -35 11 6 36 28 55 49 20 22 42 37 52 35 18 -4 23 13 7 23 -5 3 -10 24
-10 46 0 32 -3 39 -20 39 -13 0 -24 -10 -31 -27z m41 -19 c0 -16 -16 -19 -25
-4 -8 13 4 32 16 25 5 -4 9 -13 9 -21z"/>
<path d="M609 504 c-15 -40 -15 -92 -1 -106 17 -17 46 2 49 33 1 13 0 18 -3
12 -3 -7 -14 -13 -25 -13 -22 0 -25 24 -9 66 6 15 8 29 6 32 -3 3 -10 -8 -17
-24z"/>
<path d="M88 473 c-28 -66 -35 -135 -14 -152 9 -7 16 -23 17 -35 0 -14 2 -16
6 -6 3 8 17 28 29 43 24 29 31 57 15 57 -5 0 -11 -7 -15 -15 -8 -21 -33 -19
-41 4 -6 19 10 101 27 134 5 9 6 17 3 17 -3 0 -15 -21 -27 -47z"/>
<path d="M1146 474 c-3 -9 -6 -31 -6 -50 0 -27 4 -34 19 -34 10 0 22 7 25 16
9 22 8 23 -16 16 -19 -5 -21 -2 -15 31 6 39 3 48 -7 21z"/>
<path d="M276 441 c-4 -6 -19 -8 -35 -5 -33 7 -49 -17 -25 -37 11 -9 20 -9 37
-1 12 6 31 11 42 9 14 -1 20 4 20 18 0 21 -29 33 -39 16z"/>
<path d="M473 385 c2 -23 7 -30 22 -30 12 0 21 8 22 20 2 11 0 14 -3 8 -9 -21
-32 -15 -37 10 -4 15 -5 12 -4 -8z"/>
<path d="M253 122 c-35 -20 -63 -40 -63 -44 0 -11 88 34 120 61 38 32 12 24
-57 -17z"/>
<path d="M586 151 c-4 -5 0 -11 6 -14 10 -3 8 -11 -7 -28 -17 -21 -15 -20 9 2
16 15 25 32 22 38 -9 13 -23 14 -30 2z"/>
<path d="M1089 144 c-11 -14 -10 -18 6 -30 11 -8 24 -13 30 -11 16 6 18 39 3
48 -18 12 -24 11 -39 -7z"/>
</g>
</svg>
