<?xml version="1.0" standalone="no"?>
<!DOCTYPE svg PUBLIC "-//W3C//DTD SVG 20010904//EN"
 "http://www.w3.org/TR/2001/REC-SVG-20010904/DTD/svg10.dtd">
<svg version="1.0" xmlns="http://www.w3.org/2000/svg"
 width="99.000000px" height="76.000000px" viewBox="0 0 99.000000 76.000000"
 preserveAspectRatio="xMidYMid meet">

<g transform="translate(0.000000,76.000000) scale(0.100000,-0.100000)"
fill="#000000" stroke="none">
<path d="M751 722 c-9 -17 -7 -27 9 -54 11 -18 20 -48 20 -66 0 -39 15 -35 23
7 7 32 -6 88 -27 116 -13 18 -14 18 -25 -3z"/>
<path d="M474 695 c-31 -76 -3 -119 53 -80 32 22 35 64 7 92 -31 31 -42 29
-60 -12z m51 -35 c0 -22 -39 -19 -43 3 -3 15 1 18 20 15 12 -2 23 -10 23 -18z"/>
<path d="M268 668 l-14 -53 -22 41 c-21 41 -45 59 -63 48 -17 -10 -9 -29 21
-46 20 -11 33 -28 36 -48 12 -59 35 -43 48 34 6 29 10 36 19 27 16 -16 27 -14
27 7 0 18 -18 42 -31 42 -3 0 -13 -24 -21 -52z"/>
<path d="M657 562 c-65 -34 -149 -41 -195 -16 l-34 18 -19 -24 c-22 -29 -25
-48 -5 -31 10 8 22 7 49 -4 46 -19 80 -19 146 1 47 14 123 66 111 77 -3 2 -27
-7 -53 -21z"/>
<path d="M838 535 c-3 -14 7 -61 23 -108 16 -45 27 -88 24 -94 -7 -19 -71 -16
-90 3 -9 9 -14 23 -11 30 10 25 -13 14 -26 -12 -18 -38 -48 -54 -77 -43 -20 8
-22 14 -17 39 6 33 -9 42 -19 11 -7 -23 -70 -52 -115 -53 -27 -1 -40 6 -66 38
l-33 38 -6 -27 c-5 -18 1 -48 19 -93 31 -77 35 -71 -79 -129 -158 -79 -315
-42 -315 76 0 50 8 69 31 69 25 0 66 40 73 73 7 32 -4 36 -22 7 -17 -27 -41
-25 -52 5 -9 25 8 114 31 157 6 11 8 22 5 25 -3 3 -20 -25 -38 -62 -25 -55
-32 -84 -34 -144 -2 -42 -9 -99 -15 -127 -11 -47 -11 -55 12 -100 31 -63 76
-87 164 -86 148 0 285 94 285 197 0 22 4 25 38 25 20 0 52 9 71 21 l33 20 15
-20 c21 -31 67 -27 91 6 l19 26 23 -21 c30 -28 83 -29 110 -2 32 32 35 65 11
126 -25 66 -26 78 -6 70 21 -8 19 6 -7 44 -29 43 -44 47 -50 15z"/>
<path d="M255 456 c-19 -45 -16 -75 8 -90 15 -9 21 -7 33 8 20 28 17 39 -6 26
-27 -14 -38 12 -22 53 17 45 5 47 -13 3z"/>
<path d="M564 175 c-19 -14 -19 -14 3 -15 50 0 37 -36 -26 -71 -36 -20 -36
-20 -6 -14 39 9 95 51 95 74 0 19 -18 41 -35 41 -6 0 -20 -7 -31 -15z"/>
<path d="M815 170 c-16 -18 -20 -19 -35 -5 -23 21 -46 19 -64 -7 -18 -25 -7
-53 26 -64 16 -5 26 -1 37 15 l14 22 24 -23 25 -23 24 29 25 28 -22 24 c-27
29 -31 29 -54 4z"/>
</g>
</svg>
