<?xml version="1.0" standalone="no"?>
<!DOCTYPE svg PUBLIC "-//W3C//DTD SVG 20010904//EN"
 "http://www.w3.org/TR/2001/REC-SVG-20010904/DTD/svg10.dtd">
<svg version="1.0" xmlns="http://www.w3.org/2000/svg"
 width="144.000000px" height="76.000000px" viewBox="0 0 144.000000 76.000000"
 preserveAspectRatio="xMidYMid meet">

<g transform="translate(0.000000,76.000000) scale(0.100000,-0.100000)"
fill="#000000" stroke="none">
<path d="M535 646 c-222 -99 -308 -147 -319 -178 -7 -19 -6 -31 4 -43 18 -22
35 -3 21 23 -10 18 -5 24 42 50 45 26 226 108 365 167 23 10 42 24 42 32 0 7
-3 13 -7 12 -5 0 -71 -29 -148 -63z"/>
<path d="M900 641 c-343 -149 -390 -172 -390 -192 0 -15 9 -12 226 84 105 46
201 88 214 92 22 7 22 7 6 -16 -32 -46 -10 -95 24 -54 10 12 10 15 -4 15 -39
0 -8 61 45 88 34 18 50 42 27 42 -7 0 -74 -27 -148 -59z"/>
<path d="M1215 629 c-148 -67 -179 -87 -183 -118 -3 -22 22 -61 40 -61 13 0 9
27 -7 40 -8 7 -15 17 -15 22 0 8 188 102 283 142 35 14 51 37 25 35 -7 0 -71
-27 -143 -60z"/>
<path d="M1256 561 c-4 -6 9 -26 28 -45 l34 -35 6 34 c5 25 11 33 21 28 11 -4
13 -1 9 11 -9 23 -28 15 -32 -13 l-4 -23 -28 27 c-17 16 -30 23 -34 16z"/>
<path d="M125 506 c-51 -78 -77 -185 -55 -226 7 -14 6 -36 -6 -79 -21 -74 -11
-121 27 -135 44 -15 76 1 151 80 78 81 129 114 178 114 26 0 30 -4 30 -26 0
-62 43 -86 62 -34 10 30 11 31 57 23 59 -10 131 -10 200 0 49 7 53 7 46 -10
-4 -10 -10 -39 -12 -64 -5 -41 -2 -48 22 -67 15 -12 40 -22 54 -22 26 0 101
43 101 58 0 4 21 29 46 54 34 35 64 53 120 74 40 14 83 24 94 21 11 -3 20 -1
20 4 0 5 17 17 38 27 66 30 69 61 14 115 -63 62 -106 44 -106 -44 l0 -48 -57
-20 c-78 -26 -141 -72 -188 -135 -61 -82 -130 -97 -147 -31 -11 45 24 96 95
135 70 40 96 76 87 121 -6 33 -34 79 -47 79 -15 0 -10 -47 9 -80 17 -30 17
-31 -8 -50 -50 -38 -132 -62 -231 -67 -115 -7 -192 9 -225 44 -22 23 -24 24
-46 9 -12 -9 -31 -16 -42 -16 -40 0 -107 -43 -178 -116 -115 -118 -158 -132
-158 -49 0 55 23 115 44 115 19 0 42 34 52 75 l7 30 -21 -25 c-17 -21 -24 -23
-39 -14 -26 16 -22 68 11 139 28 62 29 84 1 41z m1153 -127 c25 -22 23 -34 -8
-42 -14 -4 -25 2 -36 18 -28 43 5 61 44 24z"/>
<path d="M406 503 c-13 -27 -20 -55 -17 -80 2 -20 29 -15 41 6 14 28 13 36 -5
21 -23 -19 -30 12 -10 49 8 17 13 31 11 31 -3 0 -12 -12 -20 -27z"/>
<path d="M802 468 c-7 -7 -12 -25 -12 -40 0 -15 -2 -28 -5 -28 -3 0 -20 16
-38 37 -34 37 -57 38 -57 3 0 -11 11 -22 29 -28 17 -6 37 -24 47 -44 15 -30
18 -31 25 -13 4 11 8 35 8 53 1 34 9 40 29 20 9 -9 12 -7 12 9 0 28 -23 46
-38 31z"/>
<path d="M365 185 c-14 -13 -25 -31 -25 -40 0 -23 29 -30 48 -11 15 15 15 16
-1 16 -22 0 -22 18 0 42 24 27 6 22 -22 -7z"/>
<path d="M1336 183 c-6 -15 -8 -15 -17 -3 -8 13 -11 13 -19 -1 -6 -10 -18 -15
-32 -12 -14 3 -48 -8 -82 -26 -32 -17 -64 -31 -72 -31 -8 0 -14 -4 -14 -10 0
-17 20 -11 77 21 42 24 62 30 89 26 18 -3 36 -1 39 4 4 5 15 9 26 9 12 0 19 7
19 20 0 25 -6 26 -14 3z"/>
<path d="M647 133 c-14 -14 -20 -15 -41 -4 -44 24 -67 -21 -25 -47 18 -12 24
-11 37 1 13 14 18 14 37 1 19 -13 24 -12 38 4 16 17 16 20 -6 40 -21 20 -24
21 -40 5z"/>
</g>
</svg>
