<?xml version="1.0" standalone="no"?>
<!DOCTYPE svg PUBLIC "-//W3C//DTD SVG 20010904//EN"
 "http://www.w3.org/TR/2001/REC-SVG-20010904/DTD/svg10.dtd">
<svg version="1.0" xmlns="http://www.w3.org/2000/svg"
 width="112.000000px" height="76.000000px" viewBox="0 0 112.000000 76.000000"
 preserveAspectRatio="xMidYMid meet">

<g transform="translate(0.000000,76.000000) scale(0.100000,-0.100000)"
fill="#000000" stroke="none">
<path d="M723 664 c-46 -30 -66 -54 -47 -54 8 0 124 80 124 85 0 13 -30 1 -77
-31z"/>
<path d="M357 655 c-4 -11 -1 -81 7 -155 9 -90 10 -142 3 -155 -5 -11 -30 -41
-54 -67 -25 -25 -43 -51 -39 -56 3 -6 25 -13 49 -17 96 -15 99 -23 20 -58 -92
-40 -178 -51 -222 -27 -58 31 -63 130 -10 177 30 27 44 68 14 43 -37 -31 -47
37 -15 108 10 23 17 42 14 42 -3 0 -16 -25 -30 -55 -18 -40 -25 -70 -24 -112
0 -32 -2 -88 -6 -125 -5 -54 -3 -73 10 -93 33 -50 134 -52 263 -3 68 25 83 41
83 88 0 40 -11 50 -56 50 -29 0 -29 -1 -2 51 19 36 22 39 31 23 23 -45 50 -64
89 -64 47 0 164 54 170 78 5 18 4 18 -30 0 -20 -10 -52 -21 -71 -24 -29 -6
-38 -3 -58 20 -13 15 -23 36 -23 47 0 26 58 51 99 43 40 -8 40 1 0 21 -63 33
-134 -18 -127 -92 2 -17 0 -29 -5 -26 -21 13 -36 76 -47 193 -7 69 -16 134
-20 145 -7 20 -7 20 -13 0z"/>
<path d="M187 624 c-3 -4 5 -26 18 -49 16 -27 25 -57 25 -86 0 -32 3 -40 10
-29 18 28 12 115 -11 144 -21 26 -31 31 -42 20z"/>
<path d="M877 616 c-3 -8 1 -72 8 -143 8 -70 16 -156 17 -190 2 -61 1 -64 -37
-104 -22 -22 -69 -58 -105 -80 -71 -42 -70 -48 6 -23 107 36 157 104 158 214
1 36 -3 105 -7 154 -7 64 -6 87 2 82 19 -12 12 34 -10 70 -23 39 -25 39 -32
20z"/>
<path d="M746 604 c-18 -18 -21 -40 -6 -49 6 -4 8 -10 5 -15 -6 -10 70 22 83
34 4 5 -6 7 -23 6 -45 -3 -55 -1 -55 10 0 6 7 10 16 8 10 -2 19 3 21 10 7 17
-23 15 -41 -4z"/>
<path d="M995 598 c-8 -40 31 -467 40 -434 8 31 0 268 -11 326 -6 28 -5 32 9
27 10 -4 17 -3 17 2 0 12 -40 101 -45 101 -3 0 -7 -10 -10 -22z"/>
<path d="M439 570 c-16 -53 -2 -71 35 -46 31 20 35 61 7 76 -28 15 -29 14 -42
-30z m46 -10 c0 -8 -8 -16 -17 -18 -13 -2 -18 3 -18 18 0 15 5 20 18 18 9 -2
17 -10 17 -18z"/>
<path d="M620 581 c0 -26 26 -68 84 -139 35 -42 89 -112 120 -156 40 -56 56
-72 56 -56 0 31 -12 51 -113 184 -62 83 -83 116 -68 111 32 -10 25 2 -21 35
-43 31 -58 37 -58 21z"/>
<path d="M242 405 c-14 -31 -14 -36 -3 -54 8 -12 12 -12 25 -2 21 18 20 32 -1
24 -14 -5 -15 -1 -10 25 8 39 4 41 -11 7z"/>
<path d="M722 295 c-24 -51 -9 -90 22 -59 18 17 21 28 6 19 -19 -12 -30 5 -19
32 13 34 6 40 -9 8z"/>
<path d="M177 233 c-4 -3 -7 -22 -7 -40 0 -27 4 -34 17 -31 9 2 18 9 21 16 2
7 -2 11 -10 10 -8 -2 -13 7 -13 25 1 30 1 30 -8 20z"/>
<path d="M577 212 c-19 -21 -22 -42 -7 -42 5 0 0 -16 -12 -36 -18 -30 -19 -37
-7 -45 28 -18 80 -3 144 41 41 27 26 25 -31 -5 -51 -27 -71 -30 -94 -15 -12 9
-7 17 30 50 l45 40 -34 -7 c-24 -4 -32 -3 -27 5 4 6 13 9 21 5 9 -3 15 1 15
11 0 21 -23 20 -43 -2z"/>
<path d="M944 158 c-4 -6 -3 -8 4 -4 20 12 24 -15 6 -37 -12 -14 -8 -12 10 4
28 26 28 49 1 49 -8 0 -17 -5 -21 -12z"/>
</g>
</svg>
