<?xml version="1.0" standalone="no"?>
<!DOCTYPE svg PUBLIC "-//W3C//DTD SVG 20010904//EN"
 "http://www.w3.org/TR/2001/REC-SVG-20010904/DTD/svg10.dtd">
<svg version="1.0" xmlns="http://www.w3.org/2000/svg"
 width="152.000000px" height="76.000000px" viewBox="0 0 152.000000 76.000000"
 preserveAspectRatio="xMidYMid meet">

<g transform="translate(0.000000,76.000000) scale(0.100000,-0.100000)"
fill="#000000" stroke="none">
<path d="M962 683 c-22 -9 -34 -42 -20 -56 11 -11 19 -11 48 2 l35 16 -38 3
c-20 2 -35 7 -32 12 3 5 12 7 20 3 9 -3 15 1 15 11 0 16 -5 18 -28 9z"/>
<path d="M625 620 c-8 -16 -15 -36 -15 -45 0 -20 36 -20 44 1 4 12 2 15 -9 10
-18 -6 -20 16 -5 45 6 10 8 19 6 19 -3 0 -12 -13 -21 -30z"/>
<path d="M275 610 c-3 -5 -1 -38 4 -72 6 -35 13 -120 17 -189 7 -143 19 -175
77 -202 55 -27 165 -22 298 12 63 16 121 32 130 35 10 5 19 -1 26 -17 6 -13
20 -26 30 -29 29 -7 82 11 93 32 10 18 11 18 35 -6 29 -29 58 -31 85 -4 30 30
22 120 -10 120 -15 0 -12 -28 6 -55 14 -22 14 -24 -6 -35 -47 -25 -81 14 -95
113 -4 26 -12 50 -18 54 -6 4 -8 -21 -3 -76 l7 -81 -38 -16 c-43 -18 -66 -10
-71 25 -3 16 -9 21 -20 18 -9 -3 -57 -17 -107 -32 -117 -35 -275 -46 -323 -21
-56 29 -64 53 -78 229 -7 89 -13 172 -13 185 -1 23 -15 30 -26 12z"/>
<path d="M420 604 c0 -3 9 -17 20 -31 12 -16 20 -41 20 -65 0 -24 4 -37 10
-33 18 11 11 81 -11 109 -19 24 -39 34 -39 20z"/>
<path d="M1265 599 c-2 -8 4 -92 13 -187 23 -220 23 -221 -102 -296 -64 -38
-58 -46 16 -21 59 21 98 62 113 123 11 40 11 71 -1 173 -7 68 -14 127 -14 131
0 4 7 5 16 1 13 -5 15 -2 9 18 -12 37 -44 74 -50 58z"/>
<path d="M1393 595 c-6 -10 -6 -35 -2 -58 4 -23 16 -123 25 -221 15 -148 20
-174 27 -145 8 31 0 163 -20 306 -5 40 -4 46 10 40 24 -9 21 11 -7 56 -20 33
-25 37 -33 22z"/>
<path d="M980 582 c0 -9 57 -80 126 -157 70 -77 135 -158 145 -180 18 -40 19
-40 19 -10 0 46 -26 84 -133 200 -63 67 -92 105 -82 105 15 0 15 2 4 16 -12
14 -61 44 -74 44 -3 0 -5 -8 -5 -18z"/>
<path d="M176 574 c-10 -25 -7 -34 9 -28 9 4 15 1 15 -7 0 -9 3 -10 11 -2 8 8
8 17 0 32 -14 25 -27 27 -35 5z"/>
<path d="M650 497 c-167 -66 -236 -97 -238 -109 -3 -16 3 -15 50 6 29 13 136
54 238 91 183 67 210 79 210 96 0 17 -25 9 -260 -84z"/>
<path d="M77 573 c-13 -12 -7 -24 17 -33 15 -5 29 -23 37 -44 7 -20 16 -36 20
-36 10 0 23 60 15 67 -3 4 -6 -2 -6 -13 0 -13 -9 -5 -26 24 -24 39 -42 51 -57
35z"/>
<path d="M816 442 c-24 -53 -19 -87 14 -87 15 0 26 6 28 17 2 12 -2 15 -17 11
-17 -4 -21 -1 -21 21 0 15 5 36 11 48 6 11 9 22 6 24 -2 2 -12 -13 -21 -34z"/>
<path d="M1016 394 c-4 -10 -2 -22 3 -27 14 -14 43 0 39 20 -4 24 -34 28 -42
7z"/>
<path d="M676 364 c-4 -15 -5 -29 -1 -32 3 -3 5 3 5 13 0 13 3 15 13 6 19 -15
29 -3 16 20 -14 26 -26 24 -33 -7z"/>
<path d="M586 372 c-3 -6 6 -17 20 -27 14 -9 30 -30 36 -46 11 -32 28 -30 28
3 0 12 -3 18 -6 15 -4 -4 -14 8 -23 26 -16 32 -44 47 -55 29z"/>
<path d="M115 329 c-39 -35 -44 -58 -15 -77 12 -7 17 -18 13 -28 -5 -12 5 -10
43 10 27 14 54 26 60 26 7 0 15 7 18 15 5 13 -2 15 -42 10 -53 -6 -85 6 -65
26 9 9 16 9 28 -1 14 -12 18 -11 26 1 13 21 11 36 -7 43 -22 8 -19 9 -59 -25z"/>
<path d="M474 295 c1 -43 4 -50 21 -50 12 0 21 8 24 20 3 17 1 18 -13 6 -18
-15 -22 -9 -29 44 -3 17 -4 8 -3 -20z"/>
<path d="M181 165 c-41 -20 -72 -38 -69 -41 7 -6 148 52 163 67 19 19 -21 8
-94 -26z"/>
<path d="M1335 160 c-3 -5 1 -10 9 -10 25 0 19 -26 -11 -50 -16 -12 -19 -17
-8 -11 31 15 58 49 52 66 -7 17 -33 20 -42 5z"/>
<path d="M951 131 c-14 -26 12 -50 34 -31 20 17 19 27 -5 40 -15 8 -21 6 -29
-9z"/>
<path d="M757 123 c-13 -13 -19 -14 -31 -4 -17 15 -36 7 -36 -15 0 -20 27 -29
45 -14 12 10 18 10 31 0 12 -11 18 -11 30 2 13 13 12 16 -4 31 -17 15 -19 15
-35 0z"/>
</g>
</svg>
