<?xml version="1.0" standalone="no"?>
<!DOCTYPE svg PUBLIC "-//W3C//DTD SVG 20010904//EN"
 "http://www.w3.org/TR/2001/REC-SVG-20010904/DTD/svg10.dtd">
<svg version="1.0" xmlns="http://www.w3.org/2000/svg"
 width="113.000000px" height="76.000000px" viewBox="0 0 113.000000 76.000000"
 preserveAspectRatio="xMidYMid meet">

<g transform="translate(0.000000,76.000000) scale(0.100000,-0.100000)"
fill="#000000" stroke="none">
<path d="M511 696 c-9 -11 -9 -38 3 -125 14 -95 14 -117 2 -144 -14 -35 -73
-91 -113 -110 -29 -13 -43 1 -43 48 -1 69 -20 253 -31 289 -10 35 -12 37 -27
23 -14 -14 -14 -23 -4 -64 10 -41 32 -240 32 -295 0 -10 -17 -29 -38 -42 -22
-13 -65 -48 -98 -76 -71 -64 -116 -85 -144 -70 -12 6 -20 21 -20 36 0 40 48
121 80 134 25 11 50 46 50 72 0 6 -11 2 -23 -11 -30 -27 -57 -19 -57 19 0 15
18 56 41 91 40 62 40 63 10 34 -18 -16 -46 -59 -64 -94 -29 -60 -30 -65 -16
-90 14 -24 14 -29 -3 -56 -28 -46 -41 -105 -30 -131 12 -26 73 -49 107 -40 14
4 62 38 107 76 46 38 88 70 94 70 6 0 14 -13 17 -29 16 -77 84 -111 225 -111
82 0 285 30 338 50 45 17 74 50 74 83 0 36 -43 112 -71 128 -43 23 -109 -32
-109 -90 0 -23 18 -30 99 -33 31 -2 56 -8 58 -15 10 -30 -300 -90 -414 -80
-34 4 -80 15 -102 27 -39 19 -78 71 -67 89 6 10 103 37 166 46 142 21 224 54
239 97 16 44 15 46 -29 68 -50 25 -105 26 -155 0 -21 -11 -40 -19 -41 -17 -1
1 -5 39 -9 85 -7 80 -2 95 23 70 21 -21 13 5 -17 55 -23 40 -30 46 -40 33z
m209 -273 c33 -13 34 -15 16 -28 -20 -15 -119 -40 -205 -51 -67 -9 -63 1 27
61 72 49 85 50 162 18z m179 -116 c6 -8 8 -17 4 -20 -10 -11 -51 -8 -58 3 -17
27 33 42 54 17z"/>
<path d="M901 645 c-146 -52 -173 -68 -169 -97 2 -12 9 -23 17 -26 10 -3 12 2
7 21 -4 18 -1 27 12 32 53 21 235 85 243 85 4 0 6 -8 3 -17 -4 -14 -2 -13 7 2
7 11 20 25 28 32 32 24 -22 13 -148 -32z"/>
<path d="M1001 609 c-1 -20 24 -43 39 -34 17 10 11 25 -9 25 -11 0 -22 6 -24
13 -4 7 -6 6 -6 -4z"/>
<path d="M862 487 c-21 -22 -21 -23 -2 -35 26 -16 45 -15 60 3 10 13 10 19 -5
35 -23 25 -27 25 -53 -3z"/>
<path d="M616 252 c-55 -20 -101 -43 -104 -51 -5 -16 7 -13 125 31 46 17 88
37 94 44 18 22 -5 17 -115 -24z"/>
<path d="M268 128 c-41 -18 -63 -38 -41 -38 9 0 93 50 93 55 0 7 1 7 -52 -17z"/>
<path d="M267 94 c-27 -14 -47 -28 -44 -30 5 -6 107 43 107 51 0 9 -15 4 -63
-21z"/>
</g>
</svg>
