<?xml version="1.0" standalone="no"?>
<!DOCTYPE svg PUBLIC "-//W3C//DTD SVG 20010904//EN"
 "http://www.w3.org/TR/2001/REC-SVG-20010904/DTD/svg10.dtd">
<svg version="1.0" xmlns="http://www.w3.org/2000/svg"
 width="136.000000px" height="76.000000px" viewBox="0 0 136.000000 76.000000"
 preserveAspectRatio="xMidYMid meet">

<g transform="translate(0.000000,76.000000) scale(0.100000,-0.100000)"
fill="#000000" stroke="none">
<path d="M1074 685 c-4 -10 -2 -43 4 -74 18 -87 34 -241 30 -291 -4 -54 -27
-64 -64 -29 l-24 23 -29 -35 c-31 -36 -47 -33 -53 11 l-3 24 -33 -32 c-39 -38
-92 -45 -92 -12 0 27 -12 25 -51 -8 -25 -21 -43 -27 -79 -27 -57 0 -108 29
-90 50 7 8 27 17 46 21 32 6 54 28 54 53 0 30 -173 45 -257 22 -36 -10 -63
-34 -63 -55 0 -3 20 -6 44 -6 26 0 48 -6 56 -14 9 -12 2 -19 -42 -42 -29 -14
-81 -46 -116 -70 -78 -55 -115 -74 -141 -74 -46 0 -44 63 3 144 14 25 31 48
36 51 26 16 5 24 -48 19 -45 -5 -60 -3 -70 9 -11 13 -10 17 6 26 13 7 22 7 30
-1 16 -16 35 3 30 28 -5 27 -29 28 -68 2 -45 -31 -60 -70 -37 -96 10 -11 15
-26 11 -36 -8 -20 -6 -20 51 5 52 23 67 19 41 -10 -19 -21 -46 -101 -46 -137
0 -57 72 -72 136 -27 116 80 144 98 196 124 70 35 78 36 127 3 55 -36 107 -41
164 -16 39 17 48 18 58 6 13 -16 75 -19 84 -4 4 6 25 8 53 4 40 -5 50 -3 66
15 14 16 22 18 32 10 23 -19 84 -13 107 9 19 20 20 25 8 134 -6 62 -14 133
-18 158 -6 41 -5 44 11 31 9 -8 19 -11 23 -7 12 12 -17 82 -46 111 -28 26 -31
27 -37 10z m-506 -347 c-3 -7 -11 -13 -18 -13 -7 0 -15 6 -17 13 -3 7 4 12 17
12 13 0 20 -5 18 -12z"/>
<path d="M261 676 c-6 -7 -9 -20 -6 -27 4 -11 33 -370 35 -433 1 -6 7 1 15 16
12 22 13 47 5 145 -14 169 -13 203 5 203 22 0 18 26 -11 70 -15 22 -28 40 -29
40 -1 0 -8 -6 -14 -14z"/>
<path d="M1205 680 c-3 -6 1 -65 9 -133 8 -67 23 -187 31 -267 19 -168 29
-204 40 -149 4 21 -2 110 -14 212 -26 213 -26 228 -6 221 25 -10 18 28 -15 79
-31 50 -35 53 -45 37z"/>
<path d="M465 623 c-67 -34 -93 -55 -76 -61 8 -3 181 87 181 94 0 12 -43 -1
-105 -33z"/>
<path d="M589 580 c-74 -37 -141 -75 -148 -84 -14 -17 -7 -66 9 -66 14 0 13
23 -1 37 -9 9 27 31 140 88 84 41 149 80 146 85 -8 12 13 21 -146 -60z"/>
<path d="M962 595 c-13 -28 -14 -29 -27 -11 -14 18 -15 18 -26 -8 -14 -30 -24
-33 -39 -8 -9 14 -10 12 -8 -13 2 -22 9 -31 26 -33 12 -2 24 3 28 11 3 9 13
13 24 10 22 -6 43 27 38 60 -3 19 -4 19 -16 -8z"/>
<path d="M96 563 c-9 -18 -16 -48 -16 -68 0 -30 3 -35 24 -35 48 0 74 53 40
81 -9 7 -20 22 -24 33 -7 19 -9 18 -24 -11z m32 -61 c2 -7 -3 -12 -12 -12 -9
0 -16 7 -16 16 0 17 22 14 28 -4z"/>
<path d="M731 549 c-26 -74 -3 -148 37 -122 10 5 19 21 20 34 3 19 1 22 -9 12
-34 -33 -52 -5 -38 57 12 52 6 63 -10 19z"/>
<path d="M905 470 c-15 -16 -15 -22 -5 -35 16 -20 46 -19 54 1 10 25 7 33 -13
43 -14 8 -23 6 -36 -9z"/>
<path d="M872 408 c-16 -16 -15 -33 4 -49 12 -10 20 -10 35 -1 16 10 23 10 36
-4 16 -15 18 -15 35 6 17 21 18 24 2 42 -16 16 -19 17 -40 3 -19 -12 -24 -12
-34 0 -15 18 -22 19 -38 3z"/>
<path d="M483 188 c-4 -7 -8 -23 -8 -35 -1 -21 0 -21 30 -5 29 16 29 17 7 20
-19 3 -21 6 -11 18 7 9 8 14 1 14 -6 0 -14 -6 -19 -12z"/>
<path d="M1136 191 c-3 -5 3 -11 14 -14 27 -7 17 -30 -23 -50 -18 -9 -25 -16
-17 -16 8 -1 30 8 48 19 41 25 46 70 8 70 -14 0 -27 -4 -30 -9z"/>
<path d="M928 139 c-3 -8 -23 -14 -54 -15 -50 -1 -154 -33 -154 -46 0 -14 24
-8 77 17 43 19 63 23 103 18 49 -6 80 6 80 29 0 6 -7 5 -16 -3 -13 -10 -17
-10 -24 0 -6 11 -8 11 -12 0z"/>
<path d="M547 118 c-11 -5 -32 -8 -48 -6 -18 3 -28 1 -26 -6 6 -17 60 -18 81
-1 24 18 18 28 -7 13z"/>
</g>
</svg>
