<?xml version="1.0" standalone="no"?>
<!DOCTYPE svg PUBLIC "-//W3C//DTD SVG 20010904//EN"
 "http://www.w3.org/TR/2001/REC-SVG-20010904/DTD/svg10.dtd">
<svg version="1.0" xmlns="http://www.w3.org/2000/svg"
 width="150.000000px" height="76.000000px" viewBox="0 0 150.000000 76.000000"
 preserveAspectRatio="xMidYMid meet">

<g transform="translate(0.000000,76.000000) scale(0.100000,-0.100000)"
fill="#000000" stroke="none">
<path d="M584 636 c-50 -23 -77 -46 -54 -46 16 0 107 48 115 60 10 15 -5 12
-61 -14z"/>
<path d="M256 641 c-3 -5 1 -11 9 -15 8 -3 15 -1 15 4 0 13 -18 22 -24 11z"/>
<path d="M390 627 c0 -17 39 -71 121 -168 67 -78 128 -156 135 -173 11 -26 13
-27 14 -9 0 39 -17 66 -114 181 -53 63 -96 116 -96 119 0 3 8 2 17 -2 21 -8
-33 52 -59 66 -15 8 -18 6 -18 -14z"/>
<path d="M995 638 c-3 -8 3 -98 14 -199 l21 -184 -25 -37 -25 -38 -73 1 c-39
0 -92 6 -117 12 -39 11 -47 17 -57 50 -7 21 -20 106 -28 190 -9 84 -19 166
-22 182 l-7 30 -6 -30 c-3 -16 -2 -59 2 -95 4 -36 7 -109 7 -163 l1 -97 -40
-39 c-23 -22 -63 -54 -91 -71 -27 -18 -48 -34 -47 -36 2 -2 22 2 45 7 53 14
111 62 133 112 19 42 24 40 34 -9 11 -50 36 -65 127 -76 96 -13 314 2 396 27
82 24 89 45 74 215 -7 74 -15 144 -18 154 -4 14 -1 18 11 13 22 -9 20 11 -5
52 -34 57 -38 21 -18 -164 10 -93 18 -180 19 -192 0 -25 -32 -46 -90 -58 l-35
-7 22 23 c20 22 27 45 24 76 0 7 -19 18 -41 24 -42 13 -43 12 -111 -40 l-25
-20 -2 54 c-1 30 -6 92 -12 137 -14 111 -13 121 5 114 20 -7 19 -3 -10 51 -17
33 -26 42 -30 31z m191 -372 c19 -15 19 -15 -1 -30 -26 -19 -110 -46 -144 -46
-25 1 -24 3 22 45 52 48 87 57 123 31z"/>
<path d="M197 634 c-12 -12 -8 -24 7 -24 8 0 18 -9 21 -20 8 -27 25 -26 25 2
0 12 -3 19 -6 15 -4 -3 -14 3 -23 14 -9 11 -20 17 -24 13z"/>
<path d="M1383 624 c-6 -11 -7 -48 -2 -94 4 -41 10 -142 15 -224 5 -107 10
-143 17 -130 10 18 2 320 -10 351 -5 12 -2 15 10 10 21 -8 21 6 -2 62 -16 40
-19 43 -28 25z"/>
<path d="M885 599 c-4 -6 -1 -15 6 -20 21 -13 31 -11 27 8 -4 20 -24 28 -33
12z"/>
<path d="M1101 587 c-1 -22 3 -28 16 -25 9 2 18 9 21 16 2 7 -2 10 -11 6 -10
-3 -17 1 -20 13 -3 12 -5 8 -6 -10z"/>
<path d="M800 574 c0 -9 9 -18 19 -21 11 -3 25 -19 32 -35 11 -27 14 -29 20
-12 4 10 8 30 8 44 0 21 -2 22 -8 6 -7 -17 -9 -16 -24 8 -19 29 -47 35 -47 10z"/>
<path d="M1148 534 c-38 -19 -68 -39 -68 -44 0 -5 34 7 75 27 41 21 75 41 75
45 0 13 -11 9 -82 -28z"/>
<path d="M108 508 c-26 -42 -39 -84 -39 -129 1 -85 -1 -81 26 -63 13 8 28 29
34 46 11 30 10 30 -7 15 -14 -13 -21 -14 -30 -5 -17 17 -15 35 12 101 26 61
27 70 4 35z"/>
<path d="M260 500 c-8 -15 -6 -21 8 -29 13 -7 22 -7 29 0 8 8 17 8 31 0 15 -8
23 -7 33 5 10 12 9 18 -4 31 -13 14 -19 14 -32 3 -12 -10 -19 -10 -27 -2 -17
17 -26 15 -38 -8z"/>
<path d="M1163 436 c2 -36 -20 -46 -33 -14 -9 22 -10 21 -7 -7 2 -27 5 -30 40
-32 31 -1 40 3 49 22 7 16 7 28 -1 41 -9 17 -10 16 -11 -8 0 -16 -4 -28 -8
-28 -5 0 -13 12 -20 28 l-11 27 2 -29z"/>
<path d="M845 419 c-20 -37 -16 -103 5 -106 21 -4 36 8 45 35 6 21 5 22 -14
10 -33 -20 -44 0 -27 50 18 49 13 55 -9 11z"/>
<path d="M306 398 c-37 -60 -23 -94 39 -90 26 2 37 -3 45 -19 14 -25 3 -35
-77 -74 -144 -69 -233 -51 -246 50 -2 17 -5 5 -6 -26 -1 -43 4 -63 18 -80 44
-55 242 -13 307 65 22 25 25 37 22 78 -5 50 -47 118 -73 118 -8 0 -21 -10 -29
-22z m36 -46 c-27 -4 -37 2 -27 17 4 8 13 7 28 -1 l22 -13 -23 -3z"/>
<path d="M495 330 c-28 -53 -11 -101 23 -66 15 15 15 16 -6 16 -26 0 -27 11
-7 50 9 17 13 30 11 30 -3 0 -12 -13 -21 -30z"/>
<path d="M200 311 c-17 -32 -12 -61 9 -61 10 0 21 7 24 14 4 10 1 13 -7 10
-20 -8 -29 12 -16 36 6 11 8 20 6 20 -3 0 -10 -9 -16 -19z"/>
<path d="M396 166 c-44 -23 -82 -47 -84 -53 -2 -7 0 -13 5 -13 18 1 167 86
171 98 5 17 -3 14 -92 -32z"/>
</g>
</svg>
