<?xml version="1.0" standalone="no"?>
<!DOCTYPE svg PUBLIC "-//W3C//DTD SVG 20010904//EN"
 "http://www.w3.org/TR/2001/REC-SVG-20010904/DTD/svg10.dtd">
<svg version="1.0" xmlns="http://www.w3.org/2000/svg"
 width="164.000000px" height="76.000000px" viewBox="0 0 164.000000 76.000000"
 preserveAspectRatio="xMidYMid meet">

<g transform="translate(0.000000,76.000000) scale(0.100000,-0.100000)"
fill="#000000" stroke="none">
<path d="M710 641 c-5 -11 -10 -33 -10 -50 0 -24 4 -31 19 -31 10 0 22 7 25
16 9 23 8 24 -11 17 -14 -5 -15 -1 -10 30 6 41 3 46 -13 18z"/>
<path d="M909 621 c-135 -60 -209 -108 -209 -136 0 -13 5 -27 11 -30 16 -10
23 3 10 18 -13 16 -1 29 65 70 36 22 178 87 191 87 3 0 2 -8 -2 -17 -20 -49
-23 -72 -11 -88 12 -16 13 -16 29 0 23 22 21 34 -3 28 -25 -7 -26 15 -4 58 8
17 14 34 12 39 -2 5 -42 -8 -89 -29z"/>
<path d="M1268 638 c-27 -11 -48 -24 -48 -29 0 -13 3 -12 65 17 83 39 68 50
-17 12z"/>
<path d="M1375 638 c-3 -13 6 -88 20 -168 35 -202 32 -264 -8 -166 -10 23 -58
88 -107 142 -59 65 -84 100 -75 102 28 6 15 22 -37 47 -62 30 -58 29 -58 6 0
-10 52 -74 117 -142 128 -137 173 -193 173 -219 0 -24 -36 -53 -115 -93 -61
-31 -66 -36 -40 -37 17 0 58 13 93 30 55 26 66 35 84 77 18 41 20 59 14 137
-3 50 -9 113 -12 140 -6 43 -5 48 10 43 26 -10 20 21 -15 75 -17 26 -33 48
-35 48 -2 0 -6 -10 -9 -22z"/>
<path d="M1495 638 c-3 -8 5 -86 19 -174 14 -87 28 -190 32 -229 7 -66 8 -68
16 -35 7 24 3 80 -12 193 -12 87 -19 161 -16 164 3 3 12 0 21 -7 40 -33 -3 51
-51 99 -2 2 -6 -3 -9 -11z"/>
<path d="M437 634 c-18 -19 4 -374 27 -429 17 -41 40 -51 137 -65 81 -12 182
0 278 31 61 21 65 21 93 4 37 -21 101 -22 134 0 47 31 55 103 14 140 -26 24
-33 3 -13 -40 17 -37 17 -37 -6 -56 -25 -20 -86 -26 -96 -9 -3 6 3 22 14 36
25 32 27 62 5 92 -33 47 -83 13 -92 -64 -6 -55 -21 -64 -154 -90 -106 -21
-202 -13 -250 20 -49 32 -60 77 -65 261 -5 151 -10 185 -26 169z m574 -320
c11 -14 10 -19 -10 -35 -13 -11 -27 -19 -31 -19 -15 0 -22 41 -10 55 16 19 34
19 51 -1z"/>
<path d="M344 607 c-5 -15 17 -239 33 -318 4 -21 -3 -34 -32 -62 -91 -88 -225
-109 -269 -42 -25 38 -19 115 9 115 14 0 45 32 45 47 0 6 -9 9 -21 6 -43 -12
-51 45 -18 132 12 31 19 59 16 61 -8 9 -46 -101 -53 -154 -3 -28 -2 -58 4 -67
6 -12 5 -26 -4 -44 -22 -42 -18 -115 9 -147 52 -61 202 -34 287 51 l45 45 0
88 c0 48 -4 111 -8 140 -8 46 -7 51 7 46 24 -9 19 15 -14 71 -23 40 -30 46
-36 32z"/>
<path d="M1280 565 c-6 -8 -9 -23 -5 -34 5 -18 9 -19 33 -9 43 19 49 29 15 26
-18 -2 -32 2 -32 7 -1 6 3 10 8 10 5 0 13 3 17 8 4 4 0 7 -8 7 -9 0 -21 -7
-28 -15z"/>
<path d="M1059 520 l-24 -20 28 6 c30 7 39 -11 10 -20 -10 -2 -5 -4 11 -3 35
2 59 33 36 47 -22 14 -35 12 -61 -10z"/>
<path d="M971 436 c-14 -17 -7 -36 14 -36 22 0 29 20 13 36 -13 13 -16 13 -27
0z"/>
<path d="M1081 430 c-14 -8 -8 -40 7 -40 5 0 15 6 21 14 15 17 -8 39 -28 26z"/>
<path d="M802 378 c-7 -7 -12 -22 -12 -33 0 -35 -12 -37 -31 -5 -17 28 -59 43
-59 21 0 -23 14 -41 32 -41 13 0 24 -11 31 -30 6 -16 14 -30 18 -30 8 0 19 38
19 69 0 18 4 22 20 18 23 -6 27 14 7 32 -10 8 -17 7 -25 -1z"/>
<path d="M1226 325 c4 -8 10 -12 15 -9 11 6 2 24 -11 24 -5 0 -7 -7 -4 -15z"/>
<path d="M1210 276 c0 -18 28 -21 50 -5 12 8 12 9 -5 7 -11 -1 -26 1 -32 5 -9
5 -13 3 -13 -7z"/>
<path d="M1454 179 c-3 -6 -1 -15 7 -20 11 -6 9 -12 -6 -31 -19 -22 -19 -22 8
1 29 26 36 61 13 61 -8 0 -18 -5 -22 -11z"/>
<path d="M1150 170 c0 -5 5 -10 10 -10 22 0 8 -22 -22 -35 -26 -11 -28 -14
-12 -15 26 0 74 36 74 56 0 8 -10 14 -25 14 -14 0 -25 -4 -25 -10z"/>
</g>
</svg>
