<?xml version="1.0" standalone="no"?>
<!DOCTYPE svg PUBLIC "-//W3C//DTD SVG 20010904//EN"
 "http://www.w3.org/TR/2001/REC-SVG-20010904/DTD/svg10.dtd">
<svg version="1.0" xmlns="http://www.w3.org/2000/svg"
 width="150.000000px" height="76.000000px" viewBox="0 0 150.000000 76.000000"
 preserveAspectRatio="xMidYMid meet">

<g transform="translate(0.000000,76.000000) scale(0.100000,-0.100000)"
fill="#000000" stroke="none">
<path d="M712 606 c-275 -101 -312 -118 -312 -138 0 -15 27 -6 185 55 77 29
213 80 302 111 148 53 189 77 130 76 -12 -1 -149 -47 -305 -104z"/>
<path d="M1347 681 c-2 -11 -1 -37 4 -58 4 -21 18 -132 30 -248 24 -236 27
-253 41 -213 7 19 3 80 -11 202 -26 214 -26 223 -6 206 24 -20 19 18 -11 78
-28 56 -39 63 -47 33z"/>
<path d="M1247 675 c-3 -7 5 -108 18 -222 14 -114 25 -213 25 -219 0 -30 -108
-46 -130 -19 -11 13 -9 19 7 38 29 32 36 71 19 112 -29 70 -86 24 -86 -70 0
-44 -17 -52 -142 -68 -64 -8 -108 -8 -164 0 -85 12 -121 33 -144 81 -12 24
-20 30 -35 26 -33 -10 -63 -44 -72 -83 -7 -29 -15 -38 -43 -48 -19 -7 -55 -12
-79 -12 -40 -1 -49 3 -87 45 -43 45 -43 45 -69 28 -14 -9 -37 -38 -50 -63 -37
-74 -60 -98 -82 -85 -28 16 -53 74 -53 121 0 32 6 48 25 67 30 30 34 58 5 31
-15 -13 -24 -15 -31 -8 -11 11 -8 71 5 108 4 11 0 7 -10 -9 -19 -34 -20 -70
-7 -204 11 -108 32 -147 79 -147 26 0 33 8 64 68 47 91 61 98 101 53 44 -50
90 -62 165 -43 43 11 60 12 63 4 6 -18 58 -67 70 -67 6 0 21 10 32 21 17 17
20 29 16 62 -7 47 -21 59 -64 53 -40 -6 -43 11 -9 44 28 25 56 21 56 -9 0 -10
13 -30 30 -44 61 -52 246 -57 396 -12 26 8 49 13 49 12 28 -60 77 -79 138 -53
61 25 68 68 42 261 -20 147 -19 166 1 158 9 -3 15 -2 13 3 -44 107 -52 118
-62 89z m-78 -347 c12 -19 11 -24 -9 -40 -29 -23 -40 -15 -40 28 0 40 27 47
49 12z m-540 -162 c8 -10 9 -16 2 -21 -13 -7 -51 12 -51 25 0 15 36 12 49 -4z"/>
<path d="M170 645 l-11 -35 -26 30 c-27 33 -48 38 -57 15 -4 -10 3 -19 19 -25
13 -5 33 -26 43 -47 l20 -38 11 40 c6 22 11 46 11 53 0 15 12 16 28 0 16 -16
25 -4 17 21 -10 34 -42 26 -55 -14z"/>
<path d="M313 665 c-3 -9 -3 -18 -1 -21 3 -3 8 4 11 16 6 23 -1 27 -10 5z"/>
<path d="M1105 646 c-21 -49 -6 -83 23 -54 14 14 16 32 3 23 -16 -9 -22 12
-11 39 14 39 1 31 -15 -8z"/>
<path d="M303 616 c5 -14 39 -15 44 -1 1 6 -8 11 -22 11 -16 1 -24 -3 -22 -10z"/>
<path d="M865 479 c-14 -30 -25 -66 -25 -81 0 -26 22 -58 41 -58 18 0 49 40
49 63 -1 20 -2 20 -11 5 -12 -21 -45 -24 -52 -5 -3 8 3 38 13 68 24 71 17 75
-15 8z"/>
<path d="M1053 501 c-10 -16 -8 -22 13 -36 24 -16 26 -15 39 2 12 15 17 16 34
6 27 -17 28 -17 41 7 8 15 6 21 -11 30 -16 9 -24 8 -38 -4 -15 -14 -20 -14
-37 -1 -25 19 -27 19 -41 -4z"/>
<path d="M680 492 c0 -10 11 -33 25 -52 15 -20 25 -48 26 -69 l1 -36 9 30 c13
42 4 94 -22 121 -27 29 -39 30 -39 6z"/>
<path d="M270 431 c-10 -19 -11 -19 -40 -3 -27 15 -32 15 -40 2 -15 -23 -12
-34 11 -48 18 -11 24 -11 39 3 15 14 21 14 40 3 18 -11 23 -11 35 6 16 21 13
31 -15 46 -15 8 -21 6 -30 -9z"/>
<path d="M424 355 c-8 -33 2 -57 23 -53 24 5 27 25 4 31 -14 3 -18 11 -14 26
3 12 3 21 -1 21 -3 0 -8 -11 -12 -25z"/>
<path d="M275 109 c-56 -23 -78 -39 -52 -39 19 0 127 46 127 54 0 10 -24 5
-75 -15z"/>
<path d="M1091 109 c-63 -18 -101 -39 -70 -39 30 0 143 37 147 48 5 15 3 14
-77 -9z"/>
<path d="M717 113 c-28 -27 19 -67 49 -42 13 10 20 10 36 0 17 -11 23 -10 36
3 15 15 15 17 -1 33 -14 14 -20 15 -40 4 -18 -10 -30 -10 -45 -2 -24 13 -27
13 -35 4z"/>
</g>
</svg>
