<?xml version="1.0" standalone="no"?>
<!DOCTYPE svg PUBLIC "-//W3C//DTD SVG 20010904//EN"
 "http://www.w3.org/TR/2001/REC-SVG-20010904/DTD/svg10.dtd">
<svg version="1.0" xmlns="http://www.w3.org/2000/svg"
 width="158.000000px" height="76.000000px" viewBox="0 0 158.000000 76.000000"
 preserveAspectRatio="xMidYMid meet">

<g transform="translate(0.000000,76.000000) scale(0.100000,-0.100000)"
fill="#000000" stroke="none">
<path d="M1320 653 c0 -21 10 -127 21 -237 21 -193 21 -200 4 -213 -23 -16
-75 -17 -110 -1 -30 14 -31 22 -5 55 11 14 20 38 20 53 0 31 -34 80 -56 80
-22 0 -47 -68 -41 -111 4 -34 2 -39 -27 -53 -17 -8 -44 -18 -60 -22 l-29 -7
21 29 c48 66 32 116 -42 130 -46 8 -71 -8 -133 -85 -26 -33 -56 -60 -65 -60
-9 -1 -26 10 -37 25 l-20 25 -42 -30 c-73 -54 -159 -34 -159 36 0 24 9 32 63
58 55 27 64 35 77 73 l15 44 -33 29 c-55 49 -85 42 -164 -43 l-68 -73 -23 28
c-24 29 -24 29 -30 6 -3 -13 2 -38 14 -60 41 -81 20 -116 -100 -165 -65 -27
-130 -30 -171 -9 -37 19 -50 43 -50 92 0 30 6 43 29 63 16 14 32 36 37 50 6
22 5 23 -9 11 -9 -7 -24 -10 -33 -7 -23 9 -15 100 15 156 24 46 23 65 -1 28
-29 -46 -50 -114 -49 -163 1 -27 1 -59 1 -70 0 -11 -2 -47 -6 -81 -11 -103 29
-139 145 -132 117 7 231 87 231 163 l0 35 50 0 c49 0 50 -1 44 -25 -21 -83 36
-140 117 -116 23 7 52 23 64 35 l23 23 26 -33 c14 -18 26 -39 26 -46 1 -9 4
-8 10 3 8 14 18 15 61 7 63 -11 158 3 241 36 l57 23 22 -23 c31 -33 84 -46
132 -33 31 8 42 18 54 47 14 33 14 51 -1 182 -19 168 -21 233 -6 210 18 -28
11 11 -10 58 -24 52 -40 54 -40 5z m-665 -225 l28 -22 -23 -18 c-24 -20 -110
-48 -146 -48 -40 0 -37 20 10 66 53 51 87 56 131 22z m566 -109 c9 -18 7 -25
-10 -43 -19 -18 -23 -19 -31 -6 -5 8 -10 27 -10 43 0 34 33 38 51 6z m-187
-30 c25 -20 26 -22 10 -40 -23 -26 -105 -51 -156 -47 l-43 3 51 53 c57 59 92
67 138 31z"/>
<path d="M1452 675 c-7 -14 -8 -43 -2 -90 5 -39 14 -154 21 -257 7 -103 16
-185 20 -183 19 13 17 123 -7 380 -7 67 -6 69 11 55 17 -14 17 -13 10 10 -4
14 -15 43 -24 65 -16 37 -18 39 -29 20z"/>
<path d="M879 600 c-116 -58 -180 -100 -154 -100 12 0 279 141 295 156 26 25
-3 14 -141 -56z"/>
<path d="M1119 604 c-162 -80 -189 -98 -189 -128 0 -29 25 -53 36 -35 4 7 -1
16 -10 21 -29 16 -1 36 161 114 84 40 153 77 153 83 0 18 -12 14 -151 -55z"/>
<path d="M285 649 c-4 -6 1 -16 11 -24 20 -14 30 -4 20 20 -6 18 -22 20 -31 4z"/>
<path d="M185 639 c-4 -6 3 -13 15 -16 14 -4 29 -22 41 -47 l18 -40 10 27 c6
16 11 36 10 45 -1 10 -4 7 -8 -7 -7 -25 -7 -24 -28 12 -22 36 -46 47 -58 26z"/>
<path d="M525 640 c-7 -11 23 -46 31 -37 8 8 -6 47 -16 47 -5 0 -12 -5 -15
-10z"/>
<path d="M651 619 c-7 -21 -7 -37 0 -50 11 -22 20 -24 37 -7 18 18 14 27 -10
20 -19 -5 -21 -2 -15 31 7 45 3 47 -12 6z"/>
<path d="M427 634 c-12 -13 -8 -20 18 -32 14 -6 31 -26 39 -44 l14 -33 11 29
c7 16 10 37 8 45 -3 10 -5 8 -6 -6 -1 -32 -13 -28 -31 10 -15 31 -39 45 -53
31z"/>
<path d="M1091 501 c-15 -27 13 -50 40 -33 14 9 25 10 40 2 15 -9 24 -8 35 1
19 16 18 22 -7 37 -18 11 -24 11 -39 -3 -15 -14 -18 -14 -30 0 -17 20 -27 19
-39 -4z"/>
<path d="M244 459 c-3 -6 0 -15 7 -20 11 -7 11 -9 1 -9 -25 0 -32 -47 -17
-107 8 -32 15 -78 16 -103 l1 -45 10 44 c8 35 6 59 -7 109 -19 68 -14 81 27
82 26 0 32 19 12 41 -19 21 -39 25 -50 8z"/>
<path d="M794 424 c-23 -54 0 -96 34 -62 18 18 15 27 -8 21 -15 -4 -20 0 -20
16 0 12 5 31 10 42 6 10 8 19 5 19 -3 0 -13 -16 -21 -36z"/>
<path d="M1130 150 c-10 -7 -11 -10 -2 -10 6 0 12 -6 12 -14 0 -8 -6 -17 -12
-19 -8 -3 -8 -6 -2 -6 6 -1 18 7 28 18 13 15 14 20 3 29 -8 7 -18 7 -27 2z"/>
<path d="M450 114 c-41 -20 -70 -38 -64 -40 14 -6 144 55 144 67 0 12 7 14
-80 -27z"/>
</g>
</svg>
