<?xml version="1.0" standalone="no"?>
<!DOCTYPE svg PUBLIC "-//W3C//DTD SVG 20010904//EN"
 "http://www.w3.org/TR/2001/REC-SVG-20010904/DTD/svg10.dtd">
<svg version="1.0" xmlns="http://www.w3.org/2000/svg"
 width="156.000000px" height="76.000000px" viewBox="0 0 156.000000 76.000000"
 preserveAspectRatio="xMidYMid meet">

<g transform="translate(0.000000,76.000000) scale(0.100000,-0.100000)"
fill="#000000" stroke="none">
<path d="M1428 663 c-1 -22 -3 2 17 -283 18 -252 23 -282 36 -237 4 16 2 103
-6 200 -19 224 -19 223 0 207 22 -18 20 6 -6 75 -20 55 -38 71 -41 38z"/>
<path d="M447 589 c-169 -86 -198 -112 -164 -146 20 -20 35 -10 18 11 -7 8
-10 20 -6 26 4 6 78 47 166 90 87 44 159 85 159 90 0 6 -3 10 -7 10 -5 -1 -79
-37 -166 -81z"/>
<path d="M1178 645 c-9 -20 -8 -28 5 -43 10 -10 17 -21 17 -24 0 -3 -28 -27
-62 -52 -36 -27 -54 -46 -44 -46 9 0 41 22 70 50 42 39 55 47 65 37 10 -10 11
-2 6 38 -4 28 -9 53 -12 58 -9 15 -34 6 -45 -18z m36 -10 c3 -9 0 -15 -9 -15
-8 0 -15 7 -15 15 0 8 4 15 9 15 5 0 11 -7 15 -15z"/>
<path d="M1281 651 c-7 -12 -9 -25 -7 -30 3 -5 13 -89 21 -186 17 -201 19
-193 -61 -215 -50 -14 -79 -7 -111 28 l-24 26 -29 -33 c-25 -27 -36 -32 -67
-29 -30 2 -41 9 -51 31 l-14 29 -33 -32 c-53 -51 -155 -53 -155 -4 0 8 10 14
23 14 23 0 47 17 47 32 0 4 -20 8 -45 8 -25 0 -78 11 -117 25 -71 25 -123 31
-144 17 -6 -4 -17 -18 -24 -31 l-12 -24 65 7 c66 6 123 -7 110 -27 -11 -19
-89 -47 -131 -47 -37 0 -45 4 -60 30 -17 30 -32 39 -32 20 0 -25 -50 -60 -84
-60 -29 0 -41 7 -67 40 -18 22 -40 40 -49 40 -10 0 -35 -28 -61 -67 -24 -38
-52 -69 -61 -71 -19 -4 -38 26 -50 78 -5 27 -6 21 -3 -24 4 -64 26 -99 59 -94
13 2 38 28 64 68 23 36 46 66 51 68 4 1 14 -11 21 -27 27 -66 90 -78 146 -29
33 29 37 31 48 15 18 -23 66 -39 96 -32 14 4 60 22 103 41 43 19 79 34 81 34
2 0 7 -16 10 -35 5 -26 14 -39 34 -46 37 -14 101 -1 130 28 24 24 24 24 38 5
28 -41 97 -35 135 11 l18 22 1 -41 c0 -28 6 -47 20 -59 19 -17 20 -17 34 15
11 27 19 33 50 35 20 1 54 10 75 20 l40 18 34 -37 c19 -20 39 -36 45 -36 17 0
42 42 42 71 0 32 -19 49 -63 58 -36 8 -38 14 -52 214 -7 93 -6 100 9 88 25
-21 21 16 -8 63 -23 38 -24 39 -35 17z m119 -451 c0 -14 -14 -12 -28 2 -19 19
-14 30 8 18 11 -6 20 -15 20 -20z"/>
<path d="M136 653 c-13 -14 -5 -42 15 -48 11 -4 27 -22 35 -41 8 -19 16 -34
19 -34 3 0 10 20 16 45 11 45 23 57 32 33 7 -22 19 -1 12 22 -10 32 -37 20
-48 -20 l-9 -35 -19 36 c-18 36 -41 54 -53 42z"/>
<path d="M737 633 c-4 -3 -7 -17 -7 -30 0 -29 -7 -29 -32 2 -22 28 -38 32 -38
11 0 -7 11 -21 25 -30 14 -9 25 -23 25 -31 0 -30 18 -14 24 21 6 29 10 33 22
24 11 -10 14 -9 14 3 0 17 -24 40 -33 30z"/>
<path d="M948 531 c-89 -47 -122 -71 -100 -71 17 0 194 88 212 105 29 29 -23
14 -112 -34z"/>
<path d="M86 527 c-28 -65 4 -106 40 -52 15 23 15 27 2 43 -9 9 -18 24 -21 32
-3 10 -10 2 -21 -23z m24 -37 c0 -5 -4 -10 -10 -10 -5 0 -10 5 -10 10 0 6 5
10 10 10 6 0 10 -4 10 -10z"/>
<path d="M519 511 c-8 -46 -1 -71 21 -71 18 0 38 36 26 47 -3 4 -6 1 -6 -5 0
-7 -6 -12 -14 -12 -10 0 -16 13 -18 38 l-3 37 -6 -34z"/>
<path d="M658 470 c-90 -46 -124 -70 -98 -70 6 0 51 20 100 45 49 25 92 45 95
45 2 0 0 -12 -6 -26 -18 -50 17 -89 40 -45 9 16 8 18 -9 14 -23 -6 -27 18 -10
61 13 36 2 34 -112 -24z"/>
<path d="M1000 475 c0 -16 16 -20 24 -6 3 5 -1 11 -9 15 -9 3 -15 0 -15 -9z"/>
<path d="M1081 406 l-23 -24 41 5 c48 7 52 0 14 -21 l-28 -15 25 -1 c31 0 70
25 70 46 0 14 -38 34 -64 34 -7 0 -23 -11 -35 -24z"/>
<path d="M401 392 c-7 -13 -6 -23 1 -30 28 -28 63 3 38 33 -16 20 -27 19 -39
-3z"/>
<path d="M139 379 c-10 -19 -9 -25 7 -36 15 -11 20 -10 34 2 15 14 18 14 30 0
10 -12 16 -13 26 -4 8 6 14 17 14 24 0 7 -6 18 -14 24 -10 9 -16 8 -26 -4 -10
-12 -15 -12 -35 1 -22 14 -24 14 -36 -7z"/>
<path d="M870 384 c-19 -22 12 -54 38 -37 13 7 24 8 37 1 24 -14 51 18 34 39
-14 16 -36 17 -42 1 -3 -10 -9 -10 -26 0 -26 15 -26 15 -41 -4z"/>
<path d="M1272 161 c-11 -6 -10 -10 5 -15 16 -7 15 -10 -12 -33 -22 -19 -24
-22 -6 -11 33 20 48 45 36 57 -6 6 -16 6 -23 2z"/>
<path d="M197 123 c-26 -19 -45 -38 -42 -41 6 -6 105 60 105 71 0 13 -14 6
-63 -30z"/>
<path d="M908 148 c9 -9 8 -16 -6 -32 -17 -21 -17 -21 6 -2 26 23 29 46 5 46
-13 0 -14 -3 -5 -12z"/>
</g>
</svg>
