<?xml version="1.0" standalone="no"?>
<!DOCTYPE svg PUBLIC "-//W3C//DTD SVG 20010904//EN"
 "http://www.w3.org/TR/2001/REC-SVG-20010904/DTD/svg10.dtd">
<svg version="1.0" xmlns="http://www.w3.org/2000/svg"
 width="139.000000px" height="76.000000px" viewBox="0 0 139.000000 76.000000"
 preserveAspectRatio="xMidYMid meet">

<g transform="translate(0.000000,76.000000) scale(0.100000,-0.100000)"
fill="#000000" stroke="none">
<path d="M1035 659 c-56 -23 -78 -39 -52 -39 21 0 107 42 107 52 0 10 5 11
-55 -13z"/>
<path d="M200 657 l-25 -11 27 -3 c14 -3 32 -11 38 -19 10 -12 7 -14 -19 -14
-21 0 -30 -4 -25 -11 8 -14 82 -5 98 11 8 8 4 18 -17 36 -31 27 -40 28 -77 11z"/>
<path d="M572 654 c-8 -14 -7 -46 4 -114 7 -52 17 -144 20 -203 5 -79 10 -104
17 -91 10 17 3 233 -9 287 -5 21 -3 27 10 27 21 0 20 16 -8 69 -21 41 -24 43
-34 25z"/>
<path d="M1125 652 c-3 -11 6 -85 20 -166 15 -81 25 -164 23 -184 l-3 -37 -28
56 c-15 31 -63 94 -107 142 -44 47 -80 88 -80 91 0 3 7 6 16 6 35 0 -25 46
-83 64 -48 15 -20 -27 117 -175 138 -149 163 -187 143 -218 -6 -9 -47 -36 -92
-60 -45 -24 -80 -45 -78 -47 8 -8 119 27 152 48 66 43 77 125 49 341 -6 41 -5
47 10 41 24 -9 20 18 -11 70 -31 50 -39 55 -48 28z"/>
<path d="M1245 651 c-3 -6 5 -82 19 -169 14 -86 28 -188 32 -227 7 -65 8 -68
17 -38 7 23 4 75 -12 186 -26 187 -26 183 -6 167 23 -19 28 -6 12 27 -20 38
-53 67 -62 54z"/>
<path d="M466 634 c-3 -9 -6 -29 -6 -46 0 -22 4 -29 17 -26 9 2 18 9 21 16 2
8 -2 10 -14 5 -15 -5 -16 -2 -11 30 6 39 3 48 -7 21z"/>
<path d="M743 612 c-37 -65 -28 -100 22 -88 31 8 44 50 22 74 -8 9 -17 25 -18
36 -3 14 -9 9 -26 -22z m32 -52 c0 -22 -29 -18 -33 3 -3 14 1 18 15 15 10 -2
18 -10 18 -18z"/>
<path d="M1035 580 c-14 -15 -15 -23 -6 -33 6 -8 7 -17 3 -21 -4 -5 11 0 32
11 l39 18 -31 3 c-18 2 -32 8 -32 13 0 6 4 8 9 4 5 -3 12 -1 15 4 12 19 -12
20 -29 1z"/>
<path d="M75 518 c-20 -43 -30 -84 -32 -128 -2 -36 -6 -84 -9 -106 -12 -86 43
-134 153 -134 51 0 153 22 204 44 13 6 17 -1 22 -36 10 -71 60 -88 132 -43 92
57 171 88 306 121 146 36 189 53 189 78 0 11 -12 10 -62 -6 -99 -31 -142 -29
-177 7 -16 17 -32 40 -35 51 -10 32 50 58 120 52 30 -3 54 -1 54 3 0 17 -60
39 -104 39 -88 0 -130 -77 -87 -161 12 -23 21 -42 19 -43 -2 -1 -31 -11 -66
-21 -35 -10 -98 -40 -140 -67 -94 -60 -125 -61 -130 -6 -2 28 3 43 26 70 49
55 48 130 -2 177 -30 29 -63 24 -90 -12 -28 -38 -13 -60 49 -69 56 -8 71 -25
47 -51 -41 -45 -170 -87 -272 -87 -98 0 -168 56 -142 114 7 15 20 26 31 26 11
0 25 9 31 19 15 28 13 33 -9 22 -47 -25 -53 62 -11 156 11 26 19 48 17 50 -2
2 -17 -25 -32 -59z m350 -139 c10 -15 2 -19 -23 -12 -12 3 -19 9 -16 14 7 12
31 11 39 -2z"/>
<path d="M390 515 c-10 -12 -10 -18 0 -30 16 -20 36 -19 44 1 6 16 -9 44 -24
44 -4 0 -13 -7 -20 -15z"/>
<path d="M254 485 c-3 -19 -10 -35 -15 -35 -5 0 -9 4 -9 8 0 15 -40 52 -56 52
-11 0 -14 -8 -12 -27 2 -20 9 -28 23 -28 13 0 25 -12 35 -32 18 -39 28 -41 35
-8 3 14 7 37 10 51 5 20 10 24 27 18 17 -5 20 -3 15 11 -4 9 -7 19 -7 21 0 2
-9 4 -20 4 -14 0 -21 -9 -26 -35z"/>
<path d="M229 349 c-12 -8 -11 -11 4 -20 24 -14 22 -23 -15 -65 -27 -31 -29
-35 -10 -25 26 14 62 67 62 92 0 21 -22 30 -41 18z"/>
<path d="M874 189 c-4 -7 -2 -15 4 -17 20 -6 13 -20 -15 -30 -25 -9 -26 -10
-5 -11 25 -1 65 34 59 52 -5 17 -34 21 -43 6z"/>
<path d="M1207 193 c-11 -10 -8 -25 3 -18 12 7 14 -16 3 -31 -5 -5 0 -1 10 9
9 11 17 25 17 33 0 14 -22 19 -33 7z"/>
</g>
</svg>
