<?xml version="1.0" standalone="no"?>
<!DOCTYPE svg PUBLIC "-//W3C//DTD SVG 20010904//EN"
 "http://www.w3.org/TR/2001/REC-SVG-20010904/DTD/svg10.dtd">
<svg version="1.0" xmlns="http://www.w3.org/2000/svg"
 width="131.000000px" height="76.000000px" viewBox="0 0 131.000000 76.000000"
 preserveAspectRatio="xMidYMid meet">

<g transform="translate(0.000000,76.000000) scale(0.100000,-0.100000)"
fill="#000000" stroke="none">
<path d="M815 678 c-3 -13 6 -81 20 -153 44 -216 36 -337 -23 -352 -43 -10
-238 6 -304 27 -43 13 -77 32 -106 60 -33 30 -47 38 -60 31 -28 -15 -77 -72
-116 -133 -19 -32 -41 -58 -47 -58 -42 0 -88 74 -89 143 0 31 4 39 24 47 25 9
46 38 46 61 0 8 -7 6 -20 -6 -10 -9 -26 -15 -35 -12 -20 8 -20 78 0 117 9 17
12 30 7 30 -17 0 -47 -83 -45 -124 1 -23 3 -57 4 -76 4 -94 21 -169 44 -194
46 -50 86 -30 140 72 16 28 42 61 59 72 l31 19 35 -33 c19 -19 49 -41 65 -49
125 -62 448 -51 672 24 52 17 69 28 90 60 30 46 25 65 -22 84 -73 31 -130 18
-228 -51 -26 -19 -49 -34 -50 -34 -2 0 -4 33 -5 73 0 64 -16 164 -37 251 -7
26 -6 28 14 21 28 -9 27 2 -9 58 -33 52 -47 58 -55 25z m338 -390 c35 -13 34
-24 -3 -43 -49 -25 -270 -72 -270 -57 0 4 30 29 66 56 84 64 130 73 207 44z"/>
<path d="M152 668 c-25 -25 -7 -48 39 -48 11 0 30 -17 45 -40 15 -22 30 -37
35 -34 5 2 11 27 15 54 4 28 8 50 10 50 3 0 13 -5 24 -12 24 -15 38 -3 24 20
-26 41 -74 17 -74 -37 l0 -25 -32 31 c-46 43 -72 55 -86 41z"/>
<path d="M450 638 c-11 -24 -20 -50 -20 -59 0 -40 61 -54 81 -18 9 18 8 20 -9
15 -32 -10 -46 17 -34 64 13 52 6 51 -18 -2z"/>
<path d="M992 668 c-14 -14 2 -38 24 -38 8 0 22 -16 31 -35 9 -19 20 -35 25
-35 4 0 15 18 24 40 17 43 28 50 38 23 5 -11 10 -13 17 -6 12 12 -4 53 -20 53
-11 0 -36 -31 -45 -55 l-7 -20 -11 20 c-13 24 -49 65 -58 65 -3 0 -11 -5 -18
-12z"/>
<path d="M629 633 c-16 -42 -8 -68 20 -68 13 0 26 6 29 13 2 7 -5 12 -18 12
-19 0 -22 4 -18 35 5 42 1 44 -13 8z"/>
<path d="M1090 509 c-107 -37 -140 -53 -129 -63 5 -6 231 72 243 84 21 21 -4
16 -114 -21z"/>
<path d="M320 466 c0 -2 11 -24 25 -47 22 -39 25 -41 25 -19 0 27 -25 70 -41
70 -5 0 -9 -2 -9 -4z"/>
<path d="M470 404 c-21 -53 -8 -81 30 -69 25 8 27 33 3 31 -14 -1 -18 6 -17
32 2 39 -3 41 -16 6z"/>
<path d="M614 406 c-4 -10 6 -30 24 -51 32 -35 49 -91 38 -122 -5 -15 -4 -15
9 1 23 30 19 107 -8 147 -25 38 -54 49 -63 25z"/>
<path d="M340 155 c-11 -13 -9 -15 9 -15 25 0 26 -8 4 -40 l-16 -25 27 25 c29
26 32 63 5 68 -9 1 -22 -4 -29 -13z"/>
<path d="M1193 156 c18 -14 12 -25 -23 -40 -8 -3 -2 -3 15 0 60 12 78 54 23
54 -30 -1 -31 -2 -15 -14z"/>
</g>
</svg>
