<?xml version="1.0" standalone="no"?>
<!DOCTYPE svg PUBLIC "-//W3C//DTD SVG 20010904//EN"
 "http://www.w3.org/TR/2001/REC-SVG-20010904/DTD/svg10.dtd">
<svg version="1.0" xmlns="http://www.w3.org/2000/svg"
 width="142.000000px" height="76.000000px" viewBox="0 0 142.000000 76.000000"
 preserveAspectRatio="xMidYMid meet">

<g transform="translate(0.000000,76.000000) scale(0.100000,-0.100000)"
fill="#000000" stroke="none">
<path d="M735 639 c-260 -109 -331 -144 -345 -168 -15 -29 -6 -27 85 18 44 21
163 73 265 116 189 80 210 91 210 106 0 17 -25 8 -215 -72z"/>
<path d="M1276 704 c-3 -8 3 -104 14 -212 12 -108 24 -246 27 -307 6 -108 7
-109 21 -75 13 31 13 58 -3 230 -9 107 -19 211 -22 230 -4 29 -3 33 8 23 25
-24 28 -13 9 40 -27 77 -31 87 -40 87 -4 0 -11 -7 -14 -16z"/>
<path d="M1126 695 c-5 -14 1 -99 25 -333 15 -139 12 -148 -54 -159 -28 -4
-46 0 -83 22 l-47 28 24 18 c13 10 31 19 40 19 17 0 29 19 29 46 0 33 -124 62
-189 44 -66 -18 -108 -70 -57 -70 14 0 37 -10 52 -23 l27 -23 -59 -26 c-33
-14 -74 -29 -93 -33 l-33 -7 20 28 c35 51 36 81 4 114 -61 61 -115 49 -194
-41 l-51 -59 -27 20 c-31 22 -80 26 -113 9 -12 -6 -63 -51 -113 -100 -94 -92
-118 -103 -147 -71 -34 37 -16 108 39 158 19 18 34 39 34 48 0 15 -2 15 -24 1
-23 -15 -25 -15 -35 4 -13 23 -1 92 25 145 l15 31 -20 -25 c-41 -50 -69 -188
-42 -205 6 -3 4 -19 -5 -40 -34 -82 -4 -165 60 -165 40 0 62 15 162 112 45 43
89 78 98 78 30 0 56 -20 56 -43 0 -27 11 -29 180 -29 117 -1 130 1 208 31 l82
33 33 -28 c92 -78 188 -68 223 22 17 45 14 113 -13 339 l-6 50 23 -20 23 -20
-6 32 c-6 32 -46 103 -58 103 -4 0 -9 -7 -13 -15z m-165 -365 c25 0 24 -16 -2
-30 -16 -9 -25 -8 -40 6 -20 18 -16 39 8 30 8 -3 23 -6 34 -6z m-261 -26 c25
-21 28 -29 19 -41 -30 -35 -123 -60 -179 -48 -26 6 -28 9 -20 25 16 30 100 90
126 90 12 0 36 -12 54 -26z"/>
<path d="M167 693 c-16 -16 -5 -44 24 -58 17 -9 37 -31 45 -51 18 -43 30 -37
38 21 8 47 22 66 32 41 8 -22 24 -20 24 2 0 21 -18 42 -37 42 -7 0 -18 -18
-24 -41 -11 -34 -14 -37 -22 -22 -12 22 -58 73 -67 73 -4 0 -10 -3 -13 -7z"/>
<path d="M416 664 c-32 -35 -34 -51 -4 -30 25 18 56 20 77 7 11 -7 3 -15 -30
-32 -31 -16 -39 -24 -26 -27 29 -6 91 30 101 60 12 34 10 36 -46 44 -41 6 -48
4 -72 -22z"/>
<path d="M786 540 c-20 -50 -20 -64 -1 -80 30 -25 89 37 78 81 -4 13 -41 39
-57 39 -2 0 -11 -18 -20 -40z m52 -28 c3 -16 -2 -22 -17 -22 -24 0 -35 15 -27
36 9 23 40 13 44 -14z"/>
<path d="M930 544 c-16 -48 -6 -86 22 -82 11 2 25 14 30 28 7 20 7 23 -3 13
-28 -28 -42 -15 -37 32 3 25 4 45 3 45 -2 0 -9 -16 -15 -36z"/>
<path d="M242 488 c-17 -17 -15 -29 3 -22 22 9 18 -5 -7 -26 -21 -17 -21 -19
-9 -91 7 -41 15 -78 17 -84 5 -12 -2 124 -7 144 -3 10 6 17 26 21 36 6 41 35
9 56 -15 11 -23 11 -32 2z"/>
<path d="M345 119 c-33 -27 -62 -56 -63 -65 -5 -21 8 -13 81 49 52 45 69 68
50 66 -5 0 -35 -22 -68 -50z"/>
<path d="M848 163 c0 -5 -2 -19 -4 -33 -2 -14 -4 -34 -6 -45 -2 -15 4 -21 21
-23 26 -4 121 36 121 50 0 5 -18 -1 -40 -12 -67 -34 -122 -21 -65 16 14 9 25
21 25 26 0 7 -5 6 -13 -1 -8 -6 -17 -8 -20 -4 -4 3 1 12 11 19 16 12 15 13 -5
14 -13 0 -24 -3 -25 -7z"/>
<path d="M1212 158 c-16 -16 -15 -29 2 -22 29 11 25 -16 -6 -53 l-33 -37 31
22 c40 27 64 80 43 93 -19 12 -23 11 -37 -3z"/>
<path d="M602 121 c-10 -6 -8 -10 8 -14 28 -7 18 -24 -24 -44 l-31 -14 35 6
c19 3 43 14 53 23 32 33 -2 68 -41 43z"/>
</g>
</svg>
