<?xml version="1.0" standalone="no"?>
<!DOCTYPE svg PUBLIC "-//W3C//DTD SVG 20010904//EN"
 "http://www.w3.org/TR/2001/REC-SVG-20010904/DTD/svg10.dtd">
<svg version="1.0" xmlns="http://www.w3.org/2000/svg"
 width="104.000000px" height="76.000000px" viewBox="0 0 104.000000 76.000000"
 preserveAspectRatio="xMidYMid meet">

<g transform="translate(0.000000,76.000000) scale(0.100000,-0.100000)"
fill="#000000" stroke="none">
<path d="M217 702 c-21 -23 -39 -72 -33 -89 8 -20 44 -15 57 8 10 19 8 20 -10
14 -26 -8 -28 13 -6 55 18 34 15 38 -8 12z"/>
<path d="M374 684 c-20 -47 -15 -68 18 -72 18 -2 31 4 42 20 24 34 20 56 -14
73 l-31 16 -15 -37z m45 -17 c13 -16 5 -27 -21 -27 -18 0 -25 20 -11 33 10 10
19 8 32 -6z"/>
<path d="M786 704 c-4 -9 -2 -42 3 -73 6 -31 17 -123 26 -205 16 -163 16 -166
-37 -166 -32 0 -58 23 -58 52 0 18 -6 15 -39 -21 -35 -37 -44 -42 -77 -39 -42
3 -48 11 -66 92 -14 63 -32 82 -43 46 -10 -30 -53 -45 -75 -25 -9 8 -20 12
-23 8 -10 -9 -8 -51 2 -57 18 -11 18 -66 0 -82 -29 -26 -157 -64 -215 -64 -75
0 -104 28 -104 99 0 40 5 55 25 75 28 28 36 58 10 36 -8 -7 -22 -9 -31 -6 -22
8 -13 78 16 139 21 41 21 42 1 17 -41 -51 -68 -179 -40 -195 6 -4 8 -26 4 -59
-20 -154 97 -207 275 -125 71 32 100 67 100 119 0 12 16 36 35 54 l34 33 12
-56 c16 -81 31 -101 78 -101 28 0 49 8 70 25 l30 26 21 -21 c28 -28 75 -26
105 5 29 28 31 66 15 205 -5 47 -12 106 -15 132 -5 40 -3 47 10 42 22 -9 19
20 -7 66 -25 44 -33 48 -42 24z"/>
<path d="M905 701 c-3 -10 4 -110 15 -221 11 -111 20 -235 21 -274 l1 -71 15
35 c14 32 14 54 -1 225 -20 232 -20 221 -1 205 12 -10 13 -8 6 17 -12 40 -39
103 -45 103 -2 0 -7 -8 -11 -19z"/>
<path d="M563 683 l-10 -28 -12 23 c-13 24 -41 30 -41 8 0 -7 9 -16 20 -19 11
-3 20 -12 20 -21 0 -28 18 -17 25 14 6 26 9 29 22 18 13 -10 15 -9 12 6 -6 30
-26 30 -36 -1z"/>
<path d="M651 608 c-1 -35 -19 -45 -30 -16 -8 22 -8 22 -15 2 -12 -39 20 -75
39 -44 4 6 11 8 16 4 17 -10 39 17 39 48 0 17 -4 27 -10 23 -6 -4 -9 -12 -8
-18 5 -23 -17 -18 -24 5 -6 22 -6 22 -7 -4z"/>
<path d="M416 540 c-20 -50 -20 -74 -2 -89 12 -10 19 -8 35 8 25 25 29 50 6
31 -26 -22 -38 1 -26 46 14 51 7 54 -13 4z"/>
<path d="M277 531 l-11 -31 -27 26 c-28 26 -49 25 -49 -2 0 -8 11 -19 24 -24
14 -5 28 -23 35 -42 9 -26 14 -30 21 -18 5 8 10 29 10 46 0 40 9 48 33 27 18
-17 19 -17 15 12 -4 43 -36 46 -51 6z"/>
<path d="M611 481 c-8 -14 -6 -23 10 -37 18 -16 21 -16 36 -2 12 13 20 14 33
6 21 -14 50 -4 50 16 0 9 -10 20 -21 27 -18 9 -24 8 -31 -5 -8 -15 -11 -15
-31 -1 -28 19 -34 19 -46 -4z"/>
<path d="M213 334 c-3 -8 2 -23 11 -32 16 -16 18 -16 31 2 11 14 12 23 4 33
-15 18 -38 16 -46 -3z"/>
<path d="M785 168 c-82 -36 -134 -68 -110 -68 23 1 209 86 213 98 5 17 -2 15
-103 -30z"/>
<path d="M506 175 c-4 -13 -10 -14 -26 -5 -23 12 -40 6 -40 -15 0 -23 36 -37
50 -20 9 10 17 12 30 5 25 -13 48 13 30 35 -16 19 -36 19 -44 0z"/>
<path d="M300 100 c-52 -20 -96 -43 -98 -50 -5 -14 1 -13 117 33 47 18 86 38
89 45 5 16 0 15 -108 -28z"/>
</g>
</svg>
