<?xml version="1.0" standalone="no"?>
<!DOCTYPE svg PUBLIC "-//W3C//DTD SVG 20010904//EN"
 "http://www.w3.org/TR/2001/REC-SVG-20010904/DTD/svg10.dtd">
<svg version="1.0" xmlns="http://www.w3.org/2000/svg"
 width="118.000000px" height="76.000000px" viewBox="0 0 118.000000 76.000000"
 preserveAspectRatio="xMidYMid meet">

<g transform="translate(0.000000,76.000000) scale(0.100000,-0.100000)"
fill="#000000" stroke="none">
<path d="M991 692 c-6 -11 -6 -24 1 -37 9 -16 5 -24 -28 -53 -42 -38 -30 -34
26 7 19 14 43 24 52 23 22 -4 24 14 3 22 -8 3 -15 17 -15 31 0 29 -24 34 -39
7z m29 -12 c0 -5 -2 -10 -4 -10 -3 0 -8 5 -11 10 -3 6 -1 10 4 10 6 0 11 -4
11 -10z"/>
<path d="M627 680 c-35 -28 -34 -41 2 -27 28 10 61 5 61 -11 0 -5 -15 -16 -32
-25 l-33 -18 34 6 c40 6 71 30 71 56 0 21 -5 24 -46 33 -23 5 -37 2 -57 -14z"/>
<path d="M383 679 c-5 -8 -13 -27 -17 -44 l-8 -30 -16 28 c-20 32 -51 45 -63
26 -6 -9 -3 -17 8 -24 22 -13 45 -37 59 -61 11 -17 13 -14 24 29 12 46 23 57
35 37 8 -12 25 -13 25 -1 0 5 -8 19 -18 31 -15 18 -20 20 -29 9z"/>
<path d="M787 624 c-95 -58 -125 -84 -98 -84 5 0 43 23 85 50 42 28 78 50 80
50 2 0 1 -20 -1 -44 -6 -47 8 -66 32 -46 21 18 18 29 -5 23 -38 -10 -21 63 24
99 16 13 17 18 6 18 -9 0 -64 -30 -123 -66z"/>
<path d="M141 634 c-9 -24 -10 -39 -3 -46 15 -15 52 1 65 29 9 21 8 27 -8 39
-29 21 -40 17 -54 -22z m42 -9 c1 -5 -6 -11 -15 -13 -11 -2 -18 3 -18 13 0 17
30 18 33 0z"/>
<path d="M1021 556 c-10 -12 -17 -13 -31 -4 -14 9 -22 9 -34 -1 -22 -18 -20
-26 8 -39 19 -8 27 -8 36 3 9 11 17 12 32 4 27 -14 47 4 32 28 -15 23 -29 26
-43 9z"/>
<path d="M499 504 c-11 -14 -10 -18 6 -30 11 -8 24 -13 30 -11 16 6 18 39 3
48 -18 12 -24 11 -39 -7z"/>
<path d="M720 489 c0 -12 12 -53 26 -92 24 -67 24 -72 8 -84 -10 -7 -23 -13
-29 -13 -18 0 -55 30 -55 46 0 24 -17 16 -24 -11 -9 -34 -49 -53 -71 -35 -11
9 -14 22 -10 39 l7 26 -29 -26 c-15 -15 -42 -30 -60 -34 -27 -5 -36 -2 -55 20
-22 26 -22 26 -30 4 -5 -13 -4 -27 2 -34 20 -24 30 -77 18 -93 -27 -33 -113
-65 -185 -70 -70 -4 -73 -4 -104 27 -27 28 -31 37 -25 69 3 20 14 43 25 52 22
17 46 60 33 60 -4 0 -14 -6 -21 -12 -10 -11 -15 -9 -26 6 -15 20 -11 59 11
114 7 18 9 30 4 27 -13 -8 -50 -112 -50 -141 0 -14 4 -33 9 -42 5 -10 4 -38
-2 -69 -25 -121 65 -181 210 -138 78 23 130 66 146 121 11 39 19 48 55 64 23
11 42 15 42 10 0 -13 30 -40 45 -40 8 0 26 11 41 23 25 22 29 22 43 8 15 -15
15 -20 -1 -64 -35 -93 -16 -147 52 -147 28 0 45 12 104 68 61 59 79 71 126 81
104 23 137 39 149 73 6 17 11 43 11 57 -1 30 -64 121 -84 121 -23 0 -66 -59
-66 -90 0 -32 14 -40 75 -40 45 0 65 -14 47 -32 -5 -5 -45 -18 -88 -29 -102
-27 -124 -39 -205 -115 -38 -35 -72 -64 -76 -64 -20 0 -53 33 -53 52 0 43 38
103 74 116 50 19 63 57 43 130 -9 33 -12 58 -6 60 14 6 11 20 -11 42 -26 26
-40 25 -40 -1z m318 -96 c2 -8 -6 -13 -22 -13 -25 0 -33 10 -19 24 10 10 36 3
41 -11z"/>
<path d="M257 481 c-3 -15 0 -18 17 -14 18 4 17 2 -6 -17 -32 -25 -35 -49 -13
-130 8 -30 13 -68 10 -85 -4 -24 -3 -26 4 -10 13 28 13 75 -1 135 -13 56 -6
70 38 70 28 0 36 22 18 49 -19 26 -60 28 -67 2z"/>
<path d="M893 453 l-10 -28 -12 23 c-6 12 -18 22 -26 22 -21 0 -19 -8 14 -41
l29 -29 7 30 c6 26 9 29 22 18 13 -10 15 -9 12 6 -6 30 -26 30 -36 -1z"/>
<path d="M541 456 c-10 -12 -17 -13 -31 -4 -14 9 -22 9 -35 -2 -16 -13 -15
-15 5 -32 20 -16 25 -17 39 -4 12 11 21 12 34 4 26 -14 46 6 31 29 -15 23 -29
26 -43 9z"/>
<path d="M490 180 c-8 -15 -6 -21 11 -30 14 -8 24 -8 33 -1 7 6 25 9 42 8 23
-2 29 2 29 18 0 23 -34 33 -46 13 -7 -10 -12 -11 -29 0 -26 16 -27 16 -40 -8z"/>
<path d="M1022 168 c-16 -16 -15 -28 3 -28 23 0 18 -16 -11 -39 -15 -12 -22
-21 -16 -21 23 0 73 53 70 74 -3 24 -28 32 -46 14z"/>
</g>
</svg>
