<?xml version="1.0" standalone="no"?>
<!DOCTYPE svg PUBLIC "-//W3C//DTD SVG 20010904//EN"
 "http://www.w3.org/TR/2001/REC-SVG-20010904/DTD/svg10.dtd">
<svg version="1.0" xmlns="http://www.w3.org/2000/svg"
 width="130.000000px" height="76.000000px" viewBox="0 0 130.000000 76.000000"
 preserveAspectRatio="xMidYMid meet">

<g transform="translate(0.000000,76.000000) scale(0.100000,-0.100000)"
fill="#000000" stroke="none">
<path d="M757 611 c-81 -36 -156 -74 -167 -83 -24 -21 -26 -56 -5 -65 22 -8
30 4 16 21 -7 8 -10 19 -7 24 3 5 76 39 163 77 87 38 165 74 173 82 32 29 -28
10 -173 -56z"/>
<path d="M386 649 c-30 -23 -36 -45 -8 -28 22 14 76 4 66 -12 -3 -6 -20 -17
-38 -25 l-31 -13 31 -1 c17 0 43 9 58 21 27 21 35 57 14 63 -49 16 -67 15 -92
-5z"/>
<path d="M586 648 c-22 -31 -21 -70 1 -66 9 2 18 9 21 17 3 8 0 11 -6 7 -19
-12 -24 14 -8 39 20 31 13 33 -8 3z"/>
<path d="M1045 657 c-7 -18 -4 -75 11 -214 7 -62 7 -62 -21 -69 -36 -9 -58 5
-70 44 -5 18 -12 32 -15 32 -3 0 -29 -22 -57 -49 -27 -26 -75 -60 -105 -74
-83 -39 -81 -53 5 -60 40 -3 83 -10 97 -15 23 -9 19 -11 -45 -31 -88 -28 -215
-37 -275 -21 -27 7 -59 26 -82 49 -36 37 -38 37 -95 31 -75 -9 -130 -38 -203
-105 -93 -86 -136 -87 -128 -3 6 55 31 96 72 116 15 8 31 25 37 38 14 38 11
51 -7 26 -8 -12 -22 -22 -30 -22 -24 0 -16 51 21 130 32 67 33 72 10 45 -47
-55 -78 -131 -72 -175 4 -29 -1 -51 -19 -87 -34 -66 -30 -132 8 -151 36 -17
65 -4 136 61 64 59 136 93 177 83 20 -5 25 -12 25 -40 0 -20 8 -40 20 -51 20
-18 21 -18 32 13 9 23 17 31 28 26 108 -47 204 -44 385 11 66 20 145 39 175
42 49 5 69 15 70 34 0 3 -55 9 -122 12 -68 4 -133 10 -146 13 -22 6 -21 8 20
53 23 25 45 47 48 49 3 1 11 -13 18 -32 14 -38 41 -50 80 -35 48 18 53 35 46
148 -4 74 -3 102 5 97 16 -10 13 14 -8 59 -16 34 -20 37 -26 22z"/>
<path d="M1167 657 c-3 -8 3 -97 14 -198 11 -101 20 -220 21 -263 2 -78 3 -78
16 -45 12 29 12 58 -2 209 -19 206 -19 213 -6 205 14 -9 13 3 -7 58 -17 48
-27 57 -36 34z"/>
<path d="M114 614 c-9 -47 8 -65 36 -39 23 20 26 45 8 63 -21 21 -37 13 -44
-24z m36 -9 c0 -8 -7 -15 -15 -15 -8 0 -15 7 -15 15 0 8 7 15 15 15 8 0 15 -7
15 -15z"/>
<path d="M266 618 c-22 -31 -21 -70 1 -66 9 2 18 9 21 17 3 8 0 11 -6 7 -19
-12 -24 14 -8 39 20 31 13 33 -8 3z"/>
<path d="M915 560 c-18 -20 -18 -21 1 -41 20 -20 20 -20 39 1 14 16 17 25 9
37 -16 25 -28 26 -49 3z"/>
<path d="M750 488 c-11 -18 -20 -37 -20 -41 0 -14 31 -20 43 -8 8 8 7 11 -6
11 -21 0 -22 19 -1 48 8 12 13 22 9 22 -3 0 -14 -15 -25 -32z"/>
<path d="M460 480 c0 -25 21 -42 37 -29 18 16 16 30 -3 22 -9 -3 -20 0 -25 8
-7 12 -9 11 -9 -1z"/>
<path d="M250 450 c0 -12 9 -24 24 -30 13 -5 28 -22 34 -39 6 -17 13 -31 16
-31 3 0 11 20 17 45 9 37 14 43 25 34 20 -17 28 -5 14 21 -15 28 -32 21 -43
-19 l-8 -33 -22 34 c-27 39 -57 49 -57 18z"/>
<path d="M544 395 c-5 -12 0 -23 15 -34 12 -9 25 -30 30 -46 l9 -30 20 45 c16
36 21 41 27 28 9 -24 25 -13 18 12 -7 28 -32 25 -43 -6 -10 -25 -30 -25 -30 0
0 7 -9 21 -20 31 -19 17 -20 17 -26 0z"/>
<path d="M310 162 c-67 -33 -64 -31 -58 -37 7 -8 118 47 118 57 0 10 5 12 -60
-20z"/>
<path d="M1096 181 c-3 -5 1 -12 10 -15 15 -6 15 -9 -1 -34 l-16 -27 20 24
c24 27 28 61 7 61 -8 0 -17 -4 -20 -9z"/>
<path d="M921 147 c-16 -16 -13 -35 7 -46 20 -10 42 2 42 24 0 18 -36 35 -49
22z"/>
</g>
</svg>
