<?xml version="1.0" standalone="no"?>
<!DOCTYPE svg PUBLIC "-//W3C//DTD SVG 20010904//EN"
 "http://www.w3.org/TR/2001/REC-SVG-20010904/DTD/svg10.dtd">
<svg version="1.0" xmlns="http://www.w3.org/2000/svg"
 width="145.000000px" height="76.000000px" viewBox="0 0 145.000000 76.000000"
 preserveAspectRatio="xMidYMid meet">

<g transform="translate(0.000000,76.000000) scale(0.100000,-0.100000)"
fill="#000000" stroke="none">
<path d="M570 648 c-125 -51 -150 -64 -150 -78 0 -9 259 96 274 110 23 23 -7
15 -124 -32z"/>
<path d="M1195 680 c-3 -11 -2 -62 4 -112 6 -51 13 -138 17 -194 l6 -100 -53
-12 c-69 -16 -169 -27 -169 -18 0 4 8 18 17 33 17 25 23 127 8 141 -10 10 -48
-42 -80 -108 -31 -64 -40 -70 -123 -70 -58 0 -114 20 -151 53 -16 15 -25 18
-28 10 -3 -7 -21 -13 -41 -13 -59 -1 -119 -35 -204 -115 -78 -75 -109 -90
-136 -63 -29 29 1 123 48 150 41 23 51 79 21 119 l-22 29 36 47 c50 65 43 76
-13 20 -47 -47 -49 -47 -66 -28 -13 14 -14 20 -4 23 11 4 -40 38 -57 38 -15 0
-2 -53 21 -80 l27 -31 -27 -49 c-23 -42 -25 -53 -15 -72 7 -13 17 -26 24 -30
9 -6 11 -27 8 -72 -5 -55 -3 -66 16 -85 41 -41 74 -29 165 58 61 58 94 82 125
91 52 14 81 6 81 -23 0 -28 27 -67 46 -67 8 0 17 13 20 30 6 29 8 30 48 22 22
-4 62 -7 89 -6 34 1 47 -3 47 -13 0 -8 7 -13 17 -11 11 2 19 -7 25 -32 16 -61
79 -100 107 -66 20 24 24 79 8 101 -15 19 -12 20 75 37 49 9 96 22 104 29 26
22 33 76 24 202 -13 168 -13 162 5 147 23 -19 19 11 -7 65 -26 50 -34 54 -43
25z m-886 -334 l23 -24 -25 -17 c-34 -22 -80 -24 -84 -4 -4 18 33 69 51 69 7
0 23 -11 35 -24z m703 -11 c4 -16 -2 -31 -17 -45 -20 -19 -51 -28 -43 -12 24
50 43 82 49 82 4 0 9 -11 11 -25z m-18 -176 c31 -24 34 -49 6 -49 -23 0 -60
33 -60 55 0 21 23 19 54 -6z"/>
<path d="M862 678 c-6 -8 -15 -29 -18 -47 l-7 -32 -28 30 c-34 38 -59 40 -59
7 0 -18 6 -25 23 -28 13 -2 29 -16 39 -37 l17 -34 11 27 c5 15 10 35 10 44 0
9 4 23 9 31 8 12 12 12 24 2 23 -18 30 4 9 29 -15 19 -20 20 -30 8z"/>
<path d="M1317 675 c-4 -8 1 -90 9 -182 8 -92 15 -209 17 -260 1 -62 5 -89 12
-82 12 12 13 194 2 338 -7 94 -7 103 7 91 22 -18 21 0 -5 61 -22 51 -33 59
-42 34z"/>
<path d="M1036 639 c-31 -25 -33 -53 -5 -72 20 -15 19 -16 -23 -50 -96 -79
-97 -80 -40 -51 30 16 63 41 74 57 29 40 43 21 43 -56 0 -54 2 -62 19 -62 11
0 23 10 28 25 7 20 7 23 -3 13 -7 -7 -16 -13 -20 -13 -16 0 -20 41 -8 75 11
30 11 37 -5 54 -12 14 -16 28 -12 45 6 26 -1 56 -14 56 -4 0 -19 -9 -34 -21z
m32 -32 c2 -10 -3 -17 -12 -17 -18 0 -29 16 -21 31 9 14 29 6 33 -14z"/>
<path d="M297 629 c-16 -22 -17 -22 -37 -4 -16 14 -22 15 -35 5 -20 -17 -19
-37 4 -49 14 -8 22 -7 31 4 14 17 40 20 40 5 0 -5 9 -10 19 -10 28 0 35 30 13
53 -19 19 -20 19 -35 -4z"/>
<path d="M576 558 c-10 -39 -7 -65 10 -79 14 -11 18 -10 30 6 18 25 18 41 -1
25 -23 -19 -38 -2 -30 36 7 38 1 46 -9 12z"/>
<path d="M695 458 c-72 -27 -124 -58 -100 -58 23 0 200 69 203 79 6 17 -16 13
-103 -21z"/>
<path d="M464 419 c-18 -21 -18 -21 5 -40 18 -15 27 -17 37 -8 20 16 17 47 -5
58 -14 8 -23 6 -37 -10z"/>
<path d="M816 404 c-3 -9 -6 -31 -6 -50 0 -41 26 -57 46 -29 18 25 18 41 -1
25 -23 -19 -38 -2 -30 36 6 35 2 45 -9 18z"/>
<path d="M1225 191 c-3 -6 1 -11 9 -11 26 0 18 -26 -15 -54 -17 -14 -25 -26
-19 -26 18 0 82 68 78 82 -6 16 -44 23 -53 9z"/>
<path d="M133 159 c-61 -28 -87 -49 -61 -49 19 0 134 56 142 69 11 18 -14 11
-81 -20z"/>
<path d="M521 137 c-1 -40 23 -62 40 -36 14 22 10 33 -6 19 -16 -13 -18 -10
-28 35 -3 11 -5 3 -6 -18z"/>
<path d="M765 160 c-3 -5 1 -10 10 -10 23 0 13 -22 -16 -37 -16 -9 -19 -13 -8
-13 27 0 63 35 56 53 -7 19 -32 23 -42 7z"/>
</g>
</svg>
