<?xml version="1.0" standalone="no"?>
<!DOCTYPE svg PUBLIC "-//W3C//DTD SVG 20010904//EN"
 "http://www.w3.org/TR/2001/REC-SVG-20010904/DTD/svg10.dtd">
<svg version="1.0" xmlns="http://www.w3.org/2000/svg"
 width="177.000000px" height="76.000000px" viewBox="0 0 177.000000 76.000000"
 preserveAspectRatio="xMidYMid meet">

<g transform="translate(0.000000,76.000000) scale(0.100000,-0.100000)"
fill="#000000" stroke="none">
<path d="M648 659 c-73 -37 -96 -54 -85 -65 7 -7 115 48 147 74 43 35 18 31
-62 -9z"/>
<path d="M1365 692 c-6 -5 -114 -57 -242 -117 -240 -111 -273 -129 -261 -140
4 -4 87 30 185 75 256 119 330 157 336 174 7 17 -3 21 -18 8z"/>
<path d="M186 674 c-9 -22 -9 -22 23 -38 15 -8 34 -29 41 -46 7 -16 16 -30 20
-30 4 0 13 20 19 45 6 25 16 45 21 45 6 0 10 -4 10 -10 0 -5 5 -10 10 -10 14
0 13 23 -2 43 -18 23 -38 8 -47 -33 l-6 -33 -28 42 c-28 43 -51 52 -61 25z"/>
<path d="M1441 668 c-8 -22 -5 -59 24 -258 8 -52 10 -99 6 -103 -5 -5 -27 -11
-49 -14 -35 -5 -44 -2 -66 22 -23 24 -26 25 -32 10 -4 -10 2 -36 15 -62 21
-43 21 -46 4 -59 -37 -29 -91 -53 -193 -84 -58 -18 -116 -36 -130 -40 -17 -6
3 -9 62 -9 65 -1 101 4 143 20 75 28 139 78 145 113 4 25 13 31 60 45 l55 17
28 -33 c45 -51 87 -43 102 20 11 44 -16 75 -67 79 l-43 3 -11 75 c-24 164 -26
194 -9 180 22 -19 20 11 -5 60 -24 46 -28 48 -39 18z m145 -399 c14 -23 -13
-30 -37 -10 l-24 20 27 1 c15 0 30 -5 34 -11z"/>
<path d="M1617 671 c-2 -10 -1 -37 4 -58 4 -21 18 -130 29 -243 12 -113 25
-214 30 -225 19 -49 20 60 1 220 -25 206 -25 206 -6 199 22 -9 19 23 -8 75
-26 50 -42 61 -50 32z"/>
<path d="M430 660 c0 -20 32 -59 189 -228 53 -56 101 -115 108 -130 l12 -27 1
38 c0 34 -10 48 -120 167 -66 72 -120 132 -120 134 0 2 10 2 23 -2 l22 -5 -20
22 c-21 24 -66 51 -85 51 -5 0 -10 -9 -10 -20z"/>
<path d="M746 657 c-3 -14 1 -71 9 -128 19 -133 19 -222 0 -258 -19 -37 -103
-112 -168 -150 -50 -30 -51 -31 -17 -25 19 4 49 13 67 20 43 17 118 87 133
125 l13 30 18 -41 c10 -22 29 -45 43 -51 32 -15 91 -4 117 22 19 19 19 19 40
-2 25 -25 76 -20 97 11 13 18 16 18 37 4 21 -13 28 -14 52 -2 25 12 28 19 31
66 2 32 -1 52 -7 52 -6 0 -11 -16 -11 -35 0 -56 -54 -58 -62 -3 -3 18 -7 15
-28 -18 -21 -33 -31 -39 -60 -39 -30 0 -35 4 -40 28 l-5 29 -22 -31 c-44 -59
-142 -50 -169 15 -8 19 -14 58 -14 88 0 70 -29 298 -40 309 -4 5 -10 -3 -14
-16z"/>
<path d="M854 656 c-7 -19 3 -36 22 -36 8 0 22 -16 30 -35 17 -42 29 -39 38
10 7 37 15 42 34 23 9 -9 12 -9 12 2 0 25 -17 43 -34 37 -9 -4 -16 -15 -16
-25 0 -32 -12 -32 -34 0 -25 37 -44 46 -52 24z"/>
<path d="M369 563 c-14 -38 -8 -68 15 -68 26 0 32 21 7 28 -17 4 -19 9 -11 36
11 38 3 41 -11 4z"/>
<path d="M1358 555 c-8 -19 -8 -28 3 -41 12 -14 9 -20 -21 -48 -19 -17 -48
-41 -65 -54 l-30 -23 41 20 c23 11 56 34 73 52 18 18 38 29 46 25 20 -7 28 9
10 24 -8 7 -15 25 -15 41 0 36 -26 39 -42 4z m32 -10 c0 -8 -4 -15 -9 -15 -13
0 -22 16 -14 24 11 11 23 6 23 -9z"/>
<path d="M109 516 c-12 -28 -19 -63 -18 -94 l2 -50 34 34 c18 18 33 37 33 41
0 4 -5 2 -12 -5 -16 -16 -35 -15 -41 1 -3 8 3 37 12 65 22 64 17 67 -10 8z"/>
<path d="M1230 524 c-25 -65 -2 -96 41 -53 25 25 21 59 -9 70 -19 7 -24 4 -32
-17z m38 -26 c-7 -19 -38 -22 -38 -4 0 10 9 16 21 16 12 0 19 -5 17 -12z"/>
<path d="M244 419 c-18 -20 -18 -21 1 -35 23 -17 42 -18 48 -1 3 9 10 9 31 -2
24 -13 28 -13 43 2 16 16 16 18 -5 40 -22 21 -24 21 -37 4 -12 -17 -15 -17
-38 -3 -22 15 -25 15 -43 -5z"/>
<path d="M81 325 c-3 -126 124 -171 304 -106 44 16 101 37 127 47 53 20 69 14
48 -19 -59 -94 -73 -118 -69 -122 9 -8 101 140 106 171 8 47 -16 48 -125 5
-159 -63 -247 -76 -315 -48 -40 17 -57 38 -67 80 l-8 32 -1 -40z"/>
<path d="M308 156 c-90 -32 -130 -56 -92 -56 31 1 187 64 192 78 5 16 3 15
-100 -22z"/>
<path d="M990 138 c-13 -5 -34 -7 -46 -4 -14 4 -44 -5 -79 -24 -31 -17 -51
-30 -43 -30 7 0 29 9 49 19 21 12 56 19 88 19 55 1 66 4 60 20 -3 6 -13 6 -29
0z"/>
</g>
</svg>
