<?xml version="1.0" standalone="no"?>
<!DOCTYPE svg PUBLIC "-//W3C//DTD SVG 20010904//EN"
 "http://www.w3.org/TR/2001/REC-SVG-20010904/DTD/svg10.dtd">
<svg version="1.0" xmlns="http://www.w3.org/2000/svg"
 width="113.000000px" height="76.000000px" viewBox="0 0 113.000000 76.000000"
 preserveAspectRatio="xMidYMid meet">

<g transform="translate(0.000000,76.000000) scale(0.100000,-0.100000)"
fill="#000000" stroke="none">
<path d="M516 674 c-6 -20 13 -214 35 -353 12 -75 6 -99 -28 -112 -32 -12 -60
-4 -68 20 -3 10 -12 106 -20 212 -7 107 -18 205 -23 219 l-9 25 -7 -33 c-4
-18 -3 -72 3 -120 23 -196 24 -236 4 -254 -47 -41 -86 -52 -189 -53 -86 0
-105 3 -123 19 -30 28 -27 69 9 106 16 17 30 38 30 47 0 13 -3 14 -12 5 -7 -7
-18 -12 -26 -12 -21 0 -11 87 17 140 12 23 20 44 17 47 -2 2 -18 -25 -36 -60
-26 -54 -31 -75 -30 -128 1 -35 -1 -83 -5 -106 -15 -86 47 -128 176 -121 95 6
172 39 177 78 3 20 7 16 20 -24 21 -61 38 -73 89 -60 26 6 42 17 51 36 13 27
14 27 38 12 32 -22 112 -15 186 16 l57 23 26 -31 c32 -38 67 -42 89 -10 37 52
8 102 -56 96 -44 -4 -42 -7 -57 102 -23 174 -24 190 -7 184 14 -5 15 -2 6 21
-5 14 -15 36 -21 47 -10 19 -12 19 -21 5 -6 -11 -1 -77 13 -187 11 -94 19
-176 16 -184 -8 -20 -103 -49 -160 -50 -80 -1 -89 16 -116 227 -12 97 -26 189
-30 204 -7 26 -8 27 -15 7z m430 -428 c10 -8 16 -18 12 -22 -10 -9 -58 12 -58
26 0 14 23 12 46 -4z"/>
<path d="M617 664 c-13 -14 -7 -32 13 -37 11 -3 25 -18 31 -34 12 -30 15 -27
33 31 5 16 9 16 23 5 15 -12 16 -12 10 4 -4 10 -7 21 -7 23 0 2 -6 4 -14 4 -8
0 -17 -12 -20 -26 l-7 -27 -27 32 c-15 18 -30 29 -35 25z"/>
<path d="M988 653 c-2 -10 0 -38 4 -63 4 -25 17 -137 29 -250 12 -113 22 -206
24 -208 2 -2 6 10 10 27 5 25 -9 195 -31 360 -5 40 -4 44 10 32 23 -20 21 8
-5 70 -22 51 -35 61 -41 32z"/>
<path d="M180 644 c0 -9 9 -18 19 -21 11 -3 27 -20 36 -39 19 -41 30 -37 39
11 7 37 15 42 34 23 9 -9 12 -9 12 3 0 24 -17 42 -34 36 -9 -4 -16 -15 -16
-26 0 -32 -15 -32 -39 -1 -23 32 -51 40 -51 14z"/>
<path d="M732 538 c-16 -16 -15 -55 1 -61 15 -5 -20 -46 -75 -83 -21 -15 -36
-29 -34 -31 8 -8 47 18 92 59 26 24 50 38 59 35 8 -4 17 -2 20 4 4 5 -1 12 -9
15 -10 4 -16 19 -16 40 0 35 -16 44 -38 22z m28 -28 c0 -13 -5 -18 -15 -14
-16 7 -19 17 -8 27 12 13 23 7 23 -13z"/>
<path d="M261 444 c-29 -37 -28 -72 4 -80 14 -3 25 -10 25 -14 0 -13 -37 -22
-62 -15 -21 5 -21 5 2 -9 35 -21 56 -20 80 6 30 32 26 57 -10 65 -41 8 -47 21
-16 33 14 5 26 16 26 25 0 24 -26 18 -49 -11z"/>
<path d="M810 200 c-13 -8 -12 -10 3 -10 24 0 21 -24 -5 -44 -20 -15 -21 -15
-2 -7 30 14 47 38 40 56 -6 17 -15 19 -36 5z"/>
<path d="M324 130 c-73 -33 -95 -57 -44 -46 39 7 120 52 120 66 0 14 -7 12
-76 -20z"/>
</g>
</svg>
