<?xml version="1.0" standalone="no"?>
<!DOCTYPE svg PUBLIC "-//W3C//DTD SVG 20010904//EN"
 "http://www.w3.org/TR/2001/REC-SVG-20010904/DTD/svg10.dtd">
<svg version="1.0" xmlns="http://www.w3.org/2000/svg"
 width="153.000000px" height="76.000000px" viewBox="0 0 153.000000 76.000000"
 preserveAspectRatio="xMidYMid meet">

<g transform="translate(0.000000,76.000000) scale(0.100000,-0.100000)"
fill="#000000" stroke="none">
<path d="M933 655 c-3 -10 1 -67 10 -129 31 -211 32 -228 7 -258 -14 -19 -31
-28 -49 -28 -38 0 -41 6 -23 51 14 36 14 43 -1 74 -9 19 -21 35 -26 35 -5 0
-23 -17 -40 -37 -22 -27 -31 -48 -31 -74 0 -39 -12 -49 -55 -49 -47 0 -54 8
-38 42 13 25 13 37 4 69 -6 21 -16 41 -21 44 -30 19 -86 -71 -74 -119 4 -19 1
-25 -20 -30 -53 -13 -81 18 -95 104 -13 77 -24 92 -43 53 -15 -31 -65 -45 -79
-22 -17 28 -21 -21 -5 -62 9 -22 14 -45 10 -51 -13 -21 -168 -88 -205 -88 -55
0 -99 40 -99 90 0 22 6 43 16 50 8 8 19 21 24 30 8 14 5 16 -15 12 -22 -4 -25
-1 -25 22 0 15 7 43 15 64 13 33 13 35 0 17 -24 -30 -38 -96 -28 -125 5 -15 5
-40 -1 -62 -34 -127 81 -186 222 -114 82 41 112 72 112 114 0 36 13 50 71 80
3 1 12 -25 18 -58 16 -80 40 -105 90 -95 20 5 54 7 76 6 50 -3 131 -4 170 -1
17 1 58 -4 92 -11 75 -15 242 1 337 33 48 15 61 17 67 6 5 -7 9 -16 9 -19 0
-5 45 -29 55 -29 15 0 35 37 35 65 0 38 -20 55 -64 55 -28 0 -27 -2 -46 143
-14 107 -13 120 5 113 22 -8 19 20 -6 60 -44 71 -50 37 -27 -146 25 -195 26
-188 -24 -210 -24 -11 -53 -20 -66 -20 -22 0 -22 1 -8 22 9 12 16 35 16 51 0
23 -7 31 -35 43 -51 21 -71 18 -114 -21 l-38 -35 -7 88 c-3 48 -9 108 -12 135
-6 42 -5 47 11 41 15 -6 16 -3 10 17 -4 13 -18 37 -31 52 -21 25 -25 26 -31
12z m-259 -329 c9 -14 6 -21 -13 -37 -12 -10 -27 -16 -32 -13 -13 8 -11 48 3
62 15 15 28 11 42 -12z m184 7 c12 -23 5 -40 -18 -53 -15 -8 -21 -6 -30 11 -9
16 -8 24 6 40 21 24 31 24 42 2z m274 -9 l31 -16 -21 -20 c-19 -20 -113 -48
-161 -48 -24 0 -24 0 -5 21 27 32 95 79 111 79 8 0 28 -7 45 -16z m237 -63 c7
-5 10 -14 7 -20 -8 -13 -46 3 -46 19 0 12 20 13 39 1z"/>
<path d="M1122 612 c-113 -62 -134 -84 -108 -110 9 -10 16 -12 16 -5 0 7 -5
15 -10 18 -18 11 -3 22 105 80 58 31 105 60 105 66 0 12 8 16 -108 -49z"/>
<path d="M1407 647 c-2 -6 4 -91 14 -187 10 -96 19 -195 19 -220 1 -41 2 -43
11 -20 10 24 -2 248 -17 324 -5 23 -3 28 9 23 14 -5 14 -1 0 39 -16 47 -28 61
-36 41z"/>
<path d="M188 623 c-7 -16 -13 -30 -15 -32 -1 -2 -12 8 -24 22 -11 15 -27 27
-35 27 -22 0 -17 -38 7 -45 11 -4 25 -18 31 -31 15 -33 25 -30 33 9 10 44 15
50 31 36 20 -16 28 -5 14 20 -15 28 -28 26 -42 -6z"/>
<path d="M392 643 c-7 -3 -17 -14 -23 -26 -9 -18 -9 -20 2 -9 15 14 45 16 54
2 3 -5 -7 -16 -22 -24 -26 -14 -26 -15 -6 -16 28 0 82 45 68 58 -13 12 -56 21
-73 15z"/>
<path d="M707 624 l-15 -28 -13 22 c-15 25 -49 30 -49 8 0 -8 9 -18 21 -21 11
-4 25 -19 31 -33 7 -20 12 -23 16 -12 21 62 22 63 38 49 14 -11 15 -10 12 11
-5 34 -24 36 -41 4z"/>
<path d="M530 594 c-14 -35 -12 -60 4 -73 11 -9 18 -8 30 4 9 9 16 22 16 28 0
8 -4 7 -12 -1 -22 -22 -31 -12 -25 28 6 46 1 51 -13 14z"/>
<path d="M830 583 c0 -27 -17 -31 -23 -5 -3 10 -5 6 -6 -11 -1 -27 1 -28 32
-22 17 4 35 9 40 12 11 6 9 43 -3 43 -5 0 -10 -8 -10 -17 0 -15 -2 -14 -15 3
-14 19 -14 18 -15 -3z"/>
<path d="M1180 559 c-9 -15 -8 -24 1 -36 11 -13 8 -20 -21 -47 -19 -17 -46
-39 -60 -49 -21 -15 -19 -14 15 2 22 10 51 31 64 45 14 14 33 26 43 26 10 0
18 5 18 10 0 6 -4 10 -10 10 -5 0 -10 14 -10 30 0 35 -23 41 -40 9z m30 -15
c0 -8 -4 -12 -10 -9 -5 3 -10 10 -10 16 0 5 5 9 10 9 6 0 10 -7 10 -16z"/>
<path d="M233 484 c-82 -39 -114 -64 -83 -64 16 0 188 88 195 100 11 18 -19 9
-112 -36z"/>
<path d="M634 475 c-4 -9 -2 -21 4 -27 15 -15 44 -1 40 19 -4 23 -36 29 -44 8z"/>
<path d="M824 475 c-4 -9 -2 -21 4 -27 15 -15 44 -1 40 19 -4 23 -36 29 -44 8z"/>
<path d="M202 338 c-13 -13 2 -38 23 -38 18 0 26 25 12 39 -14 14 -20 14 -35
-1z"/>
<path d="M1256 211 c-4 -5 0 -12 6 -14 10 -4 9 -8 -2 -16 -8 -6 -10 -11 -4
-11 14 0 34 21 34 37 0 15 -26 18 -34 4z"/>
<path d="M440 190 c0 -6 -14 -9 -32 -8 -23 2 -33 -2 -36 -14 -4 -20 37 -36 48
-18 4 6 17 9 32 5 19 -5 27 -2 32 11 4 10 1 21 -6 26 -18 11 -38 10 -38 -2z"/>
<path d="M775 148 c-44 -23 -75 -43 -68 -45 15 -5 153 64 153 77 0 13 8 16
-85 -32z"/>
<path d="M623 145 c-40 -19 -73 -38 -73 -44 0 -5 36 7 80 27 44 20 80 40 80
44 0 12 -9 9 -87 -27z"/>
</g>
</svg>
