<?xml version="1.0" standalone="no"?>
<!DOCTYPE svg PUBLIC "-//W3C//DTD SVG 20010904//EN"
 "http://www.w3.org/TR/2001/REC-SVG-20010904/DTD/svg10.dtd">
<svg version="1.0" xmlns="http://www.w3.org/2000/svg"
 width="110.000000px" height="76.000000px" viewBox="0 0 110.000000 76.000000"
 preserveAspectRatio="xMidYMid meet">

<g transform="translate(0.000000,76.000000) scale(0.100000,-0.100000)"
fill="#000000" stroke="none">
<path d="M665 629 c-77 -39 -159 -82 -182 -96 -45 -25 -55 -51 -28 -73 20 -16
32 -5 16 14 -7 8 -10 20 -6 26 4 6 82 49 175 95 149 75 199 105 173 105 -4 0
-71 -32 -148 -71z"/>
<path d="M845 671 c-3 -10 -1 -30 4 -44 6 -14 17 -99 26 -188 16 -174 16 -172
-32 -185 -36 -10 -53 2 -53 36 0 16 -2 30 -5 30 -2 0 -21 -11 -41 -25 -39 -26
-81 -41 -90 -32 -3 3 -1 14 5 25 26 49 6 86 -56 106 -36 11 -91 -22 -135 -80
l-40 -54 -54 6 c-63 8 -113 -14 -184 -80 -25 -24 -58 -50 -72 -60 -31 -20 -64
-14 -73 14 -9 29 15 98 47 133 45 47 68 98 29 63 -11 -10 -25 -15 -30 -11 -17
10 -12 76 9 123 10 23 17 42 14 42 -3 0 -16 -24 -29 -52 -25 -54 -34 -141 -16
-153 5 -3 -1 -24 -15 -48 -31 -54 -33 -131 -5 -147 44 -23 77 -12 153 51 40
34 88 68 107 76 38 16 95 9 87 -12 -4 -10 17 -13 97 -11 95 2 167 19 257 59
10 5 18 0 25 -15 20 -45 104 -30 125 23 10 23 10 62 0 180 -10 119 -10 153 0
159 9 5 7 18 -9 49 -23 45 -36 51 -46 22z m-230 -333 c14 -6 25 -19 25 -29 0
-26 -70 -59 -136 -66 -65 -7 -71 7 -21 54 57 54 85 63 132 41z"/>
<path d="M964 676 c-3 -7 4 -110 15 -227 12 -118 22 -243 24 -279 2 -63 3 -64
16 -35 11 25 10 60 -3 220 -19 221 -19 228 -6 220 16 -10 12 19 -10 69 -20 49
-27 55 -36 32z"/>
<path d="M96 664 c-4 -9 -5 -18 -4 -18 42 -25 58 -42 68 -71 14 -44 24 -39 39
21 12 45 12 46 31 29 19 -17 20 -17 20 1 -1 53 -43 57 -55 5 -7 -31 -25 -43
-25 -17 0 19 -39 66 -55 66 -7 0 -16 -7 -19 -16z"/>
<path d="M306 645 c-30 -32 -35 -57 -8 -32 20 18 59 22 81 8 11 -7 3 -15 -30
-32 -30 -16 -39 -24 -27 -27 26 -5 89 28 101 55 14 31 1 43 -51 50 -35 5 -44
2 -66 -22z"/>
<path d="M772 556 c7 -37 -8 -42 -26 -9 l-15 28 -1 -32 c0 -38 -16 -43 -30
-10 -8 20 -9 19 -9 -11 l-1 -34 43 7 c23 4 45 13 49 19 12 17 9 54 -3 62 -8 5
-10 -1 -7 -20z"/>
<path d="M290 490 c-9 -16 -8 -18 5 -14 8 4 15 1 15 -5 0 -6 -7 -11 -15 -11
-32 0 -38 -42 -16 -106 17 -49 20 -54 21 -28 0 17 -7 48 -15 68 -16 39 -15 41
30 48 28 4 32 44 6 57 -16 9 -22 8 -31 -9z"/>
<path d="M742 448 c-19 -19 -14 -34 13 -46 21 -10 26 -9 35 7 7 13 6 22 -3 28
-25 20 -34 22 -45 11z"/>
<path d="M902 193 c-10 -4 -9 -9 5 -19 17 -13 16 -15 -10 -39 -15 -14 -23 -25
-18 -25 6 0 25 12 41 28 42 37 30 74 -18 55z"/>
<path d="M707 183 c-12 -11 -8 -25 5 -17 6 4 8 3 5 -3 -4 -6 -18 -8 -32 -5
-17 3 -39 -4 -64 -21 -21 -14 -54 -30 -72 -36 l-34 -9 31 -1 c18 -1 46 9 66
23 24 16 44 22 65 19 32 -5 63 16 63 43 0 14 -21 19 -33 7z"/>
<path d="M308 121 c-26 -14 -50 -32 -53 -39 -5 -15 89 34 106 55 16 19 1 14
-53 -16z"/>
</g>
</svg>
