<?xml version="1.0" standalone="no"?>
<!DOCTYPE svg PUBLIC "-//W3C//DTD SVG 20010904//EN"
 "http://www.w3.org/TR/2001/REC-SVG-20010904/DTD/svg10.dtd">
<svg version="1.0" xmlns="http://www.w3.org/2000/svg"
 width="151.000000px" height="76.000000px" viewBox="0 0 151.000000 76.000000"
 preserveAspectRatio="xMidYMid meet">

<g transform="translate(0.000000,76.000000) scale(0.100000,-0.100000)"
fill="#000000" stroke="none">
<path d="M389 704 c-11 -13 -10 -19 0 -37 12 -19 10 -24 -27 -59 -51 -48 -40
-49 21 -3 27 21 52 32 61 29 20 -8 21 10 1 26 -8 7 -15 23 -15 36 0 28 -21 32
-41 8z m31 -14 c0 -5 -4 -10 -10 -10 -5 0 -10 5 -10 10 0 6 5 10 10 10 6 0 10
-4 10 -10z"/>
<path d="M567 647 c-3 -9 -2 -101 3 -204 5 -103 9 -203 10 -220 0 -47 30 -73
83 -73 63 0 104 29 114 82 l9 43 59 -58 c33 -32 68 -63 77 -68 41 -22 125 -3
158 35 11 14 15 13 36 -9 17 -18 33 -25 62 -25 47 0 70 22 79 73 5 34 -11 236
-24 302 -5 26 -4 28 11 16 24 -20 21 3 -8 63 -22 46 -24 48 -35 28 -8 -15 -8
-35 -1 -69 5 -26 17 -115 25 -198 15 -141 15 -151 -2 -162 -36 -27 -103 -2
-103 38 0 25 -16 25 -30 -1 -16 -29 -63 -50 -114 -50 -42 0 -49 4 -113 68 -54
54 -86 75 -156 106 -48 22 -86 44 -84 50 4 14 266 149 334 172 80 27 85 11 23
-70 -29 -37 -50 -70 -47 -72 9 -9 106 119 112 148 9 37 0 48 -37 48 -56 0
-307 -117 -376 -175 l-29 -24 -6 95 c-7 98 -18 141 -30 111z m92 -316 c49 -25
104 -77 99 -93 -7 -21 -50 -38 -95 -38 -47 0 -47 -1 -58 98 -6 59 -3 61 54 33z"/>
<path d="M787 645 c-98 -51 -158 -95 -128 -95 11 0 113 58 146 83 27 21 15 29
-18 12z"/>
<path d="M1307 639 c-3 -12 3 -110 14 -218 11 -108 20 -227 21 -266 l1 -70 14
35 c13 31 13 55 -1 210 -19 207 -20 231 -6 210 16 -25 12 14 -7 62 -21 56 -29
64 -36 37z"/>
<path d="M415 579 c-5 -14 -1 -27 10 -38 15 -15 17 -15 31 3 12 17 12 22 -3
38 -21 23 -30 23 -38 -3z"/>
<path d="M1078 539 c-59 -35 -84 -59 -61 -59 8 0 153 90 153 96 0 12 -32 -1
-92 -37z"/>
<path d="M460 525 c-9 -11 -16 -12 -31 -2 -23 14 -45 -3 -36 -28 9 -22 37 -31
48 -14 7 12 12 12 30 1 18 -12 23 -12 30 0 14 21 10 37 -10 47 -14 8 -22 7
-31 -4z"/>
<path d="M294 474 c-8 -20 -14 -43 -12 -52 4 -21 38 -28 49 -10 13 20 11 34
-3 20 -7 -7 -16 -12 -20 -12 -11 0 -10 48 2 71 6 10 8 19 5 19 -3 0 -13 -16
-21 -36z"/>
<path d="M1091 458 c-1 -32 -15 -36 -30 -10 -9 15 -10 15 -11 -5 0 -28 11 -34
50 -27 35 7 46 24 35 52 -7 15 -9 14 -15 -8 l-7 -25 -11 25 -11 25 0 -27z"/>
<path d="M775 436 c-18 -13 -17 -15 18 -37 20 -13 37 -27 37 -31 0 -12 -8 -10
-50 17 -41 26 -60 31 -60 16 0 -11 93 -51 119 -51 32 0 25 27 -14 52 -19 13
-35 26 -35 31 0 12 45 8 58 -5 13 -13 27 -5 17 11 -9 16 -68 14 -90 -3z"/>
<path d="M450 396 c0 -14 5 -28 10 -31 17 -10 11 -25 -12 -34 -17 -7 -28 -4
-44 11 -32 29 -38 0 -13 -57 11 -25 17 -50 14 -55 -11 -18 -147 -94 -227 -126
-63 -25 -76 -33 -59 -39 42 -13 110 7 190 56 86 53 108 76 117 124 3 20 16 36
35 47 24 14 29 24 29 53 0 39 -15 75 -30 75 -6 0 -10 -11 -10 -24z"/>
<path d="M955 380 c-31 -59 -9 -122 30 -84 21 21 19 33 -4 27 -28 -7 -34 11
-17 52 18 43 12 46 -9 5z"/>
<path d="M1112 374 c-7 -13 -13 -14 -29 -5 -16 8 -24 7 -34 -5 -11 -14 -10
-18 6 -30 24 -18 31 -18 39 1 5 13 10 14 27 4 17 -9 23 -8 30 2 13 21 11 27
-10 39 -16 8 -22 6 -29 -6z"/>
<path d="M209 301 c-9 -32 -9 -44 0 -55 15 -17 41 -10 41 11 0 8 -4 11 -10 8
-20 -12 -29 5 -19 37 5 17 7 34 5 36 -3 2 -10 -14 -17 -37z"/>
<path d="M503 253 c-7 -2 -13 -11 -13 -19 0 -9 4 -13 9 -9 5 3 12 1 15 -4 4
-5 -6 -19 -21 -30 l-28 -21 26 11 c54 23 65 94 12 72z"/>
<path d="M785 159 c-4 -6 -1 -15 6 -20 11 -8 9 -13 -10 -29 -13 -11 -18 -20
-12 -20 18 0 63 49 58 63 -5 16 -33 21 -42 6z"/>
<path d="M1270 145 c0 -8 5 -15 12 -15 6 0 3 -10 -8 -21 -14 -16 -15 -21 -4
-17 17 5 41 48 34 60 -9 14 -34 9 -34 -7z"/>
<path d="M1087 133 c-11 -10 -8 -25 3 -18 16 10 12 -7 -7 -28 -17 -19 -17 -20
3 -9 20 11 34 32 34 53 0 10 -23 12 -33 2z"/>
<path d="M373 94 c-53 -30 -79 -54 -58 -54 12 0 145 76 145 83 0 14 -26 6 -87
-29z"/>
</g>
</svg>
