<?xml version="1.0" standalone="no"?>
<!DOCTYPE svg PUBLIC "-//W3C//DTD SVG 20010904//EN"
 "http://www.w3.org/TR/2001/REC-SVG-20010904/DTD/svg10.dtd">
<svg version="1.0" xmlns="http://www.w3.org/2000/svg"
 width="132.000000px" height="76.000000px" viewBox="0 0 132.000000 76.000000"
 preserveAspectRatio="xMidYMid meet">

<g transform="translate(0.000000,76.000000) scale(0.100000,-0.100000)"
fill="#000000" stroke="none">
<path d="M470 624 c-69 -36 -133 -73 -142 -81 -22 -20 -23 -56 -3 -73 12 -10
15 -10 15 3 0 9 -4 19 -10 22 -5 3 -10 10 -10 14 0 5 65 43 145 85 80 43 145
81 145 87 0 15 -10 11 -140 -57z"/>
<path d="M1085 680 c-10 -17 -8 -54 14 -234 11 -93 18 -172 15 -177 -5 -8 -69
-29 -91 -29 -9 0 -8 10 3 36 19 45 10 72 -29 89 -50 21 -84 8 -158 -63 -68
-64 -69 -64 -94 -48 -14 9 -25 25 -25 36 0 29 -17 24 -35 -10 -19 -36 -43 -50
-87 -50 -55 0 -78 23 -78 79 l0 48 89 41 c78 36 124 73 109 88 -8 8 -260 26
-283 20 -29 -7 -58 -51 -50 -76 3 -11 19 -27 36 -37 16 -9 29 -20 29 -23 0 -3
-34 -22 -76 -43 -63 -31 -75 -41 -72 -59 2 -18 14 -25 60 -36 32 -8 58 -18 58
-22 0 -10 -103 -55 -174 -75 -48 -14 -66 -15 -97 -6 -44 13 -89 62 -89 97 0
29 26 84 40 84 14 0 40 30 40 46 0 12 -3 12 -20 2 -44 -27 -49 44 -9 126 28
58 17 55 -15 -4 -30 -55 -46 -153 -27 -164 8 -5 6 -14 -4 -30 -9 -13 -18 -46
-21 -73 -6 -43 -3 -53 20 -80 37 -44 75 -56 154 -51 91 7 196 56 218 101 18
38 5 87 -23 87 -10 0 -25 5 -33 10 -11 7 -1 15 44 35 71 32 86 24 86 -45 0
-61 24 -85 85 -85 34 0 50 6 72 27 l28 26 32 -27 c25 -21 31 -32 27 -51 l-6
-25 19 21 c14 17 35 23 93 29 239 23 253 27 269 78 11 33 5 150 -16 296 -4 31
-2 42 6 37 17 -11 13 20 -8 60 -11 20 -22 31 -26 24z m-501 -216 c25 -4 46
-10 46 -14 0 -4 -26 -19 -59 -34 l-59 -26 -55 34 c-31 18 -54 36 -50 40 8 8
117 8 177 0z m404 -150 c32 -22 28 -33 -21 -54 -48 -21 -157 -38 -157 -24 0 4
19 28 42 51 34 35 49 43 78 43 19 0 46 -7 58 -16z"/>
<path d="M1185 671 c-3 -11 3 -116 14 -233 12 -117 22 -240 24 -273 2 -59 2
-60 16 -30 11 25 11 59 -3 220 -19 221 -19 218 -6 210 15 -9 12 19 -7 67 -21
56 -30 65 -38 39z"/>
<path d="M170 652 c0 -6 11 -30 25 -53 16 -29 25 -60 25 -88 0 -34 3 -42 11
-34 20 20 14 121 -8 151 -20 27 -53 42 -53 24z"/>
<path d="M311 634 c-12 -15 -21 -31 -21 -36 0 -15 31 -21 43 -9 8 8 7 11 -6
11 -22 0 -22 18 0 42 9 10 13 18 10 18 -3 0 -15 -12 -26 -26z"/>
<path d="M701 621 c-17 -58 4 -92 37 -59 17 17 16 44 -1 29 -20 -16 -28 -2
-21 36 9 45 0 42 -15 -6z"/>
<path d="M908 614 c-5 -4 -8 -16 -8 -26 0 -10 -4 -18 -10 -18 -5 0 -10 10 -10
22 0 12 -3 18 -7 14 -4 -4 -8 -15 -8 -23 0 -26 -25 -27 -26 -1 l0 23 -11 -22
c-18 -38 -4 -55 39 -47 49 8 55 15 51 54 -2 17 -6 28 -10 24z"/>
<path d="M996 566 c-19 -41 -21 -72 -3 -78 18 -7 37 2 37 18 0 8 -6 11 -15 8
-18 -7 -21 27 -4 58 6 11 9 22 6 24 -2 3 -12 -11 -21 -30z"/>
<path d="M855 469 c-7 -22 7 -39 33 -39 22 0 26 30 6 45 -26 19 -32 19 -39 -6z"/>
<path d="M206 404 c-4 -12 -2 -15 9 -10 22 8 18 -7 -6 -22 -18 -12 -20 -19
-14 -50 4 -20 11 -57 16 -82 6 -35 7 -27 4 38 -4 81 -4 82 19 82 31 0 40 24
17 44 -22 20 -37 20 -45 0z"/>
<path d="M747 403 c-4 -3 -7 -17 -7 -30 0 -16 6 -23 20 -23 11 0 20 5 20 10 0
6 -7 10 -16 10 -11 0 -15 6 -11 20 5 21 4 24 -6 13z"/>
<path d="M1112 181 c-11 -7 -11 -9 2 -14 25 -10 19 -25 -16 -47 -18 -11 -28
-20 -23 -20 6 0 25 9 43 20 24 15 32 27 30 42 -3 24 -17 32 -36 19z"/>
<path d="M493 149 c18 -10 18 -12 1 -30 -17 -18 -17 -19 -1 -13 20 7 39 38 30
48 -3 3 -16 6 -27 6 -20 -1 -20 -1 -3 -11z"/>
</g>
</svg>
