<?xml version="1.0" standalone="no"?>
<!DOCTYPE svg PUBLIC "-//W3C//DTD SVG 20010904//EN"
 "http://www.w3.org/TR/2001/REC-SVG-20010904/DTD/svg10.dtd">
<svg version="1.0" xmlns="http://www.w3.org/2000/svg"
 width="150.000000px" height="76.000000px" viewBox="0 0 150.000000 76.000000"
 preserveAspectRatio="xMidYMid meet">

<g transform="translate(0.000000,76.000000) scale(0.100000,-0.100000)"
fill="#000000" stroke="none">
<path d="M622 658 c-15 -15 -16 -54 -2 -63 18 -11 11 -21 -55 -70 -36 -27 -65
-51 -65 -53 0 -12 107 58 124 81 15 21 26 27 43 22 25 -6 32 12 8 21 -9 4 -15
19 -15 40 0 35 -16 44 -38 22z m28 -28 c0 -13 -5 -18 -15 -14 -16 7 -19 17 -8
27 12 13 23 7 23 -13z"/>
<path d="M274 625 c-3 -19 -8 -35 -11 -35 -2 0 -16 14 -30 30 -28 33 -48 38
-57 14 -8 -21 1 -34 25 -34 13 0 25 -12 35 -35 18 -44 28 -39 44 22 10 43 13
46 24 31 7 -10 16 -18 20 -18 11 0 7 35 -6 48 -21 21 -37 13 -44 -23z"/>
<path d="M896 652 c-10 -17 -10 -57 3 -132 5 -36 13 -108 16 -160 12 -186 39
-240 120 -240 43 0 126 25 184 54 31 17 32 17 49 -14 33 -59 92 -47 94 19 1
39 -19 61 -63 70 -32 6 -34 10 -40 56 -4 28 -9 94 -12 148 -4 94 -4 97 16 91
17 -5 19 -3 13 19 -8 33 -45 97 -56 97 -11 0 -23 -37 -16 -49 3 -5 10 -73 16
-152 6 -79 13 -165 16 -190 l6 -45 -62 -28 c-34 -16 -88 -30 -119 -33 -54 -5
-58 -4 -83 26 -30 34 -33 53 -47 281 -10 146 -21 204 -35 182z m442 -474 c5
-25 -21 -23 -44 3 -19 21 -19 21 11 17 19 -2 31 -10 33 -20z"/>
<path d="M1375 648 c-7 -18 6 -199 29 -403 11 -96 14 -105 20 -72 5 23 2 98
-8 190 -19 178 -20 219 -6 197 18 -28 11 22 -9 65 -15 32 -20 37 -26 23z"/>
<path d="M754 614 c-7 -38 13 -73 35 -60 17 11 13 34 -6 32 -14 -1 -17 6 -15
32 3 43 -5 41 -14 -4z"/>
<path d="M434 600 c1 -32 5 -45 15 -45 8 0 16 6 19 13 2 6 -3 12 -12 12 -9 0
-16 12 -19 33 -3 21 -4 17 -3 -13z"/>
<path d="M1035 610 c-4 -6 4 -23 16 -37 18 -18 24 -36 24 -68 0 -50 13 -46 21
6 8 54 -41 132 -61 99z"/>
<path d="M85 514 c-13 -31 -15 -56 -10 -119 3 -44 10 -96 15 -116 19 -72 91
-105 164 -75 47 20 50 20 43 2 -11 -29 13 -86 43 -101 37 -19 65 -19 121 0 63
22 116 68 130 114 10 33 17 40 53 51 80 23 214 91 219 111 7 25 5 24 -67 -11
-54 -27 -66 -29 -92 -20 -39 15 -64 39 -64 61 0 27 57 53 115 52 50 0 50 0 20
13 -107 47 -202 -37 -146 -131 l20 -35 -25 -6 c-21 -5 -31 0 -56 30 -16 20
-35 36 -42 36 -20 0 -45 -33 -52 -67 -5 -26 -2 -34 18 -47 17 -11 35 -14 56
-10 62 13 23 -36 -63 -78 -90 -45 -140 -44 -165 2 -18 34 -5 63 44 99 59 42
77 92 53 151 -14 37 -14 42 -1 47 13 5 10 11 -13 28 -50 40 -58 5 -18 -75 14
-27 25 -54 25 -60 0 -14 -141 -106 -185 -120 -53 -17 -105 11 -124 67 -14 40
-14 43 12 80 30 43 35 62 12 43 -8 -6 -19 -9 -25 -5 -13 8 -13 71 1 97 6 11 8
22 5 25 -2 3 -12 -12 -21 -33z m463 -211 c2 -8 -6 -13 -22 -13 -17 0 -26 5
-26 16 0 19 41 16 48 -3z"/>
<path d="M1096 389 c-49 -27 -95 -54 -102 -60 -16 -13 -19 -59 -4 -59 5 0 9
10 7 22 -2 19 14 31 100 78 56 30 103 58 103 63 0 12 -12 7 -104 -44z"/>
<path d="M233 414 c-4 -11 1 -22 12 -31 16 -11 21 -11 35 3 13 14 13 17 -4 30
-26 18 -35 18 -43 -2z"/>
<path d="M1094 281 c1 -49 18 -64 36 -31 10 20 10 21 -8 15 -17 -5 -21 -1 -25
27 -3 23 -4 20 -3 -11z"/>
<path d="M746 254 c-18 -17 -21 -44 -6 -44 6 0 3 -14 -6 -32 -15 -30 -15 -32
1 -45 19 -13 47 -10 104 13 48 20 33 27 -19 9 -54 -19 -69 -19 -77 1 -4 12 5
26 28 46 26 23 29 28 12 23 -12 -3 -24 -1 -28 5 -3 5 1 10 9 10 17 0 21 15 7
25 -5 3 -17 -2 -25 -11z"/>
</g>
</svg>
