<?xml version="1.0" standalone="no"?>
<!DOCTYPE svg PUBLIC "-//W3C//DTD SVG 20010904//EN"
 "http://www.w3.org/TR/2001/REC-SVG-20010904/DTD/svg10.dtd">
<svg version="1.0" xmlns="http://www.w3.org/2000/svg"
 width="153.000000px" height="76.000000px" viewBox="0 0 153.000000 76.000000"
 preserveAspectRatio="xMidYMid meet">

<g transform="translate(0.000000,76.000000) scale(0.100000,-0.100000)"
fill="#000000" stroke="none">
<path d="M1126 661 c-5 -7 0 -21 10 -32 10 -11 18 -35 18 -54 0 -21 3 -30 8
-22 14 22 8 74 -10 98 -14 16 -21 19 -26 10z"/>
<path d="M390 641 c-15 -29 -12 -61 6 -68 9 -3 20 0 25 8 14 22 10 33 -6 19
-20 -17 -31 10 -15 39 6 12 8 21 6 21 -3 0 -10 -9 -16 -19z"/>
<path d="M583 584 c-176 -66 -227 -93 -210 -110 2 -2 37 11 78 29 41 17 136
55 211 82 76 28 140 56 142 63 3 6 0 12 -7 12 -7 0 -103 -35 -214 -76z"/>
<path d="M1007 645 c-4 -8 0 -81 8 -162 7 -81 16 -184 20 -228 7 -71 9 -77 18
-51 7 20 6 73 -2 166 -14 167 -14 193 -1 185 15 -10 12 16 -10 63 -21 46 -25
49 -33 27z"/>
<path d="M1275 647 c-4 -9 0 -72 9 -139 20 -158 20 -194 0 -202 -31 -12 -49
-5 -69 27 -26 42 -57 46 -84 11 -40 -51 -21 -95 45 -99 19 -1 37 -5 40 -8 10
-9 -70 -66 -115 -82 -123 -42 -171 -1 -140 117 10 38 9 49 -10 94 -13 30 -33
57 -48 65 -23 12 -27 11 -44 -10 -25 -31 -35 -70 -22 -90 6 -10 27 -17 57 -19
54 -4 58 -15 15 -38 -44 -22 -131 -30 -169 -14 -39 16 -38 28 4 45 33 14 56
49 41 63 -4 4 -54 7 -111 7 -82 0 -107 -3 -114 -15 -17 -27 -11 -40 18 -40 16
0 37 -6 47 -14 18 -13 17 -14 -6 -29 -38 -24 -116 -47 -160 -47 -49 0 -83 17
-128 64 -19 20 -43 36 -52 36 -22 0 -50 -38 -82 -111 -13 -31 -32 -59 -41 -62
-23 -9 -62 34 -70 77 -7 38 2 96 16 96 9 0 38 61 38 81 0 6 -9 1 -20 -12 -19
-23 -21 -23 -34 -6 -17 22 -12 69 15 141 10 28 16 52 14 54 -9 9 -47 -94 -58
-154 -9 -52 -8 -66 5 -85 11 -17 14 -40 10 -80 -6 -73 25 -149 60 -149 35 0
47 12 81 80 44 88 56 93 107 46 22 -20 52 -41 66 -46 57 -22 160 -4 252 44 31
16 33 16 73 -14 48 -34 81 -37 155 -15 27 8 52 15 57 15 4 0 7 -19 7 -43 0
-66 20 -87 86 -87 90 0 183 52 210 116 9 22 26 39 48 48 21 9 37 24 43 42 9
27 4 115 -12 228 -5 32 -3 37 10 32 13 -5 15 -1 9 16 -3 12 -15 35 -25 52 -15
24 -19 27 -24 13z m-367 -274 c2 -8 -6 -13 -22 -13 -25 0 -33 10 -19 24 10 10
36 3 41 -11z m-200 -33 c15 -1 14 -3 -2 -15 -14 -11 -23 -12 -33 -4 -18 16
-16 32 3 25 9 -3 23 -6 32 -6z m483 -36 c11 -14 9 -15 -16 -12 -16 1 -30 9
-33 16 -6 18 33 15 49 -4z"/>
<path d="M1401 641 c-7 -11 -9 -31 -6 -43 11 -47 43 -434 39 -463 l-5 -30 17
29 c15 27 16 44 5 174 -7 80 -15 166 -18 193 -5 43 -4 49 11 43 15 -6 14 1 -5
52 -27 72 -25 70 -38 45z"/>
<path d="M177 623 c-14 -13 -6 -28 23 -45 16 -9 32 -28 36 -42 9 -37 21 -32
29 11 9 49 14 56 30 43 19 -16 26 2 9 24 -11 16 -16 17 -29 6 -8 -7 -15 -21
-15 -31 0 -28 -13 -23 -33 11 -17 29 -36 38 -50 23z"/>
<path d="M640 528 c-25 -40 -23 -81 4 -86 10 -2 22 2 27 10 14 21 11 27 -11
21 -24 -7 -27 19 -6 60 20 38 10 34 -14 -5z"/>
<path d="M823 524 c-3 -8 1 -22 9 -30 13 -13 16 -13 27 0 11 14 15 14 36 0 22
-14 24 -14 34 4 7 13 7 22 -1 30 -16 16 -35 15 -41 0 -4 -10 -7 -10 -18 0 -18
17 -38 15 -46 -4z"/>
<path d="M1155 475 c-51 -29 -80 -55 -61 -55 15 0 123 60 135 74 21 25 -5 18
-74 -19z"/>
<path d="M213 434 c-3 -8 1 -23 10 -31 13 -13 19 -14 31 -4 11 9 20 9 34 2 29
-16 52 13 29 36 -13 14 -19 14 -32 3 -12 -10 -19 -10 -27 -2 -17 17 -38 15
-45 -4z"/>
<path d="M427 363 c-11 -42 -1 -73 23 -73 18 0 38 36 26 47 -3 4 -6 1 -6 -5 0
-7 -6 -12 -14 -12 -10 0 -16 13 -18 38 l-3 37 -8 -32z"/>
<path d="M1295 200 c-3 -5 3 -10 14 -10 29 0 26 -14 -6 -39 -16 -11 -23 -21
-17 -21 20 0 64 41 64 61 0 13 -7 19 -24 19 -14 0 -28 -4 -31 -10z"/>
<path d="M625 181 c-3 -6 1 -11 9 -11 30 0 16 -28 -21 -44 -34 -15 -35 -16 -8
-11 43 9 77 33 73 53 -4 19 -43 29 -53 13z"/>
<path d="M823 152 c-40 -20 -73 -42 -73 -49 0 -14 133 48 145 67 13 21 0 18
-72 -18z"/>
</g>
</svg>
