<?xml version="1.0" standalone="no"?>
<!DOCTYPE svg PUBLIC "-//W3C//DTD SVG 20010904//EN"
 "http://www.w3.org/TR/2001/REC-SVG-20010904/DTD/svg10.dtd">
<svg version="1.0" xmlns="http://www.w3.org/2000/svg"
 width="157.000000px" height="76.000000px" viewBox="0 0 157.000000 76.000000"
 preserveAspectRatio="xMidYMid meet">

<g transform="translate(0.000000,76.000000) scale(0.100000,-0.100000)"
fill="#000000" stroke="none">
<path d="M564 665 c-4 -9 -2 -34 4 -58 6 -23 13 -100 17 -172 4 -72 11 -147
16 -167 12 -45 56 -84 107 -93 48 -8 159 15 236 49 l58 26 29 -25 c55 -45 134
-45 190 2 l30 25 24 -26 c26 -28 48 -32 90 -16 44 17 48 48 25 209 -24 174
-23 164 -6 158 12 -5 13 -1 4 23 -5 16 -16 34 -24 41 -8 6 -14 19 -14 28 -1
15 -1 15 -10 0 -6 -11 -1 -76 16 -195 13 -98 23 -187 22 -198 -6 -40 -90 -38
-103 3 -6 19 -8 19 -49 -10 -50 -36 -111 -41 -153 -14 l-27 18 44 21 c56 26
62 50 19 65 -84 29 -238 -4 -239 -51 0 -3 8 -4 19 -1 23 6 87 -25 75 -37 -19
-18 -162 -50 -225 -50 -107 0 -107 0 -124 220 -8 102 -17 197 -21 213 -6 30
-21 36 -30 12z m482 -350 c-25 -19 -40 -19 -56 0 -11 13 -6 15 31 15 41 -1 43
-2 25 -15z"/>
<path d="M1428 653 c-2 -10 0 -34 4 -53 4 -19 17 -123 28 -230 12 -107 23
-197 25 -199 19 -19 7 187 -21 358 -4 28 -3 33 10 28 22 -9 20 14 -6 68 -23
48 -34 56 -40 28z"/>
<path d="M695 649 c-4 -5 7 -22 24 -38 17 -16 31 -34 31 -41 0 -22 18 0 24 31
5 28 8 30 22 18 14 -12 16 -11 13 5 -6 31 -28 30 -40 -1 l-11 -28 -13 26 c-16
29 -41 44 -50 28z"/>
<path d="M950 581 c-260 -98 -270 -103 -270 -141 0 -33 34 -60 53 -41 7 7 3
16 -13 29 l-24 19 33 17 c18 10 116 48 219 85 211 78 242 91 242 103 0 16 -39
5 -240 -71z"/>
<path d="M437 632 c-19 -20 -23 -62 -7 -62 29 0 2 -33 -60 -76 -38 -26 -68
-49 -66 -51 8 -8 87 38 125 73 25 22 45 32 55 28 11 -4 16 -1 16 10 0 9 -4 16
-10 16 -5 0 -10 13 -10 29 0 40 -22 56 -43 33z m26 -18 c3 -3 3 -12 0 -20 -4
-11 -9 -12 -19 -3 -8 6 -11 15 -8 20 6 10 18 12 27 3z"/>
<path d="M146 613 c-15 -15 -5 -43 18 -49 15 -3 31 -20 41 -40 21 -44 31 -43
40 3 9 50 14 56 31 42 19 -15 28 -6 19 21 -12 37 -43 19 -60 -34 -5 -18 -8
-17 -25 11 -20 33 -53 57 -64 46z"/>
<path d="M1158 547 c-59 -23 -113 -48 -120 -54 -20 -21 4 -16 94 20 46 19 100
39 121 46 35 12 51 32 25 30 -7 0 -61 -19 -120 -42z"/>
<path d="M85 450 c-10 -23 -18 -58 -17 -78 1 -20 2 -62 2 -93 0 -31 4 -68 10
-83 20 -53 129 -72 223 -40 61 21 147 97 147 130 0 19 8 28 31 36 42 14 53 49
33 96 -14 33 -17 35 -24 17 -4 -11 -3 -26 2 -32 6 -7 8 -20 4 -28 -7 -19 -55
-20 -62 0 -4 8 -10 15 -15 15 -14 0 -11 -34 6 -66 8 -16 15 -33 15 -39 0 -29
-173 -105 -238 -105 -46 0 -99 31 -112 65 -10 27 7 86 29 99 6 4 11 15 11 24
0 12 -3 13 -12 4 -30 -30 -42 2 -23 65 18 60 14 65 -10 13z"/>
<path d="M942 468 c-24 -24 -9 -54 22 -42 19 7 21 28 3 43 -10 8 -17 7 -25 -1z"/>
<path d="M1186 403 c-10 -25 35 -46 49 -23 4 6 13 5 25 -3 16 -9 23 -9 35 4
15 14 14 17 0 29 -13 10 -21 11 -34 3 -11 -7 -23 -8 -32 -2 -21 13 -36 11 -43
-8z"/>
<path d="M237 353 c-24 -23 12 -55 38 -33 12 10 13 16 4 26 -12 15 -31 18 -42
7z"/>
<path d="M771 328 c-1 -29 11 -48 30 -48 10 0 19 7 19 15 0 9 -6 12 -15 9 -9
-4 -18 2 -24 17 -7 16 -10 19 -10 7z"/>
<path d="M500 255 c-22 -27 12 -49 38 -23 8 8 9 15 1 25 -15 17 -24 16 -39 -2z"/>
<path d="M977 213 c-4 -3 1 -11 9 -18 15 -10 13 -14 -11 -33 -15 -12 -23 -22
-17 -22 22 0 65 47 59 63 -6 17 -28 23 -40 10z"/>
<path d="M450 165 c-58 -20 -140 -65 -140 -75 0 -14 -3 -15 100 34 89 42 113
67 40 41z"/>
</g>
</svg>
