<?xml version="1.0" standalone="no"?>
<!DOCTYPE svg PUBLIC "-//W3C//DTD SVG 20010904//EN"
 "http://www.w3.org/TR/2001/REC-SVG-20010904/DTD/svg10.dtd">
<svg version="1.0" xmlns="http://www.w3.org/2000/svg"
 width="141.000000px" height="76.000000px" viewBox="0 0 141.000000 76.000000"
 preserveAspectRatio="xMidYMid meet">

<g transform="translate(0.000000,76.000000) scale(0.100000,-0.100000)"
fill="#000000" stroke="none">
<path d="M1138 684 c-3 -11 -2 -59 3 -105 16 -170 21 -157 -76 -217 -72 -46
-105 -75 -105 -95 0 -2 28 -7 62 -11 34 -3 66 -10 70 -14 5 -5 -35 -26 -89
-48 -161 -63 -260 -58 -299 18 -12 23 -21 87 -31 228 -7 107 -16 206 -19 220
-5 23 -6 23 -16 7 -5 -10 -7 -34 -3 -53 3 -19 12 -118 20 -220 16 -208 27
-244 85 -276 39 -20 106 -23 165 -7 21 6 94 35 161 65 72 32 136 54 157 54 23
0 37 6 41 16 10 27 -3 34 -64 34 -65 0 -160 19 -160 32 0 4 27 21 60 38 l60
30 14 -34 c27 -66 87 -54 89 17 1 44 -17 67 -53 67 -33 0 -37 7 -46 101 -6 65
-5 72 10 66 20 -8 20 -3 -8 58 -18 41 -23 46 -28 29z m97 -315 c12 -19 -5 -23
-22 -6 -16 16 -16 17 -1 17 9 0 20 -5 23 -11z"/>
<path d="M1287 679 c-3 -12 -4 -34 -2 -48 3 -14 12 -135 20 -268 8 -133 15
-248 16 -255 1 -7 5 3 9 22 8 31 1 209 -15 384 -4 51 -3 57 10 46 20 -17 20 0
-1 71 -19 65 -29 78 -37 48z"/>
<path d="M567 673 c-10 -10 -8 -35 2 -29 5 4 11 0 14 -6 7 -22 19 -1 12 21 -6
21 -16 26 -28 14z"/>
<path d="M330 648 c0 -13 11 -108 25 -213 26 -206 27 -200 -34 -211 -43 -8
-63 4 -76 45 -16 54 -44 38 -87 -52 -41 -84 -59 -94 -83 -47 -19 37 -21 130
-2 130 8 0 19 11 25 25 14 31 16 57 3 36 -5 -8 -16 -11 -25 -8 -12 5 -16 21
-17 64 0 49 -2 54 -10 33 -13 -30 -2 -246 15 -304 24 -82 67 -69 107 32 35 89
53 104 65 55 4 -16 13 -35 21 -44 13 -15 9 -21 -36 -59 -28 -24 -51 -50 -51
-59 0 -10 21 6 55 40 38 40 66 59 95 67 28 7 42 7 47 -1 3 -6 12 10 19 34 12
38 11 63 -6 186 -23 162 -24 187 -10 178 15 -9 12 20 -7 60 -19 40 -33 45 -33
13z"/>
<path d="M970 628 c-237 -151 -230 -145 -230 -182 0 -19 5 -38 11 -41 18 -12
24 5 10 27 -17 27 -18 26 151 129 132 80 170 110 136 108 -7 0 -42 -19 -78
-41z"/>
<path d="M114 615 c1 -37 5 -50 16 -50 9 0 16 10 17 25 1 14 0 19 -3 13 -11
-24 -23 -13 -27 25 -3 26 -4 23 -3 -13z"/>
<path d="M226 605 c-32 -30 -56 -60 -54 -67 5 -13 102 72 119 104 17 31 -4 19
-65 -37z"/>
<path d="M486 645 c-3 -9 4 -21 19 -31 13 -8 27 -29 30 -46 9 -40 25 -18 24
32 -1 19 -3 27 -6 16 -4 -15 -8 -14 -24 13 -21 34 -34 39 -43 16z"/>
<path d="M760 637 c0 -7 5 -18 11 -24 7 -7 15 -29 19 -50 l8 -38 1 43 c1 45
-12 82 -29 82 -6 0 -10 -6 -10 -13z"/>
<path d="M1047 594 c-11 -11 -8 -59 4 -71 8 -8 -1 -24 -32 -59 -26 -28 -35
-42 -23 -36 12 6 33 25 47 42 14 16 33 30 42 30 10 0 13 5 9 12 -4 7 -10 28
-13 47 -6 34 -20 48 -34 35z m23 -34 c0 -5 -4 -10 -10 -10 -5 0 -10 5 -10 10
0 6 5 10 10 10 6 0 10 -4 10 -10z"/>
<path d="M445 525 c-38 -35 -66 -67 -62 -71 8 -8 113 80 128 108 20 37 3 28
-66 -37z"/>
<path d="M71 529 c-6 -18 -11 -37 -10 -43 0 -6 7 7 15 28 8 22 12 41 10 43 -2
2 -9 -10 -15 -28z"/>
<path d="M562 487 c-2 -41 1 -48 15 -45 10 2 19 11 21 21 2 12 -1 15 -12 11
-11 -4 -16 3 -19 28 -3 26 -4 23 -5 -15z"/>
<path d="M440 410 c0 -23 9 -35 43 -59 23 -16 58 -46 77 -66 l35 -37 -50 -44
c-65 -58 -131 -98 -150 -90 -9 3 -20 16 -25 28 -8 21 -9 20 -9 -10 -1 -45 15
-72 43 -72 32 0 109 53 156 108 32 38 40 55 40 86 0 35 -6 46 -52 89 -29 28
-52 56 -50 63 2 8 -9 19 -23 24 -36 14 -35 14 -35 -20z"/>
<path d="M165 410 c-3 -11 -3 -24 0 -30 9 -14 32 -13 38 3 3 9 7 9 20 -1 19
-16 37 -8 37 18 0 25 -17 35 -36 19 -11 -9 -18 -9 -26 -1 -17 17 -26 15 -33
-8z"/>
<path d="M846 408 c-3 -13 -6 -47 -6 -76 0 -40 4 -54 16 -59 20 -7 44 21 44
51 0 19 -1 19 -13 1 -24 -32 -40 -8 -34 51 6 57 3 69 -7 32z"/>
<path d="M1120 155 c-11 -13 -11 -19 3 -33 20 -19 41 -5 35 24 -4 24 -22 28
-38 9z"/>
</g>
</svg>
