<?xml version="1.0" standalone="no"?>
<!DOCTYPE svg PUBLIC "-//W3C//DTD SVG 20010904//EN"
 "http://www.w3.org/TR/2001/REC-SVG-20010904/DTD/svg10.dtd">
<svg version="1.0" xmlns="http://www.w3.org/2000/svg"
 width="105.000000px" height="76.000000px" viewBox="0 0 105.000000 76.000000"
 preserveAspectRatio="xMidYMid meet">

<g transform="translate(0.000000,76.000000) scale(0.100000,-0.100000)"
fill="#000000" stroke="none">
<path d="M715 700 c-75 -32 -92 -43 -102 -68 -13 -33 -8 -65 10 -59 6 2 13 9
15 17 3 8 0 10 -7 5 -9 -5 -12 1 -9 20 3 23 14 31 88 62 82 34 108 48 99 57
-2 2 -44 -14 -94 -34z"/>
<path d="M765 643 c-5 -12 -9 -14 -12 -5 -7 18 -20 15 -26 -8 -6 -24 -27 -27
-27 -4 0 8 -4 12 -10 9 -12 -7 -13 -42 -2 -49 5 -3 25 0 46 6 25 8 38 19 42
35 8 29 -1 41 -11 16z"/>
<path d="M847 635 c-4 -11 2 -110 13 -220 11 -110 20 -222 20 -250 0 -36 3
-46 10 -35 17 26 6 274 -16 384 -5 24 -4 28 11 23 19 -8 16 8 -14 78 -15 34
-19 37 -24 20z"/>
<path d="M346 612 c-4 -10 0 -61 8 -113 8 -52 18 -133 21 -180 l7 -85 -33 -29
c-50 -41 -128 -75 -176 -75 -58 0 -83 25 -83 85 0 37 5 50 35 79 19 20 35 43
35 53 -1 17 -2 17 -15 -1 -17 -23 -45 -14 -45 14 0 11 9 42 19 70 26 67 16 64
-16 -6 -20 -45 -24 -66 -20 -104 4 -29 0 -63 -9 -89 -53 -154 129 -197 275
-66 43 39 61 44 61 17 0 -60 109 -72 131 -14 l10 25 22 -20 c46 -43 169 -37
202 10 18 26 18 88 1 210 -10 72 -10 87 1 83 19 -8 16 11 -8 62 -37 76 -42 38
-20 -148 12 -94 19 -175 16 -180 -10 -16 -112 -23 -149 -10 -29 9 -36 17 -36
38 l-1 27 -20 -28 c-46 -61 -120 -72 -139 -21 -6 14 -15 83 -21 152 -17 213
-36 299 -53 244z"/>
<path d="M227 591 l-14 -32 -15 22 c-9 15 -20 20 -31 16 -24 -9 -21 -26 7 -37
13 -5 27 -18 31 -29 10 -33 24 -24 27 17 2 29 7 36 21 34 21 -4 22 11 2 28
-13 10 -17 7 -28 -19z"/>
<path d="M527 502 c-19 -21 -23 -42 -5 -24 14 14 44 16 53 2 3 -5 -7 -16 -22
-24 -38 -20 -3 -22 36 -1 40 20 47 43 15 55 -37 15 -59 12 -77 -8z"/>
<path d="M227 453 c-10 -10 -8 -25 2 -18 5 3 12 1 15 -4 4 -5 -3 -12 -14 -16
-29 -9 -32 -42 -10 -115 l20 -65 -5 55 c-3 30 -8 65 -11 78 -5 19 -2 23 25 28
40 8 47 20 25 45 -17 19 -35 24 -47 12z"/>
<path d="M807 153 c-11 -10 -8 -35 3 -28 17 10 11 -17 -7 -38 -17 -19 -17 -20
3 -9 23 12 34 32 34 63 0 18 -20 26 -33 12z"/>
<path d="M325 98 c-38 -27 -72 -54 -74 -60 -4 -13 2 -9 81 44 53 35 75 56 67
62 -2 1 -35 -19 -74 -46z"/>
<path d="M516 104 c-4 -9 -1 -23 5 -30 14 -17 39 -19 39 -3 0 7 11 8 30 4 23
-5 32 -3 36 10 10 26 -12 42 -36 27 -15 -9 -26 -10 -40 -2 -25 13 -27 13 -34
-6z"/>
</g>
</svg>
