<?xml version="1.0" standalone="no"?>
<!DOCTYPE svg PUBLIC "-//W3C//DTD SVG 20010904//EN"
 "http://www.w3.org/TR/2001/REC-SVG-20010904/DTD/svg10.dtd">
<svg version="1.0" xmlns="http://www.w3.org/2000/svg"
 width="146.000000px" height="76.000000px" viewBox="0 0 146.000000 76.000000"
 preserveAspectRatio="xMidYMid meet">

<g transform="translate(0.000000,76.000000) scale(0.100000,-0.100000)"
fill="#000000" stroke="none">
<path d="M1132 691 c-6 -16 -8 -32 -5 -35 7 -7 34 -348 29 -363 -7 -16 -112
-36 -160 -30 -27 4 -49 15 -63 31 -30 35 -36 33 -29 -11 4 -21 9 -54 12 -74
l6 -37 -72 -36 c-87 -43 -136 -47 -168 -13 -28 30 -28 49 3 85 14 17 25 39 25
50 0 30 -29 92 -46 99 -19 7 -58 -29 -86 -79 -26 -45 -66 -64 -111 -52 -43 13
-52 47 -67 254 -13 187 -19 230 -31 230 -19 0 -20 -55 -4 -234 19 -221 19
-221 -78 -266 -112 -53 -191 -49 -223 12 -20 39 -9 92 27 129 16 16 29 36 29
44 0 20 -10 19 -26 -2 -12 -16 -15 -16 -24 -3 -14 21 -12 55 5 97 20 48 12 53
-10 6 -23 -47 -31 -119 -16 -137 8 -10 7 -22 -5 -51 -30 -73 -19 -145 27 -174
31 -18 109 -25 156 -12 43 12 119 63 135 91 4 8 13 29 19 45 l12 30 9 -39 c5
-22 16 -48 25 -58 30 -33 108 -17 138 28 14 22 16 23 52 7 21 -8 39 -16 40
-17 2 -1 -2 -18 -7 -37 -12 -41 3 -94 30 -109 37 -20 105 -11 168 21 63 31 81
51 92 104 6 29 7 30 60 27 30 -1 80 4 110 13 41 11 56 12 59 3 8 -25 51 -58
75 -58 30 0 46 25 46 72 0 43 -15 58 -57 58 -37 0 -35 -5 -53 168 -13 137 -13
143 6 135 14 -5 14 -2 -1 33 -9 22 -21 49 -26 62 -11 29 -15 28 -27 -7z m-472
-402 c15 -27 8 -32 -24 -18 -20 9 -23 15 -15 26 16 18 27 16 39 -8z m608 -57
c5 -17 -33 -15 -47 1 -6 8 -8 16 -5 20 8 8 47 -8 52 -21z"/>
<path d="M127 703 c-16 -15 -6 -43 17 -49 17 -4 30 -19 41 -47 18 -46 29 -39
40 25 7 40 14 45 33 26 17 -17 25 -3 12 21 -16 32 -37 25 -50 -15 -11 -33 -14
-35 -23 -18 -12 24 -48 64 -57 64 -4 0 -10 -3 -13 -7z"/>
<path d="M783 658 c-62 -29 -113 -58 -113 -65 0 -18 1 -18 114 34 109 50 126
61 126 74 0 14 -9 11 -127 -43z"/>
<path d="M1318 692 c-4 -14 33 -515 45 -602 2 -22 4 -21 14 12 8 28 8 76 -2
195 -25 299 -25 288 4 261 19 -18 8 36 -20 102 -23 53 -34 61 -41 32z"/>
<path d="M456 664 c-8 -20 1 -34 20 -34 8 0 22 -16 31 -35 19 -40 28 -38 37
10 7 37 15 42 34 23 9 -9 12 -9 12 2 0 25 -17 43 -34 37 -9 -4 -16 -15 -16
-26 0 -30 -16 -33 -28 -6 -15 33 -48 50 -56 29z"/>
<path d="M1032 668 c-15 -15 -16 -54 -2 -63 22 -14 7 -29 -115 -120 -18 -14
-17 -14 13 -4 18 6 57 33 86 60 37 33 56 45 63 38 8 -8 13 -7 18 1 5 8 1 16
-9 22 -10 6 -16 22 -16 43 0 36 -15 46 -38 23z m28 -34 c0 -16 -16 -19 -25 -4
-8 13 4 32 16 25 5 -4 9 -13 9 -21z"/>
<path d="M881 563 c-1 -39 -18 -44 -27 -8 -7 29 -26 23 -22 -7 5 -32 -17 -32
-29 -1 l-11 28 -1 -37 c-1 -20 3 -39 7 -42 4 -2 27 -2 50 1 47 6 61 29 43 73
-9 24 -10 24 -10 -7z"/>
<path d="M212 518 c-17 -17 -15 -29 3 -22 8 4 15 1 15 -5 0 -7 -7 -14 -16 -18
-27 -10 -34 -47 -18 -99 8 -26 14 -61 15 -78 l1 -31 8 27 c5 18 3 49 -6 85
-18 76 -18 73 16 73 38 0 48 22 26 55 -18 28 -27 30 -44 13z"/>
<path d="M621 478 c-1 -34 -31 -39 -32 -5 l0 22 -11 -22 c-17 -36 -3 -56 34
-48 18 4 39 12 46 17 15 13 16 58 1 58 -6 0 -9 -9 -6 -20 7 -27 -11 -25 -23 3
-8 21 -9 21 -9 -5z"/>
<path d="M1026 460 c-26 -66 -19 -110 19 -110 23 0 35 17 35 48 0 13 -2 13
-13 -3 -29 -39 -49 13 -27 71 6 15 9 29 7 31 -3 2 -12 -14 -21 -37z"/>
<path d="M832 435 c-11 -23 -9 -27 14 -37 23 -11 28 -9 41 7 12 18 12 22 -8
38 -28 23 -34 22 -47 -8z"/>
<path d="M1090 180 c-13 -8 -12 -11 5 -24 19 -13 18 -15 -15 -46 l-35 -33 30
16 c41 20 67 52 63 74 -4 21 -26 27 -48 13z"/>
<path d="M513 129 c-75 -36 -103 -59 -71 -59 25 0 168 74 168 87 0 18 -3 17
-97 -28z"/>
<path d="M298 113 c-43 -20 -78 -42 -78 -49 0 -15 10 -13 113 34 37 17 67 36
67 41 0 18 -20 12 -102 -26z"/>
</g>
</svg>
