<?xml version="1.0" standalone="no"?>
<!DOCTYPE svg PUBLIC "-//W3C//DTD SVG 20010904//EN"
 "http://www.w3.org/TR/2001/REC-SVG-20010904/DTD/svg10.dtd">
<svg version="1.0" xmlns="http://www.w3.org/2000/svg"
 width="125.000000px" height="76.000000px" viewBox="0 0 125.000000 76.000000"
 preserveAspectRatio="xMidYMid meet">

<g transform="translate(0.000000,76.000000) scale(0.100000,-0.100000)"
fill="#000000" stroke="none">
<path d="M573 587 c-173 -87 -225 -119 -211 -133 5 -4 443 218 446 227 9 23
-48 0 -235 -94z"/>
<path d="M1015 661 c-5 -16 9 -190 30 -372 5 -45 4 -47 -26 -58 -38 -13 -66
-1 -79 35 l-10 25 -31 -36 c-25 -28 -38 -35 -68 -35 -53 0 -73 25 -80 102 -4
38 -11 63 -19 66 -11 3 -13 -10 -11 -60 5 -82 -8 -100 -65 -96 -36 3 -41 6
-44 31 -2 15 -6 27 -9 27 -3 0 -30 -12 -60 -27 -103 -50 -185 -40 -235 27 -42
57 -69 40 -140 -89 -31 -57 -78 -31 -92 50 -5 29 -2 41 19 65 28 33 36 65 10
44 -8 -7 -22 -9 -31 -6 -20 8 -13 68 15 127 25 51 7 40 -20 -13 -24 -48 -37
-142 -20 -152 6 -4 11 -23 11 -42 0 -53 20 -121 40 -139 26 -24 45 -10 89 65
52 90 62 94 106 42 61 -70 137 -77 246 -22 47 25 49 25 49 0 0 -44 73 -53 118
-15 l30 25 16 -24 c31 -48 118 -39 147 16 11 21 12 20 36 -11 31 -39 73 -42
108 -6 29 28 30 45 11 238 -9 103 -9 127 1 127 18 0 16 17 -7 68 -21 47 -26
50 -35 23z"/>
<path d="M1116 664 c-3 -9 3 -109 14 -222 12 -114 21 -238 22 -277 l0 -70 16
35 c13 31 13 55 -2 225 -19 221 -19 218 -6 210 16 -10 12 19 -10 69 -21 50
-25 54 -34 30z"/>
<path d="M335 636 c-4 -19 -5 -42 -3 -53 4 -23 42 -24 46 -2 2 11 -3 16 -15
15 -15 -1 -18 6 -16 37 3 46 -4 48 -12 3z"/>
<path d="M868 614 c-49 -24 -88 -49 -88 -55 0 -14 30 -4 111 36 67 34 105 66
78 64 -8 0 -53 -20 -101 -45z"/>
<path d="M110 630 c0 -13 10 -24 25 -30 14 -5 31 -25 41 -47 16 -37 16 -38 24
-13 5 14 11 38 15 53 5 24 8 27 21 16 19 -16 31 -3 18 19 -17 26 -38 20 -49
-15 l-11 -32 -27 34 c-31 39 -57 46 -57 15z"/>
<path d="M687 520 c-3 -8 -7 -23 -9 -33 -4 -25 -22 -23 -30 5 -5 18 -6 14 -7
-16 -1 -38 -1 -38 30 -32 17 3 38 6 45 6 19 0 36 37 29 60 -9 27 -26 25 -23
-2 5 -35 -16 -37 -23 -3 -4 20 -8 25 -12 15z"/>
<path d="M827 514 c-15 -15 -6 -41 18 -52 14 -7 31 -24 37 -39 7 -16 14 -30
16 -33 6 -8 22 24 22 45 0 11 4 26 9 34 8 12 12 12 25 2 13 -11 16 -11 16 1 0
22 -24 48 -37 40 -6 -4 -15 -22 -20 -40 l-8 -34 -25 38 c-26 39 -41 50 -53 38z"/>
<path d="M196 444 c-4 -10 1 -25 10 -36 16 -17 19 -17 35 -2 16 14 21 15 34 4
13 -11 19 -11 32 3 13 13 14 19 3 31 -16 21 -36 20 -44 0 -6 -16 -8 -16 -24 0
-23 20 -38 20 -46 0z"/>
<path d="M422 423 c-20 -51 -24 -81 -12 -102 14 -28 48 -27 59 2 11 27 6 34
-13 18 -32 -27 -47 18 -26 75 6 15 9 29 7 31 -3 2 -9 -9 -15 -24z"/>
<path d="M533 404 c-4 -11 1 -22 12 -31 16 -11 21 -11 34 1 12 12 12 18 1 30
-16 21 -39 20 -47 0z"/>
<path d="M238 140 c-50 -26 -80 -50 -63 -50 10 0 145 70 145 75 0 11 -28 2
-82 -25z"/>
<path d="M485 160 c-3 -5 3 -10 14 -10 29 0 26 -16 -6 -47 -32 -30 -10 -21 25
10 30 28 29 57 -2 57 -14 0 -28 -4 -31 -10z"/>
<path d="M731 143 c-7 -14 -13 -15 -34 -6 -42 20 -67 -25 -26 -47 16 -9 25 -8
40 6 16 14 21 15 35 3 14 -11 18 -10 30 6 12 16 12 21 -3 37 -20 22 -29 23
-42 1z"/>
<path d="M920 130 c-8 -15 -6 -21 11 -30 15 -9 24 -8 35 1 13 10 12 14 -2 30
-22 24 -31 24 -44 -1z"/>
</g>
</svg>
