<?xml version="1.0" standalone="no"?>
<!DOCTYPE svg PUBLIC "-//W3C//DTD SVG 20010904//EN"
 "http://www.w3.org/TR/2001/REC-SVG-20010904/DTD/svg10.dtd">
<svg version="1.0" xmlns="http://www.w3.org/2000/svg"
 width="144.000000px" height="76.000000px" viewBox="0 0 144.000000 76.000000"
 preserveAspectRatio="xMidYMid meet">

<g transform="translate(0.000000,76.000000) scale(0.100000,-0.100000)"
fill="#000000" stroke="none">
<path d="M197 693 c-14 -14 -6 -42 14 -48 11 -4 28 -23 37 -43 l15 -37 10 35
c18 66 16 64 33 49 14 -11 15 -10 12 11 -5 41 -34 37 -45 -7 l-9 -38 -16 31
c-19 35 -42 57 -51 47z"/>
<path d="M1229 683 c-1 -10 0 -22 1 -28 6 -28 30 -276 30 -312 l0 -43 -47 0
c-88 0 -88 0 -88 93 0 45 -3 108 -8 141 -6 51 -5 58 8 52 18 -6 16 7 -11 73
-11 25 -17 32 -25 24 -8 -8 -8 -38 0 -110 7 -54 13 -127 14 -163 l2 -65 -40
-3 c-64 -4 -82 -11 -88 -31 -4 -16 2 -20 32 -26 97 -18 132 -28 124 -35 -14
-14 -272 -90 -304 -90 -58 0 -119 22 -143 51 -15 17 -29 53 -35 86 -21 111
-51 227 -60 236 -22 22 -23 -29 -3 -112 39 -157 39 -153 -8 -194 -61 -52 -128
-81 -160 -70 -30 10 -38 50 -20 94 l12 29 25 -20 c31 -24 41 -25 71 -2 16 13
23 29 24 58 2 42 -18 104 -33 104 -14 0 -10 -38 7 -71 17 -34 6 -59 -26 -59
-31 0 -52 38 -80 147 -16 59 -36 126 -46 148 -18 39 -18 39 -22 13 -2 -15 8
-62 21 -105 40 -129 40 -128 10 -164 -37 -43 -110 -89 -144 -89 -34 0 -47 16
-51 65 l-4 40 -8 -47 c-16 -91 14 -127 89 -107 41 12 130 89 141 122 5 17 8
18 15 5 6 -11 2 -31 -11 -60 -24 -52 -26 -120 -5 -138 21 -17 66 -15 107 6 48
24 118 83 127 107 6 17 11 13 32 -29 33 -67 71 -88 163 -86 59 1 101 11 251
61 99 34 185 61 191 61 7 0 16 -19 20 -42 l8 -43 6 40 c4 33 9 41 30 43 22 4
49 27 50 45 0 4 -17 7 -38 7 l-39 0 -12 118 c-7 64 -15 135 -18 156 -4 28 -3
37 5 32 17 -10 15 27 -2 69 -16 37 -35 46 -37 18z"/>
<path d="M450 662 c-20 -6 -40 -32 -40 -51 0 -12 3 -11 13 3 9 13 20 16 40 11
34 -9 34 -22 2 -37 -34 -15 -32 -32 3 -23 37 9 62 34 62 62 0 12 -1 23 -3 23
-1 0 -16 4 -32 8 -17 5 -37 7 -45 4z"/>
<path d="M616 648 c-6 -23 15 -48 40 -48 11 0 44 -58 44 -78 0 -6 4 -13 9 -17
5 -3 15 21 21 52 15 70 20 80 32 59 5 -9 13 -16 18 -16 15 0 12 34 -4 56 -19
25 -37 9 -52 -49 l-11 -42 -12 30 c-15 35 -49 75 -67 75 -6 0 -14 -10 -18 -22z"/>
<path d="M885 636 c-9 -44 2 -76 25 -76 17 0 30 19 30 43 0 8 -4 7 -9 -2 -5
-8 -16 -11 -25 -8 -13 5 -16 14 -10 42 3 19 4 35 1 35 -4 0 -9 -15 -12 -34z"/>
<path d="M860 458 c-154 -81 -170 -91 -170 -116 0 -9 8 -7 27 5 14 10 91 52
172 94 133 70 175 99 139 99 -7 0 -83 -37 -168 -82z"/>
<path d="M186 502 c-4 -10 -5 -41 -4 -68 2 -47 3 -49 19 -33 10 10 22 26 28
36 8 16 6 19 -12 19 -19 -1 -22 4 -19 32 2 35 -3 42 -12 14z"/>
<path d="M860 298 c0 -32 16 -44 35 -28 18 15 20 34 3 24 -6 -4 -17 1 -25 11
-12 18 -13 17 -13 -7z"/>
<path d="M295 169 c-5 -15 -12 -18 -27 -13 -13 4 -24 1 -29 -7 -15 -25 -10
-39 16 -39 16 0 25 6 25 16 0 11 6 14 21 9 21 -7 39 7 39 31 0 22 -39 23 -45
3z"/>
<path d="M1174 157 c15 -11 15 -15 4 -24 -7 -6 -22 -13 -33 -16 -18 -4 -17 -5
3 -6 33 -2 62 17 62 39 0 15 -7 20 -27 20 -24 0 -25 -1 -9 -13z"/>
<path d="M118 119 c-54 -35 -66 -62 -15 -32 63 38 77 48 77 55 0 14 -14 9 -62
-23z"/>
<path d="M568 110 c-56 -35 -66 -62 -10 -29 43 25 81 59 67 59 -6 0 -31 -14
-57 -30z"/>
</g>
</svg>
