<?xml version="1.0" standalone="no"?>
<!DOCTYPE svg PUBLIC "-//W3C//DTD SVG 20010904//EN"
 "http://www.w3.org/TR/2001/REC-SVG-20010904/DTD/svg10.dtd">
<svg version="1.0" xmlns="http://www.w3.org/2000/svg"
 width="122.000000px" height="76.000000px" viewBox="0 0 122.000000 76.000000"
 preserveAspectRatio="xMidYMid meet">

<g transform="translate(0.000000,76.000000) scale(0.100000,-0.100000)"
fill="#000000" stroke="none">
<path d="M650 640 c-137 -74 -169 -106 -138 -137 21 -20 36 -10 18 12 -19 23
-7 32 143 111 115 61 149 85 115 83 -7 0 -69 -31 -138 -69z"/>
<path d="M408 667 c-3 -13 3 -93 13 -178 27 -232 27 -231 -24 -273 -65 -53
-131 -79 -204 -80 -55 -1 -66 2 -90 27 -21 20 -28 37 -28 68 0 34 6 45 37 72
21 18 40 45 43 62 6 27 5 28 -6 10 -17 -28 -31 -35 -46 -23 -21 17 -15 81 12
133 28 57 27 71 -3 23 -38 -61 -56 -135 -44 -175 7 -24 8 -42 2 -54 -6 -10
-10 -44 -10 -77 0 -50 4 -62 25 -82 33 -31 124 -39 189 -17 66 23 155 85 162
113 7 27 24 23 24 -6 0 -33 51 -80 98 -91 58 -13 153 3 250 42 48 20 102 33
144 37 46 3 72 10 83 22 14 16 9 17 -82 23 -97 5 -193 23 -193 36 0 4 20 27
45 51 l45 44 6 -32 c9 -43 27 -56 69 -48 58 11 69 39 61 154 -4 53 -10 108
-13 121 -5 20 -3 23 11 18 21 -8 20 5 -5 55 -34 67 -41 30 -24 -119 20 -170
20 -172 -11 -183 -34 -13 -61 2 -69 40 -4 16 -9 30 -13 30 -3 0 -26 -19 -50
-42 -23 -24 -71 -56 -105 -73 -33 -16 -63 -35 -64 -41 -2 -6 34 -16 87 -23 49
-8 90 -17 90 -21 0 -17 -92 -42 -171 -47 -107 -7 -140 7 -162 69 -9 24 -26
136 -38 251 -21 195 -31 238 -41 184z"/>
<path d="M180 665 c-10 -12 -7 -17 13 -24 16 -6 30 -24 38 -45 7 -20 16 -36
20 -36 10 0 23 60 15 67 -3 4 -6 -2 -6 -13 0 -13 -7 -8 -22 18 -25 43 -42 53
-58 33z"/>
<path d="M277 674 c-4 -4 -7 -14 -7 -22 0 -9 3 -12 7 -9 3 4 13 1 21 -5 11
-10 13 -8 10 12 -3 24 -19 36 -31 24z"/>
<path d="M1094 659 c-7 -17 -4 -85 12 -249 13 -124 24 -236 24 -250 2 -20 4
-18 12 12 7 27 5 85 -6 201 -20 207 -20 213 -1 197 22 -18 19 5 -8 64 -22 47
-23 48 -33 25z"/>
<path d="M808 638 c-3 -37 -20 -41 -30 -6 -5 18 -6 14 -7 -16 l-1 -38 38 7
c20 3 43 14 50 23 15 19 16 48 2 57 -6 4 -10 -5 -10 -19 0 -14 -4 -26 -10 -26
-5 0 -10 11 -10 25 0 37 -18 30 -22 -7z"/>
<path d="M801 527 c-18 -18 -13 -33 16 -46 27 -12 42 -3 43 25 0 18 -46 34
-59 21z"/>
<path d="M243 513 c-7 -3 -13 -11 -13 -19 0 -9 4 -13 9 -9 5 3 12 1 15 -4 4
-5 -3 -13 -15 -16 -21 -7 -21 -11 -13 -74 4 -36 8 -100 9 -143 0 -78 10 -84
21 -12 5 36 -3 103 -21 176 -6 25 -4 27 30 34 29 5 35 10 33 27 -3 23 -37 47
-55 40z"/>
<path d="M596 461 c-16 -18 -16 -18 8 -14 14 3 34 2 43 -1 16 -7 15 -9 -7 -27
l-25 -20 25 6 c35 10 64 40 57 59 -9 23 -79 21 -101 -3z"/>
<path d="M540 324 c-15 -45 -6 -84 20 -84 11 0 24 9 30 19 14 26 13 38 -2 23
-27 -27 -41 -14 -36 33 3 25 4 45 3 45 -2 0 -9 -16 -15 -36z"/>
<path d="M936 144 c-27 -28 -34 -58 -15 -70 6 -3 18 2 27 11 10 10 12 15 5 11
-23 -12 -25 16 -4 45 27 36 22 37 -13 3z"/>
<path d="M398 109 c-32 -16 -58 -34 -58 -39 0 -14 5 -13 60 15 45 23 67 42 59
50 -2 2 -30 -10 -61 -26z"/>
</g>
</svg>
