<?xml version="1.0" standalone="no"?>
<!DOCTYPE svg PUBLIC "-//W3C//DTD SVG 20010904//EN"
 "http://www.w3.org/TR/2001/REC-SVG-20010904/DTD/svg10.dtd">
<svg version="1.0" xmlns="http://www.w3.org/2000/svg"
 width="142.000000px" height="76.000000px" viewBox="0 0 142.000000 76.000000"
 preserveAspectRatio="xMidYMid meet">

<g transform="translate(0.000000,76.000000) scale(0.100000,-0.100000)"
fill="#000000" stroke="none">
<path d="M1167 657 c-6 -15 6 -143 28 -300 8 -59 15 -110 15 -113 0 -6 -56
-29 -94 -38 l-28 -7 21 27 c30 39 27 76 -8 97 -59 35 -114 13 -218 -86 -29
-27 -37 -30 -60 -21 -16 5 -34 22 -42 38 l-13 29 -25 -31 c-31 -40 -92 -59
-134 -41 -30 12 -36 23 -18 34 22 15 29 55 14 90 -26 65 -81 35 -93 -52 l-7
-48 -60 -17 c-80 -22 -216 -22 -275 0 -55 21 -79 58 -65 98 7 18 20 30 39 35
32 9 46 24 46 52 0 17 -1 17 -16 2 -47 -47 -57 36 -15 120 17 33 28 61 26 63
-2 2 -20 -31 -41 -73 -26 -53 -39 -92 -40 -124 0 -26 -6 -57 -13 -68 -20 -38
-14 -92 14 -117 64 -60 262 -65 393 -11 33 14 37 14 57 -5 44 -41 129 -38 170
6 l23 25 26 -26 c14 -14 30 -25 37 -25 7 0 9 -9 4 -27 l-7 -28 24 21 c20 20
38 22 153 27 160 6 220 24 240 71 12 28 11 53 -5 172 -24 175 -25 180 -5 164
21 -18 20 4 -5 58 -19 43 -34 53 -43 29z m-589 -339 c18 -18 15 -36 -8 -48
-15 -8 -21 -6 -30 11 -9 15 -8 24 1 35 14 17 21 18 37 2z m510 -42 c8 -8 12
-19 8 -24 -16 -26 -206 -67 -206 -44 0 10 56 58 95 81 24 14 83 7 103 -13z"/>
<path d="M1278 643 c-2 -10 0 -34 4 -53 4 -19 17 -123 28 -230 12 -107 23
-197 25 -199 15 -14 13 91 -4 228 -12 91 -21 167 -21 169 0 3 7 -1 15 -8 23
-19 20 14 -6 67 -22 46 -35 54 -41 26z"/>
<path d="M236 635 c-4 -11 3 -19 19 -25 14 -5 30 -21 37 -35 15 -34 25 -31 32
10 7 37 15 42 34 23 9 -9 12 -8 12 4 0 8 -6 20 -13 27 -16 13 -37 -4 -37 -31
0 -27 -13 -22 -32 12 -18 32 -42 39 -52 15z"/>
<path d="M640 621 c-6 -16 -10 -38 -8 -48 4 -20 39 -25 46 -5 2 7 -2 10 -12 6
-21 -8 -31 19 -16 46 6 12 10 24 7 26 -2 3 -10 -9 -17 -25z"/>
<path d="M892 566 c-100 -40 -188 -78 -194 -84 -28 -28 8 -20 118 27 66 27
156 64 202 81 45 17 82 36 82 41 0 16 -23 9 -208 -65z"/>
<path d="M454 595 c-11 -43 1 -57 43 -49 21 4 41 9 46 11 11 6 9 63 -3 63 -5
0 -10 -11 -10 -25 0 -14 -4 -25 -10 -25 -5 0 -10 12 -10 27 0 29 -15 22 -22
-10 -5 -26 -24 -16 -20 11 4 30 -6 28 -14 -3z"/>
<path d="M525 480 c-15 -16 -15 -22 -5 -35 17 -20 33 -19 54 3 15 18 15 20 -2
35 -23 21 -25 21 -47 -3z"/>
<path d="M297 483 c-12 -12 -7 -23 9 -23 12 0 9 -6 -11 -22 -30 -23 -30 -35 0
-133 l15 -50 -4 55 c-3 30 -8 67 -11 81 -6 24 -4 27 29 33 40 8 46 24 18 49
-20 18 -34 21 -45 10z"/>
<path d="M1057 484 c-3 -4 -3 -19 0 -35 7 -36 -14 -40 -23 -4 -9 36 -27 31
-19 -5 5 -23 3 -30 -9 -30 -10 0 -16 9 -16 25 0 14 -5 25 -11 25 -6 0 -9 -16
-7 -37 3 -40 10 -43 66 -30 35 9 42 16 42 45 0 30 -13 56 -23 46z"/>
<path d="M767 423 c-13 -12 -7 -24 18 -33 14 -5 30 -21 35 -35 12 -32 25 -26
34 16 5 25 9 29 27 24 18 -6 20 -5 10 14 -7 12 -16 21 -22 21 -9 0 -12 -7 -25
-48 -3 -9 -13 -3 -30 17 -26 32 -35 36 -47 24z"/>
<path d="M1251 200 c-9 -5 -8 -9 6 -14 17 -7 16 -9 -6 -27 -28 -23 -15 -26 17
-3 12 8 22 21 22 28 0 17 -23 27 -39 16z"/>
<path d="M445 141 c-33 -9 -71 -23 -85 -31 -45 -25 1 -23 85 5 43 14 84 25 91
25 8 0 14 5 14 10 0 14 -36 11 -105 -9z"/>
</g>
</svg>
