<?xml version="1.0" standalone="no"?>
<!DOCTYPE svg PUBLIC "-//W3C//DTD SVG 20010904//EN"
 "http://www.w3.org/TR/2001/REC-SVG-20010904/DTD/svg10.dtd">
<svg version="1.0" xmlns="http://www.w3.org/2000/svg"
 width="132.000000px" height="76.000000px" viewBox="0 0 132.000000 76.000000"
 preserveAspectRatio="xMidYMid meet">

<g transform="translate(0.000000,76.000000) scale(0.100000,-0.100000)"
fill="#000000" stroke="none">
<path d="M1186 692 c-7 -11 7 -218 24 -357 6 -44 11 -107 13 -140 2 -59 3 -60
16 -30 14 32 13 59 -13 300 -8 71 -12 132 -10 135 3 2 10 -2 15 -10 8 -11 9
-6 5 19 -8 42 -41 97 -50 83z"/>
<path d="M1047 676 c-6 -16 4 -136 28 -319 9 -70 14 -134 11 -142 -3 -9 -19
-15 -40 -15 -42 0 -61 23 -71 85 -10 61 -15 75 -27 75 -7 0 -9 -22 -4 -69 4
-53 3 -71 -8 -81 -23 -18 -70 -8 -81 17 -12 28 -22 29 -30 2 -9 -29 -50 -46
-70 -29 -9 7 -14 19 -11 27 8 20 -3 16 -41 -17 -18 -17 -40 -30 -48 -30 -22 0
-47 31 -42 51 6 24 7 24 -48 -5 -58 -32 -143 -50 -187 -42 -64 12 -80 42 -90
163 -19 249 -27 316 -36 325 -19 19 -24 -13 -13 -80 6 -37 15 -132 20 -212 11
-163 17 -188 58 -220 24 -19 37 -21 93 -18 42 2 85 13 121 30 l56 25 10 -28
c15 -38 63 -40 96 -5 22 24 23 24 35 5 16 -25 54 -24 77 0 17 20 17 20 44 0
33 -24 74 -18 96 14 14 21 14 20 39 -6 38 -41 86 -35 111 14 19 35 19 117 0
239 -17 113 -20 183 -5 160 16 -25 12 14 -6 60 -17 42 -28 50 -37 26z"/>
<path d="M645 591 c-234 -98 -266 -113 -285 -136 -20 -24 -5 -28 32 -9 18 10
134 61 258 115 199 85 261 120 218 119 -7 0 -107 -40 -223 -89z"/>
<path d="M453 640 c-8 -42 -16 -44 -42 -10 -23 32 -46 39 -54 16 -6 -15 6 -29
35 -39 10 -3 20 -18 24 -32 7 -29 27 -29 33 1 2 10 8 30 13 43 8 23 9 23 22 6
17 -24 31 -3 16 25 -16 30 -40 25 -47 -10z"/>
<path d="M47 653 c-13 -12 -7 -43 8 -43 9 0 25 -16 37 -35 24 -41 29 -39 37
12 5 29 11 37 25 35 23 -4 18 31 -6 36 -11 2 -18 -6 -23 -29 l-7 -31 -28 31
c-31 33 -33 35 -43 24z"/>
<path d="M950 605 c0 -14 -4 -25 -10 -25 -5 0 -10 9 -10 20 0 11 -4 20 -10 20
-5 0 -10 -11 -10 -25 0 -29 -15 -33 -29 -7 -9 14 -10 11 -11 -17 0 -33 0 -33
38 -26 20 4 43 11 50 17 14 12 16 68 2 68 -5 0 -10 -11 -10 -25z"/>
<path d="M95 476 c-22 -52 0 -87 33 -54 16 16 15 29 -2 22 -20 -8 -28 10 -16
40 14 39 1 31 -15 -8z"/>
<path d="M614 495 c-3 -8 6 -29 21 -47 22 -26 26 -40 23 -75 -3 -43 5 -57 16
-27 12 33 5 100 -14 132 -21 35 -37 41 -46 17z"/>
<path d="M883 484 c-3 -8 2 -23 11 -32 15 -15 17 -15 33 0 13 14 14 20 3 32
-16 20 -39 20 -47 0z"/>
<path d="M770 441 c-15 -37 -10 -75 12 -79 9 -2 22 6 28 18 11 20 10 21 -11
15 -21 -7 -22 -5 -16 34 6 49 4 51 -13 12z"/>
<path d="M506 388 c-3 -7 -9 -26 -14 -43 l-9 -30 -17 33 c-11 21 -23 32 -34
30 -27 -5 -27 -37 1 -47 13 -5 30 -23 37 -40 16 -39 26 -33 34 20 9 54 14 63
33 47 13 -10 14 -8 11 12 -3 27 -35 40 -42 18z"/>
<path d="M72 327 c-36 -37 -40 -63 -14 -83 14 -11 15 -16 5 -33 -20 -32 -16
-34 20 -7 17 13 51 30 74 38 38 11 61 33 49 45 -2 2 -24 -1 -49 -7 -45 -12
-87 -2 -87 20 0 16 19 21 39 10 16 -8 22 -7 30 8 7 13 7 22 -1 30 -19 19 -32
14 -66 -21z"/>
<path d="M157 166 c-65 -37 -88 -56 -69 -56 20 0 152 69 152 80 0 17 -22 10
-83 -24z"/>
<path d="M527 133 c-12 -12 -7 -23 10 -23 14 0 12 -5 -8 -26 l-24 -27 23 12
c19 10 42 47 42 67 0 7 -36 5 -43 -3z"/>
<path d="M956 107 c-33 -12 -61 -28 -64 -35 -4 -13 124 30 142 48 16 16 -14
11 -78 -13z"/>
</g>
</svg>
