<?xml version="1.0" standalone="no"?>
<!DOCTYPE svg PUBLIC "-//W3C//DTD SVG 20010904//EN"
 "http://www.w3.org/TR/2001/REC-SVG-20010904/DTD/svg10.dtd">
<svg version="1.0" xmlns="http://www.w3.org/2000/svg"
 width="96.000000px" height="76.000000px" viewBox="0 0 96.000000 76.000000"
 preserveAspectRatio="xMidYMid meet">

<g transform="translate(0.000000,76.000000) scale(0.100000,-0.100000)"
fill="#000000" stroke="none">
<path d="M453 688 c-24 -32 -26 -40 -5 -27 15 10 26 10 44 2 l23 -11 -29 -11
c-36 -15 -28 -25 13 -16 41 9 61 43 35 62 -23 16 -69 17 -81 1z"/>
<path d="M624 685 c-4 -9 -1 -50 5 -93 6 -42 12 -108 13 -147 l3 -70 -63 -5
c-57 -5 -81 -17 -82 -42 0 -3 34 -12 75 -19 41 -6 75 -15 75 -19 0 -4 -37 -15
-82 -25 -104 -21 -154 -9 -178 42 -8 18 -18 33 -22 33 -16 0 -17 -40 -3 -80 8
-23 15 -47 15 -52 0 -15 -105 -58 -158 -65 -61 -7 -96 1 -122 27 -29 29 -25
73 10 113 36 41 38 54 8 53 -19 -1 -23 5 -26 36 -2 22 5 56 17 83 11 25 16 43
11 40 -21 -13 -51 -120 -49 -179 1 -34 -2 -82 -6 -107 -7 -42 -5 -49 23 -80
28 -32 33 -33 99 -33 92 1 175 37 199 86 l15 33 82 0 c59 0 101 7 148 23 37
13 89 26 117 31 l51 8 7 -69 c8 -86 29 -77 27 12 -2 57 -1 60 22 60 14 0 25 2
25 4 0 2 3 11 6 19 4 12 -3 16 -28 19 l-33 3 -12 125 c-6 69 -10 127 -8 129 3
2 12 -2 21 -10 16 -13 17 -11 10 16 -10 41 -46 115 -56 115 -17 0 -18 -33 -4
-166 7 -77 14 -154 14 -171 0 -32 -1 -33 -42 -33 -73 0 -91 9 -82 39 8 33 8
30 0 140 -6 66 -5 91 3 87 16 -10 13 6 -9 58 -23 50 -28 54 -36 31z"/>
<path d="M331 659 c-15 -43 -14 -64 3 -78 11 -9 18 -8 32 6 17 17 17 18 -5 21
-21 3 -23 8 -18 43 6 47 3 50 -12 8z"/>
<path d="M127 664 c-15 -16 -6 -42 17 -48 16 -4 29 -18 37 -41 7 -19 16 -35
20 -35 4 0 12 20 18 45 11 44 25 57 34 33 7 -22 19 -1 12 22 -10 31 -38 21
-51 -18 l-10 -33 -25 38 c-25 38 -40 49 -52 37z"/>
<path d="M430 521 c0 -11 9 -23 21 -26 11 -4 25 -20 31 -36 14 -40 25 -36 33
11 7 42 13 48 33 28 9 -9 12 -9 12 3 0 7 -4 20 -9 28 -8 12 -12 12 -25 2 -9
-8 -16 -22 -16 -32 0 -28 -13 -23 -32 11 -19 34 -48 40 -48 11z"/>
<path d="M265 449 c6 -24 4 -30 -6 -27 -8 3 -15 14 -17 26 -2 12 -8 22 -14 22
-6 0 -8 -11 -6 -25 3 -14 1 -28 -4 -32 -13 -7 -28 16 -21 34 3 7 0 13 -6 13
-13 0 -15 -49 -2 -69 7 -10 13 -11 29 -2 12 6 25 11 29 10 26 -4 33 4 33 41 0
22 -5 40 -11 40 -7 0 -8 -11 -4 -31z"/>
<path d="M215 319 c-7 -21 7 -39 32 -39 18 0 27 41 12 51 -23 14 -37 10 -44
-12z"/>
<path d="M620 195 c-10 -12 -10 -18 0 -30 17 -20 37 -19 49 3 18 34 -24 57
-49 27z"/>
<path d="M695 134 c-62 -27 -93 -49 -83 -59 8 -8 153 58 162 74 11 17 -13 13
-79 -15z"/>
<path d="M373 115 c-65 -30 -93 -55 -62 -55 21 0 159 69 159 79 0 17 -20 12
-97 -24z"/>
</g>
</svg>
