<?xml version="1.0" standalone="no"?>
<!DOCTYPE svg PUBLIC "-//W3C//DTD SVG 20010904//EN"
 "http://www.w3.org/TR/2001/REC-SVG-20010904/DTD/svg10.dtd">
<svg version="1.0" xmlns="http://www.w3.org/2000/svg"
 width="143.000000px" height="76.000000px" viewBox="0 0 143.000000 76.000000"
 preserveAspectRatio="xMidYMid meet">

<g transform="translate(0.000000,76.000000) scale(0.100000,-0.100000)"
fill="#000000" stroke="none">
<path d="M519 634 c-10 -12 -10 -20 -2 -34 10 -14 7 -22 -15 -42 -15 -14 -38
-32 -52 -41 -13 -10 -20 -17 -14 -17 12 0 52 26 86 58 14 13 31 21 37 18 6 -4
11 -2 11 3 0 6 -4 11 -10 11 -5 0 -10 14 -10 30 0 33 -11 38 -31 14z m21 -20
c0 -8 -4 -12 -10 -9 -5 3 -10 10 -10 16 0 5 5 9 10 9 6 0 10 -7 10 -16z"/>
<path d="M918 602 c-37 -20 -68 -42 -68 -49 0 -14 143 60 148 77 6 16 -9 11
-80 -28z"/>
<path d="M1305 630 c-3 -5 4 -109 15 -231 12 -122 19 -230 17 -241 -3 -10 -1
-16 4 -13 17 11 20 74 9 195 -6 69 -13 145 -17 170 -5 40 -4 44 10 32 14 -12
15 -11 8 15 -13 43 -30 83 -35 83 -3 0 -8 -4 -11 -10z"/>
<path d="M697 623 c-9 -8 -9 -78 0 -86 7 -8 33 11 33 24 0 5 -7 6 -17 2 -14
-5 -15 -1 -10 30 6 38 5 42 -6 30z"/>
<path d="M1199 613 c-1 -10 -1 -21 -1 -24 13 -119 32 -306 32 -319 0 -18 -38
-40 -69 -40 -10 0 -47 22 -82 48 -81 61 -120 83 -193 112 l-59 24 26 22 c36
31 216 131 250 139 16 4 27 3 27 -3 0 -5 -20 -39 -45 -76 -47 -68 -48 -87 -3
-38 47 49 81 143 58 157 -13 8 -175 -68 -249 -116 -27 -18 -54 -42 -59 -53
-10 -23 -14 -7 -27 117 -7 61 -25 79 -25 25 0 -18 5 -62 10 -97 6 -35 9 -65 7
-67 -2 -2 -17 -6 -33 -10 -25 -5 -32 -1 -43 20 -28 52 -72 41 -88 -23 -8 -31
19 -52 58 -44 21 4 30 1 35 -11 8 -22 -16 -39 -85 -61 -46 -14 -68 -30 -123
-86 -37 -38 -71 -69 -75 -69 -16 0 -33 24 -33 46 0 16 18 37 58 67 80 62 94
80 99 129 4 38 1 48 -29 81 -38 44 -61 43 -77 -5 -14 -41 0 -58 50 -58 75 0
61 -28 -60 -118 -41 -30 -107 -70 -148 -90 -41 -19 -72 -36 -70 -38 2 -2 37 7
77 21 90 31 90 31 90 1 0 -30 24 -56 53 -56 12 0 45 25 83 64 48 50 73 67 115
81 61 19 99 54 99 91 0 19 5 24 24 24 22 0 23 -5 30 -77 8 -95 24 -123 72
-123 41 0 89 22 98 45 3 9 6 30 6 46 0 16 4 29 8 29 4 0 34 -22 66 -50 68 -57
102 -68 144 -46 48 25 56 59 43 189 -13 139 -14 150 -1 142 16 -10 12 12 -10
55 -22 44 -29 49 -31 23z m-684 -162 c3 -5 1 -13 -5 -16 -15 -9 -43 3 -35 15
8 13 32 13 40 1z m180 -30 c3 -5 1 -13 -5 -16 -15 -9 -43 3 -35 15 8 13 32 13
40 1z m202 -83 c36 -22 73 -64 73 -84 0 -21 -84 -48 -108 -35 -23 12 -42 67
-42 119 0 30 2 33 23 27 12 -4 37 -16 54 -27z"/>
<path d="M160 601 c-5 -11 -10 -27 -10 -35 0 -21 36 -21 44 0 3 8 2 12 -4 9
-18 -11 -31 5 -20 26 6 10 8 19 6 19 -3 0 -10 -9 -16 -19z"/>
<path d="M283 559 c-62 -33 -113 -64 -113 -69 0 -14 -3 -15 109 45 56 31 106
53 110 50 7 -4 21 16 21 31 0 10 -21 0 -127 -57z"/>
<path d="M382 550 c3 -27 28 -34 36 -11 3 8 0 11 -6 7 -6 -3 -16 2 -22 11 -9
16 -10 15 -8 -7z"/>
<path d="M70 508 c-39 -87 -15 -176 32 -119 20 26 26 53 6 33 -37 -37 -52 25
-24 93 21 50 9 43 -14 -7z"/>
<path d="M606 533 c-6 -15 8 -32 27 -33 15 0 20 32 6 41 -20 13 -26 11 -33 -8z"/>
<path d="M326 483 c-4 -12 2 -41 14 -67 11 -26 20 -54 20 -61 0 -15 -82 -63
-152 -90 -74 -28 -125 -5 -138 61 l-8 39 -1 -51 c-1 -41 3 -55 23 -73 37 -35
85 -37 151 -7 122 55 161 109 131 179 -11 27 -11 37 -3 40 8 3 5 12 -9 27 -21
22 -22 22 -28 3z"/>
<path d="M1132 415 c-24 -52 -8 -101 23 -75 19 16 19 31 0 24 -20 -8 -29 19
-15 46 6 12 10 24 7 26 -2 2 -9 -7 -15 -21z"/>
<path d="M196 385 c-7 -20 21 -32 37 -16 9 9 8 14 -3 21 -21 13 -27 12 -34 -5z"/>
<path d="M657 190 c-116 -64 -120 -86 -4 -24 61 32 84 50 76 59 -2 2 -35 -14
-72 -35z"/>
<path d="M1017 204 c-12 -13 -7 -24 11 -24 14 -1 13 -4 -7 -20 -13 -11 -18
-20 -12 -20 15 0 52 42 48 55 -4 12 -30 18 -40 9z"/>
<path d="M127 183 c-12 -12 -7 -23 11 -23 14 -1 13 -4 -7 -20 -13 -11 -19 -20
-13 -20 12 0 52 48 52 61 0 11 -34 12 -43 2z"/>
</g>
</svg>
