<?xml version="1.0" standalone="no"?>
<!DOCTYPE svg PUBLIC "-//W3C//DTD SVG 20010904//EN"
 "http://www.w3.org/TR/2001/REC-SVG-20010904/DTD/svg10.dtd">
<svg version="1.0" xmlns="http://www.w3.org/2000/svg"
 width="133.000000px" height="76.000000px" viewBox="0 0 133.000000 76.000000"
 preserveAspectRatio="xMidYMid meet">

<g transform="translate(0.000000,76.000000) scale(0.100000,-0.100000)"
fill="#000000" stroke="none">
<path d="M415 691 c7 -35 -13 -45 -22 -11 -3 11 -9 20 -14 20 -5 0 -7 -11 -3
-25 5 -19 2 -25 -10 -25 -9 0 -16 7 -16 15 0 8 -5 15 -11 15 -7 0 -9 -10 -4
-27 9 -38 9 -38 55 -24 36 11 40 15 40 46 0 19 -5 37 -11 41 -8 4 -9 -3 -4
-25z"/>
<path d="M549 671 c-54 -31 -81 -52 -75 -59 7 -7 136 67 136 78 0 14 -9 11
-61 -19z"/>
<path d="M1181 638 c-4 -12 -4 -33 0 -47 4 -14 17 -120 29 -236 12 -116 25
-219 30 -230 19 -50 20 60 1 214 -25 199 -25 202 -6 195 10 -4 15 0 15 10 0
18 -47 116 -55 116 -3 0 -9 -10 -14 -22z"/>
<path d="M282 615 c-27 -59 3 -100 40 -56 23 29 23 50 1 67 -25 18 -28 18 -41
-11z m33 -24 c7 -12 -12 -24 -25 -16 -11 7 -4 25 10 25 5 0 11 -4 15 -9z"/>
<path d="M876 625 c-35 -36 -39 -56 -17 -85 l20 -28 -42 -39 c-23 -21 -63 -54
-89 -72 -27 -19 -46 -36 -44 -38 11 -11 115 54 157 98 41 43 52 48 68 39 29
-15 40 10 13 28 -16 11 -22 25 -22 52 0 47 -21 68 -44 45z m28 -34 c10 -15 -5
-40 -20 -34 -18 7 -18 43 0 43 8 0 17 -4 20 -9z"/>
<path d="M1022 621 c-5 -14 -5 -42 -1 -65 12 -57 37 -309 32 -318 -7 -14 -167
-59 -229 -65 -121 -11 -159 11 -185 112 -27 108 -63 215 -72 215 -13 0 -2 -66
23 -134 12 -34 20 -75 18 -100 -3 -37 -8 -44 -50 -73 -67 -44 -136 -69 -157
-56 -25 16 -26 87 -2 127 12 18 21 47 21 63 0 22 6 33 25 41 44 20 55 93 19
123 -10 8 -11 16 -4 29 13 25 -13 48 -35 30 -8 -6 -23 -9 -34 -5 -29 9 -49
-30 -22 -44 14 -8 22 -7 31 4 17 21 46 3 52 -32 3 -16 7 -34 9 -41 2 -8 -6
-18 -19 -23 -17 -6 -27 -4 -42 11 -37 37 -40 16 -9 -55 20 -45 20 -47 2 -67
-37 -42 -153 -115 -257 -163 -58 -26 -105 -50 -103 -51 2 -2 41 6 88 17 75 18
131 44 220 102 l27 18 -5 -45 c-5 -38 -2 -48 20 -70 32 -32 48 -32 112 -2 64
29 115 72 115 96 0 29 19 34 26 6 3 -13 17 -35 31 -48 23 -21 33 -23 126 -22
97 1 150 13 258 58 10 5 20 -2 29 -19 20 -37 59 -44 82 -15 39 48 11 106 -47
96 l-32 -6 -12 107 c-7 60 -15 126 -18 147 -4 28 -3 37 5 32 20 -12 14 60 -7
85 l-20 24 -9 -24z m136 -429 c5 -15 -13 -15 -39 -1 -11 5 -17 14 -14 19 7 11
48 -3 53 -18z"/>
<path d="M594 607 c8 -34 -11 -45 -24 -13 -13 36 -23 33 -15 -4 5 -23 3 -30
-9 -30 -9 0 -16 7 -16 15 0 8 -4 15 -10 15 -14 0 -12 -23 3 -44 11 -14 18 -16
33 -8 10 6 27 13 37 16 20 6 24 60 6 72 -8 5 -10 -1 -5 -19z"/>
<path d="M380 595 c-15 -17 -5 -35 20 -35 22 0 35 30 18 42 -18 11 -24 10 -38
-7z"/>
<path d="M694 586 c-3 -14 -4 -33 -2 -43 4 -23 42 -24 46 -1 2 13 -2 15 -19
11 -20 -6 -22 -3 -16 25 8 37 0 43 -9 8z"/>
<path d="M254 395 c-3 -19 -4 -42 0 -50 8 -21 43 -19 48 3 4 15 1 18 -20 14
-24 -5 -24 -3 -18 32 4 20 5 36 2 36 -3 0 -8 -16 -12 -35z"/>
<path d="M876 372 c-22 -48 -18 -95 8 -100 19 -4 36 13 36 37 0 11 -3 11 -16
0 -32 -26 -36 16 -9 84 14 34 -2 16 -19 -21z"/>
<path d="M498 317 c-32 -18 -58 -38 -58 -45 0 -13 28 0 113 52 17 11 23 26 10
26 -5 -1 -34 -15 -65 -33z"/>
<path d="M246 106 c-38 -23 -72 -48 -74 -55 -3 -10 0 -11 19 -1 62 32 139 82
139 91 0 14 -10 10 -84 -35z"/>
<path d="M1033 129 c26 -15 21 -25 -20 -42 -21 -9 -32 -16 -25 -16 7 -1 28 6
47 13 45 19 50 56 8 56 -24 -1 -25 -2 -10 -11z"/>
</g>
</svg>
