<?xml version="1.0" standalone="no"?>
<!DOCTYPE svg PUBLIC "-//W3C//DTD SVG 20010904//EN"
 "http://www.w3.org/TR/2001/REC-SVG-20010904/DTD/svg10.dtd">
<svg version="1.0" xmlns="http://www.w3.org/2000/svg"
 width="172.000000px" height="76.000000px" viewBox="0 0 172.000000 76.000000"
 preserveAspectRatio="xMidYMid meet">

<g transform="translate(0.000000,76.000000) scale(0.100000,-0.100000)"
fill="#000000" stroke="none">
<path d="M1265 681 c-13 -27 -13 -31 1 -46 22 -22 14 -36 -56 -94 -34 -28 -57
-51 -52 -51 18 0 98 60 120 89 12 17 29 31 38 31 12 0 14 8 9 38 -4 20 -8 43
-10 50 -7 22 -34 13 -50 -17z m35 -17 c0 -8 -4 -12 -10 -9 -5 3 -10 10 -10 16
0 5 5 9 10 9 6 0 10 -7 10 -16z"/>
<path d="M820 634 c-169 -90 -180 -98 -180 -139 0 -20 6 -35 15 -39 18 -7 20
15 3 32 -18 18 -1 31 165 118 134 70 169 94 135 94 -7 0 -69 -30 -138 -66z"/>
<path d="M1435 680 c-3 -5 3 -71 14 -147 36 -244 37 -269 13 -282 -28 -15 -74
-14 -97 3 -18 13 -18 14 3 41 28 36 29 93 1 129 -40 51 -71 24 -79 -68 l-5
-60 -41 -12 c-67 -19 -105 -43 -176 -110 -98 -92 -138 -97 -138 -19 0 43 1 45
50 70 57 29 70 48 70 103 0 27 -9 51 -30 80 -38 54 -71 56 -100 10 -38 -63
-19 -102 47 -98 54 4 63 2 63 -14 0 -23 -100 -66 -186 -81 -149 -27 -216 -17
-244 35 -6 10 -17 79 -25 152 -17 144 -32 234 -45 258 -7 13 -10 12 -16 -3 -6
-17 -5 -31 16 -131 5 -27 14 -105 19 -172 11 -135 18 -157 61 -179 36 -19 152
-20 238 -1 l62 13 0 -39 c0 -28 7 -46 25 -63 43 -44 79 -33 170 55 47 46 74
63 124 79 35 12 68 21 72 21 4 0 21 -14 37 -30 37 -36 96 -41 133 -11 31 25
36 103 15 251 -20 140 -20 141 -1 134 20 -8 19 -3 -7 51 -22 45 -32 53 -43 35z
m-447 -297 c2 -8 -6 -13 -22 -13 -26 0 -40 12 -29 24 11 11 46 2 51 -11z m372
-17 c14 -25 13 -28 -4 -42 -28 -20 -34 -18 -44 19 -16 58 19 75 48 23z"/>
<path d="M1582 673 c-9 -16 -9 -35 -2 -70 13 -67 42 -366 42 -433 l0 -55 15
30 c15 27 15 45 -1 205 -10 96 -20 188 -23 204 -5 25 -3 28 11 23 20 -8 17 7
-13 78 -17 39 -18 39 -29 18z"/>
<path d="M136 654 c-10 -26 -7 -32 23 -42 17 -6 37 -24 46 -43 13 -24 19 -29
26 -18 5 8 9 25 9 39 0 32 15 56 24 41 8 -13 26 -15 26 -3 0 5 -7 17 -15 28
-15 19 -15 19 -30 0 -8 -11 -15 -31 -15 -45 0 -23 -2 -22 -36 17 -39 46 -49
50 -58 26z"/>
<path d="M634 630 c1 -38 4 -45 21 -45 11 0 21 8 23 17 2 12 -2 15 -17 11 -16
-4 -20 1 -24 29 -3 23 -4 20 -3 -12z"/>
<path d="M1070 621 c-15 -29 -12 -71 6 -78 18 -7 64 33 64 57 0 9 -11 22 -25
28 -33 15 -32 15 -45 -7z m39 -25 c9 -11 9 -15 -1 -19 -19 -6 -38 3 -38 19 0
18 24 18 39 0z"/>
<path d="M396 589 c-9 -43 6 -79 33 -79 18 0 31 18 31 43 0 8 -4 7 -12 -1 -23
-23 -37 -13 -40 31 l-4 42 -8 -36z"/>
<path d="M948 554 c-13 -13 -19 -14 -37 -2 -20 11 -24 11 -37 -7 -12 -17 -12
-21 1 -34 12 -12 18 -13 39 -1 21 11 28 11 41 0 13 -11 19 -11 33 3 15 16 15
18 -4 37 -18 18 -21 19 -36 4z"/>
<path d="M84 495 c-17 -36 -25 -70 -24 -102 1 -26 1 -61 2 -78 0 -16 -5 -51
-12 -78 -10 -41 -9 -52 7 -84 25 -53 54 -65 140 -60 82 4 174 43 231 97 35 33
42 73 22 126 -8 21 -8 29 2 35 10 6 6 15 -15 36 -23 24 -29 26 -37 13 -5 -8
-7 -22 -4 -30 56 -133 56 -132 -37 -179 -112 -56 -218 -64 -265 -20 -29 28
-34 110 -8 131 47 38 64 59 64 79 l0 22 -23 -21 c-47 -44 -63 26 -28 118 25
67 16 64 -15 -5z"/>
<path d="M1301 532 c-8 -15 -7 -23 4 -32 21 -18 47 -4 43 22 -4 29 -34 35 -47
10z"/>
<path d="M264 457 c-26 -54 -3 -86 39 -54 26 19 26 56 0 74 -21 14 -23 13 -39
-20z m35 -10 c12 -15 5 -27 -16 -27 -7 0 -13 9 -13 20 0 23 13 26 29 7z"/>
<path d="M732 405 c-13 -28 -16 -74 -6 -99 11 -29 54 -14 54 19 0 1 -8 2 -17
1 -15 -1 -18 7 -18 52 1 28 0 52 0 52 -1 0 -7 -11 -13 -25z"/>
<path d="M226 304 c-6 -15 17 -43 36 -44 15 0 27 37 16 48 -17 17 -45 15 -52
-4z"/>
<path d="M1244 175 c-19 -14 -18 -14 4 -15 37 0 25 -29 -20 -50 -29 -13 -36
-20 -22 -20 28 0 88 41 92 64 2 10 -2 22 -10 27 -18 12 -21 11 -44 -6z"/>
<path d="M1495 160 c-3 -5 1 -10 9 -10 28 0 17 -31 -16 -46 l-33 -15 30 6 c38
8 70 38 62 59 -7 18 -42 22 -52 6z"/>
<path d="M470 118 c-73 -38 -96 -58 -68 -58 20 0 151 74 156 88 6 18 -5 14
-88 -30z"/>
<path d="M828 128 c19 -19 15 -28 -20 -44 l-33 -15 30 6 c38 8 55 22 55 46 0
13 -7 19 -22 19 -17 0 -19 -3 -10 -12z"/>
</g>
</svg>
