<?xml version="1.0" encoding="UTF-8"?>
<svg xmlns="http://www.w3.org/2000/svg" xmlns:xlink="http://www.w3.org/1999/xlink" width="100px" height="100px" viewBox="0 0 100 100" version="1.1">
<g id="surface1">
<path style=" stroke:none;fill-rule:nonzero;fill:rgb(0%,0%,0%);fill-opacity:1;" d="M 41.359375 1.53125 C 41.25 1.5625 39.980469 2.03125 38.523438 2.585938 C 37.078125 3.144531 35.117188 3.886719 34.179688 4.25 C 31.632812 5.214844 31.660156 5.203125 29.34375 6.113281 C 26.570312 7.195312 23.820312 8.546875 23.15625 9.140625 C 22.625 9.617188 22.207031 10.136719 22.296875 10.214844 C 22.363281 10.28125 23.085938 10.058594 24.21875 9.628906 C 24.726562 9.433594 25.371094 9.1875 25.632812 9.09375 C 25.90625 8.984375 26.523438 8.75 27 8.5625 C 27.492188 8.378906 28.40625 8.015625 29.054688 7.773438 C 35.148438 5.429688 39.8125 3.398438 41.054688 2.546875 C 41.570312 2.1875 41.84375 1.828125 41.757812 1.609375 C 41.699219 1.453125 41.679688 1.453125 41.359375 1.53125 Z M 41.359375 1.53125 "/>
<path style=" stroke:none;fill-rule:nonzero;fill:rgb(0%,0%,0%);fill-opacity:1;" d="M 53.417969 3.523438 C 51.882812 3.886719 45.109375 5.75 43.210938 6.335938 C 42.890625 6.445312 41.945312 6.726562 41.113281 6.984375 C 37.507812 8.085938 32.148438 9.921875 29.296875 11.035156 C 26.835938 11.992188 22.609375 13.808594 21.789062 14.257812 C 21.699219 14.304688 20.304688 15.007812 18.679688 15.8125 C 14.304688 17.988281 12.429688 19.015625 11.492188 19.757812 C 10.539062 20.5 9.96875 22.859375 9.960938 26.054688 L 9.960938 27 L 9.21875 28.027344 C 6.582031 31.679688 5.34375 33.992188 4.773438 36.328125 C 4.695312 36.632812 4.640625 37.382812 4.640625 38.039062 C 4.640625 39.003906 4.6875 39.382812 4.914062 40.203125 L 5.175781 41.210938 L 4.484375 42.402344 C 2.882812 45.148438 1.953125 47.441406 1.515625 49.707031 C 1.257812 50.976562 1.210938 53.171875 1.40625 54.296875 C 1.640625 55.65625 1.71875 55.878906 2.15625 56.53125 C 3.25 58.183594 5.039062 59.640625 6.855469 60.390625 C 7.089844 60.476562 7.226562 60.605469 7.226562 60.710938 C 7.226562 60.8125 7 61.503906 6.726562 62.257812 C 5.058594 66.855469 4.6875 68.351562 4.6875 70.4375 C 4.6875 73.117188 5.632812 75.34375 7.480469 77.039062 C 8.820312 78.273438 10.800781 78.953125 12.257812 78.703125 C 13.195312 78.535156 14.0625 78 16.09375 76.335938 C 16.484375 76.015625 16.816406 75.773438 16.84375 75.800781 C 16.867188 75.820312 16.953125 76.757812 17.039062 77.890625 C 17.234375 80.429688 17.3125 80.976562 17.726562 82.570312 C 19.054688 87.6875 22.101562 90.15625 27.441406 90.488281 C 28.554688 90.554688 32.207031 90.390625 34.226562 90.1875 C 34.921875 90.109375 35.507812 90.070312 35.527344 90.085938 C 35.546875 90.109375 35.664062 90.605469 35.789062 91.203125 C 36.289062 93.554688 36.777344 94.835938 37.636719 96.046875 C 38.484375 97.21875 39.960938 98.359375 41.074219 98.691406 C 42.265625 99.03125 43.859375 99.03125 44.921875 98.679688 C 45.957031 98.339844 48.3125 96.054688 52.257812 91.554688 C 56.679688 86.523438 58.320312 85.148438 62.1875 83.210938 C 64.609375 82 67.414062 80.742188 71.09375 79.199219 C 73.171875 78.328125 74.132812 78.007812 74.277344 78.132812 C 74.34375 78.195312 74.589844 78.574219 74.8125 78.984375 C 75.996094 81.191406 77.726562 82.753906 79.394531 83.144531 C 80.203125 83.339844 81.570312 83.339844 82.675781 83.15625 C 86.570312 82.480469 88.742188 80.382812 89.539062 76.492188 C 89.875 74.863281 89.960938 73.9375 89.890625 72.851562 C 89.667969 69.238281 89.015625 62.976562 88.183594 56.59375 C 87.664062 52.558594 86.921875 46.515625 86.523438 42.96875 C 86.414062 42.03125 86.242188 40.554688 86.132812 39.695312 C 85.957031 38.300781 85.539062 34.421875 85.265625 31.640625 C 85.203125 31.074219 85.070312 29.472656 84.960938 28.078125 C 84.84375 26.679688 84.679688 24.835938 84.570312 23.976562 C 84.472656 23.117188 84.40625 22.390625 84.433594 22.375 C 84.453125 22.351562 84.765625 22.617188 85.125 22.96875 C 85.820312 23.625 86.171875 23.875 86.320312 23.789062 C 86.710938 23.546875 84.277344 17.429688 82.976562 15.410156 C 82.324219 14.382812 82.148438 14.414062 81.640625 15.632812 C 81.132812 16.875 81.152344 17.558594 81.945312 23.4375 C 82.039062 24.21875 82.234375 25.734375 82.363281 26.804688 C 82.5 27.882812 82.78125 30.164062 83.007812 31.882812 C 83.222656 33.601562 83.535156 36.0625 83.691406 37.351562 C 83.847656 38.640625 84.023438 39.980469 84.082031 40.332031 C 84.140625 40.683594 84.289062 41.867188 84.421875 42.96875 C 84.550781 44.070312 84.882812 46.726562 85.148438 48.875 C 87.234375 65.539062 88.183594 73.914062 88.183594 75.761719 C 88.183594 76.789062 88.105469 77.011719 87.53125 77.546875 C 85.332031 79.617188 81.289062 80.226562 78.625 78.875 C 77.9375 78.535156 77.148438 77.832031 76.71875 77.179688 L 76.445312 76.765625 L 77.363281 75.75 C 79.03125 73.90625 79.902344 72.429688 80.4375 70.554688 C 80.695312 69.65625 80.710938 69.445312 80.703125 68.015625 C 80.703125 66.242188 80.566406 65.578125 79.902344 64.0625 C 78.71875 61.398438 77.375 60.429688 75.5 60.890625 C 74.082031 61.230469 73.066406 62.382812 72.34375 64.460938 L 72.023438 65.382812 L 72.023438 70.75 L 72.402344 72.734375 C 72.78125 74.667969 72.78125 74.707031 72.597656 74.84375 C 72.421875 74.980469 70 76.101562 68.195312 76.894531 C 67.375 77.257812 66.867188 77.46875 64.601562 78.46875 C 62.296875 79.484375 60.273438 80.507812 58.691406 81.476562 C 56.710938 82.675781 54.25 85.007812 51.5625 88.234375 C 49.421875 90.789062 48.507812 91.835938 47.421875 92.898438 C 45.332031 94.96875 43.757812 96.085938 42.296875 96.523438 C 41.113281 96.875 40.195312 96.621094 39.1875 95.683594 C 37.84375 94.414062 37.207031 92.703125 37.207031 90.332031 L 37.207031 89.160156 L 37.53125 89.015625 C 37.695312 88.9375 38.601562 88.5625 39.539062 88.183594 C 41.023438 87.578125 44.003906 86.164062 44.875 85.65625 C 48 83.808594 48.796875 83.273438 50.4375 81.953125 C 53.671875 79.367188 55.304688 76.804688 55.4375 74.109375 C 55.539062 72.273438 55.078125 70.59375 53.691406 67.675781 C 52.929688 66.074219 52.492188 65.03125 52.34375 64.523438 C 52.167969 63.867188 52.273438 63.78125 52.960938 63.992188 C 53.585938 64.1875 54.199219 64.210938 54.199219 64.03125 C 54.199219 63.867188 53.359375 62.832031 51.757812 61.035156 C 49.71875 58.742188 49.5 58.585938 49.121094 59.210938 C 48.535156 60.15625 48.367188 61.738281 48.742188 62.765625 C 49.015625 63.484375 49.914062 65.5 50.78125 67.335938 C 51.21875 68.273438 51.648438 69.1875 52.148438 70.3125 C 52.351562 70.773438 52.617188 71.359375 52.734375 71.632812 C 53.429688 73.15625 54.082031 74.960938 54.003906 75.109375 C 53.601562 75.851562 48.679688 79.570312 45.851562 81.269531 C 45.15625 81.6875 41.777344 83.40625 41.015625 83.742188 C 40.722656 83.867188 40.03125 84.171875 39.472656 84.414062 C 38.195312 84.980469 37.832031 85.046875 37.742188 84.773438 C 37.597656 84.316406 38.210938 82.363281 38.976562 80.828125 C 39.1875 80.421875 39.734375 79.492188 40.203125 78.78125 C 40.671875 78.078125 41.242188 77.15625 41.464844 76.765625 L 41.875 76.035156 L 40.957031 75.058594 C 40.449219 74.523438 40.039062 74.042969 40.039062 73.992188 C 40.039062 73.945312 41.015625 72.960938 42.21875 71.796875 C 45.703125 68.398438 46.054688 68.066406 46.152344 68.066406 C 46.203125 68.066406 46.347656 68.222656 46.476562 68.417969 C 46.609375 68.601562 46.84375 68.828125 47.011719 68.914062 C 47.285156 69.0625 47.3125 69.054688 47.480469 68.847656 C 47.792969 68.46875 47.675781 67.8125 47.207031 67.257812 C 46.953125 66.953125 46.953125 66.953125 47.023438 65.632812 C 47.078125 64.550781 47.0625 64.1875 46.933594 63.671875 C 46.632812 62.507812 46.023438 61.914062 45.28125 62.050781 C 44.550781 62.1875 43.730469 63.59375 43.585938 64.941406 C 43.515625 65.625 43.742188 66.179688 44.328125 66.828125 C 44.796875 67.335938 44.824219 67.597656 44.472656 68.125 C 43.71875 69.238281 40.214844 72.851562 39.5625 73.183594 C 39.304688 73.320312 39.109375 73.339844 38.71875 73.289062 C 38.242188 73.234375 38.183594 73.25 37.859375 73.535156 C 37.46875 73.875 36.425781 75.359375 36.425781 75.578125 C 36.425781 75.683594 36.960938 76.4375 37.207031 76.660156 C 37.234375 76.6875 37.597656 77.070312 38.015625 77.507812 L 38.789062 78.300781 L 38.203125 79.65625 C 37.871094 80.398438 37.296875 81.796875 36.914062 82.765625 C 35.8125 85.585938 35.75 85.683594 35.097656 86.015625 C 34.5 86.320312 33.429688 86.503906 31.492188 86.621094 C 28.703125 86.804688 26.375 86.632812 24.851562 86.125 C 22.039062 85.1875 20.15625 83.457031 19.101562 80.851562 C 18.3125 78.914062 18.007812 75.371094 18.535156 74.199219 C 18.875 73.417969 20.65625 71.777344 22.507812 70.539062 C 25.03125 68.859375 25.9375 68.445312 31.59375 66.453125 C 35.722656 65 36.953125 64.53125 38.417969 63.828125 C 39.882812 63.132812 41.015625 62.390625 41.933594 61.515625 C 42.890625 60.617188 43.28125 60.070312 43.5625 59.277344 C 43.769531 58.703125 43.789062 58.484375 43.78125 57.03125 C 43.769531 54.960938 43.574219 53.976562 42.851562 52.296875 C 42.234375 50.890625 41.765625 50.164062 39.550781 47.3125 C 38.59375 46.09375 38.632812 45.957031 39.726562 46.609375 C 41.101562 47.441406 45.734375 51.4375 49.65625 55.175781 C 53.613281 58.945312 55.125 60.136719 57.570312 61.359375 C 59.0625 62.109375 59.335938 62.351562 59.472656 63.09375 C 59.746094 64.589844 60.304688 71.570312 60.410156 74.835938 C 60.449219 76.015625 60.515625 76.816406 60.566406 76.738281 C 60.664062 76.59375 61.257812 74.65625 61.40625 74.023438 C 61.960938 71.660156 62.179688 67.9375 62.011719 63.585938 L 61.960938 62.273438 L 63.183594 61.828125 C 65.539062 60.9375 67.414062 59.8125 68.351562 58.710938 C 69.21875 57.695312 69.941406 55.695312 70.078125 53.9375 C 70.175781 52.675781 69.875 49.628906 69.09375 44.042969 C 68.964844 43.105469 68.703125 41.230469 68.515625 39.890625 C 68.328125 38.546875 68 36.132812 67.773438 34.523438 C 67.558594 32.910156 67.265625 30.800781 67.140625 29.835938 C 66.882812 28.046875 66.554688 25.488281 66.210938 22.753906 C 66.101562 21.921875 65.90625 20.429688 65.773438 19.433594 C 65.410156 16.835938 65.039062 13.417969 65.039062 12.78125 C 65.039062 12.492188 65.097656 12.167969 65.164062 12.070312 C 65.332031 11.84375 65.429688 11.894531 66.296875 12.585938 C 66.921875 13.085938 67.1875 13.195312 67.1875 12.960938 C 67.1875 12.167969 64.140625 5.546875 63.210938 4.316406 C 63 4.023438 62.949219 4.003906 62.820312 4.132812 C 62.742188 4.210938 62.53125 4.707031 62.34375 5.234375 C 61.882812 6.570312 61.90625 7.089844 62.507812 11.125 C 63.054688 14.765625 63.769531 19.804688 64.015625 21.679688 C 64.09375 22.351562 64.277344 23.671875 64.40625 24.609375 C 64.539062 25.546875 64.757812 27.179688 64.890625 28.222656 C 65.359375 31.738281 65.734375 34.5 66.074219 37.0625 C 67.675781 49.082031 68.359375 54.882812 68.234375 55.390625 C 68.144531 55.710938 67.15625 56.4375 65.917969 57.070312 C 63.867188 58.125 61.992188 58.367188 61.335938 57.675781 C 61.125 57.453125 61.007812 56.726562 60.449219 52.148438 C 59.617188 45.382812 59.34375 43.210938 59.179688 41.894531 C 58.992188 40.429688 58.90625 39.734375 58.300781 34.71875 C 58.144531 33.429688 57.921875 31.59375 57.804688 30.644531 C 57.6875 29.6875 57.609375 28.875 57.648438 28.847656 C 57.675781 28.820312 58.125 29.132812 58.640625 29.539062 C 59.148438 29.960938 59.601562 30.273438 59.628906 30.242188 C 59.726562 30.15625 59.460938 28.964844 59.132812 28.027344 C 58.523438 26.289062 57.726562 24.601562 56.484375 22.453125 C 55.390625 20.546875 55.554688 20.644531 55.058594 21.59375 L 54.640625 22.414062 L 54.648438 23.78125 C 54.667969 25.410156 54.695312 25.664062 56.59375 41.0625 C 57.390625 47.570312 57.519531 48.664062 57.664062 50.097656 C 57.753906 50.929688 57.882812 52.140625 57.960938 52.78125 C 58.144531 54.355469 58.320312 56.972656 58.242188 57.167969 C 58.15625 57.390625 57.976562 57.363281 57.402344 57.011719 C 55.957031 56.132812 54.40625 54.890625 50 51.074219 C 46.894531 48.378906 45.644531 47.324219 42.480469 44.726562 C 39.460938 42.246094 38.144531 41.023438 38.203125 40.75 C 38.328125 40.085938 41.660156 39.617188 43.703125 39.980469 C 45.507812 40.292969 47.375 41.054688 49.003906 42.117188 C 49.523438 42.46875 50.097656 42.832031 50.273438 42.929688 C 50.59375 43.117188 50.605469 43.117188 50.734375 42.929688 C 50.9375 42.65625 50.996094 42.039062 50.96875 40.65625 C 50.9375 39.679688 50.890625 39.335938 50.761719 39.140625 C 50.671875 39.003906 50.03125 38.378906 49.34375 37.765625 C 47.703125 36.296875 46.492188 35.058594 45.890625 34.21875 C 45.234375 33.320312 44.335938 31.464844 43.898438 30.078125 C 42.988281 27.234375 42.296875 23.144531 42.703125 22.988281 C 42.78125 22.960938 43.046875 23.027344 43.300781 23.144531 C 43.835938 23.367188 43.945312 23.390625 43.945312 23.210938 C 43.945312 22.96875 43.015625 20.878906 42 18.898438 C 41.191406 17.285156 40.929688 16.84375 40.78125 16.84375 C 39.929688 16.84375 39.5 20.984375 39.992188 24.316406 C 40.125 25.203125 41.113281 29.1875 42.039062 32.617188 C 42.285156 33.507812 42.546875 34.53125 42.625 34.902344 C 42.832031 35.839844 42.820312 35.851562 41.230469 35.945312 C 40.539062 35.984375 39.472656 36.113281 38.859375 36.21875 C 37.832031 36.40625 35.617188 37.011719 35.242188 37.21875 C 35.15625 37.257812 34.695312 37.414062 34.226562 37.546875 C 33.546875 37.742188 33.339844 37.773438 33.171875 37.675781 C 32.625 37.390625 25.839844 32.820312 20.945312 29.453125 C 19.394531 28.390625 17.695312 27.21875 17.1875 26.867188 C 13.496094 24.335938 11.71875 23.046875 11.71875 22.898438 C 11.71875 22.402344 16.953125 19.539062 21.09375 17.773438 C 21.445312 17.617188 22.101562 17.335938 22.558594 17.140625 C 23.4375 16.765625 27.351562 15.195312 28.417969 14.796875 C 28.769531 14.667969 29.40625 14.421875 29.835938 14.257812 C 34.472656 12.453125 42.742188 9.578125 46.679688 8.40625 C 48.78125 7.78125 51.53125 7.382812 53.808594 7.375 C 55.234375 7.375 55.351562 7.382812 55.8125 7.617188 C 56.445312 7.9375 56.738281 8.476562 56.738281 9.304688 C 56.738281 10.359375 56.269531 11.035156 53.007812 14.589844 C 50.195312 17.664062 49.289062 18.808594 48.390625 20.410156 C 47.664062 21.6875 47.246094 22.851562 47.546875 22.734375 C 47.585938 22.714844 48.300781 21.933594 49.132812 20.996094 C 49.953125 20.058594 50.644531 19.265625 50.671875 19.238281 C 50.78125 19.140625 52.226562 17.507812 53.085938 16.503906 C 55.9375 13.171875 57.765625 10.292969 58.3125 8.242188 C 58.601562 7.148438 58.625 5.382812 58.351562 4.835938 C 58.117188 4.367188 57.519531 3.898438 56.765625 3.601562 C 55.976562 3.289062 54.550781 3.261719 53.417969 3.523438 Z M 12.070312 28.742188 C 13.09375 29.523438 14.914062 30.898438 17.871094 33.144531 C 21.484375 35.878906 22.441406 36.609375 25 38.613281 C 27.246094 40.359375 27.929688 40.9375 27.929688 41.054688 C 27.929688 41.179688 27.207031 41.914062 25.878906 43.117188 C 25.125 43.796875 24.695312 44.210938 22.070312 46.6875 C 19.265625 49.328125 15.898438 52.296875 14.054688 53.742188 C 11.921875 55.410156 8.496094 57.414062 7.507812 57.558594 C 6.894531 57.648438 5.734375 57.460938 5.058594 57.15625 C 4.34375 56.84375 3.78125 56.230469 3.289062 55.265625 C 2.820312 54.328125 2.636719 53.445312 2.636719 52.03125 C 2.636719 49.96875 3.234375 47.84375 4.589844 45.070312 C 5.390625 43.4375 5.9375 42.6875 7.296875 41.367188 C 8.925781 39.796875 10.085938 38.078125 10.226562 37.03125 C 10.304688 36.453125 10.136719 36.492188 9.265625 37.257812 C 8.417969 38.007812 8 38.234375 7.726562 38.09375 C 7.265625 37.851562 6.765625 36.125 6.882812 35.15625 C 6.972656 34.355469 7.382812 33.105469 7.851562 32.148438 C 8.808594 30.203125 10.4375 27.949219 10.898438 27.929688 C 10.957031 27.929688 11.484375 28.289062 12.070312 28.742188 Z M 31.445312 44.015625 C 31.75 44.21875 33.351562 45.46875 33.742188 45.8125 C 38.523438 49.960938 40.710938 52.546875 42.21875 55.828125 C 42.871094 57.246094 42.871094 57.265625 42.414062 57.675781 C 41.933594 58.105469 41.328125 58.476562 39.640625 59.40625 C 37.675781 60.488281 35.761719 61.335938 30.371094 63.496094 C 22.167969 66.789062 20.644531 67.703125 16.191406 72.03125 C 13.742188 74.414062 12.960938 75.070312 11.992188 75.566406 L 11.28125 75.929688 L 10.007812 75.929688 C 8.640625 75.929688 8.46875 75.878906 7.851562 75.320312 C 7.402344 74.914062 6.757812 73.90625 6.484375 73.164062 C 6.296875 72.695312 6.203125 72.15625 6.125 71.25 C 5.90625 68.574219 6.4375 65.976562 7.871094 62.695312 C 8.523438 61.191406 8.898438 60.800781 10.351562 60.070312 C 12.34375 59.054688 14.023438 58.039062 15.265625 57.089844 C 16.464844 56.171875 18.40625 54.484375 20.410156 52.636719 C 21.074219 52.023438 21.679688 51.464844 21.738281 51.414062 C 21.796875 51.359375 22.34375 50.851562 22.960938 50.28125 C 26.210938 47.265625 28.847656 45.078125 30.3125 44.199219 C 30.976562 43.796875 31.101562 43.78125 31.445312 44.015625 Z M 45.488281 64.289062 C 45.898438 64.71875 45.984375 65.527344 45.632812 65.527344 C 45.390625 65.527344 44.628906 64.679688 44.628906 64.414062 C 44.628906 64.296875 44.65625 64.160156 44.695312 64.132812 C 44.84375 63.984375 45.292969 64.070312 45.488281 64.289062 Z M 76.671875 64.84375 C 77.742188 65.398438 79.042969 67.851562 79.171875 69.601562 C 79.21875 70.253906 79.210938 70.34375 78.964844 70.695312 C 78.484375 71.375 77.050781 72.402344 75.421875 73.234375 C 74.941406 73.476562 75.046875 73.59375 74.382812 72.117188 C 74.148438 71.582031 73.796875 70.632812 73.625 70.019531 C 73.339844 69.042969 73.300781 68.75 73.289062 67.773438 C 73.289062 66.777344 73.320312 66.59375 73.523438 66.164062 C 73.789062 65.644531 74.328125 65 74.648438 64.824219 C 75.214844 64.523438 76.046875 64.53125 76.671875 64.84375 Z M 76.671875 64.84375 "/>
<path style=" stroke:none;fill-rule:nonzero;fill:rgb(0%,0%,0%);fill-opacity:1;" d="M 16.828125 35.828125 C 15.789062 36.308594 15.4375 36.789062 15.359375 37.832031 C 15.28125 38.90625 15.4375 39.414062 16.125 40.253906 C 16.71875 40.976562 16.777344 41.164062 16.59375 41.53125 C 16.203125 42.273438 13.898438 44.804688 10.460938 48.261719 C 8.664062 50.078125 7.21875 51.59375 7.257812 51.621094 C 7.421875 51.789062 9.929688 49.890625 12.519531 47.648438 C 14.296875 46.085938 15.359375 44.929688 16.960938 42.773438 C 18.039062 41.328125 17.921875 41.367188 18.75 42.140625 C 19.140625 42.492188 19.53125 42.773438 19.617188 42.753906 C 20.039062 42.675781 19.773438 41.503906 19.140625 40.625 C 18.925781 40.332031 18.703125 39.980469 18.640625 39.84375 C 18.585938 39.707031 18.523438 38.914062 18.515625 38.039062 C 18.496094 36.269531 18.398438 35.9375 17.859375 35.75 C 17.441406 35.605469 17.304688 35.617188 16.828125 35.828125 Z M 17.34375 37.648438 C 17.8125 37.96875 17.921875 38.886719 17.5 38.945312 C 17.1875 38.992188 16.601562 38.390625 16.601562 38.015625 C 16.601562 37.53125 16.945312 37.363281 17.34375 37.648438 Z M 17.34375 37.648438 "/>
<path style=" stroke:none;fill-rule:nonzero;fill:rgb(0%,0%,0%);fill-opacity:1;" d="M 26.738281 52.570312 C 26.386719 53.027344 25.195312 55.03125 25.195312 55.148438 C 25.195312 55.304688 27.285156 57.265625 27.8125 57.617188 C 28.625 58.15625 28.757812 58.078125 29.929688 56.476562 C 30.253906 56.035156 30.554688 55.671875 30.605469 55.664062 C 30.65625 55.664062 31.203125 56.09375 31.828125 56.621094 C 33.679688 58.183594 33.820312 58.25 34.277344 58.007812 C 34.5625 57.851562 35.320312 56.816406 35.644531 56.140625 L 35.929688 55.539062 L 35.644531 55.136719 C 35.332031 54.6875 33.546875 52.921875 32.976562 52.492188 L 32.609375 52.21875 L 32.363281 52.453125 C 32.21875 52.578125 31.894531 52.988281 31.640625 53.367188 C 31.085938 54.179688 30.605469 54.6875 30.382812 54.6875 C 30.15625 54.6875 29.726562 54.394531 29.003906 53.75 C 28.351562 53.15625 27.546875 52.546875 27.1875 52.363281 C 27 52.265625 26.945312 52.296875 26.738281 52.570312 Z M 26.738281 52.570312 "/>
<path style=" stroke:none;fill-rule:nonzero;fill:rgb(0%,0%,0%);fill-opacity:1;" d="M 21.554688 57.441406 C 21.179688 57.929688 21.015625 58.535156 20.75 60.390625 C 20.507812 62.140625 20.449219 62.402344 20.304688 62.402344 C 20.265625 62.402344 19.785156 61.882812 19.25 61.242188 C 17.734375 59.453125 17.070312 58.976562 16.554688 59.316406 C 15.917969 59.734375 15.839844 60.554688 16.367188 61.328125 C 16.757812 61.914062 17.109375 62.148438 17.609375 62.15625 C 18.234375 62.1875 18.234375 62.1875 18.652344 62.558594 C 19.0625 62.929688 19.71875 63.925781 20.175781 64.863281 C 20.332031 65.175781 20.476562 65.429688 20.507812 65.429688 C 20.59375 65.429688 20.867188 64.511719 20.984375 63.820312 C 21.046875 63.496094 21.179688 62.421875 21.289062 61.425781 C 21.570312 58.886719 21.777344 58.5625 22.636719 59.277344 C 23.234375 59.765625 23.632812 59.609375 23.632812 58.886719 C 23.632812 58.496094 23.507812 58.25 23.054688 57.78125 C 22.375 57.0625 21.914062 56.960938 21.554688 57.441406 Z M 21.554688 57.441406 "/>
<path style=" stroke:none;fill-rule:nonzero;fill:rgb(0%,0%,0%);fill-opacity:1;" d="M 11.777344 64.023438 C 11.203125 65.253906 10.878906 66.515625 10.789062 67.96875 C 10.695312 69.648438 10.839844 70.058594 11.804688 70.722656 L 12.234375 71.023438 L 12.558594 70.644531 C 13.039062 70.085938 13.378906 69.335938 13.445312 68.710938 C 13.515625 68.054688 13.378906 68 12.929688 68.46875 C 12.539062 68.886719 12.128906 69.082031 11.960938 68.945312 C 11.582031 68.632812 11.515625 66.921875 11.828125 65.253906 C 11.933594 64.640625 12.011719 64.03125 11.992188 63.898438 C 11.960938 63.652344 11.953125 63.664062 11.777344 64.023438 Z M 11.777344 64.023438 "/>
<path style=" stroke:none;fill-rule:nonzero;fill:rgb(0%,0%,0%);fill-opacity:1;" d="M 72.1875 7.78125 C 71.503906 9.265625 71.453125 10.214844 71.921875 12.695312 C 72.3125 14.734375 73.066406 19.570312 73.671875 23.976562 C 74.289062 28.398438 74.550781 30.410156 75.058594 34.863281 C 75.125 35.539062 75.195312 36.414062 75.195312 36.828125 C 75.195312 37.8125 75.125 37.898438 72.871094 40.097656 C 71.867188 41.074219 71.074219 41.894531 71.101562 41.933594 C 71.164062 42 72.460938 41.242188 73.78125 40.371094 C 75.039062 39.539062 75.554688 39.289062 75.683594 39.414062 C 75.917969 39.648438 76.464844 43.195312 76.660156 45.703125 C 76.796875 47.53125 77.140625 50.117188 77.246094 50.234375 C 77.375 50.359375 77.6875 49.421875 77.871094 48.328125 C 78.222656 46.257812 78.328125 41.609375 78.078125 39.5 C 77.988281 38.859375 77.898438 38.054688 77.871094 37.734375 L 77.804688 37.128906 L 78.476562 36.269531 C 79.238281 35.292969 80.136719 34.375 80.320312 34.375 C 80.539062 34.375 80.75 34.101562 80.859375 33.679688 C 81.023438 33.085938 81.25 31.007812 81.25 30.117188 C 81.25 29.421875 81.21875 29.289062 80.96875 28.886719 C 80.65625 28.398438 80.195312 28.027344 79.902344 28.027344 C 79.238281 28.027344 78.039062 29.421875 78.027344 30.203125 C 78.027344 30.617188 78.339844 31.414062 78.847656 32.257812 C 79.09375 32.675781 79.296875 33.066406 79.296875 33.125 C 79.296875 33.300781 78.105469 34.960938 77.976562 34.960938 C 77.898438 34.960938 77.820312 34.84375 77.792969 34.6875 C 77.597656 33.730469 76.59375 27.148438 75.734375 21.140625 C 75.332031 18.351562 75 15.605469 75.058594 15.515625 C 75.136719 15.390625 75.75 15.742188 76.367188 16.25 C 76.945312 16.726562 77.089844 16.796875 77.011719 16.523438 C 76.984375 16.4375 76.867188 16.007812 76.75 15.585938 C 76.203125 13.554688 73.742188 8.261719 72.921875 7.34375 C 72.8125 7.226562 72.664062 7.128906 72.609375 7.128906 C 72.539062 7.128906 72.351562 7.421875 72.1875 7.78125 Z M 79.773438 29.921875 C 80.109375 30.097656 80.273438 30.449219 80.273438 31.015625 C 80.273438 31.828125 79.71875 31.621094 79.296875 30.644531 C 79.101562 30.1875 79.101562 30.148438 79.257812 29.96875 C 79.453125 29.746094 79.433594 29.746094 79.773438 29.921875 Z M 79.773438 29.921875 "/>
<path style=" stroke:none;fill-rule:nonzero;fill:rgb(0%,0%,0%);fill-opacity:1;" d="M 45.617188 12.8125 C 45.332031 13.703125 45.234375 15.578125 45.398438 16.5625 C 45.605469 17.742188 46.09375 18.523438 46.523438 18.398438 C 47.078125 18.234375 47.753906 17.226562 47.753906 16.570312 C 47.753906 16.085938 47.597656 16.035156 47.21875 16.40625 C 46.835938 16.777344 46.542969 16.765625 46.25 16.375 C 46.0625 16.125 46.046875 15.945312 46.015625 14.101562 C 45.996094 13.007812 45.945312 12.109375 45.90625 12.109375 C 45.867188 12.109375 45.734375 12.429688 45.617188 12.8125 Z M 45.617188 12.8125 "/>
<path style=" stroke:none;fill-rule:nonzero;fill:rgb(0%,0%,0%);fill-opacity:1;" d="M 57.871094 14.042969 C 57.804688 14.160156 57.441406 16.296875 57.375 16.992188 C 57.246094 18.351562 57.753906 19.132812 58.828125 19.21875 C 59.277344 19.257812 59.433594 19.21875 59.796875 19.015625 C 60.703125 18.476562 61.328125 17.460938 61.328125 16.503906 C 61.328125 15.253906 60.488281 14.414062 58.90625 14.070312 C 58.300781 13.945312 57.9375 13.9375 57.871094 14.042969 Z M 59.433594 15.710938 C 60.019531 15.976562 60.546875 16.476562 60.546875 16.765625 C 60.546875 17.265625 59.617188 17.871094 58.847656 17.871094 C 58.484375 17.871094 58.378906 17.832031 58.289062 17.65625 C 58.125 17.351562 58.066406 16.125 58.195312 15.789062 C 58.28125 15.566406 58.351562 15.527344 58.664062 15.527344 C 58.867188 15.527344 59.210938 15.617188 59.433594 15.710938 Z M 59.433594 15.710938 "/>
<path style=" stroke:none;fill-rule:nonzero;fill:rgb(0%,0%,0%);fill-opacity:1;" d="M 30.820312 16.867188 C 30.265625 17.96875 29.765625 20.214844 29.757812 21.679688 C 29.734375 23 29.863281 23.507812 30.320312 24.003906 C 30.617188 24.328125 30.703125 24.367188 31.140625 24.367188 C 31.542969 24.367188 31.679688 24.316406 31.945312 24.070312 C 32.265625 23.769531 32.609375 23.125 32.617188 22.820312 C 32.617188 22.570312 32.363281 22.519531 31.984375 22.703125 C 31.484375 22.9375 31.335938 22.871094 31.015625 22.273438 C 30.539062 21.386719 30.515625 20.070312 30.957031 17.929688 C 31.0625 17.402344 31.152344 16.882812 31.152344 16.789062 C 31.152344 16.515625 30.984375 16.5625 30.820312 16.867188 Z M 30.820312 16.867188 "/>
<path style=" stroke:none;fill-rule:nonzero;fill:rgb(0%,0%,0%);fill-opacity:1;" d="M 22.089844 19.5 C 21.492188 20.683594 21.152344 22.375 21.140625 24.121094 C 21.140625 25.421875 21.164062 25.578125 21.367188 25.957031 C 21.621094 26.425781 22.03125 26.660156 22.609375 26.660156 C 23.054688 26.660156 23.671875 26.0625 23.828125 25.476562 C 23.945312 25.039062 23.898438 24.757812 23.703125 24.84375 C 23.273438 25.019531 22.84375 25.117188 22.703125 25.058594 C 22.617188 25.03125 22.414062 24.71875 22.257812 24.367188 C 21.875 23.554688 21.867188 22.765625 22.21875 20.851562 C 22.34375 20.097656 22.460938 19.40625 22.460938 19.304688 C 22.460938 19.023438 22.273438 19.121094 22.089844 19.5 Z M 22.089844 19.5 "/>
<path style=" stroke:none;fill-rule:nonzero;fill:rgb(0%,0%,0%);fill-opacity:1;" d="M 68.964844 20.578125 C 68.71875 21.414062 68.535156 23.203125 68.585938 24.21875 C 68.640625 25.46875 68.898438 26.210938 69.394531 26.648438 C 69.890625 27.089844 70.332031 27.070312 70.789062 26.582031 C 71.320312 26.023438 71.5625 25.070312 71.242188 24.804688 C 71.113281 24.695312 71.023438 24.734375 70.710938 25.039062 C 70.382812 25.359375 70.3125 25.390625 70.148438 25.292969 C 69.882812 25.117188 69.550781 24.617188 69.316406 24.015625 C 69.132812 23.523438 69.121094 23.359375 69.179688 21.84375 C 69.25 20.234375 69.179688 19.851562 68.964844 20.578125 Z M 68.964844 20.578125 "/>
<path style=" stroke:none;fill-rule:nonzero;fill:rgb(0%,0%,0%);fill-opacity:1;" d="M 90.546875 24.628906 C 90.253906 25.109375 89.84375 26.515625 89.84375 27.023438 C 89.84375 27.265625 90.019531 28.523438 90.234375 29.824219 C 90.449219 31.113281 90.734375 32.988281 90.867188 33.984375 C 90.996094 34.980469 91.203125 36.425781 91.308594 37.207031 C 91.414062 37.988281 91.660156 39.746094 91.855469 41.113281 C 92.597656 46.453125 92.882812 48.476562 93.203125 50.828125 C 93.671875 54.132812 93.71875 54.578125 93.898438 56.445312 C 94.054688 58.171875 94.433594 63.164062 94.679688 66.894531 C 94.863281 69.648438 94.902344 70.019531 95.019531 70.019531 C 95.15625 70.019531 95.578125 69.140625 95.898438 68.183594 C 96.28125 67.023438 96.386719 65.890625 96.386719 62.773438 C 96.386719 58 96.132812 55.136719 94.960938 46.828125 C 93.367188 35.460938 92.976562 32.128906 93.242188 32.128906 C 93.28125 32.128906 93.691406 32.375 94.140625 32.664062 C 94.679688 33.027344 94.992188 33.171875 95.046875 33.117188 C 95.242188 32.921875 94.5625 30.917969 93.78125 29.355469 C 92.78125 27.363281 90.996094 24.316406 90.820312 24.316406 C 90.773438 24.316406 90.65625 24.460938 90.546875 24.628906 Z M 90.546875 24.628906 "/>
<path style=" stroke:none;fill-rule:nonzero;fill:rgb(0%,0%,0%);fill-opacity:1;" d="M 35.382812 25.320312 C 34.5625 26.0625 34.210938 27.109375 34.09375 29.101562 C 34.03125 30.203125 33.976562 30.515625 33.847656 30.644531 C 33.679688 30.800781 33.652344 30.789062 33.328125 30.421875 C 33.144531 30.203125 32.882812 29.875 32.765625 29.6875 C 32.285156 28.964844 31.5625 28.164062 31.113281 27.851562 C 30.722656 27.597656 30.546875 27.539062 30.117188 27.539062 C 29.394531 27.539062 29.199219 27.734375 29.199219 28.484375 C 29.199219 29.460938 29.628906 30.046875 30.46875 30.226562 C 31.015625 30.34375 31.855469 30.828125 32.195312 31.242188 C 32.375 31.453125 32.765625 32.050781 33.066406 32.585938 C 33.625 33.535156 33.945312 33.984375 34.09375 33.984375 C 34.296875 33.984375 34.5 32.570312 34.71875 29.640625 C 34.882812 27.382812 34.960938 26.933594 35.214844 26.648438 C 35.429688 26.40625 35.617188 26.414062 36.085938 26.710938 C 36.648438 27.050781 36.894531 27.148438 37.050781 27.089844 C 37.257812 27.011719 37.402344 26.601562 37.402344 26.125 C 37.402344 25.78125 37.34375 25.617188 37.128906 25.382812 C 36.894531 25.117188 36.765625 25.058594 36.308594 25.019531 C 35.800781 24.980469 35.742188 25 35.382812 25.320312 Z M 35.382812 25.320312 "/>
<path style=" stroke:none;fill-rule:nonzero;fill:rgb(0%,0%,0%);fill-opacity:1;" d="M 52.351562 27 C 51.710938 27.546875 51.25 28.769531 51.0625 30.421875 C 51.007812 31.007812 50.9375 31.515625 50.917969 31.53125 C 50.898438 31.554688 50.515625 31.242188 50.070312 30.828125 C 48.339844 29.296875 46.875 28.535156 46.453125 28.953125 C 46.191406 29.21875 46.28125 29.980469 46.640625 30.59375 C 46.710938 30.710938 46.984375 30.820312 47.453125 30.917969 C 48.484375 31.132812 49.140625 31.476562 49.71875 32.109375 C 49.992188 32.414062 50.28125 32.765625 50.371094 32.898438 C 50.761719 33.523438 51.386719 34.277344 51.523438 34.277344 C 51.609375 34.277344 51.660156 34.160156 51.671875 33.90625 C 51.71875 31.085938 51.835938 28.71875 51.933594 28.546875 C 52.101562 28.234375 52.402344 28.183594 52.890625 28.367188 C 53.125 28.457031 53.4375 28.515625 53.585938 28.496094 C 53.828125 28.46875 53.859375 28.417969 53.886719 28.085938 C 53.976562 27.039062 53.066406 26.40625 52.351562 27 Z M 52.351562 27 "/>
<path style=" stroke:none;fill-rule:nonzero;fill:rgb(0%,0%,0%);fill-opacity:1;" d="M 61.738281 34.785156 C 61.726562 34.824219 61.582031 35.332031 61.40625 35.90625 C 61.101562 36.90625 61.09375 37.050781 61.085938 38.574219 C 61.085938 40.019531 61.101562 40.253906 61.308594 40.851562 C 62.078125 43.078125 63.640625 43.417969 64.121094 41.476562 C 64.328125 40.644531 64.226562 39.890625 63.914062 39.890625 C 63.71875 39.890625 63.59375 40.085938 63.328125 40.761719 L 63.183594 41.132812 L 62.53125 40.429688 C 61.515625 39.335938 61.59375 39.601562 61.71875 37.570312 C 61.816406 36.140625 61.828125 34.453125 61.738281 34.785156 Z M 61.738281 34.785156 "/>
<path style=" stroke:none;fill-rule:nonzero;fill:rgb(0%,0%,0%);fill-opacity:1;" d="M 80.984375 41.0625 C 80.304688 42.285156 79.902344 46.257812 80.3125 47.675781 C 80.617188 48.730469 81.308594 49.101562 81.992188 48.585938 C 82.351562 48.3125 82.617188 47.617188 82.617188 46.960938 C 82.617188 46.484375 82.5 46.425781 82.234375 46.777344 C 82.117188 46.945312 81.945312 47.070312 81.835938 47.070312 C 81.582031 47.070312 81.09375 46.445312 80.945312 45.90625 C 80.773438 45.28125 80.789062 43.914062 80.996094 42.519531 C 81.09375 41.867188 81.152344 41.230469 81.132812 41.101562 C 81.101562 40.878906 81.09375 40.878906 80.984375 41.0625 Z M 80.984375 41.0625 "/>
<path style=" stroke:none;fill-rule:nonzero;fill:rgb(0%,0%,0%);fill-opacity:1;" d="M 97.195312 41.75 C 96.738281 43.300781 96.570312 44.53125 96.570312 46.398438 C 96.570312 48 96.679688 48.339844 97.382812 48.976562 C 97.910156 49.445312 98.085938 49.492188 98.40625 49.265625 C 98.664062 49.09375 98.945312 48.273438 98.90625 47.832031 C 98.867188 47.414062 98.574219 47.335938 98.4375 47.703125 C 98.339844 47.949219 98.320312 47.960938 98.117188 47.832031 C 97.753906 47.585938 97.351562 46.84375 97.265625 46.230469 C 97.21875 45.898438 97.226562 44.875 97.285156 43.835938 C 97.335938 42.832031 97.363281 41.867188 97.34375 41.6875 L 97.304688 41.359375 Z M 97.195312 41.75 "/>
<path style=" stroke:none;fill-rule:nonzero;fill:rgb(0%,0%,0%);fill-opacity:1;" d="M 52.65625 44.210938 C 52.109375 45.273438 51.710938 47.246094 51.777344 48.484375 C 51.828125 49.394531 52.050781 49.902344 52.597656 50.382812 C 52.890625 50.644531 53.007812 50.695312 53.261719 50.644531 C 53.625 50.566406 54.054688 50.175781 54.304688 49.679688 C 54.726562 48.859375 54.421875 47.960938 53.984375 48.730469 C 53.652344 49.328125 53.039062 48.953125 52.6875 47.960938 C 52.492188 47.402344 52.5 46.101562 52.695312 45.359375 C 53.054688 43.984375 53.039062 43.457031 52.65625 44.210938 Z M 52.65625 44.210938 "/>
<path style=" stroke:none;fill-rule:nonzero;fill:rgb(0%,0%,0%);fill-opacity:1;" d="M 65.1875 50.304688 C 62.273438 51.875 60.976562 52.792969 61.179688 53.125 C 61.359375 53.40625 61.875 53.195312 64.648438 51.632812 C 66.046875 50.839844 67.089844 50 67.089844 49.667969 C 67.089844 49.367188 66.640625 49.511719 65.1875 50.304688 Z M 65.1875 50.304688 "/>
<path style=" stroke:none;fill-rule:nonzero;fill:rgb(0%,0%,0%);fill-opacity:1;" d="M 73.5625 51.40625 C 73.078125 51.960938 72.363281 53.351562 72.363281 53.742188 C 72.363281 53.992188 72.492188 54.171875 73.125 54.785156 C 74.054688 55.695312 75.175781 56.542969 75.449219 56.542969 C 75.59375 56.542969 75.839844 56.320312 76.230469 55.828125 C 76.542969 55.449219 76.972656 54.941406 77.179688 54.71875 C 77.546875 54.328125 77.578125 54.316406 77.820312 54.445312 C 77.960938 54.511719 78.671875 55.078125 79.394531 55.703125 C 80.117188 56.328125 80.78125 56.835938 80.867188 56.835938 C 81.191406 56.835938 83.007812 54.539062 83.007812 54.140625 C 83.007812 53.964844 80.351562 51.445312 79.890625 51.191406 L 79.484375 50.957031 L 79.070312 51.386719 C 78.847656 51.621094 78.445312 52.117188 78.171875 52.492188 C 77.910156 52.871094 77.609375 53.183594 77.5 53.203125 C 77.3125 53.242188 76.660156 52.832031 75.632812 52.039062 C 75 51.554688 74.132812 50.976562 74.015625 50.976562 C 73.976562 50.976562 73.769531 51.171875 73.5625 51.40625 Z M 73.5625 51.40625 "/>
<path style=" stroke:none;fill-rule:nonzero;fill:rgb(0%,0%,0%);fill-opacity:1;" d="M 66.289062 66.835938 C 66.140625 66.914062 65.820312 67.140625 65.566406 67.335938 C 64.484375 68.15625 64.328125 68.867188 64.992188 69.929688 C 65.515625 70.789062 65.507812 71.21875 64.960938 71.816406 C 64.0625 72.792969 64.679688 72.832031 65.957031 71.882812 C 66.328125 71.609375 66.984375 71.203125 67.414062 70.96875 C 67.84375 70.742188 68.46875 70.304688 68.789062 70 C 69.328125 69.492188 69.367188 69.421875 69.226562 69.289062 C 69.09375 69.148438 68.984375 69.148438 68.105469 69.34375 C 66.796875 69.628906 66.21875 69.578125 65.773438 69.140625 C 65.304688 68.679688 65.3125 68.351562 65.789062 68.015625 C 66.210938 67.742188 66.523438 67.703125 66.699219 67.921875 C 66.875 68.132812 67.167969 68.09375 67.234375 67.859375 C 67.3125 67.625 67.21875 66.992188 67.070312 66.816406 C 66.933594 66.660156 66.609375 66.671875 66.289062 66.835938 Z M 66.289062 66.835938 "/>
<path style=" stroke:none;fill-rule:nonzero;fill:rgb(0%,0%,0%);fill-opacity:1;" d="M 83.59375 68.445312 C 83.171875 69.804688 83.007812 70.734375 82.9375 72.128906 C 82.871094 73.574219 82.988281 74.199219 83.417969 74.5625 C 83.769531 74.863281 84.023438 74.863281 84.511719 74.578125 C 85.234375 74.160156 85.929688 72.585938 85.429688 72.480469 C 85.3125 72.460938 85.234375 72.539062 85.175781 72.773438 C 85.109375 73.039062 85.039062 73.105469 84.796875 73.125 C 84.367188 73.164062 83.9375 72.65625 83.789062 71.90625 C 83.632812 71.171875 83.71875 68.886719 83.925781 68.164062 C 84.015625 67.851562 84.042969 67.597656 83.992188 67.546875 C 83.9375 67.492188 83.78125 67.871094 83.59375 68.445312 Z M 83.59375 68.445312 "/>
<path style=" stroke:none;fill-rule:nonzero;fill:rgb(0%,0%,0%);fill-opacity:1;" d="M 36.476562 68.523438 C 35.109375 69.160156 34.394531 69.472656 29.6875 71.503906 C 24.992188 73.535156 23.730469 74.21875 23.351562 74.980469 C 23.09375 75.488281 22.921875 76.320312 23 76.640625 C 23.09375 77.050781 23.730469 77.820312 24.179688 78.085938 C 25.175781 78.671875 25.148438 77.8125 24.109375 76.113281 L 23.925781 75.800781 L 24.382812 75.527344 C 25.039062 75.148438 26.960938 74.199219 27.890625 73.796875 C 33.066406 71.5625 36.648438 69.835938 37.34375 69.21875 C 38.046875 68.601562 38.417969 67.859375 38.015625 67.882812 C 37.921875 67.882812 37.226562 68.171875 36.476562 68.523438 Z M 36.476562 68.523438 "/>
<path style=" stroke:none;fill-rule:nonzero;fill:rgb(0%,0%,0%);fill-opacity:1;" d="M 45.878906 71.648438 C 45.5 72.089844 45.28125 73.066406 45.164062 74.882812 C 45.058594 76.386719 45.359375 76.933594 46.359375 77.023438 C 47.011719 77.089844 47.8125 76.679688 48.546875 75.90625 C 49.445312 74.96875 49.5625 74.589844 49.25 73.679688 C 49.003906 72.976562 48 71.984375 47.234375 71.699219 C 46.542969 71.4375 46.074219 71.425781 45.878906 71.648438 Z M 46.882812 73.125 C 47.363281 73.367188 48.132812 74.023438 48.289062 74.316406 C 48.574219 74.863281 47.792969 75.429688 46.75 75.4375 C 46.242188 75.4375 46.152344 75.410156 45.9375 75.164062 C 45.429688 74.570312 45.789062 72.949219 46.4375 72.949219 C 46.492188 72.949219 46.699219 73.027344 46.882812 73.125 Z M 46.882812 73.125 "/>
<path style=" stroke:none;fill-rule:nonzero;fill:rgb(0%,0%,0%);fill-opacity:1;" d="M 31.75 76.054688 C 31.414062 76.386719 31.296875 76.972656 31.09375 79.335938 C 31.015625 80.253906 30.929688 81.085938 30.898438 81.179688 C 30.820312 81.414062 30.683594 81.296875 30.03125 80.421875 C 29.03125 79.070312 28.203125 78.417969 27.5 78.417969 C 27.089844 78.417969 26.867188 78.691406 26.789062 79.277344 C 26.710938 79.863281 26.953125 80.242188 27.617188 80.539062 C 27.921875 80.664062 28.28125 80.828125 28.417969 80.890625 C 28.898438 81.113281 30.019531 82.363281 30.507812 83.234375 C 30.773438 83.703125 31.015625 84.109375 31.0625 84.140625 C 31.359375 84.316406 31.632812 82.6875 31.640625 80.710938 C 31.648438 79.445312 31.789062 77.609375 31.875 77.453125 C 31.960938 77.304688 32.441406 77.507812 33.078125 77.96875 L 33.5625 78.320312 L 33.671875 77.9375 C 33.875 77.265625 33.828125 76.992188 33.398438 76.523438 C 33 76.09375 32.492188 75.78125 32.179688 75.78125 C 32.089844 75.78125 31.894531 75.90625 31.75 76.054688 Z M 31.75 76.054688 "/>
<path style=" stroke:none;fill-rule:nonzero;fill:rgb(0%,0%,0%);fill-opacity:1;" d="M 14.210938 79.628906 C 13.835938 80.253906 13.585938 81.320312 13.507812 82.492188 C 13.429688 83.742188 13.59375 84.257812 14.171875 84.640625 C 14.628906 84.941406 14.863281 84.902344 15.371094 84.40625 C 15.8125 83.976562 16.054688 83.476562 15.957031 83.183594 C 15.90625 83.007812 15.839844 82.988281 15.4375 83.046875 C 14.863281 83.117188 14.539062 82.960938 14.382812 82.519531 C 14.210938 82.011719 14.25 80.8125 14.453125 80.03125 C 14.550781 79.648438 14.589844 79.304688 14.550781 79.265625 C 14.511719 79.21875 14.355469 79.382812 14.210938 79.628906 Z M 14.210938 79.628906 "/>
<path style=" stroke:none;fill-rule:nonzero;fill:rgb(0%,0%,0%);fill-opacity:1;" d="M 76.125 84.5 C 75.90625 85.019531 75.5 86.710938 75.390625 87.5 C 75.273438 88.429688 75.273438 89.679688 75.390625 90.1875 C 75.507812 90.703125 76.140625 91.308594 76.554688 91.308594 C 77.1875 91.308594 78 90.109375 78.105469 89.023438 C 78.164062 88.417969 78.027344 88.445312 77.558594 89.160156 C 77.265625 89.601562 77.140625 89.707031 76.882812 89.726562 C 76.609375 89.757812 76.542969 89.707031 76.296875 89.34375 C 76.035156 88.9375 76.023438 88.90625 76.035156 87.558594 C 76.035156 86.484375 76.085938 85.996094 76.25 85.351562 C 76.367188 84.890625 76.464844 84.445312 76.464844 84.34375 C 76.464844 84.070312 76.269531 84.160156 76.125 84.5 Z M 76.125 84.5 "/>
<path style=" stroke:none;fill-rule:nonzero;fill:rgb(0%,0%,0%);fill-opacity:1;" d="M 69.8125 87.492188 C 69.171875 88.164062 68.953125 88.789062 68.789062 90.554688 C 68.664062 92.011719 68.554688 92.414062 68.328125 92.324219 C 68.273438 92.304688 67.882812 91.765625 67.480469 91.140625 C 65.722656 88.40625 64.03125 87.507812 63.808594 89.179688 C 63.679688 90.058594 64.289062 91.308594 64.824219 91.308594 C 64.929688 91.308594 65.242188 91.386719 65.527344 91.476562 C 66.308594 91.726562 67.109375 92.648438 67.871094 94.1875 C 68.203125 94.863281 68.507812 95.410156 68.546875 95.410156 C 68.671875 95.410156 68.945312 94.460938 69.09375 93.507812 C 69.171875 93.027344 69.277344 91.90625 69.335938 91.035156 C 69.453125 89.199219 69.578125 88.769531 69.980469 88.769531 C 70.125 88.769531 70.515625 88.925781 70.859375 89.109375 C 71.191406 89.296875 71.53125 89.453125 71.621094 89.453125 C 71.84375 89.453125 72.070312 89.0625 72.070312 88.640625 C 72.070312 88.339844 71.992188 88.195312 71.609375 87.78125 C 71.132812 87.273438 70.742188 87.011719 70.449219 87.011719 C 70.351562 87.011719 70.070312 87.226562 69.8125 87.492188 Z M 69.8125 87.492188 "/>
<path style=" stroke:none;fill-rule:nonzero;fill:rgb(0%,0%,0%);fill-opacity:1;" d="M 57.675781 91.035156 C 57.421875 91.894531 57.226562 93.417969 57.15625 94.882812 C 57.109375 96.0625 57.128906 96.296875 57.273438 96.609375 C 57.46875 97.03125 57.859375 97.335938 58.289062 97.421875 C 58.5625 97.480469 58.640625 97.441406 58.984375 97.070312 C 59.199219 96.835938 59.453125 96.425781 59.5625 96.152344 C 59.785156 95.539062 59.914062 94.726562 59.773438 94.726562 C 59.726562 94.726562 59.667969 94.765625 59.648438 94.8125 C 59.640625 94.863281 59.433594 95.109375 59.199219 95.351562 C 58.652344 95.9375 58.398438 95.945312 58.039062 95.398438 C 57.804688 95.039062 57.765625 94.882812 57.734375 94.03125 C 57.703125 93.429688 57.742188 92.765625 57.84375 92.21875 C 58.054688 91.023438 58.078125 90.605469 57.9375 90.554688 C 57.871094 90.527344 57.765625 90.710938 57.675781 91.035156 Z M 57.675781 91.035156 "/>
<path style=" stroke:none;fill-rule:nonzero;fill:rgb(0%,0%,0%);fill-opacity:1;" d="M 31.0625 92.011719 C 30.8125 92.804688 30.632812 94.226562 30.710938 94.921875 C 30.828125 95.976562 31.464844 96.875 32.101562 96.875 C 32.675781 96.875 33.234375 96.269531 33.445312 95.429688 C 33.640625 94.679688 33.484375 94.550781 32.910156 94.96875 C 32.070312 95.59375 31.710938 95.039062 31.53125 92.820312 C 31.476562 92.128906 31.386719 91.515625 31.347656 91.476562 C 31.308594 91.425781 31.179688 91.671875 31.0625 92.011719 Z M 31.0625 92.011719 "/>
</g>
</svg>
