<?xml version="1.0" standalone="no"?>
<!DOCTYPE svg PUBLIC "-//W3C//DTD SVG 20010904//EN"
 "http://www.w3.org/TR/2001/REC-SVG-20010904/DTD/svg10.dtd">
<svg version="1.0" xmlns="http://www.w3.org/2000/svg"
 width="1024.000000px" height="1024.000000px" viewBox="0 0 1024.000000 1024.000000"
 preserveAspectRatio="xMidYMid meet">

<g transform="translate(0.000000,1024.000000) scale(0.100000,-0.100000)"
fill="#000000" stroke="none">
<path d="M4235 10083 c-11 -3 -141 -51 -290 -108 -148 -57 -349 -133 -445
-170 -261 -99 -258 -98 -495 -191 -284 -111 -566 -249 -634 -310 -54 -49 -97
-102 -88 -110 7 -7 81 16 197 60 52 20 118 45 145 55 28 11 91 35 140 54 50
19 144 56 210 81 624 240 1102 448 1229 535 53 37 81 74 72 96 -6 16 -8 16
-41 8z"/>
<path d="M5470 9879 c-157 -37 -851 -228 -1045 -288 -33 -11 -130 -40 -215
-66 -369 -113 -918 -301 -1210 -415 -252 -98 -685 -284 -769 -330 -9 -5 -152
-77 -318 -159 -448 -223 -640 -328 -736 -404 -98 -76 -156 -318 -157 -645 l0
-97 -76 -105 c-270 -374 -397 -611 -455 -850 -8 -31 -14 -108 -14 -175 0 -99
5 -138 28 -222 l27 -103 -71 -122 c-164 -281 -259 -516 -304 -748 -26 -130
-31 -355 -11 -470 24 -139 32 -162 77 -229 112 -169 295 -318 481 -395 24 -9
38 -22 38 -33 0 -10 -23 -81 -51 -158 -171 -471 -209 -624 -209 -838 0 -274
97 -502 286 -676 137 -126 340 -196 489 -170 96 17 185 72 393 242 40 33 74
58 77 55 2 -2 11 -98 20 -214 20 -260 28 -316 70 -479 136 -524 448 -777 995
-811 114 -7 488 10 695 31 71 8 131 12 133 10 2 -2 14 -53 27 -114 51 -241
101 -372 189 -496 87 -120 238 -237 352 -271 122 -35 285 -35 394 1 106 35
347 269 751 730 453 515 621 656 1017 854 248 124 535 253 912 411 213 89 311
122 326 109 7 -6 32 -45 55 -87 121 -226 298 -386 469 -426 83 -20 223 -20
336 -1 399 69 621 284 703 682 34 167 43 262 36 373 -23 370 -90 1011 -175
1665 -53 413 -129 1032 -170 1395 -11 96 -29 247 -40 335 -18 143 -61 540 -89
825 -6 58 -20 222 -31 365 -12 143 -29 332 -40 420 -10 88 -17 162 -14 164 2
2 34 -25 71 -61 71 -67 107 -93 122 -84 40 25 -209 651 -342 858 -67 105 -85
102 -137 -23 -52 -127 -50 -197 31 -799 10 -80 30 -235 43 -345 14 -110 43
-344 66 -520 22 -176 54 -428 70 -560 16 -132 34 -269 40 -305 6 -36 21 -157
35 -270 13 -113 47 -385 74 -605 214 -1706 311 -2564 311 -2753 0 -105 -8
-128 -67 -183 -225 -212 -639 -274 -912 -136 -70 35 -151 107 -195 174 l-28
42 94 104 c171 189 260 340 315 532 26 92 28 114 27 260 0 182 -14 250 -82
405 -121 273 -259 372 -451 325 -145 -35 -249 -153 -323 -366 l-33 -94 0 -275
0 -275 39 -203 c39 -198 39 -202 20 -216 -18 -14 -266 -129 -451 -210 -84 -37
-136 -59 -368 -161 -236 -104 -443 -209 -605 -308 -203 -123 -455 -362 -730
-692 -219 -262 -313 -369 -424 -478 -214 -212 -375 -326 -525 -371 -121 -36
-215 -10 -318 86 -138 130 -203 305 -203 548 l0 120 33 15 c17 8 110 46 206
85 152 62 457 207 546 259 320 189 402 244 570 379 331 265 498 527 512 803
10 188 -37 360 -179 659 -78 164 -123 271 -138 323 -18 67 -7 76 63 54 64 -20
127 -22 127 -4 0 17 -86 123 -250 307 -209 235 -231 251 -270 187 -60 -97 -77
-259 -39 -364 28 -74 120 -280 209 -468 45 -96 89 -190 140 -305 21 -47 48
-107 60 -135 71 -156 138 -341 130 -356 -41 -76 -545 -457 -835 -631 -71 -43
-417 -219 -495 -253 -30 -13 -101 -44 -158 -69 -131 -58 -168 -65 -177 -37
-15 47 48 247 126 404 22 42 78 137 126 210 48 72 106 166 129 206 l42 75 -94
100 c-52 55 -94 104 -94 109 0 5 100 106 223 225 357 348 393 382 403 382 5 0
20 -16 33 -36 14 -19 38 -42 55 -51 28 -15 31 -14 48 7 32 39 20 106 -28 163
-26 31 -26 31 -19 166 6 111 4 148 -9 201 -31 119 -93 180 -169 166 -75 -14
-159 -158 -174 -296 -7 -70 16 -127 76 -193 48 -52 51 -79 15 -133 -77 -114
-436 -484 -503 -518 -26 -14 -46 -16 -86 -11 -49 6 -55 4 -88 -25 -40 -35
-147 -187 -147 -209 0 -11 55 -88 80 -111 3 -3 40 -42 83 -87 l79 -81 -60
-139 c-34 -76 -93 -219 -132 -318 -113 -289 -119 -299 -186 -333 -61 -31 -171
-50 -369 -62 -286 -19 -524 -1 -680 51 -288 96 -481 273 -589 540 -81 198
-112 561 -58 681 35 80 217 248 407 375 258 172 351 214 930 418 423 149 549
197 699 269 150 71 266 147 360 237 98 92 138 148 167 229 21 59 23 81 22 230
-1 212 -21 313 -95 485 -63 144 -111 218 -338 510 -98 125 -94 139 18 72 141
-85 615 -494 1017 -877 405 -386 560 -508 810 -633 153 -77 181 -102 195 -178
28 -153 85 -868 96 -1202 4 -121 11 -203 16 -195 10 15 71 213 86 278 57 242
79 623 62 1069 l-5 134 125 46 c241 91 433 206 529 319 89 104 163 309 177
489 10 129 -21 441 -101 1013 -13 96 -40 288 -59 425 -19 138 -53 385 -76 550
-22 165 -52 381 -65 480 -26 183 -60 445 -95 725 -11 85 -31 238 -45 340 -37
266 -75 616 -75 681 0 30 6 63 13 73 17 23 27 18 116 -53 64 -51 91 -62 91
-38 0 81 -312 759 -407 885 -22 30 -27 32 -40 19 -8 -8 -30 -59 -49 -113 -47
-137 -45 -190 17 -603 56 -373 129 -889 154 -1081 8 -69 27 -204 40 -300 14
-96 36 -263 50 -370 48 -360 86 -643 121 -905 164 -1231 234 -1825 221 -1877
-9 -33 -110 -107 -237 -172 -210 -108 -402 -133 -469 -62 -22 23 -34 97 -91
566 -85 693 -113 915 -130 1050 -19 150 -28 221 -90 735 -16 132 -39 320 -51
417 -12 98 -20 181 -16 184 3 3 49 -29 102 -71 52 -43 98 -75 101 -72 10 9
-17 131 -51 227 -62 178 -144 351 -271 571 -112 195 -95 185 -146 88 l-43 -84
1 -140 c2 -167 5 -193 199 -1770 82 -666 95 -778 110 -925 9 -85 22 -209 30
-275 19 -161 37 -429 29 -449 -9 -23 -27 -20 -86 16 -148 90 -307 217 -758
608 -318 276 -446 384 -770 650 -309 254 -444 379 -438 407 13 68 354 116 563
79 185 -32 376 -110 543 -219 53 -36 112 -73 130 -83 33 -19 34 -19 47 0 21
28 27 91 24 233 -3 100 -8 135 -21 155 -9 14 -75 78 -145 141 -168 150 -292
277 -354 363 -67 92 -159 282 -204 424 -93 291 -164 710 -122 726 8 3 35 -4
61 -16 55 -23 66 -25 66 -7 0 25 -95 239 -199 442 -83 165 -110 210 -125 210
-87 0 -131 -424 -81 -765 14 -91 115 -499 210 -850 25 -91 52 -196 60 -234 21
-96 20 -97 -143 -107 -71 -4 -180 -17 -243 -28 -105 -19 -332 -81 -370 -102
-9 -4 -56 -20 -104 -34 -70 -20 -91 -23 -108 -13 -56 29 -751 497 -1252 842
-159 109 -333 229 -385 265 -378 259 -560 391 -560 406 0 51 536 344 960 525
36 16 103 45 150 65 90 38 491 199 600 240 36 13 101 38 145 55 475 185 1322
479 1725 599 215 64 497 105 730 106 146 0 158 -1 205 -25 65 -33 95 -88 95
-173 0 -108 -48 -177 -382 -541 -288 -315 -381 -432 -473 -596 -74 -131 -117
-250 -86 -238 4 2 77 82 162 178 84 96 155 177 158 180 11 10 159 177 247 280
292 341 479 636 535 846 30 112 32 293 4 349 -24 48 -85 96 -162 126 -81 32
-227 35 -343 8z m-4234 -2582 c105 -80 291 -221 594 -451 370 -280 468 -355
730 -560 230 -179 300 -238 300 -250 0 -13 -74 -88 -210 -211 -77 -70 -121
-112 -390 -366 -287 -270 -632 -574 -821 -722 -218 -171 -569 -376 -670 -391
-63 -9 -182 10 -251 41 -73 32 -131 95 -181 194 -48 96 -67 186 -67 331 0 211
61 429 200 713 82 167 138 244 277 379 167 161 286 337 300 444 8 59 -9 55
-98 -23 -87 -77 -130 -100 -158 -86 -47 25 -98 202 -86 301 9 82 51 210 99
308 98 199 265 430 312 432 6 0 60 -37 120 -83z m1984 -1564 c31 -21 195 -149
235 -184 490 -425 714 -690 868 -1026 67 -145 67 -147 20 -189 -49 -44 -111
-82 -284 -177 -201 -111 -397 -198 -949 -419 -840 -337 -996 -431 -1452 -874
-251 -244 -331 -311 -430 -362 l-73 -37 -130 0 c-140 0 -158 5 -221 62 -46 42
-112 145 -140 221 -19 48 -29 103 -37 196 -22 274 32 540 179 876 67 154 105
194 254 269 204 104 376 208 503 305 123 94 322 267 527 456 68 63 130 120
136 125 6 6 62 58 125 116 333 309 603 533 753 623 68 41 81 43 116 19z m1438
-2076 c42 -44 51 -127 15 -127 -25 0 -103 87 -103 114 0 12 3 26 7 29 15 15
61 6 81 -16z m3193 -57 c110 -57 243 -308 256 -487 5 -67 4 -76 -21 -112 -49
-70 -196 -175 -363 -260 -49 -25 -38 -37 -106 114 -24 55 -60 152 -78 215 -29
100 -33 130 -34 230 0 102 3 121 24 165 27 53 82 119 115 137 58 31 143 30
207 -2z"/>
<path d="M1723 6571 c-106 -49 -142 -98 -150 -205 -8 -110 8 -162 78 -248 61
-74 67 -93 48 -131 -40 -76 -276 -335 -628 -689 -184 -186 -332 -341 -328
-344 17 -17 274 177 539 407 182 160 291 278 455 499 110 148 98 144 183 65
40 -36 80 -65 89 -63 43 8 16 128 -49 218 -22 30 -45 66 -51 80 -6 14 -12 95
-13 185 -2 181 -12 215 -67 234 -43 15 -57 14 -106 -8z m53 -186 c48 -33 59
-127 16 -133 -32 -5 -92 57 -92 95 0 50 35 67 76 38z"/>
<path d="M2738 4857 c-36 -47 -158 -252 -158 -264 0 -16 214 -217 268 -253 83
-55 97 -47 217 117 33 45 64 82 69 83 5 0 61 -44 125 -98 190 -160 204 -167
251 -142 29 16 107 122 140 191 l29 62 -29 41 c-32 46 -215 227 -273 271 l-38
28 -25 -24 c-15 -13 -48 -55 -74 -94 -57 -83 -106 -135 -129 -135 -23 0 -67
30 -141 96 -67 61 -149 123 -186 142 -19 10 -25 7 -46 -21z"/>
<path d="M2207 4358 c-38 -50 -55 -112 -82 -302 -25 -179 -31 -206 -46 -206
-4 0 -53 53 -108 119 -155 183 -223 232 -276 197 -65 -43 -73 -127 -19 -206
40 -60 76 -84 127 -85 64 -3 64 -3 107 -41 42 -38 109 -140 156 -236 16 -32
31 -58 34 -58 9 0 37 94 49 165 6 33 20 143 31 245 29 260 50 293 138 220 61
-50 102 -34 102 40 0 40 -13 65 -59 113 -70 74 -117 84 -154 35z"/>
<path d="M1206 3684 c-59 -126 -92 -255 -101 -404 -10 -172 5 -214 104 -282
l44 -31 33 39 c49 57 84 134 91 198 7 67 -7 73 -53 25 -40 -43 -82 -63 -99
-49 -39 32 -46 207 -14 378 11 63 19 125 17 139 -3 25 -4 24 -22 -13z"/>
<path d="M7392 9443 c-70 -152 -75 -249 -27 -503 40 -209 117 -704 179 -1155
63 -453 90 -659 142 -1115 7 -69 14 -159 14 -201 0 -101 -7 -110 -238 -335
-103 -100 -184 -184 -181 -188 6 -7 139 71 274 160 129 85 182 111 195 98 24
-24 80 -387 100 -644 14 -187 49 -452 60 -464 13 -13 45 83 64 195 36 212 47
688 21 904 -9 66 -18 148 -21 181 l-7 62 69 88 c78 100 170 194 189 194 22 0
44 28 55 71 17 61 40 274 40 365 0 71 -3 85 -29 126 -32 50 -79 88 -109 88
-68 0 -191 -143 -192 -223 0 -42 32 -124 84 -210 25 -43 46 -83 46 -89 0 -18
-122 -188 -135 -188 -8 0 -16 12 -19 28 -20 98 -123 772 -211 1387 -41 286
-75 567 -69 576 8 13 71 -23 134 -75 59 -49 74 -56 66 -28 -3 9 -15 53 -27 96
-56 208 -308 750 -392 844 -11 12 -26 22 -32 22 -7 0 -26 -30 -43 -67z m777
-2267 c34 -18 51 -54 51 -112 0 -83 -57 -62 -100 38 -20 47 -20 51 -4 69 20
23 18 23 53 5z"/>
<path d="M4671 8928 c-29 -91 -39 -283 -22 -384 21 -121 71 -201 115 -188 57
17 126 120 126 187 0 50 -16 55 -55 17 -39 -38 -69 -37 -99 3 -19 26 -21 44
-24 233 -2 112 -7 204 -11 204 -4 0 -18 -33 -30 -72z"/>
<path d="M5926 8802 c-7 -12 -44 -231 -51 -302 -13 -139 39 -219 149 -228 46
-4 62 0 99 21 93 55 157 159 157 257 0 128 -86 214 -248 249 -62 13 -99 14
-106 3z m160 -171 c60 -27 114 -78 114 -108 0 -51 -95 -113 -174 -113 -37 0
-48 4 -57 22 -17 31 -23 157 -10 191 9 23 16 27 48 27 21 0 56 -9 79 -19z"/>
<path d="M3156 8513 c-57 -113 -108 -343 -109 -493 -2 -135 11 -187 58 -238
30 -33 39 -37 84 -37 41 0 55 5 82 30 33 31 68 97 69 128 0 26 -26 31 -65 12
-51 -24 -66 -17 -99 44 -49 91 -51 226 -6 445 11 54 20 107 20 117 0 28 -17
23 -34 -8z"/>
<path d="M2262 8243 c-61 -121 -96 -294 -97 -473 0 -133 2 -149 23 -188 26
-48 68 -72 127 -72 46 0 109 61 125 121 12 45 7 74 -13 65 -44 -18 -88 -28
-102 -22 -9 3 -30 35 -46 71 -39 83 -40 164 -4 360 13 77 25 148 25 158 0 29
-19 19 -38 -20z"/>
<path d="M7062 8133 c-25 -86 -44 -269 -39 -373 6 -128 32 -204 83 -249 51
-45 96 -43 143 7 54 57 79 155 46 182 -13 11 -22 7 -54 -24 -34 -33 -41 -36
-58 -26 -27 18 -61 69 -85 131 -19 50 -20 67 -14 222 7 165 0 204 -22 130z"/>
<path d="M9272 7718 c-30 -49 -72 -193 -72 -245 0 -25 18 -154 40 -287 22
-132 51 -324 65 -426 13 -102 34 -250 45 -330 11 -80 36 -260 56 -400 76 -547
105 -754 138 -995 48 -338 53 -384 71 -575 16 -177 55 -688 80 -1070 19 -282
23 -320 35 -320 14 0 57 90 90 188 39 119 50 235 50 554 0 489 -26 782 -146
1633 -163 1164 -203 1505 -176 1505 4 0 46 -25 92 -55 55 -37 87 -52 93 -46
20 20 -50 225 -130 385 -102 204 -285 516 -303 516 -5 0 -17 -15 -28 -32z"/>
<path d="M3623 7647 c-84 -76 -120 -183 -132 -387 -6 -113 -12 -145 -25 -158
-17 -16 -20 -15 -53 23 -19 22 -46 56 -58 75 -49 74 -123 156 -169 188 -40 26
-58 32 -102 32 -74 0 -94 -20 -94 -97 0 -100 44 -160 130 -178 56 -12 142 -62
177 -104 18 -22 58 -83 89 -138 57 -97 90 -143 105 -143 21 0 42 145 64 445
17 231 25 277 51 306 22 25 41 24 89 -6 58 -35 83 -45 99 -39 21 8 36 50 36
99 0 35 -6 52 -28 76 -24 27 -37 33 -84 37 -52 4 -58 2 -95 -31z"/>
<path d="M5361 7475 c-66 -56 -113 -181 -132 -350 -6 -60 -13 -112 -15 -114
-2 -2 -41 30 -87 72 -177 157 -327 235 -370 192 -27 -27 -18 -105 19 -168 7
-12 35 -23 83 -33 106 -22 173 -57 232 -122 28 -31 58 -67 67 -81 40 -64 104
-141 118 -141 9 0 14 12 15 38 5 289 17 531 27 549 17 32 48 37 98 18 24 -9
56 -15 71 -13 25 3 28 8 31 42 9 107 -84 172 -157 111z"/>
<path d="M6322 6678 c-1 -4 -16 -56 -34 -115 -31 -102 -32 -117 -33 -273 0
-148 2 -172 23 -233 79 -228 239 -263 288 -64 21 85 11 162 -21 162 -20 0 -33
-20 -60 -89 l-15 -38 -67 72 c-104 112 -96 85 -83 293 10 146 11 319 2 285z"/>
<path d="M8293 6035 c-70 -125 -111 -532 -69 -677 31 -108 102 -146 172 -93
37 28 64 99 64 166 0 49 -12 55 -39 19 -12 -17 -30 -30 -41 -30 -26 0 -76 64
-91 119 -18 64 -16 204 5 347 10 67 16 132 14 145 -3 23 -4 23 -15 4z"/>
<path d="M9953 5965 c-47 -159 -64 -285 -64 -476 0 -164 11 -199 83 -264 54
-48 72 -53 105 -30 26 18 55 102 51 147 -4 43 -34 51 -48 13 -10 -25 -12 -26
-33 -13 -37 25 -78 101 -87 164 -5 34 -4 139 2 245 5 103 8 202 6 220 l-4 34
-11 -40z"/>
<path d="M5392 5713 c-56 -109 -97 -311 -90 -438 5 -93 28 -145 84 -194 30
-27 42 -32 68 -27 37 8 81 48 107 99 43 84 12 176 -33 97 -34 -61 -97 -23
-133 79 -20 57 -19 190 1 266 37 141 35 195 -4 118z"/>
<path d="M6675 5089 c-298 -161 -431 -255 -410 -289 18 -29 71 -7 355 153 143
81 250 167 250 201 0 31 -46 16 -195 -65z"/>
<path d="M7533 4976 c-50 -57 -123 -199 -123 -239 0 -26 13 -44 78 -107 95
-93 210 -180 238 -180 15 0 40 23 80 73 32 39 76 91 97 114 38 40 41 41 66 28
14 -7 87 -65 161 -129 74 -64 142 -116 151 -116 33 0 219 235 219 276 0 18
-272 276 -319 302 l-42 24 -42 -44 c-23 -24 -64 -75 -92 -113 -27 -39 -58 -71
-69 -73 -19 -4 -86 38 -191 119 -65 50 -154 109 -166 109 -4 0 -25 -20 -46
-44z"/>
<path d="M6788 3396 c-15 -8 -48 -31 -74 -51 -111 -84 -127 -157 -59 -266 54
-88 53 -132 -3 -193 -92 -100 -29 -104 102 -7 38 28 105 70 149 94 44 23 108
68 141 99 55 52 59 59 45 73 -14 14 -25 14 -115 -6 -134 -29 -193 -24 -239 21
-48 47 -47 81 2 115 43 28 75 32 93 10 18 -22 48 -18 55 6 8 24 -2 89 -17 107
-14 16 -47 15 -80 -2z"/>
<path d="M8560 3231 c-43 -139 -60 -234 -67 -377 -7 -148 5 -212 49 -249 36
-31 62 -31 112 -2 74 43 145 204 94 215 -12 2 -20 -6 -26 -30 -7 -27 -14 -34
-39 -36 -44 -4 -88 48 -103 125 -16 75 -7 309 14 383 9 32 12 58 7 63 -6 6
-22 -33 -41 -92z"/>
<path d="M3735 3223 c-140 -65 -213 -97 -695 -305 -481 -208 -610 -278 -649
-356 -26 -52 -44 -137 -36 -170 10 -42 75 -121 121 -148 102 -60 99 28 -7 202
l-19 32 47 28 c67 39 264 136 359 177 530 229 897 406 968 469 72 63 110 139
69 137 -10 0 -81 -30 -158 -66z"/>
<path d="M4698 2903 c-39 -45 -61 -145 -73 -331 -11 -154 20 -210 122 -219 67
-7 149 35 224 114 92 96 104 135 72 228 -25 72 -128 174 -206 203 -71 27 -119
28 -139 5z m103 -151 c49 -25 128 -92 144 -122 29 -56 -51 -114 -158 -115 -52
0 -61 3 -83 28 -52 61 -15 227 51 227 6 0 27 -8 46 -18z"/>
<path d="M3251 2452 c-34 -34 -46 -94 -67 -336 -8 -94 -17 -179 -20 -189 -8
-24 -22 -12 -89 78 -102 138 -187 205 -259 205 -42 0 -65 -28 -73 -88 -8 -60
17 -99 85 -129 31 -13 68 -30 82 -36 49 -23 164 -151 214 -240 27 -48 52 -90
57 -93 30 -18 58 149 59 351 1 130 15 318 24 334 9 15 58 -6 123 -53 l50 -36
11 39 c21 69 16 97 -28 145 -41 44 -93 76 -125 76 -9 0 -29 -13 -44 -28z"/>
<path d="M1455 2086 c-38 -64 -64 -173 -72 -293 -8 -128 9 -181 68 -220 47
-31 71 -27 123 24 45 44 70 95 60 125 -5 18 -12 20 -53 14 -59 -7 -92 9 -108
54 -18 52 -14 175 7 255 10 39 14 74 10 78 -4 5 -20 -12 -35 -37z"/>
<path d="M7795 1587 c-22 -53 -64 -226 -75 -307 -12 -95 -12 -223 0 -275 12
-53 77 -115 119 -115 65 0 148 123 159 234 6 62 -8 59 -56 -14 -30 -45 -43
-56 -69 -58 -28 -3 -35 2 -60 39 -27 42 -28 45 -27 183 0 110 5 160 22 226 12
47 22 93 22 103 0 28 -20 19 -35 -16z"/>
<path d="M7149 1281 c-66 -69 -88 -133 -105 -314 -13 -149 -24 -190 -47 -181
-6 2 -46 57 -87 121 -180 280 -353 372 -376 201 -13 -90 49 -218 104 -218 11
0 43 -8 72 -17 80 -26 162 -120 240 -278 34 -69 65 -125 69 -125 13 0 41 97
56 195 8 49 19 164 25 253 12 188 25 232 66 232 15 0 55 -16 90 -35 34 -19 69
-35 78 -35 23 0 46 40 46 83 0 31 -8 46 -47 88 -49 52 -89 79 -119 79 -10 0
-39 -22 -65 -49z"/>
<path d="M5906 918 c-26 -88 -46 -244 -53 -394 -5 -121 -3 -145 12 -177 20
-43 60 -74 104 -83 28 -6 36 -2 71 36 22 24 48 66 59 94 23 63 36 146 22 146
-5 0 -11 -4 -13 -9 -1 -5 -22 -30 -46 -55 -56 -60 -82 -61 -119 -5 -24 37 -28
53 -31 140 -3 62 1 130 11 186 22 122 24 165 10 170 -7 3 -18 -16 -27 -49z"/>
<path d="M3181 818 c-26 -81 -44 -227 -36 -298 12 -108 77 -200 142 -200 59 0
116 62 138 148 20 77 4 90 -55 47 -86 -64 -123 -7 -141 220 -6 71 -15 134 -19
138 -4 5 -17 -20 -29 -55z"/>
</g>
</svg>
