<?xml version="1.0" encoding="UTF-8"?>
<svg width="73px" height="72px" viewBox="0 0 73 72" version="1.1" xmlns="http://www.w3.org/2000/svg" xmlns:xlink="http://www.w3.org/1999/xlink" xmlns:sketch="http://www.bohemiancoding.com/sketch/ns">
    <!-- Generator: Sketch 3.4.2 (15855) - http://www.bohemiancoding.com/sketch -->
    <title>Logo Dongkap</title>
    <desc>Dongkap</desc>
    <g id="Page-1" stroke="none" stroke-width="1" fill="none" fill-rule="evenodd" sketch:type="MSPage">
        <g id="Logo-Pin" sketch:type="MSLayerGroup" transform="translate(1.000000, 1.000000)" fill="#21A7FF">
            <path d="M46.6805556,30.4642857 C50.3701245,30.4642857 53.3611111,27.4502027 53.3611111,23.7321429 C53.3611111,20.014083 50.3701245,17 46.6805556,17 C42.9909866,17 40,20.014083 40,23.7321429 C40,27.4502027 42.9909866,30.4642857 46.6805556,30.4642857 Z M35.7000122,70 C55.0299785,70 70.7000122,54.3299662 70.7000122,35 C70.7000122,15.6700338 55.0299785,0 35.7000122,0 C16.370046,0 0.700012207,15.6700338 0.700012207,35 C0.700012207,54.3299662 16.370046,70 35.7000122,70 Z M39.6423962,38.452381 L39.6388889,38.452381 L39.6388889,6 L53,6 L53,38.452381 L53,6 L39.6388889,6 L39.6388889,20.5449302 C39.6359264,20.5440607 39.6329636,20.543192 39.6300005,20.5423241 L39.6300049,38.450486 L39.6170065,38.450486 C39.6189968,38.5102395 39.6199999,38.5702431 39.6199999,38.630481 C39.6199999,38.6672119 39.6196269,38.7038557 39.6188846,38.7404089 L39.6388918,38.6789545 C39.6388983,38.6860997 39.6389159,38.6932424 39.6389445,38.7003824 L39.1866082,44.2669307 L38.9407512,42.9227439 L38.7017638,41.6161157 C37.7460834,43.0191646 36.1356341,43.940481 34.3099999,43.940481 C31.377368,43.940481 29,41.563113 29,38.630481 C29,37.1241559 29.6272183,35.7643255 30.6347346,34.7979099 L27.5800171,34.6901201 L33.0800171,33.450486 L33.0614424,33.4607249 C36.088433,32.8196451 38.3611111,30.1135633 38.3611111,26.8725702 C38.3611111,23.1545104 35.3701245,20.1404274 31.6805556,20.1404274 C30.9319422,20.1404274 30.2120884,20.2645123 29.5401427,20.4933857 C21.7314233,22.6981571 16,29.9808419 16,38.625 C16,49.0165006 24.2827321,57.4404762 34.5,57.4404762 C44.6786745,57.4404762 52.9374002,49.0800196 52.9996458,38.74267 C52.9998817,38.7193479 53,38.6959974 53,38.672619 C53,38.6666936 52.9999924,38.6607698 52.9999772,38.6548479 C52.9999924,38.6449004 53,38.6349511 53,38.625 C53,38.5673995 52.9997455,38.5098594 52.9992376,38.452381 L52.9964927,38.452381 C52.8811575,34.8362597 49.9358828,31.9404762 46.3194444,31.9404762 C42.703006,31.9404762 39.7577314,34.8362597 39.6423962,38.452381 Z" id="Rectangle-79" sketch:type="MSShapeGroup"></path>
        </g>
    </g>
</svg>