<?xml version="1.0" standalone="no"?>
<!DOCTYPE svg PUBLIC "-//W3C//DTD SVG 20010904//EN"
 "http://www.w3.org/TR/2001/REC-SVG-20010904/DTD/svg10.dtd">
<svg version="1.0" xmlns="http://www.w3.org/2000/svg"
 width="130.000000px" height="130.000000px" viewBox="0 0 130.000000 130.000000"
 preserveAspectRatio="xMidYMid meet">

<g transform="translate(0.000000,130.000000) scale(0.100000,-0.100000)"
fill="#000000" stroke="none">
<path d="M689 1267 c-74 -50 -101 -145 -63 -219 9 -17 12 -34 7 -38 -4 -4 -64
-46 -131 -95 l-124 -87 -51 26 c-95 48 -142 35 -245 -67 l-72 -72 147 -147
148 -148 -148 -148 -147 -147 0 -58 0 -57 57 0 58 0 147 147 148 148 148 -148
147 -147 72 72 c102 103 115 150 67 245 l-26 51 87 124 c49 67 91 127 95 131
4 5 21 2 38 -7 17 -9 53 -16 80 -16 115 0 193 117 151 227 -14 38 -395 422
-436 439 -50 21 -115 18 -154 -9z m313 -254 c109 -109 201 -208 204 -220 8
-29 -3 -59 -29 -83 -37 -35 -82 -24 -147 36 l-26 24 -142 -200 c-78 -109 -142
-202 -142 -207 0 -4 16 -23 35 -43 19 -19 37 -50 41 -67 5 -28 1 -38 -40 -80
l-45 -48 -293 293 -293 293 48 45 c42 41 52 45 80 40 17 -4 48 -22 67 -41 20
-19 39 -35 43 -35 5 0 98 64 207 142 l200 142 -24 26 c-71 77 -74 132 -11 168
49 28 62 19 267 -185z"/>
</g>
</svg>
