<?xml version="1.0" standalone="no"?>
<!DOCTYPE svg PUBLIC "-//W3C//DTD SVG 20010904//EN"
 "http://www.w3.org/TR/2001/REC-SVG-20010904/DTD/svg10.dtd">
<svg version="1.0" xmlns="http://www.w3.org/2000/svg"
 width="1495.000000px" height="1872.000000px" viewBox="0 0 1495.000000 1872.000000"
 preserveAspectRatio="xMidYMid meet">

<g transform="translate(0.000000,1872.000000) scale(0.100000,-0.100000)"
fill="#000000" stroke="none">
<path d="M7405 18685 c-20 -87 -58 -209 -86 -275 -103 -245 -103 -374 0 -521
22 -31 43 -69 47 -83 3 -15 3 -79 -1 -142 l-7 -116 -41 6 c-113 18 -156 61
-207 210 -39 113 -62 157 -107 207 -65 72 -149 97 -231 68 -67 -23 -99 -137
-56 -197 29 -38 87 -65 124 -57 41 9 88 58 96 100 3 19 10 33 14 30 16 -10 52
-100 71 -178 25 -99 58 -165 111 -223 45 -48 146 -104 190 -104 l28 0 0 -399
0 -399 -71 -7 c-38 -4 -73 -5 -76 -2 -3 3 0 35 6 70 26 150 7 301 -59 473
-103 270 -283 422 -583 495 -79 19 -98 20 -111 10 -24 -20 -19 -47 13 -73 16
-12 102 -72 191 -133 l163 -110 -89 -11 c-160 -20 -234 -82 -234 -198 0 -42 0
-42 34 -38 50 6 128 -23 166 -63 l33 -34 -35 -33 c-20 -18 -49 -60 -66 -94
l-30 -60 46 -31 c71 -46 113 -56 211 -51 93 5 156 29 235 91 l39 31 -6 -85
c-3 -47 -11 -106 -18 -132 -12 -51 -1 -44 -131 -78 -21 -5 -67 -23 -102 -39
-85 -38 -99 -64 -94 -171 3 -70 6 -81 32 -108 15 -16 41 -35 57 -41 16 -7 29
-16 29 -20 0 -20 -170 -253 -343 -471 l-101 -127 -48 42 c-55 46 -98 123 -98
174 0 20 26 92 65 179 87 193 99 241 92 373 -5 108 -20 170 -40 170 -40 -1
-113 -51 -150 -103 -12 -17 -16 -15 -61 30 -51 49 -85 111 -86 151 0 31 -27
28 -82 -8 -80 -53 -109 -110 -151 -298 l-23 -103 -27 39 c-60 92 -75 165 -54
267 33 154 83 244 172 303 l49 33 14 -48 c42 -148 234 -192 350 -80 45 44 57
94 38 161 -19 66 -46 101 -99 128 -83 42 -233 31 -345 -26 -252 -128 -360
-369 -293 -651 11 -44 18 -82 15 -84 -2 -2 -19 28 -38 68 -39 81 -52 159 -61
369 -7 149 -25 215 -79 297 -38 58 -79 85 -104 69 -13 -9 -18 -31 -22 -97 -3
-47 -8 -89 -12 -92 -9 -9 -34 32 -97 155 -67 131 -79 175 -89 329 -11 149 -21
174 -66 153 -28 -13 -41 -60 -57 -216 -37 -356 96 -700 374 -962 46 -43 197
-167 336 -274 139 -107 262 -203 274 -213 13 -10 -10 -4 -58 16 -179 76 -317
115 -589 167 -138 26 -228 65 -335 142 -108 79 -169 103 -318 127 -66 10 -134
26 -151 35 -42 22 -73 65 -121 168 -39 85 -65 113 -94 102 -24 -9 -27 -42 -13
-123 23 -130 98 -258 184 -312 26 -16 82 -41 124 -54 72 -23 278 -63 337 -66
l26 -2 -25 -4 c-14 -2 -81 -13 -150 -24 -153 -25 -306 -75 -419 -135 l-85 -45
-74 12 c-264 43 -619 -77 -751 -254 -56 -75 -75 -117 -141 -313 -32 -97 -71
-194 -87 -216 -56 -82 -192 -167 -328 -205 -56 -16 -58 -18 -30 -24 59 -13
216 -9 288 7 246 55 478 264 627 564 69 139 179 256 295 313 101 50 105 45 29
-35 -195 -206 -272 -480 -208 -741 8 -32 14 -62 14 -66 0 -5 -57 -11 -127 -14
-422 -19 -877 -251 -1112 -567 -130 -174 -229 -432 -248 -647 l-7 -78 -8 60
c-9 76 5 233 33 361 11 54 57 207 100 339 141 426 171 561 171 770 -1 243 -71
396 -239 515 -23 17 -47 30 -53 30 -20 0 -2 -49 45 -127 67 -110 104 -239 105
-364 0 -73 -29 -200 -61 -265 l-20 -43 -42 20 c-84 38 -173 19 -252 -52 -86
-79 -144 -218 -160 -379 -21 -215 124 -442 266 -413 34 7 33 19 19 -166 -7
-82 -8 -173 -3 -228 6 -67 6 -93 -2 -93 -21 0 -104 61 -138 101 -19 21 -67
100 -108 175 -84 155 -163 250 -243 292 -47 25 -60 27 -166 27 -96 0 -126 -4
-180 -24 -77 -28 -164 -70 -157 -77 2 -2 30 2 63 11 74 19 117 19 183 -1 101
-30 158 -105 232 -308 38 -105 90 -179 162 -232 85 -63 141 -79 273 -79 l111
0 17 -62 c9 -34 16 -64 16 -66 0 -3 -28 6 -62 19 -92 36 -247 80 -378 106
-100 20 -145 23 -350 23 -208 0 -249 -3 -355 -24 -316 -63 -637 -224 -857
-430 -237 -222 -357 -482 -384 -832 -5 -72 -4 -88 10 -102 41 -40 72 -11 86
78 16 108 58 243 98 320 42 80 139 188 192 215 l37 19 -13 -37 c-19 -54 -17
-131 6 -203 32 -102 32 -102 84 0 115 228 215 361 430 576 182 181 236 220
378 275 42 16 121 37 175 46 118 21 397 24 428 6 20 -11 20 -11 -2 -12 -28 0
-184 -55 -248 -87 -190 -95 -359 -273 -410 -431 -22 -70 -17 -161 12 -200 54
-72 153 -87 257 -39 62 29 183 122 209 160 14 21 14 21 36 -20 26 -53 86 -113
110 -113 12 0 29 17 46 46 36 61 143 173 210 219 48 34 55 43 65 88 21 97 32
240 22 285 -6 23 -8 42 -7 42 9 0 164 -60 198 -76 30 -14 39 -26 48 -58 36
-141 30 -131 82 -134 26 -2 47 1 47 6 0 4 -7 30 -16 56 -9 26 -14 50 -11 52 6
6 124 -58 159 -86 l22 -18 -50 -58 c-103 -120 -253 -318 -348 -459 -26 -37
-33 -41 -115 -61 -48 -12 -107 -30 -130 -40 l-43 -19 69 -1 c37 0 81 -6 96
-12 l28 -12 -19 -28 c-94 -132 -306 -534 -413 -785 -578 -1344 -596 -2867 -51
-4227 140 -351 335 -720 543 -1031 l58 -87 -71 -32 c-54 -25 -90 -34 -145 -38
-41 -3 -71 -8 -66 -12 26 -25 156 -52 268 -57 l120 -6 46 -61 c26 -33 63 -82
84 -108 l37 -48 -30 -48 c-61 -94 -108 -208 -158 -383 -3 -9 -12 -19 -22 -22
-9 -3 -61 -21 -115 -41 l-99 -36 7 47 c8 62 -18 245 -45 312 -55 141 -186 271
-272 271 -36 0 -85 -35 -124 -89 l-35 -50 -67 55 c-162 133 -323 162 -408 73
-27 -28 -29 -36 -29 -103 0 -62 5 -81 35 -142 86 -172 340 -352 570 -404 91
-21 87 -27 -22 -34 -126 -9 -343 8 -447 35 -98 25 -240 93 -315 153 -102 79
-293 264 -362 349 -77 96 -180 249 -219 327 l-28 55 -25 -54 c-32 -69 -40
-163 -19 -214 9 -20 14 -37 11 -37 -21 0 -103 62 -150 113 -87 93 -136 208
-181 421 -10 49 -32 64 -67 48 -32 -14 -33 -38 -10 -191 47 -321 209 -568 500
-763 331 -222 664 -322 1079 -322 256 0 490 38 722 118 81 27 81 27 54 -49
l-17 -49 -95 3 c-146 4 -246 -29 -335 -111 -55 -51 -73 -79 -128 -208 -56
-127 -85 -172 -137 -210 -59 -42 -135 -56 -232 -41 -43 7 -86 15 -95 18 -15 4
-15 3 -2 -6 39 -28 166 -72 250 -86 224 -39 349 32 495 281 74 126 143 204
213 242 l43 24 -3 -129 c-2 -70 1 -173 5 -228 l8 -100 -59 0 c-48 0 -66 -5
-100 -28 -125 -87 -171 -290 -108 -482 53 -164 151 -259 280 -272 40 -4 64 -1
100 16 l47 20 24 -52 c80 -175 69 -372 -30 -528 -53 -83 -79 -138 -71 -146 12
-12 77 29 142 89 110 103 157 227 156 413 -1 179 -36 330 -139 605 -77 204
-121 338 -139 422 -22 105 -34 244 -25 308 l7 55 7 -75 c25 -253 153 -508 349
-696 240 -229 648 -396 1011 -411 70 -3 127 -8 127 -10 0 -3 -7 -33 -16 -67
-21 -75 -23 -231 -5 -306 33 -137 109 -266 214 -368 36 -34 59 -62 52 -62 -7
0 -50 19 -96 42 -99 49 -217 160 -263 248 -132 249 -312 424 -526 509 -98 39
-247 58 -350 45 l-75 -10 73 -23 c149 -46 272 -125 323 -208 11 -18 43 -94 70
-169 64 -177 101 -247 169 -314 151 -151 499 -246 738 -200 49 9 55 7 144 -35
148 -69 346 -120 538 -138 50 -4 22 -12 -110 -31 -287 -42 -386 -96 -465 -254
-34 -69 -59 -185 -45 -212 13 -24 43 -26 65 -4 9 9 33 51 55 94 37 74 89 132
127 144 10 3 75 14 145 25 156 25 202 43 309 114 110 74 217 112 403 143 181
30 334 69 476 123 57 22 105 39 107 37 1 -1 -124 -92 -278 -201 -384 -270
-507 -390 -614 -596 -50 -97 -90 -236 -100 -354 -7 -85 7 -255 28 -327 11 -38
17 -43 44 -46 40 -4 49 13 52 93 5 141 20 208 64 295 54 108 109 191 122 187
5 -2 12 -39 15 -83 l5 -79 30 -3 c24 -2 38 5 67 35 76 79 107 187 108 378 0
87 22 192 52 251 37 76 48 73 27 -8 -50 -193 -2 -372 132 -492 94 -84 267
-155 380 -156 56 0 136 28 174 61 39 35 69 115 58 158 -19 79 -92 125 -199
126 -61 0 -77 -4 -120 -30 -38 -24 -53 -41 -68 -80 -11 -28 -21 -52 -23 -54
-1 -2 -22 8 -46 22 -51 30 -98 81 -126 136 -22 42 -61 182 -61 218 0 36 30
115 62 162 l30 43 29 -111 c33 -128 54 -174 101 -217 86 -80 118 -84 136 -18
9 34 27 60 68 100 l55 54 42 -44 c42 -44 120 -78 137 -59 14 15 30 112 30 182
0 89 -19 149 -96 308 -35 73 -64 145 -64 159 0 44 41 113 93 156 47 40 48 40
68 22 62 -56 429 -504 429 -524 0 -3 -21 -16 -47 -30 -59 -31 -73 -57 -73
-141 0 -51 5 -72 20 -91 24 -31 95 -63 208 -91 86 -22 87 -23 100 -62 17 -53
28 -195 15 -195 -6 0 -16 7 -23 15 -39 47 -170 95 -260 95 -89 0 -230 -51
-230 -83 0 -24 60 -116 92 -140 l32 -26 -19 -21 c-32 -35 -94 -62 -158 -68
l-59 -5 4 -47 c6 -60 36 -102 93 -130 47 -23 176 -44 207 -34 51 16 0 -23
-172 -130 -192 -120 -210 -137 -175 -166 13 -11 34 -9 116 8 228 49 400 156
504 312 118 178 169 396 134 574 -7 31 -10 58 -8 60 2 1 37 1 77 -2 l72 -4 0
-362 0 -361 -50 -12 c-75 -18 -120 -43 -172 -95 -50 -49 -90 -125 -107 -199
-12 -51 -36 -112 -58 -146 l-16 -24 -13 38 c-26 75 -101 110 -167 78 -70 -33
-91 -109 -49 -177 41 -66 159 -75 242 -19 57 38 101 105 150 226 50 125 89
167 169 184 82 18 78 22 86 -88 9 -124 4 -144 -49 -216 -98 -130 -100 -245 -8
-446 38 -82 69 -168 93 -259 l12 -45 26 80 c15 44 50 132 79 196 88 198 89
303 7 465 -50 96 -52 111 -47 257 l2 68 38 -7 c106 -19 145 -54 187 -166 79
-209 151 -282 280 -283 73 0 110 20 132 73 38 91 -36 186 -131 168 -43 -8 -96
-65 -96 -104 l-1 -27 -24 28 c-14 16 -38 71 -56 130 -38 124 -63 170 -124 226
-48 45 -90 66 -165 86 l-45 11 -3 361 -2 361 77 9 c43 6 79 9 81 8 2 -2 -2
-23 -9 -46 -7 -24 -13 -96 -12 -159 0 -104 3 -124 33 -210 43 -124 78 -193
136 -266 111 -139 257 -225 464 -273 51 -13 103 -20 116 -17 26 7 39 33 23 52
-6 7 -91 63 -190 124 -98 61 -180 114 -183 118 -2 4 26 8 62 9 98 3 155 20
201 59 39 34 61 80 61 132 0 19 -5 22 -44 22 -59 0 -125 25 -163 62 l-32 31
31 25 c17 15 46 50 65 80 40 63 38 68 -43 108 -126 61 -309 34 -424 -63 l-33
-28 6 72 c3 40 13 98 22 130 l16 58 77 18 c89 20 188 64 217 97 16 18 20 36
19 91 0 62 -4 73 -28 98 -16 16 -41 35 -57 41 -16 7 -29 17 -29 22 0 27 418
538 441 538 16 0 108 -93 123 -124 28 -58 21 -98 -38 -216 -30 -60 -67 -144
-81 -187 -24 -69 -27 -88 -22 -164 3 -47 13 -103 21 -124 14 -33 19 -37 43
-30 41 10 111 53 123 75 16 30 31 25 82 -27 52 -55 68 -81 68 -116 0 -34 8
-38 48 -21 96 40 139 102 182 260 16 58 31 108 34 111 9 9 64 -84 76 -127 16
-59 7 -141 -25 -227 -33 -86 -64 -132 -118 -171 -63 -45 -76 -44 -92 3 -17 48
-74 101 -124 115 -87 24 -164 6 -226 -54 -41 -39 -45 -46 -45 -92 0 -38 7 -61
29 -96 96 -152 394 -117 592 69 122 116 165 248 135 418 -9 50 -19 101 -22
115 -5 21 -3 20 19 -10 47 -67 68 -160 76 -340 8 -158 9 -168 40 -230 39 -81
86 -130 122 -130 39 0 47 17 45 92 -2 102 11 102 76 -5 90 -147 106 -195 118
-348 11 -137 16 -149 56 -149 33 0 42 19 60 126 20 125 14 305 -15 418 -26 98
-94 243 -153 321 -116 156 -207 233 -580 495 -130 91 -235 166 -233 168 1 2
29 -8 61 -21 143 -59 326 -110 499 -137 221 -36 322 -70 428 -146 90 -65 161
-91 311 -115 183 -30 206 -44 269 -166 52 -101 66 -116 99 -111 32 4 35 60 8
151 -27 87 -72 159 -135 215 -62 54 -181 93 -360 118 -135 18 -182 34 -104 34
131 0 400 70 543 141 78 39 80 39 138 28 83 -16 284 -6 380 20 219 58 356 148
433 286 20 35 60 129 89 210 30 80 66 164 80 185 47 72 222 175 329 195 62 12
51 23 -30 31 -335 31 -632 -154 -851 -532 -76 -131 -167 -221 -277 -273 -112
-53 -116 -50 -35 32 87 87 150 186 187 295 43 126 42 310 -2 423 -5 14 10 17
122 22 358 15 762 176 1010 402 170 154 299 393 342 633 10 56 22 106 26 110
4 4 5 -50 2 -119 -7 -139 -39 -281 -102 -454 -161 -440 -193 -558 -202 -730
-10 -204 36 -347 149 -457 62 -62 135 -105 149 -91 5 5 -6 34 -28 69 -100 163
-123 231 -123 369 1 94 12 149 47 227 l25 57 30 -15 c48 -25 119 -29 176 -10
200 67 315 408 211 624 -49 101 -133 159 -219 150 l-41 -4 8 61 c4 33 8 135 8
226 l0 167 45 -23 c66 -33 136 -115 215 -248 121 -207 223 -280 395 -280 95 0
174 17 286 64 81 34 92 48 23 28 -24 -7 -82 -12 -129 -12 -67 -1 -93 4 -125
20 -64 34 -105 82 -148 173 -21 47 -53 113 -69 147 -74 158 -222 239 -424 231
l-94 -3 -16 50 c-8 28 -17 55 -20 62 -3 7 24 2 73 -13 268 -85 464 -118 718
-118 412 0 753 100 1080 318 105 70 259 215 321 303 110 152 181 354 191 538
5 85 3 102 -11 114 -22 19 -65 6 -70 -22 -49 -232 -97 -351 -184 -447 -54 -61
-162 -129 -147 -94 17 42 26 101 20 134 -8 46 -45 140 -55 140 -5 0 -29 -37
-55 -82 -87 -156 -175 -269 -335 -429 -214 -215 -307 -282 -461 -334 -141 -48
-374 -73 -549 -57 l-85 7 97 27 c243 69 432 195 538 359 125 193 70 349 -119
337 -76 -5 -149 -36 -226 -97 -27 -22 -62 -49 -76 -60 l-26 -20 -31 48 c-76
116 -168 117 -278 4 -108 -111 -170 -284 -163 -456 l4 -84 -25 8 c-86 26 -180
62 -192 72 -8 7 -30 59 -48 117 -31 100 -80 208 -133 294 l-24 39 85 109 86
108 87 0 c102 0 172 12 254 42 l60 23 -80 6 c-59 5 -98 14 -147 37 -38 17 -68
33 -68 37 0 3 31 52 68 108 153 228 312 516 430 777 275 608 428 1212 483
1903 17 224 7 755 -20 982 -63 534 -179 990 -378 1485 -73 182 -262 562 -369
740 -47 79 -88 150 -91 156 -6 16 89 38 140 31 l42 -5 -43 20 c-23 10 -81 29
-128 41 l-86 22 -56 80 c-30 44 -88 124 -129 177 l-73 97 30 70 c33 78 75 207
85 262 5 26 14 40 33 49 35 16 150 60 182 70 l25 7 -3 -91 c-8 -221 81 -448
215 -551 56 -42 100 -52 141 -31 35 18 78 67 100 113 l15 32 73 -68 c175 -164
358 -183 425 -45 26 55 23 120 -12 204 -87 211 -305 390 -573 470 -49 15 -85
29 -80 32 23 14 209 19 314 8 307 -30 437 -95 674 -334 199 -202 310 -351 426
-573 24 -46 46 -83 50 -83 11 0 48 108 55 161 6 40 -3 95 -22 146 -11 29 76
-29 128 -85 88 -96 150 -233 183 -407 10 -49 20 -100 22 -112 5 -27 36 -38 65
-22 21 11 21 16 16 118 -17 338 -159 629 -417 856 -153 134 -397 272 -600 339
-175 57 -301 78 -516 83 -272 7 -455 -20 -712 -106 -98 -34 -142 -44 -138 -34
3 7 13 38 21 68 l16 55 74 -7 c145 -12 275 35 363 132 55 60 77 100 132 245
91 239 191 292 440 234 53 -12 -67 49 -151 77 -69 23 -105 29 -171 29 -101 0
-155 -17 -223 -68 -66 -50 -113 -113 -192 -260 -74 -136 -125 -201 -192 -244
-25 -15 -47 -28 -50 -28 -4 0 -6 80 -6 177 0 98 -3 208 -8 244 l-7 66 55 0
c67 0 119 31 165 98 56 81 74 146 74 270 1 126 -12 191 -60 290 -62 131 -136
193 -242 202 -52 5 -88 -4 -143 -34 -8 -5 -46 88 -64 158 -20 72 -19 223 1
312 17 74 50 150 98 225 15 24 31 54 36 67 23 61 -48 30 -136 -61 -111 -112
-163 -256 -164 -446 0 -194 33 -347 155 -715 123 -373 156 -522 154 -708 0
-96 -12 -79 -29 45 -25 174 -119 407 -224 554 -233 326 -692 564 -1129 583
-65 3 -119 9 -121 12 -2 3 5 40 16 81 16 62 19 97 15 195 -9 216 -78 377 -233
544 -31 34 -53 61 -49 61 5 0 40 -15 79 -34 123 -60 230 -174 306 -326 60
-120 142 -234 234 -326 129 -129 248 -198 393 -229 68 -15 223 -18 278 -6 27
6 26 7 -30 25 -144 45 -283 137 -334 220 -12 19 -48 114 -82 212 -68 204 -114
289 -193 361 -68 63 -203 133 -321 168 -111 32 -280 44 -377 26 l-64 -13 -88
46 c-146 75 -351 134 -533 152 l-68 7 140 22 c140 22 265 54 319 82 90 46 175
167 207 292 23 91 22 149 -3 165 -26 16 -54 -17 -103 -119 -23 -49 -53 -101
-65 -114 -35 -35 -95 -58 -190 -71 -150 -20 -214 -44 -315 -120 -129 -96 -223
-132 -442 -169 -146 -25 -320 -76 -460 -136 -57 -23 -101 -39 -98 -35 2 4 112
90 242 190 258 198 342 269 430 361 259 272 360 593 308 983 -18 133 -41 168
-88 134 -13 -10 -18 -36 -23 -113 -11 -179 -19 -219 -72 -328 -27 -56 -63
-124 -80 -152 l-31 -50 -11 30 c-7 18 -9 52 -5 86 7 59 -7 89 -42 89 -30 0
-99 -84 -128 -156 -26 -63 -29 -84 -36 -245 -8 -194 -29 -299 -75 -373 -19
-30 -24 -34 -20 -16 4 14 13 70 22 125 21 130 8 232 -42 336 -82 170 -297 309
-478 309 -137 0 -236 -89 -236 -212 0 -128 174 -210 300 -142 56 30 84 65 100
123 l11 42 30 -18 c138 -81 233 -328 186 -484 -14 -47 -65 -134 -73 -126 -3 3
-18 56 -33 119 -41 167 -82 237 -163 279 -53 27 -68 25 -68 -11 0 -17 -7 -45
-16 -62 -18 -34 -92 -118 -105 -118 -5 0 -28 19 -51 43 -52 51 -116 76 -135
51 -19 -26 -36 -154 -30 -229 7 -80 34 -162 106 -322 74 -164 67 -226 -37
-327 l-50 -48 -118 148 c-137 173 -324 430 -324 447 0 7 17 21 37 32 52 29 72
61 79 131 8 73 -10 118 -59 151 -34 23 -140 64 -213 83 -35 8 -42 15 -52 47
-16 51 -38 221 -29 229 3 4 22 -7 41 -23 18 -17 60 -43 92 -59 54 -26 69 -29
164 -29 97 0 109 2 158 29 29 16 57 35 63 42 14 18 -43 125 -87 164 l-34 29
25 29 c33 40 116 74 168 71 l42 -3 -1 39 c-1 62 -11 87 -49 127 -42 43 -101
65 -202 76 l-72 7 189 129 c104 71 191 135 194 142 8 22 -4 44 -28 49 -37 10
-217 -43 -316 -92 -80 -39 -110 -62 -186 -137 -76 -77 -98 -106 -137 -186 -26
-52 -61 -140 -78 -195 -28 -90 -31 -113 -32 -230 0 -73 5 -149 12 -174 7 -23
11 -45 8 -47 -2 -2 -37 0 -78 4 l-74 7 0 399 0 399 53 13 c107 28 192 104 242
217 10 23 28 80 40 127 12 47 33 105 48 130 l26 45 6 -37 c14 -82 81 -130 152
-109 100 30 117 185 26 241 -26 17 -45 20 -94 18 -128 -8 -190 -83 -280 -343
-25 -72 -85 -129 -152 -145 -29 -7 -55 -10 -57 -8 -3 2 -6 60 -7 129 l-3 125
47 94 c84 166 84 290 3 495 -26 66 -62 165 -80 220 -30 89 -34 97 -40 70z
m-55 -2394 l0 -109 -47 5 c-126 11 -241 26 -252 32 -9 6 -3 26 24 77 20 38 40
72 43 76 6 6 133 22 210 27 22 1 22 -1 22 -108z m285 94 l70 -7 41 -79 c34
-65 38 -79 25 -83 -25 -8 -170 -25 -236 -28 l-60 -3 -3 108 -3 109 48 -6 c26
-3 80 -8 118 -11z m-636 -42 c-2 -22 -46 -88 -60 -91 -9 -1 -27 6 -40 17 -21
18 -22 21 -9 35 8 8 33 22 55 30 47 17 55 19 54 9z m910 -21 c19 -9 37 -22 39
-29 3 -11 -46 -43 -66 -43 -5 0 -21 23 -37 51 l-28 52 29 -7 c16 -4 45 -15 63
-24z m-814 -196 c44 -8 119 -17 168 -21 l87 -7 0 -240 0 -240 -46 41 c-55 49
-137 81 -221 88 -61 6 -62 5 -69 -21 -3 -15 -4 -52 -2 -82 l5 -54 -77 6 c-97
8 -170 -8 -216 -48 -41 -36 -43 -48 -8 -48 41 0 174 -48 236 -86 98 -60 216
-195 281 -320 l16 -32 -82 -6 c-45 -3 -135 -8 -199 -12 l-116 -6 -28 53 c-54
107 -199 305 -278 378 -14 14 -26 29 -26 34 0 5 51 73 113 151 129 162 231
297 306 409 28 42 57 77 64 77 7 0 48 -6 92 -14z m812 -93 c62 -93 140 -195
364 -481 l42 -52 -62 -64 c-80 -80 -167 -198 -225 -300 -25 -45 -47 -85 -49
-90 -3 -8 -386 10 -395 19 -3 3 17 42 44 87 72 122 187 234 294 287 47 23 113
47 148 53 68 13 76 25 36 57 -48 38 -120 54 -211 48 l-83 -6 6 52 c3 29 1 64
-5 80 -9 24 -16 27 -55 27 -86 0 -186 -42 -258 -108 l-28 -26 0 241 0 241 93
7 c50 4 124 13 162 20 114 21 103 26 182 -92z m-2484 -133 c231 -34 463 -110
667 -217 105 -56 236 -139 276 -175 l22 -19 -72 -108 c-39 -60 -76 -116 -82
-127 -10 -16 -15 -14 -61 29 -30 28 -63 73 -82 111 -87 177 -222 291 -393 331
-85 20 -86 20 -51 -17 42 -45 59 -82 73 -158 17 -97 28 -125 63 -161 l32 -32
-33 7 c-49 9 -84 37 -142 116 -120 162 -257 250 -469 301 -157 37 -165 37
-156 2 11 -46 66 -161 86 -179 27 -24 23 -35 -8 -28 -75 17 -203 59 -246 81
-54 27 -94 27 -111 1 -17 -28 45 -82 159 -138 172 -84 257 -113 930 -319 282
-87 340 -107 338 -117 -2 -5 -10 -42 -19 -81 -18 -83 9 -68 -217 -123 -152
-37 -357 -96 -480 -137 -72 -25 -87 -28 -82 -14 4 9 14 50 22 91 30 142 -6
271 -102 365 -93 92 -216 138 -365 139 -94 0 -111 -2 -166 -28 -119 -54 -177
-145 -178 -277 0 -63 5 -86 28 -132 34 -71 110 -140 178 -163 114 -38 257 0
333 89 33 38 33 38 41 15 12 -38 8 -131 -7 -163 -16 -33 -28 -40 -208 -120
l-124 -54 -57 52 c-151 140 -361 239 -587 277 l-72 12 -15 45 c-81 237 -12
522 174 717 89 93 160 143 284 202 242 112 561 150 879 104z m4476 5 c388 -56
665 -230 797 -501 77 -157 95 -355 47 -509 -16 -52 -23 -60 -48 -66 -17 -4
-74 -17 -127 -29 -165 -37 -305 -101 -434 -198 -44 -33 -89 -71 -102 -84 l-23
-25 -157 68 c-149 63 -158 69 -175 105 -17 39 -20 154 -4 170 4 4 29 -13 55
-38 78 -73 103 -83 212 -83 87 0 100 3 149 30 60 33 122 104 143 162 7 21 13
74 13 118 0 134 -56 220 -181 277 -41 18 -67 22 -159 21 -95 0 -119 -3 -180
-27 -138 -53 -236 -140 -274 -242 -28 -74 -29 -212 -2 -288 l19 -54 -102 34
c-126 43 -419 125 -551 155 -55 12 -105 27 -111 33 -16 15 -47 147 -37 156 10
10 265 92 523 170 420 126 606 192 744 261 113 57 158 94 154 128 -4 38 -37
38 -122 2 -62 -27 -234 -81 -256 -81 -5 0 6 22 25 50 18 27 42 73 53 102 11
29 23 61 27 71 10 25 -18 22 -165 -13 -181 -44 -255 -84 -365 -195 -50 -49
-108 -112 -129 -138 -43 -55 -90 -87 -125 -87 l-24 0 27 21 c37 29 54 66 67
151 13 84 38 138 82 181 l32 29 -39 -7 c-195 -34 -336 -141 -441 -335 -33 -62
-64 -104 -93 -128 -23 -19 -44 -33 -46 -31 -2 2 -20 33 -40 69 -21 36 -55 88
-77 117 -21 29 -39 56 -39 61 0 31 284 199 470 277 311 131 684 184 989 140z
m-3355 -561 c96 -110 214 -293 202 -313 -3 -5 -41 -11 -84 -15 l-79 -7 -94 63
c-52 35 -113 75 -136 88 -24 13 -43 28 -43 34 0 30 139 238 155 233 6 -2 41
-39 79 -83z m1920 -54 c25 -41 47 -82 50 -90 4 -10 -14 -26 -56 -50 -34 -19
-96 -59 -137 -89 l-75 -53 -71 6 c-113 11 -111 8 -74 74 56 99 132 204 199
275 l64 69 27 -34 c16 -18 48 -67 73 -108z m-2133 -261 c41 -17 77 -34 82 -38
4 -4 -36 -15 -88 -25 -53 -10 -97 -17 -99 -15 -3 4 25 109 29 109 2 0 36 -14
76 -31z m2258 -29 c5 -24 8 -46 7 -48 -2 -1 -48 5 -102 15 l-99 18 85 37 c47
20 88 34 92 30 4 -4 11 -27 17 -52z m-508 -123 c360 -43 646 -99 989 -193 30
-9 132 -40 225 -71 730 -238 1394 -611 1990 -1117 174 -147 485 -459 630 -630
508 -600 881 -1288 1098 -2026 287 -973 280 -2076 -18 -3055 -381 -1252 -1206
-2333 -2340 -3067 -597 -386 -1282 -667 -1995 -818 -207 -43 -423 -76 -670
-102 -305 -31 -850 -31 -1151 0 -580 60 -1052 170 -1574 367 -1242 470 -2294
1360 -2948 2495 -1098 1908 -924 4276 442 6020 547 698 1229 1245 2046 1641
617 299 1273 485 1975 559 272 28 261 28 695 25 345 -2 415 -6 606 -28z
m-4012 -169 c31 -54 112 -140 176 -187 75 -55 131 -85 229 -122 l88 -33 -39
-19 -40 -19 -69 47 c-156 108 -324 164 -516 172 l-128 6 30 34 c34 38 34 37
20 64 -16 30 -52 23 -91 -17 -48 -51 -97 -80 -192 -115 -256 -94 -368 -147
-508 -240 -97 -65 -252 -210 -308 -288 -43 -61 -39 -45 16 62 121 233 284 389
550 523 215 109 449 171 653 173 l105 1 24 -42z m7012 22 c365 -63 713 -257
894 -499 62 -82 162 -257 152 -267 -2 -3 -12 7 -22 22 -25 39 -122 142 -185
198 -79 69 -187 140 -298 196 -89 44 -153 71 -349 144 -85 32 -155 77 -184
117 -20 28 -41 35 -73 23 -24 -9 -19 -48 9 -82 l24 -29 -127 -6 c-106 -4 -144
-10 -227 -37 -107 -34 -243 -101 -305 -150 -44 -35 -53 -36 -99 -11 l-34 18
59 19 c186 58 361 188 447 332 l19 32 93 0 c51 0 144 -9 206 -20z m-6692 -54
c109 -44 271 -146 325 -205 17 -19 17 -20 -2 -30 -15 -8 -40 -7 -94 4 -149 29
-286 101 -390 206 -38 37 -68 71 -68 77 0 14 148 -20 229 -52z m6272 46 c-18
-34 -116 -125 -173 -163 -120 -77 -319 -140 -376 -118 l-25 10 34 29 c126 108
291 196 442 235 112 29 110 29 98 7z m-6581 -282 c127 -38 317 -136 308 -160
-2 -5 -66 -47 -143 -93 -121 -73 -143 -83 -165 -75 -14 5 -63 12 -110 15 -256
17 -535 -128 -643 -335 -48 -90 -77 -200 -77 -287 l0 -71 -97 -95 c-54 -51
-138 -137 -188 -190 l-90 -96 -115 63 c-63 35 -120 64 -127 64 -6 0 -14 8 -17
18 -9 27 -27 213 -21 222 2 4 26 9 52 12 101 10 179 71 330 260 97 121 149
171 218 206 48 25 36 27 -73 7 -172 -30 -286 -67 -435 -143 -11 -6 48 94 98
163 50 70 167 189 240 244 90 68 224 108 330 98 34 -3 92 -17 130 -31 63 -23
72 -24 92 -10 46 29 21 60 -72 92 -33 11 -85 23 -115 27 l-54 7 79 30 c70 25
218 66 295 81 14 3 86 4 160 2 103 -2 153 -8 210 -25z m7165 -8 c61 -17 139
-41 174 -54 l65 -24 -65 -11 c-36 -6 -92 -22 -125 -34 -49 -20 -59 -28 -62
-51 -5 -46 26 -53 105 -22 136 53 314 34 440 -49 108 -71 281 -267 346 -393
l16 -31 -67 33 c-79 39 -240 86 -367 108 -116 20 -129 20 -77 -4 58 -26 138
-104 238 -232 132 -167 228 -238 322 -238 l44 0 -7 -95 c-11 -148 -3 -137
-147 -212 l-127 -66 -185 189 c-184 188 -185 189 -186 234 -1 85 -37 226 -76
302 -123 235 -442 385 -718 338 l-74 -12 -113 67 c-63 38 -127 76 -143 85
l-29 18 44 32 c69 51 195 108 299 135 85 23 110 25 230 21 110 -3 155 -10 245
-34z m924 -1394 c-25 -84 -56 -163 -63 -163 -12 0 -105 120 -98 126 15 15 157
98 169 98 7 1 5 -19 -8 -61z m-9310 -7385 l71 -82 -67 -39 c-100 -58 -214
-114 -220 -108 -8 8 34 118 80 211 37 76 57 109 62 103 1 -2 34 -40 74 -85z
m9238 -4 c44 -87 90 -215 81 -225 -8 -7 -215 100 -255 132 l-27 21 74 82 c41
44 77 78 81 74 4 -5 25 -42 46 -84z m-8845 -537 c-4 -117 -2 -133 23 -207 34
-102 71 -159 149 -232 123 -116 291 -181 486 -190 102 -4 124 -2 200 20 l84
25 71 -42 c38 -24 94 -56 122 -72 29 -16 53 -32 53 -36 0 -15 -128 -94 -210
-129 -238 -103 -502 -104 -804 -3 l-81 27 70 13 c135 23 205 62 176 98 -18 21
-45 20 -116 -6 -88 -31 -216 -31 -314 1 -139 46 -310 187 -421 347 -53 77 -58
98 -18 72 65 -41 322 -109 463 -122 52 -5 56 -4 30 5 -66 25 -139 86 -235 193
-55 63 -118 130 -141 151 -56 50 -153 95 -207 95 l-44 0 6 53 c4 28 9 72 12
97 3 25 8 51 12 56 4 6 81 47 172 93 91 45 169 87 175 92 6 6 60 -41 150 -131
l141 -140 -4 -128z m8962 193 c3 -16 8 -64 12 -106 l7 -76 -51 -5 c-107 -10
-170 -57 -369 -275 -80 -87 -117 -118 -165 -143 l-63 -32 55 6 c146 18 372 77
453 118 22 11 40 18 42 16 7 -7 -88 -137 -148 -203 -201 -221 -422 -297 -644
-224 -79 26 -107 23 -111 -12 -3 -23 3 -29 52 -48 30 -13 87 -28 128 -35 l73
-13 -101 -31 c-152 -48 -291 -72 -407 -72 -207 0 -423 72 -575 191 l-23 17
127 75 126 74 61 -19 c81 -26 229 -34 321 -18 294 52 494 222 550 467 18 79
20 177 6 237 l-9 39 142 141 142 141 181 -90 c167 -83 182 -92 188 -120z
m-8534 -431 c0 -21 -6 -17 -31 17 l-22 32 26 -18 c15 -9 27 -24 27 -31z m7500
21 c-13 -14 -26 -23 -28 -20 -7 7 29 45 41 45 6 0 0 -11 -13 -25z m-8247 -486
c142 -106 282 -174 536 -261 172 -59 205 -75 250 -122 36 -37 76 -47 99 -24
17 17 15 22 -14 57 l-26 31 64 0 c223 1 469 83 641 214 l43 33 60 -30 59 -30
-81 -18 c-206 -44 -401 -167 -500 -313 l-27 -39 -121 6 c-344 18 -719 159
-954 359 -84 72 -178 189 -231 289 l-44 81 84 -87 c46 -49 119 -114 162 -146z
m9168 163 c-72 -143 -202 -285 -354 -386 -235 -156 -548 -258 -841 -273 l-124
-6 -15 29 c-66 127 -286 270 -489 319 l-91 22 57 33 57 32 27 -25 c123 -115
382 -211 604 -224 l106 -6 -20 -27 c-46 -62 17 -97 76 -42 65 60 81 68 334
157 159 55 260 102 366 167 99 61 221 163 282 234 26 30 48 54 50 54 3 0 -9
-26 -25 -58z m-7351 -369 c-1 -10 -87 -77 -150 -117 -108 -70 -339 -156 -418
-156 l-23 0 22 31 c71 100 310 218 482 238 39 5 75 9 80 10 4 0 7 -2 7 -6z
m5470 -15 c132 -22 291 -100 388 -192 79 -74 71 -80 -67 -45 -151 38 -280 101
-403 197 -32 25 -58 49 -58 53 0 8 31 5 140 -13z m-5122 -131 c57 -53 80 -133
59 -209 l-7 -27 -45 44 c-117 114 -325 115 -443 2 -124 -118 -113 -324 22
-415 76 -51 142 -66 266 -60 234 12 407 132 441 306 14 74 1 180 -31 241 l-19
38 182 -59 c100 -32 277 -82 394 -111 l211 -52 19 -77 c17 -68 17 -77 3 -81
-8 -3 -100 -29 -205 -60 -104 -30 -251 -72 -325 -92 -542 -149 -798 -242 -868
-317 -46 -50 7 -84 74 -50 51 26 187 68 248 77 l49 8 -31 -39 c-30 -37 -82
-143 -82 -166 0 -15 89 -4 210 27 180 46 264 96 397 240 101 110 116 121 169
130 l39 6 -32 -21 c-35 -23 -55 -65 -73 -155 -15 -74 -23 -90 -68 -137 -42
-44 -36 -46 68 -17 161 44 285 143 372 294 32 56 59 90 91 113 l46 33 16 -30
c8 -17 45 -70 81 -117 35 -48 63 -88 62 -89 -2 -2 -34 -23 -73 -47 -341 -219
-747 -338 -1152 -338 -544 0 -930 194 -1067 535 -52 129 -57 264 -15 392 l20
62 47 6 c142 20 301 69 425 131 60 31 185 118 240 168 l37 34 113 -50 c61 -27
122 -60 135 -71z m5042 -14 c117 -80 284 -147 440 -178 154 -30 143 -24 164
-85 27 -82 32 -211 11 -305 -85 -386 -503 -625 -1090 -625 -344 0 -660 77
-979 237 -99 50 -246 141 -246 152 0 4 24 39 53 77 30 38 65 88 79 112 l25 42
40 -29 c46 -34 65 -57 113 -142 84 -149 245 -257 425 -284 l40 -6 -28 21 c-39
31 -74 97 -83 155 -10 73 -32 122 -68 150 -23 19 -27 25 -13 25 42 0 87 -32
166 -119 87 -95 169 -160 256 -203 60 -30 226 -74 313 -84 l63 -7 -21 54 c-12
30 -37 78 -56 108 l-36 53 44 -7 c59 -10 183 -48 247 -76 58 -25 83 -19 89 19
6 41 -145 120 -372 197 -95 31 -282 87 -491 144 -247 69 -545 155 -554 161 -8
4 -5 29 8 81 17 67 22 75 47 81 16 4 97 24 179 44 149 36 476 133 541 160 19
8 34 13 34 12 0 -2 -11 -30 -25 -63 -31 -75 -34 -194 -8 -269 28 -77 101 -149
198 -196 102 -50 173 -63 297 -58 78 4 107 10 151 32 173 84 209 303 73 439
-56 56 -119 81 -213 85 -72 4 -89 1 -140 -23 -32 -14 -75 -42 -95 -62 -21 -20
-41 -34 -44 -30 -4 4 -9 31 -12 61 -3 42 1 65 17 99 31 63 53 79 181 134 l115
49 60 -51 c33 -28 81 -65 105 -82z m-3820 -323 c111 -19 111 -19 20 -56 -46
-19 -85 -34 -87 -34 -2 0 -33 99 -33 107 0 3 8 2 18 -1 9 -3 46 -10 82 -16z
m2275 -12 c-4 -18 -11 -43 -16 -55 l-8 -22 -68 25 c-96 36 -103 41 -73 48 36
9 153 34 163 35 5 1 5 -14 2 -31z m-1898 -44 l52 -6 -16 -32 c-46 -90 -185
-265 -243 -306 -30 -21 -32 -21 -51 -4 -26 24 -129 176 -129 191 0 7 30 28 68
47 37 20 96 56 132 81 54 37 71 44 100 40 19 -2 58 -7 87 -11z m1586 -12 c23
-16 85 -53 137 -82 52 -30 96 -55 98 -56 8 -5 -67 -116 -136 -202 l-18 -23
-87 90 c-79 82 -197 243 -197 269 0 6 26 13 58 17 31 4 62 8 67 10 23 8 39 3
78 -23z m-1206 -18 c89 -4 163 -9 163 -11 0 -11 -37 -73 -70 -118 -107 -145
-275 -250 -431 -271 -27 -4 -49 -10 -49 -14 0 -5 13 -19 29 -33 42 -35 118
-51 216 -45 l82 6 -5 -49 c-2 -26 -1 -60 2 -75 l7 -27 72 7 c80 7 183 49 230
93 l27 27 0 -221 0 -220 -107 -7 c-60 -4 -139 -13 -178 -21 -38 -7 -73 -10
-76 -7 -3 4 -32 42 -63 86 -62 84 -227 283 -338 407 -37 42 -68 80 -68 85 0 4
29 36 64 70 82 79 173 194 227 285 39 65 44 69 72 65 17 -3 104 -8 194 -12z
m969 -101 c46 -70 116 -156 171 -213 91 -93 92 -95 74 -115 -189 -212 -438
-519 -455 -561 -1 -1 -32 4 -71 12 -38 7 -121 16 -182 20 l-113 7 0 218 c0
121 3 219 6 219 4 0 23 -15 44 -34 46 -42 129 -73 213 -82 61 -6 66 -5 77 16
8 14 10 43 7 74 l-5 51 111 0 c115 0 150 9 191 50 25 25 20 32 -28 38 -170 24
-342 139 -456 306 -63 94 -65 91 31 92 69 1 210 9 290 17 11 1 44 -39 95 -115z
m-696 -1024 l0 -101 -67 6 c-184 18 -163 9 -205 86 -21 38 -34 71 -30 73 9 6
162 27 222 31 25 1 53 3 63 4 15 2 17 -9 17 -99z m338 79 c50 -6 92 -15 92
-20 0 -5 -16 -38 -35 -73 -39 -70 -26 -65 -202 -81 l-73 -7 0 95 c0 52 3 98 7
101 6 7 56 4 211 -15z m-712 -83 c14 -25 25 -48 23 -50 -7 -7 -112 40 -116 52
-4 10 40 42 59 43 4 0 19 -20 34 -45z m939 31 c19 -8 35 -20 35 -26 0 -11 -57
-40 -109 -55 l-23 -7 28 51 c16 28 30 51 32 51 1 0 18 -7 37 -14z"/>
</g>
</svg>
